%TF.GenerationSoftware,KiCad,Pcbnew,8.0.1*%
%TF.CreationDate,2024-07-28T14:25:14-07:00*%
%TF.ProjectId,RCS_Hardware,5243535f-4861-4726-9477-6172652e6b69,rev?*%
%TF.SameCoordinates,Original*%
%TF.FileFunction,Profile,NP*%
%FSLAX46Y46*%
G04 Gerber Fmt 4.6, Leading zero omitted, Abs format (unit mm)*
G04 Created by KiCad (PCBNEW 8.0.1) date 2024-07-28 14:25:14*
%MOMM*%
%LPD*%
G01*
G04 APERTURE LIST*
%TA.AperFunction,Profile*%
%ADD10C,0.100000*%
%TD*%
%TA.AperFunction,Profile*%
%ADD11C,0.010000*%
%TD*%
G04 APERTURE END LIST*
D10*
X101600000Y-75404000D02*
X161600000Y-75404000D01*
X161600000Y-127404000D01*
X101600000Y-127404000D01*
X101600000Y-75404000D01*
D11*
%TO.C,J2*%
X159900000Y-94075000D02*
G75*
G02*
X160200000Y-94375000I0J-300000D01*
G01*
X155880000Y-94075000D02*
G75*
G02*
X156180000Y-94375000I0J-300000D01*
G01*
X160200000Y-94375000D02*
G75*
G02*
X159900000Y-94675000I-300000J0D01*
G01*
X158800000Y-94375000D02*
G75*
G02*
X159100000Y-94075000I300000J0D01*
G01*
X156180000Y-94375000D02*
G75*
G02*
X155880000Y-94675000I-300000J0D01*
G01*
X154480000Y-94375000D02*
G75*
G02*
X154780000Y-94075000I300000J0D01*
G01*
X159100000Y-94675000D02*
G75*
G02*
X158800000Y-94375000I0J300000D01*
G01*
X154780000Y-94675000D02*
G75*
G02*
X154480000Y-94375000I0J300000D01*
G01*
X159900000Y-102725000D02*
G75*
G02*
X160200000Y-103025000I0J-300000D01*
G01*
X155880000Y-102725000D02*
G75*
G02*
X156180000Y-103025000I0J-300000D01*
G01*
X160200000Y-103025000D02*
G75*
G02*
X159900000Y-103325000I-300000J0D01*
G01*
X158800000Y-103025000D02*
G75*
G02*
X159100000Y-102725000I300000J0D01*
G01*
X156180000Y-103025000D02*
G75*
G02*
X155880000Y-103325000I-300000J0D01*
G01*
X154480000Y-103025000D02*
G75*
G02*
X154780000Y-102725000I300000J0D01*
G01*
X159100000Y-103325000D02*
G75*
G02*
X158800000Y-103025000I0J300000D01*
G01*
X154780000Y-103325000D02*
G75*
G02*
X154480000Y-103025000I0J300000D01*
G01*
X159100000Y-94075000D02*
X159900000Y-94075000D01*
X154780000Y-94075000D02*
X155880000Y-94075000D01*
X159900000Y-94675000D02*
X159100000Y-94675000D01*
X155880000Y-94675000D02*
X154780000Y-94675000D01*
X159100000Y-102725000D02*
X159900000Y-102725000D01*
X154780000Y-102725000D02*
X155880000Y-102725000D01*
X159900000Y-103325000D02*
X159100000Y-103325000D01*
X155880000Y-103325000D02*
X154780000Y-103325000D01*
%TD*%
M02*
