M48
; DRILL file {KiCad 8.0.1} date 2024-07-28T14:25:35-0700
; FORMAT={-:-/ absolute / metric / decimal}
; #@! TF.CreationDate,2024-07-28T14:25:35-07:00
; #@! TF.GenerationSoftware,Kicad,Pcbnew,8.0.1
; #@! TF.FileFunction,Plated,1,2,PTH
FMAT,2
METRIC
; #@! TA.AperFunction,Plated,PTH,ViaDrill
T1C0.400
; #@! TA.AperFunction,Plated,PTH,ComponentDrill
T2C0.600
; #@! TA.AperFunction,Plated,PTH,ComponentDrill
T3C0.762
; #@! TA.AperFunction,Plated,PTH,ComponentDrill
T4C1.000
; #@! TA.AperFunction,Plated,PTH,ComponentDrill
T5C1.200
%
G90
G05
T1
X107.823Y-98.171
X109.0Y-100.3
X109.0Y-103.378
X110.077Y-116.611
X114.1Y-95.6
X116.2Y-98.6
X116.35Y-108.318
X119.9Y-88.8
X121.0Y-95.75
X121.938Y-81.99
X122.1Y-94.1
X123.0Y-95.75
X124.6Y-84.6
X127.2Y-114.427
X127.7Y-99.7
X130.0Y-95.5
X130.3Y-96.7
X130.3Y-103.2
X130.6Y-114.427
X132.4Y-118.3
X132.532Y-92.868
X132.944Y-123.952
X133.3Y-94.3
X133.784Y-106.415
X134.156Y-108.966
X134.225Y-104.7
X135.2Y-91.3
X136.144Y-83.82
X136.95Y-108.966
X136.972Y-84.709
X137.0Y-114.25
X137.697Y-92.921
X137.7Y-87.0
X138.02Y-110.446
X138.95Y-94.45
X139.0Y-109.0
X139.9Y-92.3
X140.8Y-91.3
X141.1Y-81.7
X141.4Y-103.2
X142.0Y-94.6
X142.1Y-82.8
X142.1Y-83.8
X145.1Y-97.0
X145.1Y-99.2
X146.6Y-94.1
X149.9Y-96.0
X149.9Y-117.75
X150.3Y-101.0
X150.7Y-119.6
X151.5Y-93.2
X151.956Y-82.894
X153.4Y-95.5
X153.4Y-101.9
T2
X155.33Y-94.375
X155.33Y-103.025
X159.5Y-94.375
X159.5Y-103.025
T3
X146.558Y-107.95
X146.558Y-110.49
X146.558Y-113.03
X146.558Y-115.57
X154.178Y-107.95
X154.178Y-110.49
X154.178Y-113.03
X154.178Y-115.57
T4
X104.6Y-96.62
X104.6Y-99.16
X104.6Y-101.7
X104.6Y-104.24
X111.887Y-79.248
X114.427Y-79.248
X116.967Y-79.248
X119.507Y-79.248
X122.047Y-79.248
X124.587Y-79.248
X127.127Y-79.248
X129.667Y-79.248
X133.545Y-79.248
X135.433Y-124.0
X136.085Y-79.248
X137.973Y-124.0
X138.625Y-79.248
X140.513Y-124.0
X141.165Y-79.248
X143.053Y-124.0
X143.705Y-79.248
X145.593Y-124.0
X146.245Y-79.248
X148.133Y-124.0
X148.785Y-79.248
X150.673Y-124.0
X151.325Y-79.248
X158.75Y-107.696
X158.75Y-110.236
X158.75Y-112.776
X158.75Y-115.316
X158.75Y-117.856
T5
X126.444Y-124.0
X130.6Y-124.0
M30
