%TF.GenerationSoftware,KiCad,Pcbnew,8.0.1*%
%TF.CreationDate,2024-07-28T14:25:14-07:00*%
%TF.ProjectId,RCS_Hardware,5243535f-4861-4726-9477-6172652e6b69,rev?*%
%TF.SameCoordinates,Original*%
%TF.FileFunction,Paste,Top*%
%TF.FilePolarity,Positive*%
%FSLAX46Y46*%
G04 Gerber Fmt 4.6, Leading zero omitted, Abs format (unit mm)*
G04 Created by KiCad (PCBNEW 8.0.1) date 2024-07-28 14:25:14*
%MOMM*%
%LPD*%
G01*
G04 APERTURE LIST*
G04 Aperture macros list*
%AMRoundRect*
0 Rectangle with rounded corners*
0 $1 Rounding radius*
0 $2 $3 $4 $5 $6 $7 $8 $9 X,Y pos of 4 corners*
0 Add a 4 corners polygon primitive as box body*
4,1,4,$2,$3,$4,$5,$6,$7,$8,$9,$2,$3,0*
0 Add four circle primitives for the rounded corners*
1,1,$1+$1,$2,$3*
1,1,$1+$1,$4,$5*
1,1,$1+$1,$6,$7*
1,1,$1+$1,$8,$9*
0 Add four rect primitives between the rounded corners*
20,1,$1+$1,$2,$3,$4,$5,0*
20,1,$1+$1,$4,$5,$6,$7,0*
20,1,$1+$1,$6,$7,$8,$9,0*
20,1,$1+$1,$8,$9,$2,$3,0*%
G04 Aperture macros list end*
%ADD10RoundRect,0.140000X0.170000X-0.140000X0.170000X0.140000X-0.170000X0.140000X-0.170000X-0.140000X0*%
%ADD11RoundRect,0.140000X0.140000X0.170000X-0.140000X0.170000X-0.140000X-0.170000X0.140000X-0.170000X0*%
%ADD12RoundRect,0.218750X-0.218750X-0.256250X0.218750X-0.256250X0.218750X0.256250X-0.218750X0.256250X0*%
%ADD13RoundRect,0.075000X-0.350000X-0.075000X0.350000X-0.075000X0.350000X0.075000X-0.350000X0.075000X0*%
%ADD14RoundRect,0.075000X0.075000X-0.350000X0.075000X0.350000X-0.075000X0.350000X-0.075000X-0.350000X0*%
%ADD15RoundRect,0.140000X-0.170000X0.140000X-0.170000X-0.140000X0.170000X-0.140000X0.170000X0.140000X0*%
%ADD16R,1.140000X0.300000*%
%ADD17R,1.140000X0.600000*%
%ADD18R,1.200000X1.400000*%
%ADD19RoundRect,0.140000X-0.140000X-0.170000X0.140000X-0.170000X0.140000X0.170000X-0.140000X0.170000X0*%
%ADD20RoundRect,0.135000X-0.185000X0.135000X-0.185000X-0.135000X0.185000X-0.135000X0.185000X0.135000X0*%
%ADD21RoundRect,0.150000X0.650000X0.150000X-0.650000X0.150000X-0.650000X-0.150000X0.650000X-0.150000X0*%
%ADD22RoundRect,0.135000X0.185000X-0.135000X0.185000X0.135000X-0.185000X0.135000X-0.185000X-0.135000X0*%
%ADD23RoundRect,0.250000X0.475000X-0.250000X0.475000X0.250000X-0.475000X0.250000X-0.475000X-0.250000X0*%
%ADD24RoundRect,0.135000X0.135000X0.185000X-0.135000X0.185000X-0.135000X-0.185000X0.135000X-0.185000X0*%
%ADD25RoundRect,0.135000X-0.135000X-0.185000X0.135000X-0.185000X0.135000X0.185000X-0.135000X0.185000X0*%
%ADD26RoundRect,0.250000X-0.315000X-0.315000X0.315000X-0.315000X0.315000X0.315000X-0.315000X0.315000X0*%
%ADD27RoundRect,0.062500X-0.375000X-0.062500X0.375000X-0.062500X0.375000X0.062500X-0.375000X0.062500X0*%
%ADD28RoundRect,0.062500X-0.062500X-0.375000X0.062500X-0.375000X0.062500X0.375000X-0.062500X0.375000X0*%
%ADD29R,1.000000X1.800000*%
%ADD30R,2.000000X1.500000*%
%ADD31R,2.000000X3.800000*%
%ADD32RoundRect,0.218750X0.256250X-0.218750X0.256250X0.218750X-0.256250X0.218750X-0.256250X-0.218750X0*%
%ADD33R,0.254000X0.675000*%
%ADD34R,0.675000X0.254000*%
G04 APERTURE END LIST*
D10*
%TO.C,C3*%
X128700000Y-100660000D03*
X128700000Y-99700000D03*
%TD*%
D11*
%TO.C,C24*%
X149514600Y-90844200D03*
X148554600Y-90844200D03*
%TD*%
%TO.C,C16*%
X116233200Y-95568700D03*
X115273200Y-95568700D03*
%TD*%
D12*
%TO.C,D3*%
X143500000Y-88400000D03*
X145075000Y-88400000D03*
%TD*%
D13*
%TO.C,U6*%
X148316400Y-86329200D03*
X148316400Y-86829200D03*
X148316400Y-87329200D03*
X148316400Y-87829200D03*
X148316400Y-88329200D03*
X148316400Y-88829200D03*
D14*
X149016400Y-89529200D03*
X149516400Y-89529200D03*
X150016400Y-89529200D03*
X150516400Y-89529200D03*
X151016400Y-89529200D03*
X151516400Y-89529200D03*
D13*
X152216400Y-88829200D03*
X152216400Y-88329200D03*
X152216400Y-87829200D03*
X152216400Y-87329200D03*
X152216400Y-86829200D03*
X152216400Y-86329200D03*
D14*
X151516400Y-85629200D03*
X151016400Y-85629200D03*
X150516400Y-85629200D03*
X150016400Y-85629200D03*
X149516400Y-85629200D03*
X149016400Y-85629200D03*
%TD*%
D15*
%TO.C,C15*%
X113213200Y-89881700D03*
X113213200Y-90841700D03*
%TD*%
%TO.C,C7*%
X142000000Y-95820000D03*
X142000000Y-96780000D03*
%TD*%
D16*
%TO.C,J2*%
X154750000Y-100450000D03*
X154750000Y-99450000D03*
X154750000Y-97950000D03*
X154750000Y-96950000D03*
D17*
X154750000Y-96300000D03*
X154750000Y-95500000D03*
D16*
X154750000Y-97450000D03*
X154750000Y-98450000D03*
X154750000Y-98950000D03*
X154750000Y-99950000D03*
D17*
X154750000Y-101100000D03*
X154750000Y-101900000D03*
%TD*%
D18*
%TO.C,Y1*%
X124532800Y-97858800D03*
X124532800Y-100058800D03*
X126232800Y-100058800D03*
X126232800Y-97858800D03*
%TD*%
D19*
%TO.C,C18*%
X115781200Y-88837700D03*
X116741200Y-88837700D03*
%TD*%
D20*
%TO.C,R2*%
X151200000Y-96000000D03*
X151200000Y-97020000D03*
%TD*%
D15*
%TO.C,C23*%
X145034000Y-111280000D03*
X145034000Y-112240000D03*
%TD*%
D21*
%TO.C,U5*%
X139788000Y-114427000D03*
X139788000Y-113157000D03*
X139788000Y-111887000D03*
X139788000Y-110617000D03*
X132588000Y-110617000D03*
X132588000Y-111887000D03*
X132588000Y-113157000D03*
X132588000Y-114427000D03*
%TD*%
D19*
%TO.C,C8*%
X134239000Y-94341200D03*
X135199000Y-94341200D03*
%TD*%
D22*
%TO.C,R1*%
X151384000Y-100967000D03*
X151384000Y-99947000D03*
%TD*%
D23*
%TO.C,C13*%
X113350000Y-115400000D03*
X113350000Y-113500000D03*
%TD*%
D24*
%TO.C,R9*%
X142107500Y-88400000D03*
X141087500Y-88400000D03*
%TD*%
D15*
%TO.C,C25*%
X153555800Y-87875000D03*
X153555800Y-88835000D03*
%TD*%
D25*
%TO.C,R4*%
X115243200Y-96838700D03*
X116263200Y-96838700D03*
%TD*%
D15*
%TO.C,C20*%
X132378000Y-116106000D03*
X132378000Y-117066000D03*
%TD*%
D26*
%TO.C,U1*%
X135122000Y-97101200D03*
X135122000Y-98501200D03*
X135122000Y-99901200D03*
X135122000Y-101301200D03*
X136522000Y-97101200D03*
X136522000Y-98501200D03*
X136522000Y-99901200D03*
X136522000Y-101301200D03*
X137922000Y-97101200D03*
X137922000Y-98501200D03*
X137922000Y-99901200D03*
X137922000Y-101301200D03*
X139322000Y-97101200D03*
X139322000Y-98501200D03*
X139322000Y-99901200D03*
X139322000Y-101301200D03*
D27*
X133784500Y-96451200D03*
X133784500Y-96951200D03*
X133784500Y-97451200D03*
X133784500Y-97951200D03*
X133784500Y-98451200D03*
X133784500Y-98951200D03*
X133784500Y-99451200D03*
X133784500Y-99951200D03*
X133784500Y-100451200D03*
X133784500Y-100951200D03*
X133784500Y-101451200D03*
X133784500Y-101951200D03*
D28*
X134472000Y-102638700D03*
X134972000Y-102638700D03*
X135472000Y-102638700D03*
X135972000Y-102638700D03*
X136472000Y-102638700D03*
X136972000Y-102638700D03*
X137472000Y-102638700D03*
X137972000Y-102638700D03*
X138472000Y-102638700D03*
X138972000Y-102638700D03*
X139472000Y-102638700D03*
X139972000Y-102638700D03*
D27*
X140659500Y-101951200D03*
X140659500Y-101451200D03*
X140659500Y-100951200D03*
X140659500Y-100451200D03*
X140659500Y-99951200D03*
X140659500Y-99451200D03*
X140659500Y-98951200D03*
X140659500Y-98451200D03*
X140659500Y-97951200D03*
X140659500Y-97451200D03*
X140659500Y-96951200D03*
X140659500Y-96451200D03*
D28*
X139972000Y-95763700D03*
X139472000Y-95763700D03*
X138972000Y-95763700D03*
X138472000Y-95763700D03*
X137972000Y-95763700D03*
X137472000Y-95763700D03*
X136972000Y-95763700D03*
X136472000Y-95763700D03*
X135972000Y-95763700D03*
X135472000Y-95763700D03*
X134972000Y-95763700D03*
X134472000Y-95763700D03*
%TD*%
D29*
%TO.C,Y2*%
X115265200Y-86932700D03*
X117765200Y-86932700D03*
%TD*%
D30*
%TO.C,U2*%
X116350000Y-110450000D03*
X116350000Y-112750000D03*
D31*
X122650000Y-112750000D03*
D30*
X116350000Y-115050000D03*
%TD*%
D23*
%TO.C,C14*%
X113350000Y-111550000D03*
X113350000Y-109650000D03*
%TD*%
D19*
%TO.C,C21*%
X150510400Y-90844200D03*
X151470400Y-90844200D03*
%TD*%
D10*
%TO.C,C5*%
X131532000Y-96459200D03*
X131532000Y-95499200D03*
%TD*%
D20*
%TO.C,R3*%
X110077000Y-114449800D03*
X110077000Y-115469800D03*
%TD*%
D24*
%TO.C,R8*%
X142107500Y-86368000D03*
X141087500Y-86368000D03*
%TD*%
D19*
%TO.C,C17*%
X117813200Y-88837700D03*
X118773200Y-88837700D03*
%TD*%
D11*
%TO.C,C1*%
X131680000Y-100100000D03*
X130720000Y-100100000D03*
%TD*%
D19*
%TO.C,C4*%
X134239000Y-93058200D03*
X135199000Y-93058200D03*
%TD*%
D15*
%TO.C,C6*%
X140500000Y-104020000D03*
X140500000Y-104980000D03*
%TD*%
D10*
%TO.C,C2*%
X128176800Y-98422800D03*
X128176800Y-97462800D03*
%TD*%
%TO.C,C10*%
X131708000Y-102104000D03*
X131708000Y-101144000D03*
%TD*%
D32*
%TO.C,D1*%
X109975400Y-113105700D03*
X109975400Y-111530700D03*
%TD*%
D19*
%TO.C,C22*%
X151018400Y-84265600D03*
X151978400Y-84265600D03*
%TD*%
D33*
%TO.C,U4*%
X114793200Y-90996700D03*
D34*
X114655700Y-91909200D03*
X114655700Y-92409200D03*
X114655700Y-92909200D03*
X114655700Y-93409200D03*
D33*
X114793200Y-94321700D03*
X115293200Y-94321700D03*
X115793200Y-94321700D03*
X116293200Y-94321700D03*
X116793200Y-94321700D03*
X117293200Y-94321700D03*
X117793200Y-94321700D03*
X118293200Y-94321700D03*
X118793200Y-94321700D03*
X119293200Y-94321700D03*
D34*
X119430700Y-93409200D03*
X119430700Y-92909200D03*
X119430700Y-92409200D03*
X119430700Y-91909200D03*
D33*
X119293200Y-90996700D03*
X118793200Y-90996700D03*
X118293200Y-90996700D03*
X117793200Y-90996700D03*
X117293200Y-90996700D03*
X116793200Y-90996700D03*
X116293200Y-90996700D03*
X115793200Y-90996700D03*
X115293200Y-90996700D03*
%TD*%
D10*
%TO.C,C12*%
X140500000Y-107180000D03*
X140500000Y-106220000D03*
%TD*%
D12*
%TO.C,D2*%
X143500000Y-86368000D03*
X145075000Y-86368000D03*
%TD*%
D10*
%TO.C,C9*%
X130565000Y-102104000D03*
X130565000Y-101144000D03*
%TD*%
D25*
%TO.C,R7*%
X138770000Y-115951000D03*
X139790000Y-115951000D03*
%TD*%
D10*
%TO.C,C11*%
X132532000Y-96459200D03*
X132532000Y-95499200D03*
%TD*%
D12*
%TO.C,FB1*%
X129006500Y-104648000D03*
X130581500Y-104648000D03*
%TD*%
M02*
