%TF.GenerationSoftware,KiCad,Pcbnew,8.0.1*%
%TF.CreationDate,2024-07-28T14:25:14-07:00*%
%TF.ProjectId,RCS_Hardware,5243535f-4861-4726-9477-6172652e6b69,rev?*%
%TF.SameCoordinates,Original*%
%TF.FileFunction,Soldermask,Bot*%
%TF.FilePolarity,Negative*%
%FSLAX46Y46*%
G04 Gerber Fmt 4.6, Leading zero omitted, Abs format (unit mm)*
G04 Created by KiCad (PCBNEW 8.0.1) date 2024-07-28 14:25:14*
%MOMM*%
%LPD*%
G01*
G04 APERTURE LIST*
%ADD10C,0.010000*%
%ADD11R,2.500000X2.500000*%
%ADD12R,1.524000X1.524000*%
%ADD13C,1.524000*%
%ADD14C,3.200000*%
%ADD15C,0.600000*%
%ADD16R,1.700000X1.700000*%
%ADD17O,1.700000X1.700000*%
G04 APERTURE END LIST*
D10*
%TO.C,J2*%
X159926000Y-93876000D02*
X159952000Y-93878000D01*
X159978000Y-93881000D01*
X160004000Y-93886000D01*
X160029000Y-93892000D01*
X160055000Y-93899000D01*
X160079000Y-93908000D01*
X160103000Y-93918000D01*
X160127000Y-93929000D01*
X160150000Y-93942000D01*
X160172000Y-93956000D01*
X160194000Y-93970000D01*
X160215000Y-93986000D01*
X160235000Y-94003000D01*
X160254000Y-94021000D01*
X160272000Y-94040000D01*
X160289000Y-94060000D01*
X160305000Y-94081000D01*
X160319000Y-94103000D01*
X160333000Y-94125000D01*
X160346000Y-94148000D01*
X160357000Y-94172000D01*
X160367000Y-94196000D01*
X160376000Y-94220000D01*
X160383000Y-94246000D01*
X160389000Y-94271000D01*
X160394000Y-94297000D01*
X160397000Y-94323000D01*
X160399000Y-94349000D01*
X160400000Y-94375000D01*
X160399000Y-94401000D01*
X160397000Y-94427000D01*
X160394000Y-94453000D01*
X160389000Y-94479000D01*
X160383000Y-94504000D01*
X160376000Y-94530000D01*
X160367000Y-94554000D01*
X160357000Y-94578000D01*
X160346000Y-94602000D01*
X160333000Y-94625000D01*
X160319000Y-94647000D01*
X160305000Y-94669000D01*
X160289000Y-94690000D01*
X160272000Y-94710000D01*
X160254000Y-94729000D01*
X160235000Y-94747000D01*
X160215000Y-94764000D01*
X160194000Y-94780000D01*
X160172000Y-94794000D01*
X160150000Y-94808000D01*
X160127000Y-94821000D01*
X160103000Y-94832000D01*
X160079000Y-94842000D01*
X160055000Y-94851000D01*
X160029000Y-94858000D01*
X160004000Y-94864000D01*
X159978000Y-94869000D01*
X159952000Y-94872000D01*
X159926000Y-94874000D01*
X159900000Y-94875000D01*
X159100000Y-94875000D01*
X159074000Y-94874000D01*
X159048000Y-94872000D01*
X159022000Y-94869000D01*
X158996000Y-94864000D01*
X158971000Y-94858000D01*
X158945000Y-94851000D01*
X158921000Y-94842000D01*
X158897000Y-94832000D01*
X158873000Y-94821000D01*
X158850000Y-94808000D01*
X158828000Y-94794000D01*
X158806000Y-94780000D01*
X158785000Y-94764000D01*
X158765000Y-94747000D01*
X158746000Y-94729000D01*
X158728000Y-94710000D01*
X158711000Y-94690000D01*
X158695000Y-94669000D01*
X158681000Y-94647000D01*
X158667000Y-94625000D01*
X158654000Y-94602000D01*
X158643000Y-94578000D01*
X158633000Y-94554000D01*
X158624000Y-94530000D01*
X158617000Y-94504000D01*
X158611000Y-94479000D01*
X158606000Y-94453000D01*
X158603000Y-94427000D01*
X158601000Y-94401000D01*
X158600000Y-94375000D01*
X158601000Y-94349000D01*
X158603000Y-94323000D01*
X158606000Y-94297000D01*
X158611000Y-94271000D01*
X158617000Y-94246000D01*
X158624000Y-94220000D01*
X158633000Y-94196000D01*
X158643000Y-94172000D01*
X158654000Y-94148000D01*
X158667000Y-94125000D01*
X158681000Y-94103000D01*
X158695000Y-94081000D01*
X158711000Y-94060000D01*
X158728000Y-94040000D01*
X158746000Y-94021000D01*
X158765000Y-94003000D01*
X158785000Y-93986000D01*
X158806000Y-93970000D01*
X158828000Y-93956000D01*
X158850000Y-93942000D01*
X158873000Y-93929000D01*
X158897000Y-93918000D01*
X158921000Y-93908000D01*
X158945000Y-93899000D01*
X158971000Y-93892000D01*
X158996000Y-93886000D01*
X159022000Y-93881000D01*
X159048000Y-93878000D01*
X159074000Y-93876000D01*
X159100000Y-93875000D01*
X159900000Y-93875000D01*
X159926000Y-93876000D01*
G36*
X159926000Y-93876000D02*
G01*
X159952000Y-93878000D01*
X159978000Y-93881000D01*
X160004000Y-93886000D01*
X160029000Y-93892000D01*
X160055000Y-93899000D01*
X160079000Y-93908000D01*
X160103000Y-93918000D01*
X160127000Y-93929000D01*
X160150000Y-93942000D01*
X160172000Y-93956000D01*
X160194000Y-93970000D01*
X160215000Y-93986000D01*
X160235000Y-94003000D01*
X160254000Y-94021000D01*
X160272000Y-94040000D01*
X160289000Y-94060000D01*
X160305000Y-94081000D01*
X160319000Y-94103000D01*
X160333000Y-94125000D01*
X160346000Y-94148000D01*
X160357000Y-94172000D01*
X160367000Y-94196000D01*
X160376000Y-94220000D01*
X160383000Y-94246000D01*
X160389000Y-94271000D01*
X160394000Y-94297000D01*
X160397000Y-94323000D01*
X160399000Y-94349000D01*
X160400000Y-94375000D01*
X160399000Y-94401000D01*
X160397000Y-94427000D01*
X160394000Y-94453000D01*
X160389000Y-94479000D01*
X160383000Y-94504000D01*
X160376000Y-94530000D01*
X160367000Y-94554000D01*
X160357000Y-94578000D01*
X160346000Y-94602000D01*
X160333000Y-94625000D01*
X160319000Y-94647000D01*
X160305000Y-94669000D01*
X160289000Y-94690000D01*
X160272000Y-94710000D01*
X160254000Y-94729000D01*
X160235000Y-94747000D01*
X160215000Y-94764000D01*
X160194000Y-94780000D01*
X160172000Y-94794000D01*
X160150000Y-94808000D01*
X160127000Y-94821000D01*
X160103000Y-94832000D01*
X160079000Y-94842000D01*
X160055000Y-94851000D01*
X160029000Y-94858000D01*
X160004000Y-94864000D01*
X159978000Y-94869000D01*
X159952000Y-94872000D01*
X159926000Y-94874000D01*
X159900000Y-94875000D01*
X159100000Y-94875000D01*
X159074000Y-94874000D01*
X159048000Y-94872000D01*
X159022000Y-94869000D01*
X158996000Y-94864000D01*
X158971000Y-94858000D01*
X158945000Y-94851000D01*
X158921000Y-94842000D01*
X158897000Y-94832000D01*
X158873000Y-94821000D01*
X158850000Y-94808000D01*
X158828000Y-94794000D01*
X158806000Y-94780000D01*
X158785000Y-94764000D01*
X158765000Y-94747000D01*
X158746000Y-94729000D01*
X158728000Y-94710000D01*
X158711000Y-94690000D01*
X158695000Y-94669000D01*
X158681000Y-94647000D01*
X158667000Y-94625000D01*
X158654000Y-94602000D01*
X158643000Y-94578000D01*
X158633000Y-94554000D01*
X158624000Y-94530000D01*
X158617000Y-94504000D01*
X158611000Y-94479000D01*
X158606000Y-94453000D01*
X158603000Y-94427000D01*
X158601000Y-94401000D01*
X158600000Y-94375000D01*
X158601000Y-94349000D01*
X158603000Y-94323000D01*
X158606000Y-94297000D01*
X158611000Y-94271000D01*
X158617000Y-94246000D01*
X158624000Y-94220000D01*
X158633000Y-94196000D01*
X158643000Y-94172000D01*
X158654000Y-94148000D01*
X158667000Y-94125000D01*
X158681000Y-94103000D01*
X158695000Y-94081000D01*
X158711000Y-94060000D01*
X158728000Y-94040000D01*
X158746000Y-94021000D01*
X158765000Y-94003000D01*
X158785000Y-93986000D01*
X158806000Y-93970000D01*
X158828000Y-93956000D01*
X158850000Y-93942000D01*
X158873000Y-93929000D01*
X158897000Y-93918000D01*
X158921000Y-93908000D01*
X158945000Y-93899000D01*
X158971000Y-93892000D01*
X158996000Y-93886000D01*
X159022000Y-93881000D01*
X159048000Y-93878000D01*
X159074000Y-93876000D01*
X159100000Y-93875000D01*
X159900000Y-93875000D01*
X159926000Y-93876000D01*
G37*
X155906000Y-93876000D02*
X155932000Y-93878000D01*
X155958000Y-93881000D01*
X155984000Y-93886000D01*
X156009000Y-93892000D01*
X156035000Y-93899000D01*
X156059000Y-93908000D01*
X156083000Y-93918000D01*
X156107000Y-93929000D01*
X156130000Y-93942000D01*
X156152000Y-93956000D01*
X156174000Y-93970000D01*
X156195000Y-93986000D01*
X156215000Y-94003000D01*
X156234000Y-94021000D01*
X156252000Y-94040000D01*
X156269000Y-94060000D01*
X156285000Y-94081000D01*
X156299000Y-94103000D01*
X156313000Y-94125000D01*
X156326000Y-94148000D01*
X156337000Y-94172000D01*
X156347000Y-94196000D01*
X156356000Y-94220000D01*
X156363000Y-94246000D01*
X156369000Y-94271000D01*
X156374000Y-94297000D01*
X156377000Y-94323000D01*
X156379000Y-94349000D01*
X156380000Y-94375000D01*
X156379000Y-94405000D01*
X156376000Y-94432000D01*
X156372000Y-94458000D01*
X156367000Y-94484000D01*
X156360000Y-94509000D01*
X156353000Y-94534000D01*
X156343000Y-94559000D01*
X156333000Y-94583000D01*
X156321000Y-94607000D01*
X156308000Y-94630000D01*
X156294000Y-94652000D01*
X156278000Y-94674000D01*
X156262000Y-94695000D01*
X156244000Y-94714000D01*
X156226000Y-94733000D01*
X156206000Y-94751000D01*
X156186000Y-94768000D01*
X156165000Y-94784000D01*
X156143000Y-94798000D01*
X156120000Y-94812000D01*
X156096000Y-94824000D01*
X156072000Y-94835000D01*
X156048000Y-94845000D01*
X156023000Y-94853000D01*
X155997000Y-94860000D01*
X155971000Y-94866000D01*
X155945000Y-94870000D01*
X155919000Y-94873000D01*
X155893000Y-94875000D01*
X155870000Y-94875000D01*
X154770000Y-94875000D01*
X154740000Y-94874000D01*
X154715000Y-94871000D01*
X154689000Y-94868000D01*
X154664000Y-94862000D01*
X154639000Y-94856000D01*
X154614000Y-94848000D01*
X154590000Y-94839000D01*
X154566000Y-94829000D01*
X154543000Y-94817000D01*
X154520000Y-94804000D01*
X154498000Y-94790000D01*
X154477000Y-94775000D01*
X154457000Y-94759000D01*
X154437000Y-94742000D01*
X154419000Y-94724000D01*
X154401000Y-94705000D01*
X154385000Y-94685000D01*
X154369000Y-94664000D01*
X154355000Y-94642000D01*
X154342000Y-94620000D01*
X154330000Y-94597000D01*
X154319000Y-94573000D01*
X154310000Y-94549000D01*
X154302000Y-94525000D01*
X154295000Y-94500000D01*
X154289000Y-94474000D01*
X154285000Y-94449000D01*
X154282000Y-94423000D01*
X154280000Y-94397000D01*
X154280000Y-94375000D01*
X154281000Y-94349000D01*
X154283000Y-94323000D01*
X154286000Y-94297000D01*
X154291000Y-94271000D01*
X154297000Y-94246000D01*
X154304000Y-94220000D01*
X154313000Y-94196000D01*
X154323000Y-94172000D01*
X154334000Y-94148000D01*
X154347000Y-94125000D01*
X154361000Y-94103000D01*
X154375000Y-94081000D01*
X154391000Y-94060000D01*
X154408000Y-94040000D01*
X154426000Y-94021000D01*
X154445000Y-94003000D01*
X154465000Y-93986000D01*
X154486000Y-93970000D01*
X154508000Y-93956000D01*
X154530000Y-93942000D01*
X154553000Y-93929000D01*
X154577000Y-93918000D01*
X154601000Y-93908000D01*
X154625000Y-93899000D01*
X154651000Y-93892000D01*
X154676000Y-93886000D01*
X154702000Y-93881000D01*
X154728000Y-93878000D01*
X154754000Y-93876000D01*
X154780000Y-93875000D01*
X155880000Y-93875000D01*
X155906000Y-93876000D01*
G36*
X155906000Y-93876000D02*
G01*
X155932000Y-93878000D01*
X155958000Y-93881000D01*
X155984000Y-93886000D01*
X156009000Y-93892000D01*
X156035000Y-93899000D01*
X156059000Y-93908000D01*
X156083000Y-93918000D01*
X156107000Y-93929000D01*
X156130000Y-93942000D01*
X156152000Y-93956000D01*
X156174000Y-93970000D01*
X156195000Y-93986000D01*
X156215000Y-94003000D01*
X156234000Y-94021000D01*
X156252000Y-94040000D01*
X156269000Y-94060000D01*
X156285000Y-94081000D01*
X156299000Y-94103000D01*
X156313000Y-94125000D01*
X156326000Y-94148000D01*
X156337000Y-94172000D01*
X156347000Y-94196000D01*
X156356000Y-94220000D01*
X156363000Y-94246000D01*
X156369000Y-94271000D01*
X156374000Y-94297000D01*
X156377000Y-94323000D01*
X156379000Y-94349000D01*
X156380000Y-94375000D01*
X156379000Y-94405000D01*
X156376000Y-94432000D01*
X156372000Y-94458000D01*
X156367000Y-94484000D01*
X156360000Y-94509000D01*
X156353000Y-94534000D01*
X156343000Y-94559000D01*
X156333000Y-94583000D01*
X156321000Y-94607000D01*
X156308000Y-94630000D01*
X156294000Y-94652000D01*
X156278000Y-94674000D01*
X156262000Y-94695000D01*
X156244000Y-94714000D01*
X156226000Y-94733000D01*
X156206000Y-94751000D01*
X156186000Y-94768000D01*
X156165000Y-94784000D01*
X156143000Y-94798000D01*
X156120000Y-94812000D01*
X156096000Y-94824000D01*
X156072000Y-94835000D01*
X156048000Y-94845000D01*
X156023000Y-94853000D01*
X155997000Y-94860000D01*
X155971000Y-94866000D01*
X155945000Y-94870000D01*
X155919000Y-94873000D01*
X155893000Y-94875000D01*
X155870000Y-94875000D01*
X154770000Y-94875000D01*
X154740000Y-94874000D01*
X154715000Y-94871000D01*
X154689000Y-94868000D01*
X154664000Y-94862000D01*
X154639000Y-94856000D01*
X154614000Y-94848000D01*
X154590000Y-94839000D01*
X154566000Y-94829000D01*
X154543000Y-94817000D01*
X154520000Y-94804000D01*
X154498000Y-94790000D01*
X154477000Y-94775000D01*
X154457000Y-94759000D01*
X154437000Y-94742000D01*
X154419000Y-94724000D01*
X154401000Y-94705000D01*
X154385000Y-94685000D01*
X154369000Y-94664000D01*
X154355000Y-94642000D01*
X154342000Y-94620000D01*
X154330000Y-94597000D01*
X154319000Y-94573000D01*
X154310000Y-94549000D01*
X154302000Y-94525000D01*
X154295000Y-94500000D01*
X154289000Y-94474000D01*
X154285000Y-94449000D01*
X154282000Y-94423000D01*
X154280000Y-94397000D01*
X154280000Y-94375000D01*
X154281000Y-94349000D01*
X154283000Y-94323000D01*
X154286000Y-94297000D01*
X154291000Y-94271000D01*
X154297000Y-94246000D01*
X154304000Y-94220000D01*
X154313000Y-94196000D01*
X154323000Y-94172000D01*
X154334000Y-94148000D01*
X154347000Y-94125000D01*
X154361000Y-94103000D01*
X154375000Y-94081000D01*
X154391000Y-94060000D01*
X154408000Y-94040000D01*
X154426000Y-94021000D01*
X154445000Y-94003000D01*
X154465000Y-93986000D01*
X154486000Y-93970000D01*
X154508000Y-93956000D01*
X154530000Y-93942000D01*
X154553000Y-93929000D01*
X154577000Y-93918000D01*
X154601000Y-93908000D01*
X154625000Y-93899000D01*
X154651000Y-93892000D01*
X154676000Y-93886000D01*
X154702000Y-93881000D01*
X154728000Y-93878000D01*
X154754000Y-93876000D01*
X154780000Y-93875000D01*
X155880000Y-93875000D01*
X155906000Y-93876000D01*
G37*
X159926000Y-102526000D02*
X159952000Y-102528000D01*
X159978000Y-102531000D01*
X160004000Y-102536000D01*
X160029000Y-102542000D01*
X160055000Y-102549000D01*
X160079000Y-102558000D01*
X160103000Y-102568000D01*
X160127000Y-102579000D01*
X160150000Y-102592000D01*
X160172000Y-102606000D01*
X160194000Y-102620000D01*
X160215000Y-102636000D01*
X160235000Y-102653000D01*
X160254000Y-102671000D01*
X160272000Y-102690000D01*
X160289000Y-102710000D01*
X160305000Y-102731000D01*
X160319000Y-102753000D01*
X160333000Y-102775000D01*
X160346000Y-102798000D01*
X160357000Y-102822000D01*
X160367000Y-102846000D01*
X160376000Y-102870000D01*
X160383000Y-102896000D01*
X160389000Y-102921000D01*
X160394000Y-102947000D01*
X160397000Y-102973000D01*
X160399000Y-102999000D01*
X160400000Y-103025000D01*
X160399000Y-103051000D01*
X160397000Y-103077000D01*
X160394000Y-103103000D01*
X160389000Y-103129000D01*
X160383000Y-103154000D01*
X160376000Y-103180000D01*
X160367000Y-103204000D01*
X160357000Y-103228000D01*
X160346000Y-103252000D01*
X160333000Y-103275000D01*
X160319000Y-103297000D01*
X160305000Y-103319000D01*
X160289000Y-103340000D01*
X160272000Y-103360000D01*
X160254000Y-103379000D01*
X160235000Y-103397000D01*
X160215000Y-103414000D01*
X160194000Y-103430000D01*
X160172000Y-103444000D01*
X160150000Y-103458000D01*
X160127000Y-103471000D01*
X160103000Y-103482000D01*
X160079000Y-103492000D01*
X160055000Y-103501000D01*
X160029000Y-103508000D01*
X160004000Y-103514000D01*
X159978000Y-103519000D01*
X159952000Y-103522000D01*
X159926000Y-103524000D01*
X159900000Y-103525000D01*
X159100000Y-103525000D01*
X159074000Y-103524000D01*
X159048000Y-103522000D01*
X159022000Y-103519000D01*
X158996000Y-103514000D01*
X158971000Y-103508000D01*
X158945000Y-103501000D01*
X158921000Y-103492000D01*
X158897000Y-103482000D01*
X158873000Y-103471000D01*
X158850000Y-103458000D01*
X158828000Y-103444000D01*
X158806000Y-103430000D01*
X158785000Y-103414000D01*
X158765000Y-103397000D01*
X158746000Y-103379000D01*
X158728000Y-103360000D01*
X158711000Y-103340000D01*
X158695000Y-103319000D01*
X158681000Y-103297000D01*
X158667000Y-103275000D01*
X158654000Y-103252000D01*
X158643000Y-103228000D01*
X158633000Y-103204000D01*
X158624000Y-103180000D01*
X158617000Y-103154000D01*
X158611000Y-103129000D01*
X158606000Y-103103000D01*
X158603000Y-103077000D01*
X158601000Y-103051000D01*
X158600000Y-103025000D01*
X158601000Y-102999000D01*
X158603000Y-102973000D01*
X158606000Y-102947000D01*
X158611000Y-102921000D01*
X158617000Y-102896000D01*
X158624000Y-102870000D01*
X158633000Y-102846000D01*
X158643000Y-102822000D01*
X158654000Y-102798000D01*
X158667000Y-102775000D01*
X158681000Y-102753000D01*
X158695000Y-102731000D01*
X158711000Y-102710000D01*
X158728000Y-102690000D01*
X158746000Y-102671000D01*
X158765000Y-102653000D01*
X158785000Y-102636000D01*
X158806000Y-102620000D01*
X158828000Y-102606000D01*
X158850000Y-102592000D01*
X158873000Y-102579000D01*
X158897000Y-102568000D01*
X158921000Y-102558000D01*
X158945000Y-102549000D01*
X158971000Y-102542000D01*
X158996000Y-102536000D01*
X159022000Y-102531000D01*
X159048000Y-102528000D01*
X159074000Y-102526000D01*
X159100000Y-102525000D01*
X159900000Y-102525000D01*
X159926000Y-102526000D01*
G36*
X159926000Y-102526000D02*
G01*
X159952000Y-102528000D01*
X159978000Y-102531000D01*
X160004000Y-102536000D01*
X160029000Y-102542000D01*
X160055000Y-102549000D01*
X160079000Y-102558000D01*
X160103000Y-102568000D01*
X160127000Y-102579000D01*
X160150000Y-102592000D01*
X160172000Y-102606000D01*
X160194000Y-102620000D01*
X160215000Y-102636000D01*
X160235000Y-102653000D01*
X160254000Y-102671000D01*
X160272000Y-102690000D01*
X160289000Y-102710000D01*
X160305000Y-102731000D01*
X160319000Y-102753000D01*
X160333000Y-102775000D01*
X160346000Y-102798000D01*
X160357000Y-102822000D01*
X160367000Y-102846000D01*
X160376000Y-102870000D01*
X160383000Y-102896000D01*
X160389000Y-102921000D01*
X160394000Y-102947000D01*
X160397000Y-102973000D01*
X160399000Y-102999000D01*
X160400000Y-103025000D01*
X160399000Y-103051000D01*
X160397000Y-103077000D01*
X160394000Y-103103000D01*
X160389000Y-103129000D01*
X160383000Y-103154000D01*
X160376000Y-103180000D01*
X160367000Y-103204000D01*
X160357000Y-103228000D01*
X160346000Y-103252000D01*
X160333000Y-103275000D01*
X160319000Y-103297000D01*
X160305000Y-103319000D01*
X160289000Y-103340000D01*
X160272000Y-103360000D01*
X160254000Y-103379000D01*
X160235000Y-103397000D01*
X160215000Y-103414000D01*
X160194000Y-103430000D01*
X160172000Y-103444000D01*
X160150000Y-103458000D01*
X160127000Y-103471000D01*
X160103000Y-103482000D01*
X160079000Y-103492000D01*
X160055000Y-103501000D01*
X160029000Y-103508000D01*
X160004000Y-103514000D01*
X159978000Y-103519000D01*
X159952000Y-103522000D01*
X159926000Y-103524000D01*
X159900000Y-103525000D01*
X159100000Y-103525000D01*
X159074000Y-103524000D01*
X159048000Y-103522000D01*
X159022000Y-103519000D01*
X158996000Y-103514000D01*
X158971000Y-103508000D01*
X158945000Y-103501000D01*
X158921000Y-103492000D01*
X158897000Y-103482000D01*
X158873000Y-103471000D01*
X158850000Y-103458000D01*
X158828000Y-103444000D01*
X158806000Y-103430000D01*
X158785000Y-103414000D01*
X158765000Y-103397000D01*
X158746000Y-103379000D01*
X158728000Y-103360000D01*
X158711000Y-103340000D01*
X158695000Y-103319000D01*
X158681000Y-103297000D01*
X158667000Y-103275000D01*
X158654000Y-103252000D01*
X158643000Y-103228000D01*
X158633000Y-103204000D01*
X158624000Y-103180000D01*
X158617000Y-103154000D01*
X158611000Y-103129000D01*
X158606000Y-103103000D01*
X158603000Y-103077000D01*
X158601000Y-103051000D01*
X158600000Y-103025000D01*
X158601000Y-102999000D01*
X158603000Y-102973000D01*
X158606000Y-102947000D01*
X158611000Y-102921000D01*
X158617000Y-102896000D01*
X158624000Y-102870000D01*
X158633000Y-102846000D01*
X158643000Y-102822000D01*
X158654000Y-102798000D01*
X158667000Y-102775000D01*
X158681000Y-102753000D01*
X158695000Y-102731000D01*
X158711000Y-102710000D01*
X158728000Y-102690000D01*
X158746000Y-102671000D01*
X158765000Y-102653000D01*
X158785000Y-102636000D01*
X158806000Y-102620000D01*
X158828000Y-102606000D01*
X158850000Y-102592000D01*
X158873000Y-102579000D01*
X158897000Y-102568000D01*
X158921000Y-102558000D01*
X158945000Y-102549000D01*
X158971000Y-102542000D01*
X158996000Y-102536000D01*
X159022000Y-102531000D01*
X159048000Y-102528000D01*
X159074000Y-102526000D01*
X159100000Y-102525000D01*
X159900000Y-102525000D01*
X159926000Y-102526000D01*
G37*
X155906000Y-102526000D02*
X155932000Y-102528000D01*
X155958000Y-102531000D01*
X155984000Y-102536000D01*
X156009000Y-102542000D01*
X156035000Y-102549000D01*
X156059000Y-102558000D01*
X156083000Y-102568000D01*
X156107000Y-102579000D01*
X156130000Y-102592000D01*
X156152000Y-102606000D01*
X156174000Y-102620000D01*
X156195000Y-102636000D01*
X156215000Y-102653000D01*
X156234000Y-102671000D01*
X156252000Y-102690000D01*
X156269000Y-102710000D01*
X156285000Y-102731000D01*
X156299000Y-102753000D01*
X156313000Y-102775000D01*
X156326000Y-102798000D01*
X156337000Y-102822000D01*
X156347000Y-102846000D01*
X156356000Y-102870000D01*
X156363000Y-102896000D01*
X156369000Y-102921000D01*
X156374000Y-102947000D01*
X156377000Y-102973000D01*
X156379000Y-102999000D01*
X156380000Y-103025000D01*
X156379000Y-103051000D01*
X156377000Y-103077000D01*
X156374000Y-103103000D01*
X156369000Y-103129000D01*
X156363000Y-103154000D01*
X156356000Y-103180000D01*
X156347000Y-103204000D01*
X156337000Y-103228000D01*
X156326000Y-103252000D01*
X156313000Y-103275000D01*
X156299000Y-103297000D01*
X156285000Y-103319000D01*
X156269000Y-103340000D01*
X156252000Y-103360000D01*
X156234000Y-103379000D01*
X156215000Y-103397000D01*
X156195000Y-103414000D01*
X156174000Y-103430000D01*
X156152000Y-103444000D01*
X156130000Y-103458000D01*
X156107000Y-103471000D01*
X156083000Y-103482000D01*
X156059000Y-103492000D01*
X156035000Y-103501000D01*
X156009000Y-103508000D01*
X155984000Y-103514000D01*
X155958000Y-103519000D01*
X155932000Y-103522000D01*
X155906000Y-103524000D01*
X155880000Y-103525000D01*
X154780000Y-103525000D01*
X154754000Y-103524000D01*
X154728000Y-103522000D01*
X154702000Y-103519000D01*
X154676000Y-103514000D01*
X154651000Y-103508000D01*
X154625000Y-103501000D01*
X154601000Y-103492000D01*
X154577000Y-103482000D01*
X154553000Y-103471000D01*
X154530000Y-103458000D01*
X154508000Y-103444000D01*
X154486000Y-103430000D01*
X154465000Y-103414000D01*
X154445000Y-103397000D01*
X154426000Y-103379000D01*
X154408000Y-103360000D01*
X154391000Y-103340000D01*
X154375000Y-103319000D01*
X154361000Y-103297000D01*
X154347000Y-103275000D01*
X154334000Y-103252000D01*
X154323000Y-103228000D01*
X154313000Y-103204000D01*
X154304000Y-103180000D01*
X154297000Y-103154000D01*
X154291000Y-103129000D01*
X154286000Y-103103000D01*
X154283000Y-103077000D01*
X154281000Y-103051000D01*
X154280000Y-103025000D01*
X154281000Y-102999000D01*
X154283000Y-102973000D01*
X154286000Y-102947000D01*
X154291000Y-102921000D01*
X154297000Y-102896000D01*
X154304000Y-102870000D01*
X154313000Y-102846000D01*
X154323000Y-102822000D01*
X154334000Y-102798000D01*
X154347000Y-102775000D01*
X154361000Y-102753000D01*
X154375000Y-102731000D01*
X154391000Y-102710000D01*
X154408000Y-102690000D01*
X154426000Y-102671000D01*
X154445000Y-102653000D01*
X154465000Y-102636000D01*
X154486000Y-102620000D01*
X154508000Y-102606000D01*
X154530000Y-102592000D01*
X154553000Y-102579000D01*
X154577000Y-102568000D01*
X154601000Y-102558000D01*
X154625000Y-102549000D01*
X154651000Y-102542000D01*
X154676000Y-102536000D01*
X154702000Y-102531000D01*
X154728000Y-102528000D01*
X154754000Y-102526000D01*
X154780000Y-102525000D01*
X155880000Y-102525000D01*
X155906000Y-102526000D01*
G36*
X155906000Y-102526000D02*
G01*
X155932000Y-102528000D01*
X155958000Y-102531000D01*
X155984000Y-102536000D01*
X156009000Y-102542000D01*
X156035000Y-102549000D01*
X156059000Y-102558000D01*
X156083000Y-102568000D01*
X156107000Y-102579000D01*
X156130000Y-102592000D01*
X156152000Y-102606000D01*
X156174000Y-102620000D01*
X156195000Y-102636000D01*
X156215000Y-102653000D01*
X156234000Y-102671000D01*
X156252000Y-102690000D01*
X156269000Y-102710000D01*
X156285000Y-102731000D01*
X156299000Y-102753000D01*
X156313000Y-102775000D01*
X156326000Y-102798000D01*
X156337000Y-102822000D01*
X156347000Y-102846000D01*
X156356000Y-102870000D01*
X156363000Y-102896000D01*
X156369000Y-102921000D01*
X156374000Y-102947000D01*
X156377000Y-102973000D01*
X156379000Y-102999000D01*
X156380000Y-103025000D01*
X156379000Y-103051000D01*
X156377000Y-103077000D01*
X156374000Y-103103000D01*
X156369000Y-103129000D01*
X156363000Y-103154000D01*
X156356000Y-103180000D01*
X156347000Y-103204000D01*
X156337000Y-103228000D01*
X156326000Y-103252000D01*
X156313000Y-103275000D01*
X156299000Y-103297000D01*
X156285000Y-103319000D01*
X156269000Y-103340000D01*
X156252000Y-103360000D01*
X156234000Y-103379000D01*
X156215000Y-103397000D01*
X156195000Y-103414000D01*
X156174000Y-103430000D01*
X156152000Y-103444000D01*
X156130000Y-103458000D01*
X156107000Y-103471000D01*
X156083000Y-103482000D01*
X156059000Y-103492000D01*
X156035000Y-103501000D01*
X156009000Y-103508000D01*
X155984000Y-103514000D01*
X155958000Y-103519000D01*
X155932000Y-103522000D01*
X155906000Y-103524000D01*
X155880000Y-103525000D01*
X154780000Y-103525000D01*
X154754000Y-103524000D01*
X154728000Y-103522000D01*
X154702000Y-103519000D01*
X154676000Y-103514000D01*
X154651000Y-103508000D01*
X154625000Y-103501000D01*
X154601000Y-103492000D01*
X154577000Y-103482000D01*
X154553000Y-103471000D01*
X154530000Y-103458000D01*
X154508000Y-103444000D01*
X154486000Y-103430000D01*
X154465000Y-103414000D01*
X154445000Y-103397000D01*
X154426000Y-103379000D01*
X154408000Y-103360000D01*
X154391000Y-103340000D01*
X154375000Y-103319000D01*
X154361000Y-103297000D01*
X154347000Y-103275000D01*
X154334000Y-103252000D01*
X154323000Y-103228000D01*
X154313000Y-103204000D01*
X154304000Y-103180000D01*
X154297000Y-103154000D01*
X154291000Y-103129000D01*
X154286000Y-103103000D01*
X154283000Y-103077000D01*
X154281000Y-103051000D01*
X154280000Y-103025000D01*
X154281000Y-102999000D01*
X154283000Y-102973000D01*
X154286000Y-102947000D01*
X154291000Y-102921000D01*
X154297000Y-102896000D01*
X154304000Y-102870000D01*
X154313000Y-102846000D01*
X154323000Y-102822000D01*
X154334000Y-102798000D01*
X154347000Y-102775000D01*
X154361000Y-102753000D01*
X154375000Y-102731000D01*
X154391000Y-102710000D01*
X154408000Y-102690000D01*
X154426000Y-102671000D01*
X154445000Y-102653000D01*
X154465000Y-102636000D01*
X154486000Y-102620000D01*
X154508000Y-102606000D01*
X154530000Y-102592000D01*
X154553000Y-102579000D01*
X154577000Y-102568000D01*
X154601000Y-102558000D01*
X154625000Y-102549000D01*
X154651000Y-102542000D01*
X154676000Y-102536000D01*
X154702000Y-102531000D01*
X154728000Y-102528000D01*
X154754000Y-102526000D01*
X154780000Y-102525000D01*
X155880000Y-102525000D01*
X155906000Y-102526000D01*
G37*
%TD*%
D11*
%TO.C,Power*%
X130600000Y-124000000D03*
%TD*%
D12*
%TO.C,LTC*%
X146558000Y-107950000D03*
D13*
X146558000Y-110490000D03*
X146558000Y-113030000D03*
X146558000Y-115570000D03*
X154178000Y-115570000D03*
X154178000Y-113030000D03*
X154178000Y-110490000D03*
X154178000Y-107950000D03*
%TD*%
D11*
%TO.C,J4*%
X126444000Y-124000000D03*
%TD*%
D14*
%TO.C,H4*%
X157150000Y-123190000D03*
%TD*%
D15*
%TO.C,J2*%
X155820000Y-95810000D03*
X155820000Y-101590000D03*
%TD*%
D16*
%TO.C,Flash*%
X104600000Y-104240000D03*
D17*
X104600000Y-101700000D03*
X104600000Y-99160000D03*
X104600000Y-96620000D03*
%TD*%
D16*
%TO.C,J8*%
X158750000Y-117856000D03*
D17*
X158750000Y-115316000D03*
X158750000Y-112776000D03*
X158750000Y-110236000D03*
X158750000Y-107696000D03*
%TD*%
D16*
%TO.C,Solenoids*%
X150672800Y-124000000D03*
D17*
X148132800Y-124000000D03*
X145592800Y-124000000D03*
X143052800Y-124000000D03*
X140512800Y-124000000D03*
X137972800Y-124000000D03*
X135432800Y-124000000D03*
%TD*%
D14*
%TO.C,H1*%
X105970000Y-79750000D03*
%TD*%
D16*
%TO.C,SPI2*%
X151325400Y-79248000D03*
D17*
X148785400Y-79248000D03*
X146245400Y-79248000D03*
X143705400Y-79248000D03*
X141165400Y-79248000D03*
X138625400Y-79248000D03*
X136085400Y-79248000D03*
X133545400Y-79248000D03*
%TD*%
D14*
%TO.C,H2*%
X157150000Y-79750000D03*
%TD*%
D16*
%TO.C,SPI1*%
X111887000Y-79248000D03*
D17*
X114427000Y-79248000D03*
X116967000Y-79248000D03*
X119507000Y-79248000D03*
X122047000Y-79248000D03*
X124587000Y-79248000D03*
X127127000Y-79248000D03*
X129667000Y-79248000D03*
%TD*%
D14*
%TO.C,H3*%
X105975000Y-123240000D03*
%TD*%
M02*
