%TF.GenerationSoftware,KiCad,Pcbnew,8.0.1*%
%TF.CreationDate,2024-07-28T14:25:37-07:00*%
%TF.ProjectId,RCS_Hardware,5243535f-4861-4726-9477-6172652e6b69,rev?*%
%TF.SameCoordinates,Original*%
%TF.FileFunction,Drillmap*%
%TF.FilePolarity,Positive*%
%FSLAX45Y45*%
G04 Gerber Fmt 4.5, Leading zero omitted, Abs format (unit mm)*
G04 Created by KiCad (PCBNEW 8.0.1) date 2024-07-28 14:25:37*
%MOMM*%
%LPD*%
G01*
G04 APERTURE LIST*
%ADD10C,0.100000*%
%ADD11C,0.010000*%
%ADD12C,0.200000*%
%ADD13C,0.120000*%
G04 APERTURE END LIST*
D10*
X10160000Y-7540400D02*
X16160000Y-7540400D01*
X16160000Y-12740400D01*
X10160000Y-12740400D01*
X10160000Y-7540400D01*
D11*
X15990000Y-9407500D02*
G75*
G02*
X16020000Y-9437500I0J-30000D01*
G01*
X15588000Y-9407500D02*
G75*
G02*
X15618000Y-9437500I0J-30000D01*
G01*
X16020000Y-9437500D02*
G75*
G02*
X15990000Y-9467500I-30000J0D01*
G01*
X15880000Y-9437500D02*
G75*
G02*
X15910000Y-9407500I30000J0D01*
G01*
X15618000Y-9437500D02*
G75*
G02*
X15588000Y-9467500I-30000J0D01*
G01*
X15448000Y-9437500D02*
G75*
G02*
X15478000Y-9407500I30000J0D01*
G01*
X15910000Y-9467500D02*
G75*
G02*
X15880000Y-9437500I0J30000D01*
G01*
X15478000Y-9467500D02*
G75*
G02*
X15448000Y-9437500I0J30000D01*
G01*
X15990000Y-10272500D02*
G75*
G02*
X16020000Y-10302500I0J-30000D01*
G01*
X15588000Y-10272500D02*
G75*
G02*
X15618000Y-10302500I0J-30000D01*
G01*
X16020000Y-10302500D02*
G75*
G02*
X15990000Y-10332500I-30000J0D01*
G01*
X15880000Y-10302500D02*
G75*
G02*
X15910000Y-10272500I30000J0D01*
G01*
X15618000Y-10302500D02*
G75*
G02*
X15588000Y-10332500I-30000J0D01*
G01*
X15448000Y-10302500D02*
G75*
G02*
X15478000Y-10272500I30000J0D01*
G01*
X15910000Y-10332500D02*
G75*
G02*
X15880000Y-10302500I0J30000D01*
G01*
X15478000Y-10332500D02*
G75*
G02*
X15448000Y-10302500I0J30000D01*
G01*
X15910000Y-9407500D02*
X15990000Y-9407500D01*
X15478000Y-9407500D02*
X15588000Y-9407500D01*
X15990000Y-9467500D02*
X15910000Y-9467500D01*
X15588000Y-9467500D02*
X15478000Y-9467500D01*
X15910000Y-10272500D02*
X15990000Y-10272500D01*
X15478000Y-10272500D02*
X15588000Y-10272500D01*
X15990000Y-10332500D02*
X15910000Y-10332500D01*
X15588000Y-10332500D02*
X15478000Y-10332500D01*
D12*
D10*
X10762300Y-9797100D02*
X10802300Y-9837100D01*
X10802300Y-9797100D02*
X10762300Y-9837100D01*
X10880000Y-10010000D02*
X10920000Y-10050000D01*
X10920000Y-10010000D02*
X10880000Y-10050000D01*
X10880000Y-10317800D02*
X10920000Y-10357800D01*
X10920000Y-10317800D02*
X10880000Y-10357800D01*
X10987700Y-11641080D02*
X11027700Y-11681080D01*
X11027700Y-11641080D02*
X10987700Y-11681080D01*
X11390000Y-9540000D02*
X11430000Y-9580000D01*
X11430000Y-9540000D02*
X11390000Y-9580000D01*
X11600000Y-9840000D02*
X11640000Y-9880000D01*
X11640000Y-9840000D02*
X11600000Y-9880000D01*
X11615000Y-10811800D02*
X11655000Y-10851800D01*
X11655000Y-10811800D02*
X11615000Y-10851800D01*
X11970000Y-8860000D02*
X12010000Y-8900000D01*
X12010000Y-8860000D02*
X11970000Y-8900000D01*
X12080000Y-9555000D02*
X12120000Y-9595000D01*
X12120000Y-9555000D02*
X12080000Y-9595000D01*
X12173840Y-8179000D02*
X12213840Y-8219000D01*
X12213840Y-8179000D02*
X12173840Y-8219000D01*
X12190000Y-9390000D02*
X12230000Y-9430000D01*
X12230000Y-9390000D02*
X12190000Y-9430000D01*
X12280000Y-9555000D02*
X12320000Y-9595000D01*
X12320000Y-9555000D02*
X12280000Y-9595000D01*
X12440000Y-8440000D02*
X12480000Y-8480000D01*
X12480000Y-8440000D02*
X12440000Y-8480000D01*
X12700000Y-11422700D02*
X12740000Y-11462700D01*
X12740000Y-11422700D02*
X12700000Y-11462700D01*
X12750000Y-9950000D02*
X12790000Y-9990000D01*
X12790000Y-9950000D02*
X12750000Y-9990000D01*
X12980000Y-9530000D02*
X13020000Y-9570000D01*
X13020000Y-9530000D02*
X12980000Y-9570000D01*
X13010000Y-9650000D02*
X13050000Y-9690000D01*
X13050000Y-9650000D02*
X13010000Y-9690000D01*
X13010000Y-10300000D02*
X13050000Y-10340000D01*
X13050000Y-10300000D02*
X13010000Y-10340000D01*
X13040000Y-11422700D02*
X13080000Y-11462700D01*
X13080000Y-11422700D02*
X13040000Y-11462700D01*
X13220000Y-11810000D02*
X13260000Y-11850000D01*
X13260000Y-11810000D02*
X13220000Y-11850000D01*
X13233200Y-9266800D02*
X13273200Y-9306800D01*
X13273200Y-9266800D02*
X13233200Y-9306800D01*
X13274360Y-12375200D02*
X13314360Y-12415200D01*
X13314360Y-12375200D02*
X13274360Y-12415200D01*
X13310000Y-9410000D02*
X13350000Y-9450000D01*
X13350000Y-9410000D02*
X13310000Y-9450000D01*
X13358450Y-10621550D02*
X13398450Y-10661550D01*
X13398450Y-10621550D02*
X13358450Y-10661550D01*
X13395600Y-10876600D02*
X13435600Y-10916600D01*
X13435600Y-10876600D02*
X13395600Y-10916600D01*
X13402500Y-10450000D02*
X13442500Y-10490000D01*
X13442500Y-10450000D02*
X13402500Y-10490000D01*
X13500000Y-9110000D02*
X13540000Y-9150000D01*
X13540000Y-9110000D02*
X13500000Y-9150000D01*
X13594400Y-8362000D02*
X13634400Y-8402000D01*
X13634400Y-8362000D02*
X13594400Y-8402000D01*
X13675000Y-10876600D02*
X13715000Y-10916600D01*
X13715000Y-10876600D02*
X13675000Y-10916600D01*
X13677200Y-8450900D02*
X13717200Y-8490900D01*
X13717200Y-8450900D02*
X13677200Y-8490900D01*
X13680000Y-11405000D02*
X13720000Y-11445000D01*
X13720000Y-11405000D02*
X13680000Y-11445000D01*
X13749700Y-9272110D02*
X13789700Y-9312110D01*
X13789700Y-9272110D02*
X13749700Y-9312110D01*
X13750000Y-8680000D02*
X13790000Y-8720000D01*
X13790000Y-8680000D02*
X13750000Y-8720000D01*
X13781996Y-11024642D02*
X13821996Y-11064642D01*
X13821996Y-11024642D02*
X13781996Y-11064642D01*
X13875000Y-9425000D02*
X13915000Y-9465000D01*
X13915000Y-9425000D02*
X13875000Y-9465000D01*
X13880000Y-10880000D02*
X13920000Y-10920000D01*
X13920000Y-10880000D02*
X13880000Y-10920000D01*
X13970000Y-9210000D02*
X14010000Y-9250000D01*
X14010000Y-9210000D02*
X13970000Y-9250000D01*
X14060000Y-9110000D02*
X14100000Y-9150000D01*
X14100000Y-9110000D02*
X14060000Y-9150000D01*
X14090000Y-8150000D02*
X14130000Y-8190000D01*
X14130000Y-8150000D02*
X14090000Y-8190000D01*
X14120000Y-10300000D02*
X14160000Y-10340000D01*
X14160000Y-10300000D02*
X14120000Y-10340000D01*
X14180000Y-9440000D02*
X14220000Y-9480000D01*
X14220000Y-9440000D02*
X14180000Y-9480000D01*
X14190000Y-8260000D02*
X14230000Y-8300000D01*
X14230000Y-8260000D02*
X14190000Y-8300000D01*
X14190000Y-8360000D02*
X14230000Y-8400000D01*
X14230000Y-8360000D02*
X14190000Y-8400000D01*
X14490000Y-9680000D02*
X14530000Y-9720000D01*
X14530000Y-9680000D02*
X14490000Y-9720000D01*
X14490000Y-9900000D02*
X14530000Y-9940000D01*
X14530000Y-9900000D02*
X14490000Y-9940000D01*
X14640000Y-9390000D02*
X14680000Y-9430000D01*
X14680000Y-9390000D02*
X14640000Y-9430000D01*
X14970000Y-9580000D02*
X15010000Y-9620000D01*
X15010000Y-9580000D02*
X14970000Y-9620000D01*
X14970000Y-11755000D02*
X15010000Y-11795000D01*
X15010000Y-11755000D02*
X14970000Y-11795000D01*
X15010000Y-10080000D02*
X15050000Y-10120000D01*
X15050000Y-10080000D02*
X15010000Y-10120000D01*
X15050000Y-11940000D02*
X15090000Y-11980000D01*
X15090000Y-11940000D02*
X15050000Y-11980000D01*
X15130000Y-9300000D02*
X15170000Y-9340000D01*
X15170000Y-9300000D02*
X15130000Y-9340000D01*
X15175560Y-8269400D02*
X15215560Y-8309400D01*
X15215560Y-8269400D02*
X15175560Y-8309400D01*
X15320000Y-9530000D02*
X15360000Y-9570000D01*
X15360000Y-9530000D02*
X15320000Y-9570000D01*
X15320000Y-10170000D02*
X15360000Y-10210000D01*
X15360000Y-10170000D02*
X15320000Y-10210000D01*
X15563000Y-9437500D02*
G75*
G02*
X15503000Y-9437500I-30000J0D01*
G01*
X15503000Y-9437500D02*
G75*
G02*
X15563000Y-9437500I30000J0D01*
G01*
X15563000Y-10302500D02*
G75*
G02*
X15503000Y-10302500I-30000J0D01*
G01*
X15503000Y-10302500D02*
G75*
G02*
X15563000Y-10302500I30000J0D01*
G01*
X15980000Y-9437500D02*
G75*
G02*
X15920000Y-9437500I-30000J0D01*
G01*
X15920000Y-9437500D02*
G75*
G02*
X15980000Y-9437500I30000J0D01*
G01*
X15980000Y-10302500D02*
G75*
G02*
X15920000Y-10302500I-30000J0D01*
G01*
X15920000Y-10302500D02*
G75*
G02*
X15980000Y-10302500I30000J0D01*
G01*
X14655800Y-10756900D02*
X14655800Y-10833100D01*
X14617700Y-10795000D02*
X14693900Y-10795000D01*
X14655800Y-11010900D02*
X14655800Y-11087100D01*
X14617700Y-11049000D02*
X14693900Y-11049000D01*
X14655800Y-11264900D02*
X14655800Y-11341100D01*
X14617700Y-11303000D02*
X14693900Y-11303000D01*
X14655800Y-11518900D02*
X14655800Y-11595100D01*
X14617700Y-11557000D02*
X14693900Y-11557000D01*
X15417800Y-10756900D02*
X15417800Y-10833100D01*
X15379700Y-10795000D02*
X15455900Y-10795000D01*
X15417800Y-11010900D02*
X15417800Y-11087100D01*
X15379700Y-11049000D02*
X15455900Y-11049000D01*
X15417800Y-11264900D02*
X15417800Y-11341100D01*
X15379700Y-11303000D02*
X15455900Y-11303000D01*
X15417800Y-11518900D02*
X15417800Y-11595100D01*
X15379700Y-11557000D02*
X15455900Y-11557000D01*
X10495356Y-9697356D02*
X10495356Y-9626644D01*
X10424644Y-9626644D01*
X10424644Y-9697356D01*
X10495356Y-9697356D01*
X10495356Y-9951356D02*
X10495356Y-9880644D01*
X10424644Y-9880644D01*
X10424644Y-9951356D01*
X10495356Y-9951356D01*
X10495356Y-10205356D02*
X10495356Y-10134644D01*
X10424644Y-10134644D01*
X10424644Y-10205356D01*
X10495356Y-10205356D01*
X10495356Y-10459356D02*
X10495356Y-10388644D01*
X10424644Y-10388644D01*
X10424644Y-10459356D01*
X10495356Y-10459356D01*
X11224056Y-7960156D02*
X11224056Y-7889444D01*
X11153344Y-7889444D01*
X11153344Y-7960156D01*
X11224056Y-7960156D01*
X11478056Y-7960156D02*
X11478056Y-7889444D01*
X11407344Y-7889444D01*
X11407344Y-7960156D01*
X11478056Y-7960156D01*
X11732056Y-7960156D02*
X11732056Y-7889444D01*
X11661344Y-7889444D01*
X11661344Y-7960156D01*
X11732056Y-7960156D01*
X11986056Y-7960156D02*
X11986056Y-7889444D01*
X11915344Y-7889444D01*
X11915344Y-7960156D01*
X11986056Y-7960156D01*
X12240056Y-7960156D02*
X12240056Y-7889444D01*
X12169344Y-7889444D01*
X12169344Y-7960156D01*
X12240056Y-7960156D01*
X12494056Y-7960156D02*
X12494056Y-7889444D01*
X12423344Y-7889444D01*
X12423344Y-7960156D01*
X12494056Y-7960156D01*
X12748056Y-7960156D02*
X12748056Y-7889444D01*
X12677344Y-7889444D01*
X12677344Y-7960156D01*
X12748056Y-7960156D01*
X13002056Y-7960156D02*
X13002056Y-7889444D01*
X12931344Y-7889444D01*
X12931344Y-7960156D01*
X13002056Y-7960156D01*
X13389896Y-7960156D02*
X13389896Y-7889444D01*
X13319184Y-7889444D01*
X13319184Y-7960156D01*
X13389896Y-7960156D01*
X13578636Y-12435356D02*
X13578636Y-12364644D01*
X13507924Y-12364644D01*
X13507924Y-12435356D01*
X13578636Y-12435356D01*
X13643896Y-7960156D02*
X13643896Y-7889444D01*
X13573184Y-7889444D01*
X13573184Y-7960156D01*
X13643896Y-7960156D01*
X13832636Y-12435356D02*
X13832636Y-12364644D01*
X13761924Y-12364644D01*
X13761924Y-12435356D01*
X13832636Y-12435356D01*
X13897896Y-7960156D02*
X13897896Y-7889444D01*
X13827184Y-7889444D01*
X13827184Y-7960156D01*
X13897896Y-7960156D01*
X14086636Y-12435356D02*
X14086636Y-12364644D01*
X14015924Y-12364644D01*
X14015924Y-12435356D01*
X14086636Y-12435356D01*
X14151896Y-7960156D02*
X14151896Y-7889444D01*
X14081184Y-7889444D01*
X14081184Y-7960156D01*
X14151896Y-7960156D01*
X14340636Y-12435356D02*
X14340636Y-12364644D01*
X14269924Y-12364644D01*
X14269924Y-12435356D01*
X14340636Y-12435356D01*
X14405896Y-7960156D02*
X14405896Y-7889444D01*
X14335184Y-7889444D01*
X14335184Y-7960156D01*
X14405896Y-7960156D01*
X14594636Y-12435356D02*
X14594636Y-12364644D01*
X14523924Y-12364644D01*
X14523924Y-12435356D01*
X14594636Y-12435356D01*
X14659896Y-7960156D02*
X14659896Y-7889444D01*
X14589184Y-7889444D01*
X14589184Y-7960156D01*
X14659896Y-7960156D01*
X14848636Y-12435356D02*
X14848636Y-12364644D01*
X14777924Y-12364644D01*
X14777924Y-12435356D01*
X14848636Y-12435356D01*
X14913896Y-7960156D02*
X14913896Y-7889444D01*
X14843184Y-7889444D01*
X14843184Y-7960156D01*
X14913896Y-7960156D01*
X15102636Y-12435356D02*
X15102636Y-12364644D01*
X15031924Y-12364644D01*
X15031924Y-12435356D01*
X15102636Y-12435356D01*
X15167896Y-7960156D02*
X15167896Y-7889444D01*
X15097184Y-7889444D01*
X15097184Y-7960156D01*
X15167896Y-7960156D01*
X15910356Y-10804956D02*
X15910356Y-10734244D01*
X15839644Y-10734244D01*
X15839644Y-10804956D01*
X15910356Y-10804956D01*
X15910356Y-11058956D02*
X15910356Y-10988244D01*
X15839644Y-10988244D01*
X15839644Y-11058956D01*
X15910356Y-11058956D01*
X15910356Y-11312956D02*
X15910356Y-11242244D01*
X15839644Y-11242244D01*
X15839644Y-11312956D01*
X15910356Y-11312956D01*
X15910356Y-11566956D02*
X15910356Y-11496244D01*
X15839644Y-11496244D01*
X15839644Y-11566956D01*
X15910356Y-11566956D01*
X15910356Y-11820956D02*
X15910356Y-11750244D01*
X15839644Y-11750244D01*
X15839644Y-11820956D01*
X15910356Y-11820956D01*
D13*
X12644400Y-12460000D02*
X12704400Y-12400000D01*
X12644400Y-12340000D01*
X12584400Y-12400000D01*
X12644400Y-12460000D01*
X13060000Y-12460000D02*
X13120000Y-12400000D01*
X13060000Y-12340000D01*
X13000000Y-12400000D01*
X13060000Y-12460000D01*
D12*
X10415777Y-13056884D02*
X10415777Y-12856884D01*
X10415777Y-12856884D02*
X10463396Y-12856884D01*
X10463396Y-12856884D02*
X10491967Y-12866408D01*
X10491967Y-12866408D02*
X10511015Y-12885455D01*
X10511015Y-12885455D02*
X10520539Y-12904503D01*
X10520539Y-12904503D02*
X10530063Y-12942598D01*
X10530063Y-12942598D02*
X10530063Y-12971169D01*
X10530063Y-12971169D02*
X10520539Y-13009265D01*
X10520539Y-13009265D02*
X10511015Y-13028312D01*
X10511015Y-13028312D02*
X10491967Y-13047360D01*
X10491967Y-13047360D02*
X10463396Y-13056884D01*
X10463396Y-13056884D02*
X10415777Y-13056884D01*
X10615777Y-13056884D02*
X10615777Y-12923550D01*
X10615777Y-12961646D02*
X10625301Y-12942598D01*
X10625301Y-12942598D02*
X10634824Y-12933074D01*
X10634824Y-12933074D02*
X10653872Y-12923550D01*
X10653872Y-12923550D02*
X10672920Y-12923550D01*
X10739586Y-13056884D02*
X10739586Y-12923550D01*
X10739586Y-12856884D02*
X10730063Y-12866408D01*
X10730063Y-12866408D02*
X10739586Y-12875931D01*
X10739586Y-12875931D02*
X10749110Y-12866408D01*
X10749110Y-12866408D02*
X10739586Y-12856884D01*
X10739586Y-12856884D02*
X10739586Y-12875931D01*
X10863396Y-13056884D02*
X10844348Y-13047360D01*
X10844348Y-13047360D02*
X10834824Y-13028312D01*
X10834824Y-13028312D02*
X10834824Y-12856884D01*
X10968158Y-13056884D02*
X10949110Y-13047360D01*
X10949110Y-13047360D02*
X10939586Y-13028312D01*
X10939586Y-13028312D02*
X10939586Y-12856884D01*
X11196729Y-13056884D02*
X11196729Y-12856884D01*
X11196729Y-12856884D02*
X11263396Y-12999741D01*
X11263396Y-12999741D02*
X11330062Y-12856884D01*
X11330062Y-12856884D02*
X11330062Y-13056884D01*
X11511015Y-13056884D02*
X11511015Y-12952122D01*
X11511015Y-12952122D02*
X11501491Y-12933074D01*
X11501491Y-12933074D02*
X11482443Y-12923550D01*
X11482443Y-12923550D02*
X11444348Y-12923550D01*
X11444348Y-12923550D02*
X11425301Y-12933074D01*
X11511015Y-13047360D02*
X11491967Y-13056884D01*
X11491967Y-13056884D02*
X11444348Y-13056884D01*
X11444348Y-13056884D02*
X11425301Y-13047360D01*
X11425301Y-13047360D02*
X11415777Y-13028312D01*
X11415777Y-13028312D02*
X11415777Y-13009265D01*
X11415777Y-13009265D02*
X11425301Y-12990217D01*
X11425301Y-12990217D02*
X11444348Y-12980693D01*
X11444348Y-12980693D02*
X11491967Y-12980693D01*
X11491967Y-12980693D02*
X11511015Y-12971169D01*
X11606253Y-12923550D02*
X11606253Y-13123550D01*
X11606253Y-12933074D02*
X11625301Y-12923550D01*
X11625301Y-12923550D02*
X11663396Y-12923550D01*
X11663396Y-12923550D02*
X11682443Y-12933074D01*
X11682443Y-12933074D02*
X11691967Y-12942598D01*
X11691967Y-12942598D02*
X11701491Y-12961646D01*
X11701491Y-12961646D02*
X11701491Y-13018788D01*
X11701491Y-13018788D02*
X11691967Y-13037836D01*
X11691967Y-13037836D02*
X11682443Y-13047360D01*
X11682443Y-13047360D02*
X11663396Y-13056884D01*
X11663396Y-13056884D02*
X11625301Y-13056884D01*
X11625301Y-13056884D02*
X11606253Y-13047360D01*
X11787205Y-13037836D02*
X11796729Y-13047360D01*
X11796729Y-13047360D02*
X11787205Y-13056884D01*
X11787205Y-13056884D02*
X11777682Y-13047360D01*
X11777682Y-13047360D02*
X11787205Y-13037836D01*
X11787205Y-13037836D02*
X11787205Y-13056884D01*
X11787205Y-12933074D02*
X11796729Y-12942598D01*
X11796729Y-12942598D02*
X11787205Y-12952122D01*
X11787205Y-12952122D02*
X11777682Y-12942598D01*
X11777682Y-12942598D02*
X11787205Y-12933074D01*
X11787205Y-12933074D02*
X11787205Y-12952122D01*
D10*
X10115000Y-13365400D02*
X10155000Y-13405400D01*
X10155000Y-13365400D02*
X10115000Y-13405400D01*
D12*
X10453872Y-13276884D02*
X10472920Y-13276884D01*
X10472920Y-13276884D02*
X10491967Y-13286408D01*
X10491967Y-13286408D02*
X10501491Y-13295931D01*
X10501491Y-13295931D02*
X10511015Y-13314979D01*
X10511015Y-13314979D02*
X10520539Y-13353074D01*
X10520539Y-13353074D02*
X10520539Y-13400693D01*
X10520539Y-13400693D02*
X10511015Y-13438788D01*
X10511015Y-13438788D02*
X10501491Y-13457836D01*
X10501491Y-13457836D02*
X10491967Y-13467360D01*
X10491967Y-13467360D02*
X10472920Y-13476884D01*
X10472920Y-13476884D02*
X10453872Y-13476884D01*
X10453872Y-13476884D02*
X10434824Y-13467360D01*
X10434824Y-13467360D02*
X10425301Y-13457836D01*
X10425301Y-13457836D02*
X10415777Y-13438788D01*
X10415777Y-13438788D02*
X10406253Y-13400693D01*
X10406253Y-13400693D02*
X10406253Y-13353074D01*
X10406253Y-13353074D02*
X10415777Y-13314979D01*
X10415777Y-13314979D02*
X10425301Y-13295931D01*
X10425301Y-13295931D02*
X10434824Y-13286408D01*
X10434824Y-13286408D02*
X10453872Y-13276884D01*
X10606253Y-13457836D02*
X10615777Y-13467360D01*
X10615777Y-13467360D02*
X10606253Y-13476884D01*
X10606253Y-13476884D02*
X10596729Y-13467360D01*
X10596729Y-13467360D02*
X10606253Y-13457836D01*
X10606253Y-13457836D02*
X10606253Y-13476884D01*
X10787205Y-13343550D02*
X10787205Y-13476884D01*
X10739586Y-13267360D02*
X10691967Y-13410217D01*
X10691967Y-13410217D02*
X10815777Y-13410217D01*
X10930063Y-13276884D02*
X10949110Y-13276884D01*
X10949110Y-13276884D02*
X10968158Y-13286408D01*
X10968158Y-13286408D02*
X10977682Y-13295931D01*
X10977682Y-13295931D02*
X10987205Y-13314979D01*
X10987205Y-13314979D02*
X10996729Y-13353074D01*
X10996729Y-13353074D02*
X10996729Y-13400693D01*
X10996729Y-13400693D02*
X10987205Y-13438788D01*
X10987205Y-13438788D02*
X10977682Y-13457836D01*
X10977682Y-13457836D02*
X10968158Y-13467360D01*
X10968158Y-13467360D02*
X10949110Y-13476884D01*
X10949110Y-13476884D02*
X10930063Y-13476884D01*
X10930063Y-13476884D02*
X10911015Y-13467360D01*
X10911015Y-13467360D02*
X10901491Y-13457836D01*
X10901491Y-13457836D02*
X10891967Y-13438788D01*
X10891967Y-13438788D02*
X10882444Y-13400693D01*
X10882444Y-13400693D02*
X10882444Y-13353074D01*
X10882444Y-13353074D02*
X10891967Y-13314979D01*
X10891967Y-13314979D02*
X10901491Y-13295931D01*
X10901491Y-13295931D02*
X10911015Y-13286408D01*
X10911015Y-13286408D02*
X10930063Y-13276884D01*
X11120539Y-13276884D02*
X11139586Y-13276884D01*
X11139586Y-13276884D02*
X11158634Y-13286408D01*
X11158634Y-13286408D02*
X11168158Y-13295931D01*
X11168158Y-13295931D02*
X11177682Y-13314979D01*
X11177682Y-13314979D02*
X11187205Y-13353074D01*
X11187205Y-13353074D02*
X11187205Y-13400693D01*
X11187205Y-13400693D02*
X11177682Y-13438788D01*
X11177682Y-13438788D02*
X11168158Y-13457836D01*
X11168158Y-13457836D02*
X11158634Y-13467360D01*
X11158634Y-13467360D02*
X11139586Y-13476884D01*
X11139586Y-13476884D02*
X11120539Y-13476884D01*
X11120539Y-13476884D02*
X11101491Y-13467360D01*
X11101491Y-13467360D02*
X11091967Y-13457836D01*
X11091967Y-13457836D02*
X11082444Y-13438788D01*
X11082444Y-13438788D02*
X11072920Y-13400693D01*
X11072920Y-13400693D02*
X11072920Y-13353074D01*
X11072920Y-13353074D02*
X11082444Y-13314979D01*
X11082444Y-13314979D02*
X11091967Y-13295931D01*
X11091967Y-13295931D02*
X11101491Y-13286408D01*
X11101491Y-13286408D02*
X11120539Y-13276884D01*
X11272920Y-13476884D02*
X11272920Y-13343550D01*
X11272920Y-13362598D02*
X11282443Y-13353074D01*
X11282443Y-13353074D02*
X11301491Y-13343550D01*
X11301491Y-13343550D02*
X11330063Y-13343550D01*
X11330063Y-13343550D02*
X11349110Y-13353074D01*
X11349110Y-13353074D02*
X11358634Y-13372122D01*
X11358634Y-13372122D02*
X11358634Y-13476884D01*
X11358634Y-13372122D02*
X11368158Y-13353074D01*
X11368158Y-13353074D02*
X11387205Y-13343550D01*
X11387205Y-13343550D02*
X11415777Y-13343550D01*
X11415777Y-13343550D02*
X11434824Y-13353074D01*
X11434824Y-13353074D02*
X11444348Y-13372122D01*
X11444348Y-13372122D02*
X11444348Y-13476884D01*
X11539586Y-13476884D02*
X11539586Y-13343550D01*
X11539586Y-13362598D02*
X11549110Y-13353074D01*
X11549110Y-13353074D02*
X11568158Y-13343550D01*
X11568158Y-13343550D02*
X11596729Y-13343550D01*
X11596729Y-13343550D02*
X11615777Y-13353074D01*
X11615777Y-13353074D02*
X11625301Y-13372122D01*
X11625301Y-13372122D02*
X11625301Y-13476884D01*
X11625301Y-13372122D02*
X11634824Y-13353074D01*
X11634824Y-13353074D02*
X11653872Y-13343550D01*
X11653872Y-13343550D02*
X11682443Y-13343550D01*
X11682443Y-13343550D02*
X11701491Y-13353074D01*
X11701491Y-13353074D02*
X11711015Y-13372122D01*
X11711015Y-13372122D02*
X11711015Y-13476884D01*
X12101491Y-13267360D02*
X11930063Y-13524503D01*
X12358634Y-13276884D02*
X12377682Y-13276884D01*
X12377682Y-13276884D02*
X12396729Y-13286408D01*
X12396729Y-13286408D02*
X12406253Y-13295931D01*
X12406253Y-13295931D02*
X12415777Y-13314979D01*
X12415777Y-13314979D02*
X12425301Y-13353074D01*
X12425301Y-13353074D02*
X12425301Y-13400693D01*
X12425301Y-13400693D02*
X12415777Y-13438788D01*
X12415777Y-13438788D02*
X12406253Y-13457836D01*
X12406253Y-13457836D02*
X12396729Y-13467360D01*
X12396729Y-13467360D02*
X12377682Y-13476884D01*
X12377682Y-13476884D02*
X12358634Y-13476884D01*
X12358634Y-13476884D02*
X12339586Y-13467360D01*
X12339586Y-13467360D02*
X12330063Y-13457836D01*
X12330063Y-13457836D02*
X12320539Y-13438788D01*
X12320539Y-13438788D02*
X12311015Y-13400693D01*
X12311015Y-13400693D02*
X12311015Y-13353074D01*
X12311015Y-13353074D02*
X12320539Y-13314979D01*
X12320539Y-13314979D02*
X12330063Y-13295931D01*
X12330063Y-13295931D02*
X12339586Y-13286408D01*
X12339586Y-13286408D02*
X12358634Y-13276884D01*
X12511015Y-13457836D02*
X12520539Y-13467360D01*
X12520539Y-13467360D02*
X12511015Y-13476884D01*
X12511015Y-13476884D02*
X12501491Y-13467360D01*
X12501491Y-13467360D02*
X12511015Y-13457836D01*
X12511015Y-13457836D02*
X12511015Y-13476884D01*
X12644348Y-13276884D02*
X12663396Y-13276884D01*
X12663396Y-13276884D02*
X12682444Y-13286408D01*
X12682444Y-13286408D02*
X12691967Y-13295931D01*
X12691967Y-13295931D02*
X12701491Y-13314979D01*
X12701491Y-13314979D02*
X12711015Y-13353074D01*
X12711015Y-13353074D02*
X12711015Y-13400693D01*
X12711015Y-13400693D02*
X12701491Y-13438788D01*
X12701491Y-13438788D02*
X12691967Y-13457836D01*
X12691967Y-13457836D02*
X12682444Y-13467360D01*
X12682444Y-13467360D02*
X12663396Y-13476884D01*
X12663396Y-13476884D02*
X12644348Y-13476884D01*
X12644348Y-13476884D02*
X12625301Y-13467360D01*
X12625301Y-13467360D02*
X12615777Y-13457836D01*
X12615777Y-13457836D02*
X12606253Y-13438788D01*
X12606253Y-13438788D02*
X12596729Y-13400693D01*
X12596729Y-13400693D02*
X12596729Y-13353074D01*
X12596729Y-13353074D02*
X12606253Y-13314979D01*
X12606253Y-13314979D02*
X12615777Y-13295931D01*
X12615777Y-13295931D02*
X12625301Y-13286408D01*
X12625301Y-13286408D02*
X12644348Y-13276884D01*
X12901491Y-13476884D02*
X12787206Y-13476884D01*
X12844348Y-13476884D02*
X12844348Y-13276884D01*
X12844348Y-13276884D02*
X12825301Y-13305455D01*
X12825301Y-13305455D02*
X12806253Y-13324503D01*
X12806253Y-13324503D02*
X12787206Y-13334027D01*
X13082444Y-13276884D02*
X12987206Y-13276884D01*
X12987206Y-13276884D02*
X12977682Y-13372122D01*
X12977682Y-13372122D02*
X12987206Y-13362598D01*
X12987206Y-13362598D02*
X13006253Y-13353074D01*
X13006253Y-13353074D02*
X13053872Y-13353074D01*
X13053872Y-13353074D02*
X13072920Y-13362598D01*
X13072920Y-13362598D02*
X13082444Y-13372122D01*
X13082444Y-13372122D02*
X13091967Y-13391169D01*
X13091967Y-13391169D02*
X13091967Y-13438788D01*
X13091967Y-13438788D02*
X13082444Y-13457836D01*
X13082444Y-13457836D02*
X13072920Y-13467360D01*
X13072920Y-13467360D02*
X13053872Y-13476884D01*
X13053872Y-13476884D02*
X13006253Y-13476884D01*
X13006253Y-13476884D02*
X12987206Y-13467360D01*
X12987206Y-13467360D02*
X12977682Y-13457836D01*
X13158634Y-13276884D02*
X13291967Y-13276884D01*
X13291967Y-13276884D02*
X13206253Y-13476884D01*
X13358634Y-13276884D02*
X13358634Y-13314979D01*
X13434825Y-13276884D02*
X13434825Y-13314979D01*
X13730063Y-13553074D02*
X13720539Y-13543550D01*
X13720539Y-13543550D02*
X13701491Y-13514979D01*
X13701491Y-13514979D02*
X13691968Y-13495931D01*
X13691968Y-13495931D02*
X13682444Y-13467360D01*
X13682444Y-13467360D02*
X13672920Y-13419741D01*
X13672920Y-13419741D02*
X13672920Y-13381646D01*
X13672920Y-13381646D02*
X13682444Y-13334027D01*
X13682444Y-13334027D02*
X13691968Y-13305455D01*
X13691968Y-13305455D02*
X13701491Y-13286408D01*
X13701491Y-13286408D02*
X13720539Y-13257836D01*
X13720539Y-13257836D02*
X13730063Y-13248312D01*
X13901491Y-13276884D02*
X13806253Y-13276884D01*
X13806253Y-13276884D02*
X13796729Y-13372122D01*
X13796729Y-13372122D02*
X13806253Y-13362598D01*
X13806253Y-13362598D02*
X13825301Y-13353074D01*
X13825301Y-13353074D02*
X13872920Y-13353074D01*
X13872920Y-13353074D02*
X13891968Y-13362598D01*
X13891968Y-13362598D02*
X13901491Y-13372122D01*
X13901491Y-13372122D02*
X13911015Y-13391169D01*
X13911015Y-13391169D02*
X13911015Y-13438788D01*
X13911015Y-13438788D02*
X13901491Y-13457836D01*
X13901491Y-13457836D02*
X13891968Y-13467360D01*
X13891968Y-13467360D02*
X13872920Y-13476884D01*
X13872920Y-13476884D02*
X13825301Y-13476884D01*
X13825301Y-13476884D02*
X13806253Y-13467360D01*
X13806253Y-13467360D02*
X13796729Y-13457836D01*
X14082444Y-13343550D02*
X14082444Y-13476884D01*
X14034825Y-13267360D02*
X13987206Y-13410217D01*
X13987206Y-13410217D02*
X14111015Y-13410217D01*
X14339587Y-13476884D02*
X14339587Y-13276884D01*
X14425301Y-13476884D02*
X14425301Y-13372122D01*
X14425301Y-13372122D02*
X14415777Y-13353074D01*
X14415777Y-13353074D02*
X14396730Y-13343550D01*
X14396730Y-13343550D02*
X14368158Y-13343550D01*
X14368158Y-13343550D02*
X14349110Y-13353074D01*
X14349110Y-13353074D02*
X14339587Y-13362598D01*
X14549110Y-13476884D02*
X14530063Y-13467360D01*
X14530063Y-13467360D02*
X14520539Y-13457836D01*
X14520539Y-13457836D02*
X14511015Y-13438788D01*
X14511015Y-13438788D02*
X14511015Y-13381646D01*
X14511015Y-13381646D02*
X14520539Y-13362598D01*
X14520539Y-13362598D02*
X14530063Y-13353074D01*
X14530063Y-13353074D02*
X14549110Y-13343550D01*
X14549110Y-13343550D02*
X14577682Y-13343550D01*
X14577682Y-13343550D02*
X14596730Y-13353074D01*
X14596730Y-13353074D02*
X14606253Y-13362598D01*
X14606253Y-13362598D02*
X14615777Y-13381646D01*
X14615777Y-13381646D02*
X14615777Y-13438788D01*
X14615777Y-13438788D02*
X14606253Y-13457836D01*
X14606253Y-13457836D02*
X14596730Y-13467360D01*
X14596730Y-13467360D02*
X14577682Y-13476884D01*
X14577682Y-13476884D02*
X14549110Y-13476884D01*
X14730063Y-13476884D02*
X14711015Y-13467360D01*
X14711015Y-13467360D02*
X14701491Y-13448312D01*
X14701491Y-13448312D02*
X14701491Y-13276884D01*
X14882444Y-13467360D02*
X14863396Y-13476884D01*
X14863396Y-13476884D02*
X14825301Y-13476884D01*
X14825301Y-13476884D02*
X14806253Y-13467360D01*
X14806253Y-13467360D02*
X14796730Y-13448312D01*
X14796730Y-13448312D02*
X14796730Y-13372122D01*
X14796730Y-13372122D02*
X14806253Y-13353074D01*
X14806253Y-13353074D02*
X14825301Y-13343550D01*
X14825301Y-13343550D02*
X14863396Y-13343550D01*
X14863396Y-13343550D02*
X14882444Y-13353074D01*
X14882444Y-13353074D02*
X14891968Y-13372122D01*
X14891968Y-13372122D02*
X14891968Y-13391169D01*
X14891968Y-13391169D02*
X14796730Y-13410217D01*
X14968158Y-13467360D02*
X14987206Y-13476884D01*
X14987206Y-13476884D02*
X15025301Y-13476884D01*
X15025301Y-13476884D02*
X15044349Y-13467360D01*
X15044349Y-13467360D02*
X15053872Y-13448312D01*
X15053872Y-13448312D02*
X15053872Y-13438788D01*
X15053872Y-13438788D02*
X15044349Y-13419741D01*
X15044349Y-13419741D02*
X15025301Y-13410217D01*
X15025301Y-13410217D02*
X14996730Y-13410217D01*
X14996730Y-13410217D02*
X14977682Y-13400693D01*
X14977682Y-13400693D02*
X14968158Y-13381646D01*
X14968158Y-13381646D02*
X14968158Y-13372122D01*
X14968158Y-13372122D02*
X14977682Y-13353074D01*
X14977682Y-13353074D02*
X14996730Y-13343550D01*
X14996730Y-13343550D02*
X15025301Y-13343550D01*
X15025301Y-13343550D02*
X15044349Y-13353074D01*
X15120539Y-13553074D02*
X15130063Y-13543550D01*
X15130063Y-13543550D02*
X15149111Y-13514979D01*
X15149111Y-13514979D02*
X15158634Y-13495931D01*
X15158634Y-13495931D02*
X15168158Y-13467360D01*
X15168158Y-13467360D02*
X15177682Y-13419741D01*
X15177682Y-13419741D02*
X15177682Y-13381646D01*
X15177682Y-13381646D02*
X15168158Y-13334027D01*
X15168158Y-13334027D02*
X15158634Y-13305455D01*
X15158634Y-13305455D02*
X15149111Y-13286408D01*
X15149111Y-13286408D02*
X15130063Y-13257836D01*
X15130063Y-13257836D02*
X15120539Y-13248312D01*
D10*
X10155000Y-13649400D02*
G75*
G02*
X10095000Y-13649400I-30000J0D01*
G01*
X10095000Y-13649400D02*
G75*
G02*
X10155000Y-13649400I30000J0D01*
G01*
D12*
X10453872Y-13540884D02*
X10472920Y-13540884D01*
X10472920Y-13540884D02*
X10491967Y-13550408D01*
X10491967Y-13550408D02*
X10501491Y-13559931D01*
X10501491Y-13559931D02*
X10511015Y-13578979D01*
X10511015Y-13578979D02*
X10520539Y-13617074D01*
X10520539Y-13617074D02*
X10520539Y-13664693D01*
X10520539Y-13664693D02*
X10511015Y-13702788D01*
X10511015Y-13702788D02*
X10501491Y-13721836D01*
X10501491Y-13721836D02*
X10491967Y-13731360D01*
X10491967Y-13731360D02*
X10472920Y-13740884D01*
X10472920Y-13740884D02*
X10453872Y-13740884D01*
X10453872Y-13740884D02*
X10434824Y-13731360D01*
X10434824Y-13731360D02*
X10425301Y-13721836D01*
X10425301Y-13721836D02*
X10415777Y-13702788D01*
X10415777Y-13702788D02*
X10406253Y-13664693D01*
X10406253Y-13664693D02*
X10406253Y-13617074D01*
X10406253Y-13617074D02*
X10415777Y-13578979D01*
X10415777Y-13578979D02*
X10425301Y-13559931D01*
X10425301Y-13559931D02*
X10434824Y-13550408D01*
X10434824Y-13550408D02*
X10453872Y-13540884D01*
X10606253Y-13721836D02*
X10615777Y-13731360D01*
X10615777Y-13731360D02*
X10606253Y-13740884D01*
X10606253Y-13740884D02*
X10596729Y-13731360D01*
X10596729Y-13731360D02*
X10606253Y-13721836D01*
X10606253Y-13721836D02*
X10606253Y-13740884D01*
X10787205Y-13540884D02*
X10749110Y-13540884D01*
X10749110Y-13540884D02*
X10730063Y-13550408D01*
X10730063Y-13550408D02*
X10720539Y-13559931D01*
X10720539Y-13559931D02*
X10701491Y-13588503D01*
X10701491Y-13588503D02*
X10691967Y-13626598D01*
X10691967Y-13626598D02*
X10691967Y-13702788D01*
X10691967Y-13702788D02*
X10701491Y-13721836D01*
X10701491Y-13721836D02*
X10711015Y-13731360D01*
X10711015Y-13731360D02*
X10730063Y-13740884D01*
X10730063Y-13740884D02*
X10768158Y-13740884D01*
X10768158Y-13740884D02*
X10787205Y-13731360D01*
X10787205Y-13731360D02*
X10796729Y-13721836D01*
X10796729Y-13721836D02*
X10806253Y-13702788D01*
X10806253Y-13702788D02*
X10806253Y-13655169D01*
X10806253Y-13655169D02*
X10796729Y-13636122D01*
X10796729Y-13636122D02*
X10787205Y-13626598D01*
X10787205Y-13626598D02*
X10768158Y-13617074D01*
X10768158Y-13617074D02*
X10730063Y-13617074D01*
X10730063Y-13617074D02*
X10711015Y-13626598D01*
X10711015Y-13626598D02*
X10701491Y-13636122D01*
X10701491Y-13636122D02*
X10691967Y-13655169D01*
X10930063Y-13540884D02*
X10949110Y-13540884D01*
X10949110Y-13540884D02*
X10968158Y-13550408D01*
X10968158Y-13550408D02*
X10977682Y-13559931D01*
X10977682Y-13559931D02*
X10987205Y-13578979D01*
X10987205Y-13578979D02*
X10996729Y-13617074D01*
X10996729Y-13617074D02*
X10996729Y-13664693D01*
X10996729Y-13664693D02*
X10987205Y-13702788D01*
X10987205Y-13702788D02*
X10977682Y-13721836D01*
X10977682Y-13721836D02*
X10968158Y-13731360D01*
X10968158Y-13731360D02*
X10949110Y-13740884D01*
X10949110Y-13740884D02*
X10930063Y-13740884D01*
X10930063Y-13740884D02*
X10911015Y-13731360D01*
X10911015Y-13731360D02*
X10901491Y-13721836D01*
X10901491Y-13721836D02*
X10891967Y-13702788D01*
X10891967Y-13702788D02*
X10882444Y-13664693D01*
X10882444Y-13664693D02*
X10882444Y-13617074D01*
X10882444Y-13617074D02*
X10891967Y-13578979D01*
X10891967Y-13578979D02*
X10901491Y-13559931D01*
X10901491Y-13559931D02*
X10911015Y-13550408D01*
X10911015Y-13550408D02*
X10930063Y-13540884D01*
X11120539Y-13540884D02*
X11139586Y-13540884D01*
X11139586Y-13540884D02*
X11158634Y-13550408D01*
X11158634Y-13550408D02*
X11168158Y-13559931D01*
X11168158Y-13559931D02*
X11177682Y-13578979D01*
X11177682Y-13578979D02*
X11187205Y-13617074D01*
X11187205Y-13617074D02*
X11187205Y-13664693D01*
X11187205Y-13664693D02*
X11177682Y-13702788D01*
X11177682Y-13702788D02*
X11168158Y-13721836D01*
X11168158Y-13721836D02*
X11158634Y-13731360D01*
X11158634Y-13731360D02*
X11139586Y-13740884D01*
X11139586Y-13740884D02*
X11120539Y-13740884D01*
X11120539Y-13740884D02*
X11101491Y-13731360D01*
X11101491Y-13731360D02*
X11091967Y-13721836D01*
X11091967Y-13721836D02*
X11082444Y-13702788D01*
X11082444Y-13702788D02*
X11072920Y-13664693D01*
X11072920Y-13664693D02*
X11072920Y-13617074D01*
X11072920Y-13617074D02*
X11082444Y-13578979D01*
X11082444Y-13578979D02*
X11091967Y-13559931D01*
X11091967Y-13559931D02*
X11101491Y-13550408D01*
X11101491Y-13550408D02*
X11120539Y-13540884D01*
X11272920Y-13740884D02*
X11272920Y-13607550D01*
X11272920Y-13626598D02*
X11282443Y-13617074D01*
X11282443Y-13617074D02*
X11301491Y-13607550D01*
X11301491Y-13607550D02*
X11330063Y-13607550D01*
X11330063Y-13607550D02*
X11349110Y-13617074D01*
X11349110Y-13617074D02*
X11358634Y-13636122D01*
X11358634Y-13636122D02*
X11358634Y-13740884D01*
X11358634Y-13636122D02*
X11368158Y-13617074D01*
X11368158Y-13617074D02*
X11387205Y-13607550D01*
X11387205Y-13607550D02*
X11415777Y-13607550D01*
X11415777Y-13607550D02*
X11434824Y-13617074D01*
X11434824Y-13617074D02*
X11444348Y-13636122D01*
X11444348Y-13636122D02*
X11444348Y-13740884D01*
X11539586Y-13740884D02*
X11539586Y-13607550D01*
X11539586Y-13626598D02*
X11549110Y-13617074D01*
X11549110Y-13617074D02*
X11568158Y-13607550D01*
X11568158Y-13607550D02*
X11596729Y-13607550D01*
X11596729Y-13607550D02*
X11615777Y-13617074D01*
X11615777Y-13617074D02*
X11625301Y-13636122D01*
X11625301Y-13636122D02*
X11625301Y-13740884D01*
X11625301Y-13636122D02*
X11634824Y-13617074D01*
X11634824Y-13617074D02*
X11653872Y-13607550D01*
X11653872Y-13607550D02*
X11682443Y-13607550D01*
X11682443Y-13607550D02*
X11701491Y-13617074D01*
X11701491Y-13617074D02*
X11711015Y-13636122D01*
X11711015Y-13636122D02*
X11711015Y-13740884D01*
X12101491Y-13531360D02*
X11930063Y-13788503D01*
X12358634Y-13540884D02*
X12377682Y-13540884D01*
X12377682Y-13540884D02*
X12396729Y-13550408D01*
X12396729Y-13550408D02*
X12406253Y-13559931D01*
X12406253Y-13559931D02*
X12415777Y-13578979D01*
X12415777Y-13578979D02*
X12425301Y-13617074D01*
X12425301Y-13617074D02*
X12425301Y-13664693D01*
X12425301Y-13664693D02*
X12415777Y-13702788D01*
X12415777Y-13702788D02*
X12406253Y-13721836D01*
X12406253Y-13721836D02*
X12396729Y-13731360D01*
X12396729Y-13731360D02*
X12377682Y-13740884D01*
X12377682Y-13740884D02*
X12358634Y-13740884D01*
X12358634Y-13740884D02*
X12339586Y-13731360D01*
X12339586Y-13731360D02*
X12330063Y-13721836D01*
X12330063Y-13721836D02*
X12320539Y-13702788D01*
X12320539Y-13702788D02*
X12311015Y-13664693D01*
X12311015Y-13664693D02*
X12311015Y-13617074D01*
X12311015Y-13617074D02*
X12320539Y-13578979D01*
X12320539Y-13578979D02*
X12330063Y-13559931D01*
X12330063Y-13559931D02*
X12339586Y-13550408D01*
X12339586Y-13550408D02*
X12358634Y-13540884D01*
X12511015Y-13721836D02*
X12520539Y-13731360D01*
X12520539Y-13731360D02*
X12511015Y-13740884D01*
X12511015Y-13740884D02*
X12501491Y-13731360D01*
X12501491Y-13731360D02*
X12511015Y-13721836D01*
X12511015Y-13721836D02*
X12511015Y-13740884D01*
X12644348Y-13540884D02*
X12663396Y-13540884D01*
X12663396Y-13540884D02*
X12682444Y-13550408D01*
X12682444Y-13550408D02*
X12691967Y-13559931D01*
X12691967Y-13559931D02*
X12701491Y-13578979D01*
X12701491Y-13578979D02*
X12711015Y-13617074D01*
X12711015Y-13617074D02*
X12711015Y-13664693D01*
X12711015Y-13664693D02*
X12701491Y-13702788D01*
X12701491Y-13702788D02*
X12691967Y-13721836D01*
X12691967Y-13721836D02*
X12682444Y-13731360D01*
X12682444Y-13731360D02*
X12663396Y-13740884D01*
X12663396Y-13740884D02*
X12644348Y-13740884D01*
X12644348Y-13740884D02*
X12625301Y-13731360D01*
X12625301Y-13731360D02*
X12615777Y-13721836D01*
X12615777Y-13721836D02*
X12606253Y-13702788D01*
X12606253Y-13702788D02*
X12596729Y-13664693D01*
X12596729Y-13664693D02*
X12596729Y-13617074D01*
X12596729Y-13617074D02*
X12606253Y-13578979D01*
X12606253Y-13578979D02*
X12615777Y-13559931D01*
X12615777Y-13559931D02*
X12625301Y-13550408D01*
X12625301Y-13550408D02*
X12644348Y-13540884D01*
X12787206Y-13559931D02*
X12796729Y-13550408D01*
X12796729Y-13550408D02*
X12815777Y-13540884D01*
X12815777Y-13540884D02*
X12863396Y-13540884D01*
X12863396Y-13540884D02*
X12882444Y-13550408D01*
X12882444Y-13550408D02*
X12891967Y-13559931D01*
X12891967Y-13559931D02*
X12901491Y-13578979D01*
X12901491Y-13578979D02*
X12901491Y-13598027D01*
X12901491Y-13598027D02*
X12891967Y-13626598D01*
X12891967Y-13626598D02*
X12777682Y-13740884D01*
X12777682Y-13740884D02*
X12901491Y-13740884D01*
X12968158Y-13540884D02*
X13091967Y-13540884D01*
X13091967Y-13540884D02*
X13025301Y-13617074D01*
X13025301Y-13617074D02*
X13053872Y-13617074D01*
X13053872Y-13617074D02*
X13072920Y-13626598D01*
X13072920Y-13626598D02*
X13082444Y-13636122D01*
X13082444Y-13636122D02*
X13091967Y-13655169D01*
X13091967Y-13655169D02*
X13091967Y-13702788D01*
X13091967Y-13702788D02*
X13082444Y-13721836D01*
X13082444Y-13721836D02*
X13072920Y-13731360D01*
X13072920Y-13731360D02*
X13053872Y-13740884D01*
X13053872Y-13740884D02*
X12996729Y-13740884D01*
X12996729Y-13740884D02*
X12977682Y-13731360D01*
X12977682Y-13731360D02*
X12968158Y-13721836D01*
X13263396Y-13540884D02*
X13225301Y-13540884D01*
X13225301Y-13540884D02*
X13206253Y-13550408D01*
X13206253Y-13550408D02*
X13196729Y-13559931D01*
X13196729Y-13559931D02*
X13177682Y-13588503D01*
X13177682Y-13588503D02*
X13168158Y-13626598D01*
X13168158Y-13626598D02*
X13168158Y-13702788D01*
X13168158Y-13702788D02*
X13177682Y-13721836D01*
X13177682Y-13721836D02*
X13187206Y-13731360D01*
X13187206Y-13731360D02*
X13206253Y-13740884D01*
X13206253Y-13740884D02*
X13244348Y-13740884D01*
X13244348Y-13740884D02*
X13263396Y-13731360D01*
X13263396Y-13731360D02*
X13272920Y-13721836D01*
X13272920Y-13721836D02*
X13282444Y-13702788D01*
X13282444Y-13702788D02*
X13282444Y-13655169D01*
X13282444Y-13655169D02*
X13272920Y-13636122D01*
X13272920Y-13636122D02*
X13263396Y-13626598D01*
X13263396Y-13626598D02*
X13244348Y-13617074D01*
X13244348Y-13617074D02*
X13206253Y-13617074D01*
X13206253Y-13617074D02*
X13187206Y-13626598D01*
X13187206Y-13626598D02*
X13177682Y-13636122D01*
X13177682Y-13636122D02*
X13168158Y-13655169D01*
X13358634Y-13540884D02*
X13358634Y-13578979D01*
X13434825Y-13540884D02*
X13434825Y-13578979D01*
X13730063Y-13817074D02*
X13720539Y-13807550D01*
X13720539Y-13807550D02*
X13701491Y-13778979D01*
X13701491Y-13778979D02*
X13691968Y-13759931D01*
X13691968Y-13759931D02*
X13682444Y-13731360D01*
X13682444Y-13731360D02*
X13672920Y-13683741D01*
X13672920Y-13683741D02*
X13672920Y-13645646D01*
X13672920Y-13645646D02*
X13682444Y-13598027D01*
X13682444Y-13598027D02*
X13691968Y-13569455D01*
X13691968Y-13569455D02*
X13701491Y-13550408D01*
X13701491Y-13550408D02*
X13720539Y-13521836D01*
X13720539Y-13521836D02*
X13730063Y-13512312D01*
X13891968Y-13607550D02*
X13891968Y-13740884D01*
X13844348Y-13531360D02*
X13796729Y-13674217D01*
X13796729Y-13674217D02*
X13920539Y-13674217D01*
X14149110Y-13740884D02*
X14149110Y-13540884D01*
X14234825Y-13740884D02*
X14234825Y-13636122D01*
X14234825Y-13636122D02*
X14225301Y-13617074D01*
X14225301Y-13617074D02*
X14206253Y-13607550D01*
X14206253Y-13607550D02*
X14177682Y-13607550D01*
X14177682Y-13607550D02*
X14158634Y-13617074D01*
X14158634Y-13617074D02*
X14149110Y-13626598D01*
X14358634Y-13740884D02*
X14339587Y-13731360D01*
X14339587Y-13731360D02*
X14330063Y-13721836D01*
X14330063Y-13721836D02*
X14320539Y-13702788D01*
X14320539Y-13702788D02*
X14320539Y-13645646D01*
X14320539Y-13645646D02*
X14330063Y-13626598D01*
X14330063Y-13626598D02*
X14339587Y-13617074D01*
X14339587Y-13617074D02*
X14358634Y-13607550D01*
X14358634Y-13607550D02*
X14387206Y-13607550D01*
X14387206Y-13607550D02*
X14406253Y-13617074D01*
X14406253Y-13617074D02*
X14415777Y-13626598D01*
X14415777Y-13626598D02*
X14425301Y-13645646D01*
X14425301Y-13645646D02*
X14425301Y-13702788D01*
X14425301Y-13702788D02*
X14415777Y-13721836D01*
X14415777Y-13721836D02*
X14406253Y-13731360D01*
X14406253Y-13731360D02*
X14387206Y-13740884D01*
X14387206Y-13740884D02*
X14358634Y-13740884D01*
X14539587Y-13740884D02*
X14520539Y-13731360D01*
X14520539Y-13731360D02*
X14511015Y-13712312D01*
X14511015Y-13712312D02*
X14511015Y-13540884D01*
X14691968Y-13731360D02*
X14672920Y-13740884D01*
X14672920Y-13740884D02*
X14634825Y-13740884D01*
X14634825Y-13740884D02*
X14615777Y-13731360D01*
X14615777Y-13731360D02*
X14606253Y-13712312D01*
X14606253Y-13712312D02*
X14606253Y-13636122D01*
X14606253Y-13636122D02*
X14615777Y-13617074D01*
X14615777Y-13617074D02*
X14634825Y-13607550D01*
X14634825Y-13607550D02*
X14672920Y-13607550D01*
X14672920Y-13607550D02*
X14691968Y-13617074D01*
X14691968Y-13617074D02*
X14701491Y-13636122D01*
X14701491Y-13636122D02*
X14701491Y-13655169D01*
X14701491Y-13655169D02*
X14606253Y-13674217D01*
X14777682Y-13731360D02*
X14796730Y-13740884D01*
X14796730Y-13740884D02*
X14834825Y-13740884D01*
X14834825Y-13740884D02*
X14853872Y-13731360D01*
X14853872Y-13731360D02*
X14863396Y-13712312D01*
X14863396Y-13712312D02*
X14863396Y-13702788D01*
X14863396Y-13702788D02*
X14853872Y-13683741D01*
X14853872Y-13683741D02*
X14834825Y-13674217D01*
X14834825Y-13674217D02*
X14806253Y-13674217D01*
X14806253Y-13674217D02*
X14787206Y-13664693D01*
X14787206Y-13664693D02*
X14777682Y-13645646D01*
X14777682Y-13645646D02*
X14777682Y-13636122D01*
X14777682Y-13636122D02*
X14787206Y-13617074D01*
X14787206Y-13617074D02*
X14806253Y-13607550D01*
X14806253Y-13607550D02*
X14834825Y-13607550D01*
X14834825Y-13607550D02*
X14853872Y-13617074D01*
X14930063Y-13817074D02*
X14939587Y-13807550D01*
X14939587Y-13807550D02*
X14958634Y-13778979D01*
X14958634Y-13778979D02*
X14968158Y-13759931D01*
X14968158Y-13759931D02*
X14977682Y-13731360D01*
X14977682Y-13731360D02*
X14987206Y-13683741D01*
X14987206Y-13683741D02*
X14987206Y-13645646D01*
X14987206Y-13645646D02*
X14977682Y-13598027D01*
X14977682Y-13598027D02*
X14968158Y-13569455D01*
X14968158Y-13569455D02*
X14958634Y-13550408D01*
X14958634Y-13550408D02*
X14939587Y-13521836D01*
X14939587Y-13521836D02*
X14930063Y-13512312D01*
D10*
X10116900Y-13875300D02*
X10116900Y-13951500D01*
X10078800Y-13913400D02*
X10155000Y-13913400D01*
D12*
X10453872Y-13804884D02*
X10472920Y-13804884D01*
X10472920Y-13804884D02*
X10491967Y-13814408D01*
X10491967Y-13814408D02*
X10501491Y-13823931D01*
X10501491Y-13823931D02*
X10511015Y-13842979D01*
X10511015Y-13842979D02*
X10520539Y-13881074D01*
X10520539Y-13881074D02*
X10520539Y-13928693D01*
X10520539Y-13928693D02*
X10511015Y-13966788D01*
X10511015Y-13966788D02*
X10501491Y-13985836D01*
X10501491Y-13985836D02*
X10491967Y-13995360D01*
X10491967Y-13995360D02*
X10472920Y-14004884D01*
X10472920Y-14004884D02*
X10453872Y-14004884D01*
X10453872Y-14004884D02*
X10434824Y-13995360D01*
X10434824Y-13995360D02*
X10425301Y-13985836D01*
X10425301Y-13985836D02*
X10415777Y-13966788D01*
X10415777Y-13966788D02*
X10406253Y-13928693D01*
X10406253Y-13928693D02*
X10406253Y-13881074D01*
X10406253Y-13881074D02*
X10415777Y-13842979D01*
X10415777Y-13842979D02*
X10425301Y-13823931D01*
X10425301Y-13823931D02*
X10434824Y-13814408D01*
X10434824Y-13814408D02*
X10453872Y-13804884D01*
X10606253Y-13985836D02*
X10615777Y-13995360D01*
X10615777Y-13995360D02*
X10606253Y-14004884D01*
X10606253Y-14004884D02*
X10596729Y-13995360D01*
X10596729Y-13995360D02*
X10606253Y-13985836D01*
X10606253Y-13985836D02*
X10606253Y-14004884D01*
X10682444Y-13804884D02*
X10815777Y-13804884D01*
X10815777Y-13804884D02*
X10730063Y-14004884D01*
X10977682Y-13804884D02*
X10939586Y-13804884D01*
X10939586Y-13804884D02*
X10920539Y-13814408D01*
X10920539Y-13814408D02*
X10911015Y-13823931D01*
X10911015Y-13823931D02*
X10891967Y-13852503D01*
X10891967Y-13852503D02*
X10882444Y-13890598D01*
X10882444Y-13890598D02*
X10882444Y-13966788D01*
X10882444Y-13966788D02*
X10891967Y-13985836D01*
X10891967Y-13985836D02*
X10901491Y-13995360D01*
X10901491Y-13995360D02*
X10920539Y-14004884D01*
X10920539Y-14004884D02*
X10958634Y-14004884D01*
X10958634Y-14004884D02*
X10977682Y-13995360D01*
X10977682Y-13995360D02*
X10987205Y-13985836D01*
X10987205Y-13985836D02*
X10996729Y-13966788D01*
X10996729Y-13966788D02*
X10996729Y-13919169D01*
X10996729Y-13919169D02*
X10987205Y-13900122D01*
X10987205Y-13900122D02*
X10977682Y-13890598D01*
X10977682Y-13890598D02*
X10958634Y-13881074D01*
X10958634Y-13881074D02*
X10920539Y-13881074D01*
X10920539Y-13881074D02*
X10901491Y-13890598D01*
X10901491Y-13890598D02*
X10891967Y-13900122D01*
X10891967Y-13900122D02*
X10882444Y-13919169D01*
X11072920Y-13823931D02*
X11082444Y-13814408D01*
X11082444Y-13814408D02*
X11101491Y-13804884D01*
X11101491Y-13804884D02*
X11149110Y-13804884D01*
X11149110Y-13804884D02*
X11168158Y-13814408D01*
X11168158Y-13814408D02*
X11177682Y-13823931D01*
X11177682Y-13823931D02*
X11187205Y-13842979D01*
X11187205Y-13842979D02*
X11187205Y-13862027D01*
X11187205Y-13862027D02*
X11177682Y-13890598D01*
X11177682Y-13890598D02*
X11063396Y-14004884D01*
X11063396Y-14004884D02*
X11187205Y-14004884D01*
X11272920Y-14004884D02*
X11272920Y-13871550D01*
X11272920Y-13890598D02*
X11282443Y-13881074D01*
X11282443Y-13881074D02*
X11301491Y-13871550D01*
X11301491Y-13871550D02*
X11330063Y-13871550D01*
X11330063Y-13871550D02*
X11349110Y-13881074D01*
X11349110Y-13881074D02*
X11358634Y-13900122D01*
X11358634Y-13900122D02*
X11358634Y-14004884D01*
X11358634Y-13900122D02*
X11368158Y-13881074D01*
X11368158Y-13881074D02*
X11387205Y-13871550D01*
X11387205Y-13871550D02*
X11415777Y-13871550D01*
X11415777Y-13871550D02*
X11434824Y-13881074D01*
X11434824Y-13881074D02*
X11444348Y-13900122D01*
X11444348Y-13900122D02*
X11444348Y-14004884D01*
X11539586Y-14004884D02*
X11539586Y-13871550D01*
X11539586Y-13890598D02*
X11549110Y-13881074D01*
X11549110Y-13881074D02*
X11568158Y-13871550D01*
X11568158Y-13871550D02*
X11596729Y-13871550D01*
X11596729Y-13871550D02*
X11615777Y-13881074D01*
X11615777Y-13881074D02*
X11625301Y-13900122D01*
X11625301Y-13900122D02*
X11625301Y-14004884D01*
X11625301Y-13900122D02*
X11634824Y-13881074D01*
X11634824Y-13881074D02*
X11653872Y-13871550D01*
X11653872Y-13871550D02*
X11682443Y-13871550D01*
X11682443Y-13871550D02*
X11701491Y-13881074D01*
X11701491Y-13881074D02*
X11711015Y-13900122D01*
X11711015Y-13900122D02*
X11711015Y-14004884D01*
X12101491Y-13795360D02*
X11930063Y-14052503D01*
X12358634Y-13804884D02*
X12377682Y-13804884D01*
X12377682Y-13804884D02*
X12396729Y-13814408D01*
X12396729Y-13814408D02*
X12406253Y-13823931D01*
X12406253Y-13823931D02*
X12415777Y-13842979D01*
X12415777Y-13842979D02*
X12425301Y-13881074D01*
X12425301Y-13881074D02*
X12425301Y-13928693D01*
X12425301Y-13928693D02*
X12415777Y-13966788D01*
X12415777Y-13966788D02*
X12406253Y-13985836D01*
X12406253Y-13985836D02*
X12396729Y-13995360D01*
X12396729Y-13995360D02*
X12377682Y-14004884D01*
X12377682Y-14004884D02*
X12358634Y-14004884D01*
X12358634Y-14004884D02*
X12339586Y-13995360D01*
X12339586Y-13995360D02*
X12330063Y-13985836D01*
X12330063Y-13985836D02*
X12320539Y-13966788D01*
X12320539Y-13966788D02*
X12311015Y-13928693D01*
X12311015Y-13928693D02*
X12311015Y-13881074D01*
X12311015Y-13881074D02*
X12320539Y-13842979D01*
X12320539Y-13842979D02*
X12330063Y-13823931D01*
X12330063Y-13823931D02*
X12339586Y-13814408D01*
X12339586Y-13814408D02*
X12358634Y-13804884D01*
X12511015Y-13985836D02*
X12520539Y-13995360D01*
X12520539Y-13995360D02*
X12511015Y-14004884D01*
X12511015Y-14004884D02*
X12501491Y-13995360D01*
X12501491Y-13995360D02*
X12511015Y-13985836D01*
X12511015Y-13985836D02*
X12511015Y-14004884D01*
X12644348Y-13804884D02*
X12663396Y-13804884D01*
X12663396Y-13804884D02*
X12682444Y-13814408D01*
X12682444Y-13814408D02*
X12691967Y-13823931D01*
X12691967Y-13823931D02*
X12701491Y-13842979D01*
X12701491Y-13842979D02*
X12711015Y-13881074D01*
X12711015Y-13881074D02*
X12711015Y-13928693D01*
X12711015Y-13928693D02*
X12701491Y-13966788D01*
X12701491Y-13966788D02*
X12691967Y-13985836D01*
X12691967Y-13985836D02*
X12682444Y-13995360D01*
X12682444Y-13995360D02*
X12663396Y-14004884D01*
X12663396Y-14004884D02*
X12644348Y-14004884D01*
X12644348Y-14004884D02*
X12625301Y-13995360D01*
X12625301Y-13995360D02*
X12615777Y-13985836D01*
X12615777Y-13985836D02*
X12606253Y-13966788D01*
X12606253Y-13966788D02*
X12596729Y-13928693D01*
X12596729Y-13928693D02*
X12596729Y-13881074D01*
X12596729Y-13881074D02*
X12606253Y-13842979D01*
X12606253Y-13842979D02*
X12615777Y-13823931D01*
X12615777Y-13823931D02*
X12625301Y-13814408D01*
X12625301Y-13814408D02*
X12644348Y-13804884D01*
X12777682Y-13804884D02*
X12901491Y-13804884D01*
X12901491Y-13804884D02*
X12834825Y-13881074D01*
X12834825Y-13881074D02*
X12863396Y-13881074D01*
X12863396Y-13881074D02*
X12882444Y-13890598D01*
X12882444Y-13890598D02*
X12891967Y-13900122D01*
X12891967Y-13900122D02*
X12901491Y-13919169D01*
X12901491Y-13919169D02*
X12901491Y-13966788D01*
X12901491Y-13966788D02*
X12891967Y-13985836D01*
X12891967Y-13985836D02*
X12882444Y-13995360D01*
X12882444Y-13995360D02*
X12863396Y-14004884D01*
X12863396Y-14004884D02*
X12806253Y-14004884D01*
X12806253Y-14004884D02*
X12787206Y-13995360D01*
X12787206Y-13995360D02*
X12777682Y-13985836D01*
X13025301Y-13804884D02*
X13044348Y-13804884D01*
X13044348Y-13804884D02*
X13063396Y-13814408D01*
X13063396Y-13814408D02*
X13072920Y-13823931D01*
X13072920Y-13823931D02*
X13082444Y-13842979D01*
X13082444Y-13842979D02*
X13091967Y-13881074D01*
X13091967Y-13881074D02*
X13091967Y-13928693D01*
X13091967Y-13928693D02*
X13082444Y-13966788D01*
X13082444Y-13966788D02*
X13072920Y-13985836D01*
X13072920Y-13985836D02*
X13063396Y-13995360D01*
X13063396Y-13995360D02*
X13044348Y-14004884D01*
X13044348Y-14004884D02*
X13025301Y-14004884D01*
X13025301Y-14004884D02*
X13006253Y-13995360D01*
X13006253Y-13995360D02*
X12996729Y-13985836D01*
X12996729Y-13985836D02*
X12987206Y-13966788D01*
X12987206Y-13966788D02*
X12977682Y-13928693D01*
X12977682Y-13928693D02*
X12977682Y-13881074D01*
X12977682Y-13881074D02*
X12987206Y-13842979D01*
X12987206Y-13842979D02*
X12996729Y-13823931D01*
X12996729Y-13823931D02*
X13006253Y-13814408D01*
X13006253Y-13814408D02*
X13025301Y-13804884D01*
X13215777Y-13804884D02*
X13234825Y-13804884D01*
X13234825Y-13804884D02*
X13253872Y-13814408D01*
X13253872Y-13814408D02*
X13263396Y-13823931D01*
X13263396Y-13823931D02*
X13272920Y-13842979D01*
X13272920Y-13842979D02*
X13282444Y-13881074D01*
X13282444Y-13881074D02*
X13282444Y-13928693D01*
X13282444Y-13928693D02*
X13272920Y-13966788D01*
X13272920Y-13966788D02*
X13263396Y-13985836D01*
X13263396Y-13985836D02*
X13253872Y-13995360D01*
X13253872Y-13995360D02*
X13234825Y-14004884D01*
X13234825Y-14004884D02*
X13215777Y-14004884D01*
X13215777Y-14004884D02*
X13196729Y-13995360D01*
X13196729Y-13995360D02*
X13187206Y-13985836D01*
X13187206Y-13985836D02*
X13177682Y-13966788D01*
X13177682Y-13966788D02*
X13168158Y-13928693D01*
X13168158Y-13928693D02*
X13168158Y-13881074D01*
X13168158Y-13881074D02*
X13177682Y-13842979D01*
X13177682Y-13842979D02*
X13187206Y-13823931D01*
X13187206Y-13823931D02*
X13196729Y-13814408D01*
X13196729Y-13814408D02*
X13215777Y-13804884D01*
X13358634Y-13804884D02*
X13358634Y-13842979D01*
X13434825Y-13804884D02*
X13434825Y-13842979D01*
X13730063Y-14081074D02*
X13720539Y-14071550D01*
X13720539Y-14071550D02*
X13701491Y-14042979D01*
X13701491Y-14042979D02*
X13691968Y-14023931D01*
X13691968Y-14023931D02*
X13682444Y-13995360D01*
X13682444Y-13995360D02*
X13672920Y-13947741D01*
X13672920Y-13947741D02*
X13672920Y-13909646D01*
X13672920Y-13909646D02*
X13682444Y-13862027D01*
X13682444Y-13862027D02*
X13691968Y-13833455D01*
X13691968Y-13833455D02*
X13701491Y-13814408D01*
X13701491Y-13814408D02*
X13720539Y-13785836D01*
X13720539Y-13785836D02*
X13730063Y-13776312D01*
X13834825Y-13890598D02*
X13815777Y-13881074D01*
X13815777Y-13881074D02*
X13806253Y-13871550D01*
X13806253Y-13871550D02*
X13796729Y-13852503D01*
X13796729Y-13852503D02*
X13796729Y-13842979D01*
X13796729Y-13842979D02*
X13806253Y-13823931D01*
X13806253Y-13823931D02*
X13815777Y-13814408D01*
X13815777Y-13814408D02*
X13834825Y-13804884D01*
X13834825Y-13804884D02*
X13872920Y-13804884D01*
X13872920Y-13804884D02*
X13891968Y-13814408D01*
X13891968Y-13814408D02*
X13901491Y-13823931D01*
X13901491Y-13823931D02*
X13911015Y-13842979D01*
X13911015Y-13842979D02*
X13911015Y-13852503D01*
X13911015Y-13852503D02*
X13901491Y-13871550D01*
X13901491Y-13871550D02*
X13891968Y-13881074D01*
X13891968Y-13881074D02*
X13872920Y-13890598D01*
X13872920Y-13890598D02*
X13834825Y-13890598D01*
X13834825Y-13890598D02*
X13815777Y-13900122D01*
X13815777Y-13900122D02*
X13806253Y-13909646D01*
X13806253Y-13909646D02*
X13796729Y-13928693D01*
X13796729Y-13928693D02*
X13796729Y-13966788D01*
X13796729Y-13966788D02*
X13806253Y-13985836D01*
X13806253Y-13985836D02*
X13815777Y-13995360D01*
X13815777Y-13995360D02*
X13834825Y-14004884D01*
X13834825Y-14004884D02*
X13872920Y-14004884D01*
X13872920Y-14004884D02*
X13891968Y-13995360D01*
X13891968Y-13995360D02*
X13901491Y-13985836D01*
X13901491Y-13985836D02*
X13911015Y-13966788D01*
X13911015Y-13966788D02*
X13911015Y-13928693D01*
X13911015Y-13928693D02*
X13901491Y-13909646D01*
X13901491Y-13909646D02*
X13891968Y-13900122D01*
X13891968Y-13900122D02*
X13872920Y-13890598D01*
X14149110Y-14004884D02*
X14149110Y-13804884D01*
X14234825Y-14004884D02*
X14234825Y-13900122D01*
X14234825Y-13900122D02*
X14225301Y-13881074D01*
X14225301Y-13881074D02*
X14206253Y-13871550D01*
X14206253Y-13871550D02*
X14177682Y-13871550D01*
X14177682Y-13871550D02*
X14158634Y-13881074D01*
X14158634Y-13881074D02*
X14149110Y-13890598D01*
X14358634Y-14004884D02*
X14339587Y-13995360D01*
X14339587Y-13995360D02*
X14330063Y-13985836D01*
X14330063Y-13985836D02*
X14320539Y-13966788D01*
X14320539Y-13966788D02*
X14320539Y-13909646D01*
X14320539Y-13909646D02*
X14330063Y-13890598D01*
X14330063Y-13890598D02*
X14339587Y-13881074D01*
X14339587Y-13881074D02*
X14358634Y-13871550D01*
X14358634Y-13871550D02*
X14387206Y-13871550D01*
X14387206Y-13871550D02*
X14406253Y-13881074D01*
X14406253Y-13881074D02*
X14415777Y-13890598D01*
X14415777Y-13890598D02*
X14425301Y-13909646D01*
X14425301Y-13909646D02*
X14425301Y-13966788D01*
X14425301Y-13966788D02*
X14415777Y-13985836D01*
X14415777Y-13985836D02*
X14406253Y-13995360D01*
X14406253Y-13995360D02*
X14387206Y-14004884D01*
X14387206Y-14004884D02*
X14358634Y-14004884D01*
X14539587Y-14004884D02*
X14520539Y-13995360D01*
X14520539Y-13995360D02*
X14511015Y-13976312D01*
X14511015Y-13976312D02*
X14511015Y-13804884D01*
X14691968Y-13995360D02*
X14672920Y-14004884D01*
X14672920Y-14004884D02*
X14634825Y-14004884D01*
X14634825Y-14004884D02*
X14615777Y-13995360D01*
X14615777Y-13995360D02*
X14606253Y-13976312D01*
X14606253Y-13976312D02*
X14606253Y-13900122D01*
X14606253Y-13900122D02*
X14615777Y-13881074D01*
X14615777Y-13881074D02*
X14634825Y-13871550D01*
X14634825Y-13871550D02*
X14672920Y-13871550D01*
X14672920Y-13871550D02*
X14691968Y-13881074D01*
X14691968Y-13881074D02*
X14701491Y-13900122D01*
X14701491Y-13900122D02*
X14701491Y-13919169D01*
X14701491Y-13919169D02*
X14606253Y-13938217D01*
X14777682Y-13995360D02*
X14796730Y-14004884D01*
X14796730Y-14004884D02*
X14834825Y-14004884D01*
X14834825Y-14004884D02*
X14853872Y-13995360D01*
X14853872Y-13995360D02*
X14863396Y-13976312D01*
X14863396Y-13976312D02*
X14863396Y-13966788D01*
X14863396Y-13966788D02*
X14853872Y-13947741D01*
X14853872Y-13947741D02*
X14834825Y-13938217D01*
X14834825Y-13938217D02*
X14806253Y-13938217D01*
X14806253Y-13938217D02*
X14787206Y-13928693D01*
X14787206Y-13928693D02*
X14777682Y-13909646D01*
X14777682Y-13909646D02*
X14777682Y-13900122D01*
X14777682Y-13900122D02*
X14787206Y-13881074D01*
X14787206Y-13881074D02*
X14806253Y-13871550D01*
X14806253Y-13871550D02*
X14834825Y-13871550D01*
X14834825Y-13871550D02*
X14853872Y-13881074D01*
X14930063Y-14081074D02*
X14939587Y-14071550D01*
X14939587Y-14071550D02*
X14958634Y-14042979D01*
X14958634Y-14042979D02*
X14968158Y-14023931D01*
X14968158Y-14023931D02*
X14977682Y-13995360D01*
X14977682Y-13995360D02*
X14987206Y-13947741D01*
X14987206Y-13947741D02*
X14987206Y-13909646D01*
X14987206Y-13909646D02*
X14977682Y-13862027D01*
X14977682Y-13862027D02*
X14968158Y-13833455D01*
X14968158Y-13833455D02*
X14958634Y-13814408D01*
X14958634Y-13814408D02*
X14939587Y-13785836D01*
X14939587Y-13785836D02*
X14930063Y-13776312D01*
D10*
X10140356Y-14212756D02*
X10140356Y-14142044D01*
X10069644Y-14142044D01*
X10069644Y-14212756D01*
X10140356Y-14212756D01*
D12*
X10520539Y-14268884D02*
X10406253Y-14268884D01*
X10463396Y-14268884D02*
X10463396Y-14068884D01*
X10463396Y-14068884D02*
X10444348Y-14097455D01*
X10444348Y-14097455D02*
X10425301Y-14116503D01*
X10425301Y-14116503D02*
X10406253Y-14126027D01*
X10606253Y-14249836D02*
X10615777Y-14259360D01*
X10615777Y-14259360D02*
X10606253Y-14268884D01*
X10606253Y-14268884D02*
X10596729Y-14259360D01*
X10596729Y-14259360D02*
X10606253Y-14249836D01*
X10606253Y-14249836D02*
X10606253Y-14268884D01*
X10739586Y-14068884D02*
X10758634Y-14068884D01*
X10758634Y-14068884D02*
X10777682Y-14078408D01*
X10777682Y-14078408D02*
X10787205Y-14087931D01*
X10787205Y-14087931D02*
X10796729Y-14106979D01*
X10796729Y-14106979D02*
X10806253Y-14145074D01*
X10806253Y-14145074D02*
X10806253Y-14192693D01*
X10806253Y-14192693D02*
X10796729Y-14230788D01*
X10796729Y-14230788D02*
X10787205Y-14249836D01*
X10787205Y-14249836D02*
X10777682Y-14259360D01*
X10777682Y-14259360D02*
X10758634Y-14268884D01*
X10758634Y-14268884D02*
X10739586Y-14268884D01*
X10739586Y-14268884D02*
X10720539Y-14259360D01*
X10720539Y-14259360D02*
X10711015Y-14249836D01*
X10711015Y-14249836D02*
X10701491Y-14230788D01*
X10701491Y-14230788D02*
X10691967Y-14192693D01*
X10691967Y-14192693D02*
X10691967Y-14145074D01*
X10691967Y-14145074D02*
X10701491Y-14106979D01*
X10701491Y-14106979D02*
X10711015Y-14087931D01*
X10711015Y-14087931D02*
X10720539Y-14078408D01*
X10720539Y-14078408D02*
X10739586Y-14068884D01*
X10930063Y-14068884D02*
X10949110Y-14068884D01*
X10949110Y-14068884D02*
X10968158Y-14078408D01*
X10968158Y-14078408D02*
X10977682Y-14087931D01*
X10977682Y-14087931D02*
X10987205Y-14106979D01*
X10987205Y-14106979D02*
X10996729Y-14145074D01*
X10996729Y-14145074D02*
X10996729Y-14192693D01*
X10996729Y-14192693D02*
X10987205Y-14230788D01*
X10987205Y-14230788D02*
X10977682Y-14249836D01*
X10977682Y-14249836D02*
X10968158Y-14259360D01*
X10968158Y-14259360D02*
X10949110Y-14268884D01*
X10949110Y-14268884D02*
X10930063Y-14268884D01*
X10930063Y-14268884D02*
X10911015Y-14259360D01*
X10911015Y-14259360D02*
X10901491Y-14249836D01*
X10901491Y-14249836D02*
X10891967Y-14230788D01*
X10891967Y-14230788D02*
X10882444Y-14192693D01*
X10882444Y-14192693D02*
X10882444Y-14145074D01*
X10882444Y-14145074D02*
X10891967Y-14106979D01*
X10891967Y-14106979D02*
X10901491Y-14087931D01*
X10901491Y-14087931D02*
X10911015Y-14078408D01*
X10911015Y-14078408D02*
X10930063Y-14068884D01*
X11120539Y-14068884D02*
X11139586Y-14068884D01*
X11139586Y-14068884D02*
X11158634Y-14078408D01*
X11158634Y-14078408D02*
X11168158Y-14087931D01*
X11168158Y-14087931D02*
X11177682Y-14106979D01*
X11177682Y-14106979D02*
X11187205Y-14145074D01*
X11187205Y-14145074D02*
X11187205Y-14192693D01*
X11187205Y-14192693D02*
X11177682Y-14230788D01*
X11177682Y-14230788D02*
X11168158Y-14249836D01*
X11168158Y-14249836D02*
X11158634Y-14259360D01*
X11158634Y-14259360D02*
X11139586Y-14268884D01*
X11139586Y-14268884D02*
X11120539Y-14268884D01*
X11120539Y-14268884D02*
X11101491Y-14259360D01*
X11101491Y-14259360D02*
X11091967Y-14249836D01*
X11091967Y-14249836D02*
X11082444Y-14230788D01*
X11082444Y-14230788D02*
X11072920Y-14192693D01*
X11072920Y-14192693D02*
X11072920Y-14145074D01*
X11072920Y-14145074D02*
X11082444Y-14106979D01*
X11082444Y-14106979D02*
X11091967Y-14087931D01*
X11091967Y-14087931D02*
X11101491Y-14078408D01*
X11101491Y-14078408D02*
X11120539Y-14068884D01*
X11272920Y-14268884D02*
X11272920Y-14135550D01*
X11272920Y-14154598D02*
X11282443Y-14145074D01*
X11282443Y-14145074D02*
X11301491Y-14135550D01*
X11301491Y-14135550D02*
X11330063Y-14135550D01*
X11330063Y-14135550D02*
X11349110Y-14145074D01*
X11349110Y-14145074D02*
X11358634Y-14164122D01*
X11358634Y-14164122D02*
X11358634Y-14268884D01*
X11358634Y-14164122D02*
X11368158Y-14145074D01*
X11368158Y-14145074D02*
X11387205Y-14135550D01*
X11387205Y-14135550D02*
X11415777Y-14135550D01*
X11415777Y-14135550D02*
X11434824Y-14145074D01*
X11434824Y-14145074D02*
X11444348Y-14164122D01*
X11444348Y-14164122D02*
X11444348Y-14268884D01*
X11539586Y-14268884D02*
X11539586Y-14135550D01*
X11539586Y-14154598D02*
X11549110Y-14145074D01*
X11549110Y-14145074D02*
X11568158Y-14135550D01*
X11568158Y-14135550D02*
X11596729Y-14135550D01*
X11596729Y-14135550D02*
X11615777Y-14145074D01*
X11615777Y-14145074D02*
X11625301Y-14164122D01*
X11625301Y-14164122D02*
X11625301Y-14268884D01*
X11625301Y-14164122D02*
X11634824Y-14145074D01*
X11634824Y-14145074D02*
X11653872Y-14135550D01*
X11653872Y-14135550D02*
X11682443Y-14135550D01*
X11682443Y-14135550D02*
X11701491Y-14145074D01*
X11701491Y-14145074D02*
X11711015Y-14164122D01*
X11711015Y-14164122D02*
X11711015Y-14268884D01*
X12101491Y-14059360D02*
X11930063Y-14316503D01*
X12358634Y-14068884D02*
X12377682Y-14068884D01*
X12377682Y-14068884D02*
X12396729Y-14078408D01*
X12396729Y-14078408D02*
X12406253Y-14087931D01*
X12406253Y-14087931D02*
X12415777Y-14106979D01*
X12415777Y-14106979D02*
X12425301Y-14145074D01*
X12425301Y-14145074D02*
X12425301Y-14192693D01*
X12425301Y-14192693D02*
X12415777Y-14230788D01*
X12415777Y-14230788D02*
X12406253Y-14249836D01*
X12406253Y-14249836D02*
X12396729Y-14259360D01*
X12396729Y-14259360D02*
X12377682Y-14268884D01*
X12377682Y-14268884D02*
X12358634Y-14268884D01*
X12358634Y-14268884D02*
X12339586Y-14259360D01*
X12339586Y-14259360D02*
X12330063Y-14249836D01*
X12330063Y-14249836D02*
X12320539Y-14230788D01*
X12320539Y-14230788D02*
X12311015Y-14192693D01*
X12311015Y-14192693D02*
X12311015Y-14145074D01*
X12311015Y-14145074D02*
X12320539Y-14106979D01*
X12320539Y-14106979D02*
X12330063Y-14087931D01*
X12330063Y-14087931D02*
X12339586Y-14078408D01*
X12339586Y-14078408D02*
X12358634Y-14068884D01*
X12511015Y-14249836D02*
X12520539Y-14259360D01*
X12520539Y-14259360D02*
X12511015Y-14268884D01*
X12511015Y-14268884D02*
X12501491Y-14259360D01*
X12501491Y-14259360D02*
X12511015Y-14249836D01*
X12511015Y-14249836D02*
X12511015Y-14268884D01*
X12644348Y-14068884D02*
X12663396Y-14068884D01*
X12663396Y-14068884D02*
X12682444Y-14078408D01*
X12682444Y-14078408D02*
X12691967Y-14087931D01*
X12691967Y-14087931D02*
X12701491Y-14106979D01*
X12701491Y-14106979D02*
X12711015Y-14145074D01*
X12711015Y-14145074D02*
X12711015Y-14192693D01*
X12711015Y-14192693D02*
X12701491Y-14230788D01*
X12701491Y-14230788D02*
X12691967Y-14249836D01*
X12691967Y-14249836D02*
X12682444Y-14259360D01*
X12682444Y-14259360D02*
X12663396Y-14268884D01*
X12663396Y-14268884D02*
X12644348Y-14268884D01*
X12644348Y-14268884D02*
X12625301Y-14259360D01*
X12625301Y-14259360D02*
X12615777Y-14249836D01*
X12615777Y-14249836D02*
X12606253Y-14230788D01*
X12606253Y-14230788D02*
X12596729Y-14192693D01*
X12596729Y-14192693D02*
X12596729Y-14145074D01*
X12596729Y-14145074D02*
X12606253Y-14106979D01*
X12606253Y-14106979D02*
X12615777Y-14087931D01*
X12615777Y-14087931D02*
X12625301Y-14078408D01*
X12625301Y-14078408D02*
X12644348Y-14068884D01*
X12777682Y-14068884D02*
X12901491Y-14068884D01*
X12901491Y-14068884D02*
X12834825Y-14145074D01*
X12834825Y-14145074D02*
X12863396Y-14145074D01*
X12863396Y-14145074D02*
X12882444Y-14154598D01*
X12882444Y-14154598D02*
X12891967Y-14164122D01*
X12891967Y-14164122D02*
X12901491Y-14183169D01*
X12901491Y-14183169D02*
X12901491Y-14230788D01*
X12901491Y-14230788D02*
X12891967Y-14249836D01*
X12891967Y-14249836D02*
X12882444Y-14259360D01*
X12882444Y-14259360D02*
X12863396Y-14268884D01*
X12863396Y-14268884D02*
X12806253Y-14268884D01*
X12806253Y-14268884D02*
X12787206Y-14259360D01*
X12787206Y-14259360D02*
X12777682Y-14249836D01*
X12996729Y-14268884D02*
X13034825Y-14268884D01*
X13034825Y-14268884D02*
X13053872Y-14259360D01*
X13053872Y-14259360D02*
X13063396Y-14249836D01*
X13063396Y-14249836D02*
X13082444Y-14221265D01*
X13082444Y-14221265D02*
X13091967Y-14183169D01*
X13091967Y-14183169D02*
X13091967Y-14106979D01*
X13091967Y-14106979D02*
X13082444Y-14087931D01*
X13082444Y-14087931D02*
X13072920Y-14078408D01*
X13072920Y-14078408D02*
X13053872Y-14068884D01*
X13053872Y-14068884D02*
X13015777Y-14068884D01*
X13015777Y-14068884D02*
X12996729Y-14078408D01*
X12996729Y-14078408D02*
X12987206Y-14087931D01*
X12987206Y-14087931D02*
X12977682Y-14106979D01*
X12977682Y-14106979D02*
X12977682Y-14154598D01*
X12977682Y-14154598D02*
X12987206Y-14173646D01*
X12987206Y-14173646D02*
X12996729Y-14183169D01*
X12996729Y-14183169D02*
X13015777Y-14192693D01*
X13015777Y-14192693D02*
X13053872Y-14192693D01*
X13053872Y-14192693D02*
X13072920Y-14183169D01*
X13072920Y-14183169D02*
X13082444Y-14173646D01*
X13082444Y-14173646D02*
X13091967Y-14154598D01*
X13263396Y-14135550D02*
X13263396Y-14268884D01*
X13215777Y-14059360D02*
X13168158Y-14202217D01*
X13168158Y-14202217D02*
X13291967Y-14202217D01*
X13358634Y-14068884D02*
X13358634Y-14106979D01*
X13434825Y-14068884D02*
X13434825Y-14106979D01*
X13730063Y-14345074D02*
X13720539Y-14335550D01*
X13720539Y-14335550D02*
X13701491Y-14306979D01*
X13701491Y-14306979D02*
X13691968Y-14287931D01*
X13691968Y-14287931D02*
X13682444Y-14259360D01*
X13682444Y-14259360D02*
X13672920Y-14211741D01*
X13672920Y-14211741D02*
X13672920Y-14173646D01*
X13672920Y-14173646D02*
X13682444Y-14126027D01*
X13682444Y-14126027D02*
X13691968Y-14097455D01*
X13691968Y-14097455D02*
X13701491Y-14078408D01*
X13701491Y-14078408D02*
X13720539Y-14049836D01*
X13720539Y-14049836D02*
X13730063Y-14040312D01*
X13787206Y-14068884D02*
X13911015Y-14068884D01*
X13911015Y-14068884D02*
X13844348Y-14145074D01*
X13844348Y-14145074D02*
X13872920Y-14145074D01*
X13872920Y-14145074D02*
X13891968Y-14154598D01*
X13891968Y-14154598D02*
X13901491Y-14164122D01*
X13901491Y-14164122D02*
X13911015Y-14183169D01*
X13911015Y-14183169D02*
X13911015Y-14230788D01*
X13911015Y-14230788D02*
X13901491Y-14249836D01*
X13901491Y-14249836D02*
X13891968Y-14259360D01*
X13891968Y-14259360D02*
X13872920Y-14268884D01*
X13872920Y-14268884D02*
X13815777Y-14268884D01*
X13815777Y-14268884D02*
X13796729Y-14259360D01*
X13796729Y-14259360D02*
X13787206Y-14249836D01*
X13987206Y-14087931D02*
X13996729Y-14078408D01*
X13996729Y-14078408D02*
X14015777Y-14068884D01*
X14015777Y-14068884D02*
X14063396Y-14068884D01*
X14063396Y-14068884D02*
X14082444Y-14078408D01*
X14082444Y-14078408D02*
X14091968Y-14087931D01*
X14091968Y-14087931D02*
X14101491Y-14106979D01*
X14101491Y-14106979D02*
X14101491Y-14126027D01*
X14101491Y-14126027D02*
X14091968Y-14154598D01*
X14091968Y-14154598D02*
X13977682Y-14268884D01*
X13977682Y-14268884D02*
X14101491Y-14268884D01*
X14339587Y-14268884D02*
X14339587Y-14068884D01*
X14425301Y-14268884D02*
X14425301Y-14164122D01*
X14425301Y-14164122D02*
X14415777Y-14145074D01*
X14415777Y-14145074D02*
X14396730Y-14135550D01*
X14396730Y-14135550D02*
X14368158Y-14135550D01*
X14368158Y-14135550D02*
X14349110Y-14145074D01*
X14349110Y-14145074D02*
X14339587Y-14154598D01*
X14549110Y-14268884D02*
X14530063Y-14259360D01*
X14530063Y-14259360D02*
X14520539Y-14249836D01*
X14520539Y-14249836D02*
X14511015Y-14230788D01*
X14511015Y-14230788D02*
X14511015Y-14173646D01*
X14511015Y-14173646D02*
X14520539Y-14154598D01*
X14520539Y-14154598D02*
X14530063Y-14145074D01*
X14530063Y-14145074D02*
X14549110Y-14135550D01*
X14549110Y-14135550D02*
X14577682Y-14135550D01*
X14577682Y-14135550D02*
X14596730Y-14145074D01*
X14596730Y-14145074D02*
X14606253Y-14154598D01*
X14606253Y-14154598D02*
X14615777Y-14173646D01*
X14615777Y-14173646D02*
X14615777Y-14230788D01*
X14615777Y-14230788D02*
X14606253Y-14249836D01*
X14606253Y-14249836D02*
X14596730Y-14259360D01*
X14596730Y-14259360D02*
X14577682Y-14268884D01*
X14577682Y-14268884D02*
X14549110Y-14268884D01*
X14730063Y-14268884D02*
X14711015Y-14259360D01*
X14711015Y-14259360D02*
X14701491Y-14240312D01*
X14701491Y-14240312D02*
X14701491Y-14068884D01*
X14882444Y-14259360D02*
X14863396Y-14268884D01*
X14863396Y-14268884D02*
X14825301Y-14268884D01*
X14825301Y-14268884D02*
X14806253Y-14259360D01*
X14806253Y-14259360D02*
X14796730Y-14240312D01*
X14796730Y-14240312D02*
X14796730Y-14164122D01*
X14796730Y-14164122D02*
X14806253Y-14145074D01*
X14806253Y-14145074D02*
X14825301Y-14135550D01*
X14825301Y-14135550D02*
X14863396Y-14135550D01*
X14863396Y-14135550D02*
X14882444Y-14145074D01*
X14882444Y-14145074D02*
X14891968Y-14164122D01*
X14891968Y-14164122D02*
X14891968Y-14183169D01*
X14891968Y-14183169D02*
X14796730Y-14202217D01*
X14968158Y-14259360D02*
X14987206Y-14268884D01*
X14987206Y-14268884D02*
X15025301Y-14268884D01*
X15025301Y-14268884D02*
X15044349Y-14259360D01*
X15044349Y-14259360D02*
X15053872Y-14240312D01*
X15053872Y-14240312D02*
X15053872Y-14230788D01*
X15053872Y-14230788D02*
X15044349Y-14211741D01*
X15044349Y-14211741D02*
X15025301Y-14202217D01*
X15025301Y-14202217D02*
X14996730Y-14202217D01*
X14996730Y-14202217D02*
X14977682Y-14192693D01*
X14977682Y-14192693D02*
X14968158Y-14173646D01*
X14968158Y-14173646D02*
X14968158Y-14164122D01*
X14968158Y-14164122D02*
X14977682Y-14145074D01*
X14977682Y-14145074D02*
X14996730Y-14135550D01*
X14996730Y-14135550D02*
X15025301Y-14135550D01*
X15025301Y-14135550D02*
X15044349Y-14145074D01*
X15120539Y-14345074D02*
X15130063Y-14335550D01*
X15130063Y-14335550D02*
X15149111Y-14306979D01*
X15149111Y-14306979D02*
X15158634Y-14287931D01*
X15158634Y-14287931D02*
X15168158Y-14259360D01*
X15168158Y-14259360D02*
X15177682Y-14211741D01*
X15177682Y-14211741D02*
X15177682Y-14173646D01*
X15177682Y-14173646D02*
X15168158Y-14126027D01*
X15168158Y-14126027D02*
X15158634Y-14097455D01*
X15158634Y-14097455D02*
X15149111Y-14078408D01*
X15149111Y-14078408D02*
X15130063Y-14049836D01*
X15130063Y-14049836D02*
X15120539Y-14040312D01*
D13*
X10095000Y-14501400D02*
X10155000Y-14441400D01*
X10095000Y-14381400D01*
X10035000Y-14441400D01*
X10095000Y-14501400D01*
D12*
X10520539Y-14532884D02*
X10406253Y-14532884D01*
X10463396Y-14532884D02*
X10463396Y-14332884D01*
X10463396Y-14332884D02*
X10444348Y-14361455D01*
X10444348Y-14361455D02*
X10425301Y-14380503D01*
X10425301Y-14380503D02*
X10406253Y-14390027D01*
X10606253Y-14513836D02*
X10615777Y-14523360D01*
X10615777Y-14523360D02*
X10606253Y-14532884D01*
X10606253Y-14532884D02*
X10596729Y-14523360D01*
X10596729Y-14523360D02*
X10606253Y-14513836D01*
X10606253Y-14513836D02*
X10606253Y-14532884D01*
X10691967Y-14351931D02*
X10701491Y-14342408D01*
X10701491Y-14342408D02*
X10720539Y-14332884D01*
X10720539Y-14332884D02*
X10768158Y-14332884D01*
X10768158Y-14332884D02*
X10787205Y-14342408D01*
X10787205Y-14342408D02*
X10796729Y-14351931D01*
X10796729Y-14351931D02*
X10806253Y-14370979D01*
X10806253Y-14370979D02*
X10806253Y-14390027D01*
X10806253Y-14390027D02*
X10796729Y-14418598D01*
X10796729Y-14418598D02*
X10682444Y-14532884D01*
X10682444Y-14532884D02*
X10806253Y-14532884D01*
X10930063Y-14332884D02*
X10949110Y-14332884D01*
X10949110Y-14332884D02*
X10968158Y-14342408D01*
X10968158Y-14342408D02*
X10977682Y-14351931D01*
X10977682Y-14351931D02*
X10987205Y-14370979D01*
X10987205Y-14370979D02*
X10996729Y-14409074D01*
X10996729Y-14409074D02*
X10996729Y-14456693D01*
X10996729Y-14456693D02*
X10987205Y-14494788D01*
X10987205Y-14494788D02*
X10977682Y-14513836D01*
X10977682Y-14513836D02*
X10968158Y-14523360D01*
X10968158Y-14523360D02*
X10949110Y-14532884D01*
X10949110Y-14532884D02*
X10930063Y-14532884D01*
X10930063Y-14532884D02*
X10911015Y-14523360D01*
X10911015Y-14523360D02*
X10901491Y-14513836D01*
X10901491Y-14513836D02*
X10891967Y-14494788D01*
X10891967Y-14494788D02*
X10882444Y-14456693D01*
X10882444Y-14456693D02*
X10882444Y-14409074D01*
X10882444Y-14409074D02*
X10891967Y-14370979D01*
X10891967Y-14370979D02*
X10901491Y-14351931D01*
X10901491Y-14351931D02*
X10911015Y-14342408D01*
X10911015Y-14342408D02*
X10930063Y-14332884D01*
X11120539Y-14332884D02*
X11139586Y-14332884D01*
X11139586Y-14332884D02*
X11158634Y-14342408D01*
X11158634Y-14342408D02*
X11168158Y-14351931D01*
X11168158Y-14351931D02*
X11177682Y-14370979D01*
X11177682Y-14370979D02*
X11187205Y-14409074D01*
X11187205Y-14409074D02*
X11187205Y-14456693D01*
X11187205Y-14456693D02*
X11177682Y-14494788D01*
X11177682Y-14494788D02*
X11168158Y-14513836D01*
X11168158Y-14513836D02*
X11158634Y-14523360D01*
X11158634Y-14523360D02*
X11139586Y-14532884D01*
X11139586Y-14532884D02*
X11120539Y-14532884D01*
X11120539Y-14532884D02*
X11101491Y-14523360D01*
X11101491Y-14523360D02*
X11091967Y-14513836D01*
X11091967Y-14513836D02*
X11082444Y-14494788D01*
X11082444Y-14494788D02*
X11072920Y-14456693D01*
X11072920Y-14456693D02*
X11072920Y-14409074D01*
X11072920Y-14409074D02*
X11082444Y-14370979D01*
X11082444Y-14370979D02*
X11091967Y-14351931D01*
X11091967Y-14351931D02*
X11101491Y-14342408D01*
X11101491Y-14342408D02*
X11120539Y-14332884D01*
X11272920Y-14532884D02*
X11272920Y-14399550D01*
X11272920Y-14418598D02*
X11282443Y-14409074D01*
X11282443Y-14409074D02*
X11301491Y-14399550D01*
X11301491Y-14399550D02*
X11330063Y-14399550D01*
X11330063Y-14399550D02*
X11349110Y-14409074D01*
X11349110Y-14409074D02*
X11358634Y-14428122D01*
X11358634Y-14428122D02*
X11358634Y-14532884D01*
X11358634Y-14428122D02*
X11368158Y-14409074D01*
X11368158Y-14409074D02*
X11387205Y-14399550D01*
X11387205Y-14399550D02*
X11415777Y-14399550D01*
X11415777Y-14399550D02*
X11434824Y-14409074D01*
X11434824Y-14409074D02*
X11444348Y-14428122D01*
X11444348Y-14428122D02*
X11444348Y-14532884D01*
X11539586Y-14532884D02*
X11539586Y-14399550D01*
X11539586Y-14418598D02*
X11549110Y-14409074D01*
X11549110Y-14409074D02*
X11568158Y-14399550D01*
X11568158Y-14399550D02*
X11596729Y-14399550D01*
X11596729Y-14399550D02*
X11615777Y-14409074D01*
X11615777Y-14409074D02*
X11625301Y-14428122D01*
X11625301Y-14428122D02*
X11625301Y-14532884D01*
X11625301Y-14428122D02*
X11634824Y-14409074D01*
X11634824Y-14409074D02*
X11653872Y-14399550D01*
X11653872Y-14399550D02*
X11682443Y-14399550D01*
X11682443Y-14399550D02*
X11701491Y-14409074D01*
X11701491Y-14409074D02*
X11711015Y-14428122D01*
X11711015Y-14428122D02*
X11711015Y-14532884D01*
X12101491Y-14323360D02*
X11930063Y-14580503D01*
X12358634Y-14332884D02*
X12377682Y-14332884D01*
X12377682Y-14332884D02*
X12396729Y-14342408D01*
X12396729Y-14342408D02*
X12406253Y-14351931D01*
X12406253Y-14351931D02*
X12415777Y-14370979D01*
X12415777Y-14370979D02*
X12425301Y-14409074D01*
X12425301Y-14409074D02*
X12425301Y-14456693D01*
X12425301Y-14456693D02*
X12415777Y-14494788D01*
X12415777Y-14494788D02*
X12406253Y-14513836D01*
X12406253Y-14513836D02*
X12396729Y-14523360D01*
X12396729Y-14523360D02*
X12377682Y-14532884D01*
X12377682Y-14532884D02*
X12358634Y-14532884D01*
X12358634Y-14532884D02*
X12339586Y-14523360D01*
X12339586Y-14523360D02*
X12330063Y-14513836D01*
X12330063Y-14513836D02*
X12320539Y-14494788D01*
X12320539Y-14494788D02*
X12311015Y-14456693D01*
X12311015Y-14456693D02*
X12311015Y-14409074D01*
X12311015Y-14409074D02*
X12320539Y-14370979D01*
X12320539Y-14370979D02*
X12330063Y-14351931D01*
X12330063Y-14351931D02*
X12339586Y-14342408D01*
X12339586Y-14342408D02*
X12358634Y-14332884D01*
X12511015Y-14513836D02*
X12520539Y-14523360D01*
X12520539Y-14523360D02*
X12511015Y-14532884D01*
X12511015Y-14532884D02*
X12501491Y-14523360D01*
X12501491Y-14523360D02*
X12511015Y-14513836D01*
X12511015Y-14513836D02*
X12511015Y-14532884D01*
X12644348Y-14332884D02*
X12663396Y-14332884D01*
X12663396Y-14332884D02*
X12682444Y-14342408D01*
X12682444Y-14342408D02*
X12691967Y-14351931D01*
X12691967Y-14351931D02*
X12701491Y-14370979D01*
X12701491Y-14370979D02*
X12711015Y-14409074D01*
X12711015Y-14409074D02*
X12711015Y-14456693D01*
X12711015Y-14456693D02*
X12701491Y-14494788D01*
X12701491Y-14494788D02*
X12691967Y-14513836D01*
X12691967Y-14513836D02*
X12682444Y-14523360D01*
X12682444Y-14523360D02*
X12663396Y-14532884D01*
X12663396Y-14532884D02*
X12644348Y-14532884D01*
X12644348Y-14532884D02*
X12625301Y-14523360D01*
X12625301Y-14523360D02*
X12615777Y-14513836D01*
X12615777Y-14513836D02*
X12606253Y-14494788D01*
X12606253Y-14494788D02*
X12596729Y-14456693D01*
X12596729Y-14456693D02*
X12596729Y-14409074D01*
X12596729Y-14409074D02*
X12606253Y-14370979D01*
X12606253Y-14370979D02*
X12615777Y-14351931D01*
X12615777Y-14351931D02*
X12625301Y-14342408D01*
X12625301Y-14342408D02*
X12644348Y-14332884D01*
X12882444Y-14399550D02*
X12882444Y-14532884D01*
X12834825Y-14323360D02*
X12787206Y-14466217D01*
X12787206Y-14466217D02*
X12911015Y-14466217D01*
X12968158Y-14332884D02*
X13101491Y-14332884D01*
X13101491Y-14332884D02*
X13015777Y-14532884D01*
X13168158Y-14351931D02*
X13177682Y-14342408D01*
X13177682Y-14342408D02*
X13196729Y-14332884D01*
X13196729Y-14332884D02*
X13244348Y-14332884D01*
X13244348Y-14332884D02*
X13263396Y-14342408D01*
X13263396Y-14342408D02*
X13272920Y-14351931D01*
X13272920Y-14351931D02*
X13282444Y-14370979D01*
X13282444Y-14370979D02*
X13282444Y-14390027D01*
X13282444Y-14390027D02*
X13272920Y-14418598D01*
X13272920Y-14418598D02*
X13158634Y-14532884D01*
X13158634Y-14532884D02*
X13282444Y-14532884D01*
X13358634Y-14332884D02*
X13358634Y-14370979D01*
X13434825Y-14332884D02*
X13434825Y-14370979D01*
X13730063Y-14609074D02*
X13720539Y-14599550D01*
X13720539Y-14599550D02*
X13701491Y-14570979D01*
X13701491Y-14570979D02*
X13691968Y-14551931D01*
X13691968Y-14551931D02*
X13682444Y-14523360D01*
X13682444Y-14523360D02*
X13672920Y-14475741D01*
X13672920Y-14475741D02*
X13672920Y-14437646D01*
X13672920Y-14437646D02*
X13682444Y-14390027D01*
X13682444Y-14390027D02*
X13691968Y-14361455D01*
X13691968Y-14361455D02*
X13701491Y-14342408D01*
X13701491Y-14342408D02*
X13720539Y-14313836D01*
X13720539Y-14313836D02*
X13730063Y-14304312D01*
X13796729Y-14351931D02*
X13806253Y-14342408D01*
X13806253Y-14342408D02*
X13825301Y-14332884D01*
X13825301Y-14332884D02*
X13872920Y-14332884D01*
X13872920Y-14332884D02*
X13891968Y-14342408D01*
X13891968Y-14342408D02*
X13901491Y-14351931D01*
X13901491Y-14351931D02*
X13911015Y-14370979D01*
X13911015Y-14370979D02*
X13911015Y-14390027D01*
X13911015Y-14390027D02*
X13901491Y-14418598D01*
X13901491Y-14418598D02*
X13787206Y-14532884D01*
X13787206Y-14532884D02*
X13911015Y-14532884D01*
X14149110Y-14532884D02*
X14149110Y-14332884D01*
X14234825Y-14532884D02*
X14234825Y-14428122D01*
X14234825Y-14428122D02*
X14225301Y-14409074D01*
X14225301Y-14409074D02*
X14206253Y-14399550D01*
X14206253Y-14399550D02*
X14177682Y-14399550D01*
X14177682Y-14399550D02*
X14158634Y-14409074D01*
X14158634Y-14409074D02*
X14149110Y-14418598D01*
X14358634Y-14532884D02*
X14339587Y-14523360D01*
X14339587Y-14523360D02*
X14330063Y-14513836D01*
X14330063Y-14513836D02*
X14320539Y-14494788D01*
X14320539Y-14494788D02*
X14320539Y-14437646D01*
X14320539Y-14437646D02*
X14330063Y-14418598D01*
X14330063Y-14418598D02*
X14339587Y-14409074D01*
X14339587Y-14409074D02*
X14358634Y-14399550D01*
X14358634Y-14399550D02*
X14387206Y-14399550D01*
X14387206Y-14399550D02*
X14406253Y-14409074D01*
X14406253Y-14409074D02*
X14415777Y-14418598D01*
X14415777Y-14418598D02*
X14425301Y-14437646D01*
X14425301Y-14437646D02*
X14425301Y-14494788D01*
X14425301Y-14494788D02*
X14415777Y-14513836D01*
X14415777Y-14513836D02*
X14406253Y-14523360D01*
X14406253Y-14523360D02*
X14387206Y-14532884D01*
X14387206Y-14532884D02*
X14358634Y-14532884D01*
X14539587Y-14532884D02*
X14520539Y-14523360D01*
X14520539Y-14523360D02*
X14511015Y-14504312D01*
X14511015Y-14504312D02*
X14511015Y-14332884D01*
X14691968Y-14523360D02*
X14672920Y-14532884D01*
X14672920Y-14532884D02*
X14634825Y-14532884D01*
X14634825Y-14532884D02*
X14615777Y-14523360D01*
X14615777Y-14523360D02*
X14606253Y-14504312D01*
X14606253Y-14504312D02*
X14606253Y-14428122D01*
X14606253Y-14428122D02*
X14615777Y-14409074D01*
X14615777Y-14409074D02*
X14634825Y-14399550D01*
X14634825Y-14399550D02*
X14672920Y-14399550D01*
X14672920Y-14399550D02*
X14691968Y-14409074D01*
X14691968Y-14409074D02*
X14701491Y-14428122D01*
X14701491Y-14428122D02*
X14701491Y-14447169D01*
X14701491Y-14447169D02*
X14606253Y-14466217D01*
X14777682Y-14523360D02*
X14796730Y-14532884D01*
X14796730Y-14532884D02*
X14834825Y-14532884D01*
X14834825Y-14532884D02*
X14853872Y-14523360D01*
X14853872Y-14523360D02*
X14863396Y-14504312D01*
X14863396Y-14504312D02*
X14863396Y-14494788D01*
X14863396Y-14494788D02*
X14853872Y-14475741D01*
X14853872Y-14475741D02*
X14834825Y-14466217D01*
X14834825Y-14466217D02*
X14806253Y-14466217D01*
X14806253Y-14466217D02*
X14787206Y-14456693D01*
X14787206Y-14456693D02*
X14777682Y-14437646D01*
X14777682Y-14437646D02*
X14777682Y-14428122D01*
X14777682Y-14428122D02*
X14787206Y-14409074D01*
X14787206Y-14409074D02*
X14806253Y-14399550D01*
X14806253Y-14399550D02*
X14834825Y-14399550D01*
X14834825Y-14399550D02*
X14853872Y-14409074D01*
X14930063Y-14609074D02*
X14939587Y-14599550D01*
X14939587Y-14599550D02*
X14958634Y-14570979D01*
X14958634Y-14570979D02*
X14968158Y-14551931D01*
X14968158Y-14551931D02*
X14977682Y-14523360D01*
X14977682Y-14523360D02*
X14987206Y-14475741D01*
X14987206Y-14475741D02*
X14987206Y-14437646D01*
X14987206Y-14437646D02*
X14977682Y-14390027D01*
X14977682Y-14390027D02*
X14968158Y-14361455D01*
X14968158Y-14361455D02*
X14958634Y-14342408D01*
X14958634Y-14342408D02*
X14939587Y-14313836D01*
X14939587Y-14313836D02*
X14930063Y-14304312D01*
M02*
