%TF.GenerationSoftware,KiCad,Pcbnew,8.0.1*%
%TF.CreationDate,2024-07-28T14:25:14-07:00*%
%TF.ProjectId,RCS_Hardware,5243535f-4861-4726-9477-6172652e6b69,rev?*%
%TF.SameCoordinates,Original*%
%TF.FileFunction,Copper,L2,Bot*%
%TF.FilePolarity,Positive*%
%FSLAX46Y46*%
G04 Gerber Fmt 4.6, Leading zero omitted, Abs format (unit mm)*
G04 Created by KiCad (PCBNEW 8.0.1) date 2024-07-28 14:25:14*
%MOMM*%
%LPD*%
G01*
G04 APERTURE LIST*
%TA.AperFunction,EtchedComponent*%
%ADD10C,0.010000*%
%TD*%
%TA.AperFunction,ComponentPad*%
%ADD11R,2.500000X2.500000*%
%TD*%
%TA.AperFunction,ComponentPad*%
%ADD12R,1.524000X1.524000*%
%TD*%
%TA.AperFunction,ComponentPad*%
%ADD13C,1.524000*%
%TD*%
%TA.AperFunction,ComponentPad*%
%ADD14C,0.900000*%
%TD*%
%TA.AperFunction,ComponentPad*%
%ADD15R,1.700000X1.700000*%
%TD*%
%TA.AperFunction,ComponentPad*%
%ADD16O,1.700000X1.700000*%
%TD*%
%TA.AperFunction,ViaPad*%
%ADD17C,0.800000*%
%TD*%
%TA.AperFunction,Conductor*%
%ADD18C,0.250000*%
%TD*%
%TA.AperFunction,Conductor*%
%ADD19C,0.500000*%
%TD*%
G04 APERTURE END LIST*
D10*
%TO.C,J2*%
X159924000Y-93926000D02*
X159947000Y-93927000D01*
X159970000Y-93931000D01*
X159994000Y-93935000D01*
X160016000Y-93940000D01*
X160039000Y-93947000D01*
X160061000Y-93955000D01*
X160083000Y-93964000D01*
X160104000Y-93974000D01*
X160125000Y-93985000D01*
X160145000Y-93998000D01*
X160165000Y-94011000D01*
X160183000Y-94025000D01*
X160201000Y-94041000D01*
X160218000Y-94057000D01*
X160234000Y-94074000D01*
X160250000Y-94092000D01*
X160264000Y-94110000D01*
X160277000Y-94130000D01*
X160290000Y-94150000D01*
X160301000Y-94171000D01*
X160311000Y-94192000D01*
X160320000Y-94214000D01*
X160328000Y-94236000D01*
X160335000Y-94259000D01*
X160340000Y-94281000D01*
X160344000Y-94305000D01*
X160348000Y-94328000D01*
X160349000Y-94351000D01*
X160350000Y-94375000D01*
X160349000Y-94399000D01*
X160348000Y-94422000D01*
X160344000Y-94445000D01*
X160340000Y-94469000D01*
X160335000Y-94491000D01*
X160328000Y-94514000D01*
X160320000Y-94536000D01*
X160311000Y-94558000D01*
X160301000Y-94579000D01*
X160290000Y-94600000D01*
X160277000Y-94620000D01*
X160264000Y-94640000D01*
X160250000Y-94658000D01*
X160234000Y-94676000D01*
X160218000Y-94693000D01*
X160201000Y-94709000D01*
X160183000Y-94725000D01*
X160165000Y-94739000D01*
X160145000Y-94752000D01*
X160125000Y-94765000D01*
X160104000Y-94776000D01*
X160083000Y-94786000D01*
X160061000Y-94795000D01*
X160039000Y-94803000D01*
X160016000Y-94810000D01*
X159994000Y-94815000D01*
X159970000Y-94819000D01*
X159947000Y-94823000D01*
X159924000Y-94824000D01*
X159900000Y-94825000D01*
X159100000Y-94825000D01*
X159076000Y-94824000D01*
X159053000Y-94823000D01*
X159030000Y-94819000D01*
X159006000Y-94815000D01*
X158984000Y-94810000D01*
X158961000Y-94803000D01*
X158939000Y-94795000D01*
X158917000Y-94786000D01*
X158896000Y-94776000D01*
X158875000Y-94765000D01*
X158855000Y-94752000D01*
X158835000Y-94739000D01*
X158817000Y-94725000D01*
X158799000Y-94709000D01*
X158782000Y-94693000D01*
X158766000Y-94676000D01*
X158750000Y-94658000D01*
X158736000Y-94640000D01*
X158723000Y-94620000D01*
X158710000Y-94600000D01*
X158699000Y-94579000D01*
X158689000Y-94558000D01*
X158680000Y-94536000D01*
X158672000Y-94514000D01*
X158665000Y-94491000D01*
X158660000Y-94469000D01*
X158656000Y-94445000D01*
X158652000Y-94422000D01*
X158651000Y-94399000D01*
X158650000Y-94375000D01*
X158651000Y-94351000D01*
X158652000Y-94328000D01*
X158656000Y-94305000D01*
X158660000Y-94281000D01*
X158665000Y-94259000D01*
X158672000Y-94236000D01*
X158680000Y-94214000D01*
X158689000Y-94192000D01*
X158699000Y-94171000D01*
X158710000Y-94150000D01*
X158723000Y-94130000D01*
X158736000Y-94110000D01*
X158750000Y-94092000D01*
X158766000Y-94074000D01*
X158782000Y-94057000D01*
X158799000Y-94041000D01*
X158817000Y-94025000D01*
X158835000Y-94011000D01*
X158855000Y-93998000D01*
X158875000Y-93985000D01*
X158896000Y-93974000D01*
X158917000Y-93964000D01*
X158939000Y-93955000D01*
X158961000Y-93947000D01*
X158984000Y-93940000D01*
X159006000Y-93935000D01*
X159030000Y-93931000D01*
X159053000Y-93927000D01*
X159076000Y-93926000D01*
X159100000Y-93925000D01*
X159900000Y-93925000D01*
X159924000Y-93926000D01*
%TA.AperFunction,EtchedComponent*%
G36*
X159924000Y-93926000D02*
G01*
X159947000Y-93927000D01*
X159970000Y-93931000D01*
X159994000Y-93935000D01*
X160016000Y-93940000D01*
X160039000Y-93947000D01*
X160061000Y-93955000D01*
X160083000Y-93964000D01*
X160104000Y-93974000D01*
X160125000Y-93985000D01*
X160145000Y-93998000D01*
X160165000Y-94011000D01*
X160183000Y-94025000D01*
X160201000Y-94041000D01*
X160218000Y-94057000D01*
X160234000Y-94074000D01*
X160250000Y-94092000D01*
X160264000Y-94110000D01*
X160277000Y-94130000D01*
X160290000Y-94150000D01*
X160301000Y-94171000D01*
X160311000Y-94192000D01*
X160320000Y-94214000D01*
X160328000Y-94236000D01*
X160335000Y-94259000D01*
X160340000Y-94281000D01*
X160344000Y-94305000D01*
X160348000Y-94328000D01*
X160349000Y-94351000D01*
X160350000Y-94375000D01*
X160349000Y-94399000D01*
X160348000Y-94422000D01*
X160344000Y-94445000D01*
X160340000Y-94469000D01*
X160335000Y-94491000D01*
X160328000Y-94514000D01*
X160320000Y-94536000D01*
X160311000Y-94558000D01*
X160301000Y-94579000D01*
X160290000Y-94600000D01*
X160277000Y-94620000D01*
X160264000Y-94640000D01*
X160250000Y-94658000D01*
X160234000Y-94676000D01*
X160218000Y-94693000D01*
X160201000Y-94709000D01*
X160183000Y-94725000D01*
X160165000Y-94739000D01*
X160145000Y-94752000D01*
X160125000Y-94765000D01*
X160104000Y-94776000D01*
X160083000Y-94786000D01*
X160061000Y-94795000D01*
X160039000Y-94803000D01*
X160016000Y-94810000D01*
X159994000Y-94815000D01*
X159970000Y-94819000D01*
X159947000Y-94823000D01*
X159924000Y-94824000D01*
X159900000Y-94825000D01*
X159100000Y-94825000D01*
X159076000Y-94824000D01*
X159053000Y-94823000D01*
X159030000Y-94819000D01*
X159006000Y-94815000D01*
X158984000Y-94810000D01*
X158961000Y-94803000D01*
X158939000Y-94795000D01*
X158917000Y-94786000D01*
X158896000Y-94776000D01*
X158875000Y-94765000D01*
X158855000Y-94752000D01*
X158835000Y-94739000D01*
X158817000Y-94725000D01*
X158799000Y-94709000D01*
X158782000Y-94693000D01*
X158766000Y-94676000D01*
X158750000Y-94658000D01*
X158736000Y-94640000D01*
X158723000Y-94620000D01*
X158710000Y-94600000D01*
X158699000Y-94579000D01*
X158689000Y-94558000D01*
X158680000Y-94536000D01*
X158672000Y-94514000D01*
X158665000Y-94491000D01*
X158660000Y-94469000D01*
X158656000Y-94445000D01*
X158652000Y-94422000D01*
X158651000Y-94399000D01*
X158650000Y-94375000D01*
X158651000Y-94351000D01*
X158652000Y-94328000D01*
X158656000Y-94305000D01*
X158660000Y-94281000D01*
X158665000Y-94259000D01*
X158672000Y-94236000D01*
X158680000Y-94214000D01*
X158689000Y-94192000D01*
X158699000Y-94171000D01*
X158710000Y-94150000D01*
X158723000Y-94130000D01*
X158736000Y-94110000D01*
X158750000Y-94092000D01*
X158766000Y-94074000D01*
X158782000Y-94057000D01*
X158799000Y-94041000D01*
X158817000Y-94025000D01*
X158835000Y-94011000D01*
X158855000Y-93998000D01*
X158875000Y-93985000D01*
X158896000Y-93974000D01*
X158917000Y-93964000D01*
X158939000Y-93955000D01*
X158961000Y-93947000D01*
X158984000Y-93940000D01*
X159006000Y-93935000D01*
X159030000Y-93931000D01*
X159053000Y-93927000D01*
X159076000Y-93926000D01*
X159100000Y-93925000D01*
X159900000Y-93925000D01*
X159924000Y-93926000D01*
G37*
%TD.AperFunction*%
X155904000Y-93926000D02*
X155927000Y-93927000D01*
X155950000Y-93931000D01*
X155974000Y-93935000D01*
X155996000Y-93940000D01*
X156019000Y-93947000D01*
X156041000Y-93955000D01*
X156063000Y-93964000D01*
X156084000Y-93974000D01*
X156105000Y-93985000D01*
X156125000Y-93998000D01*
X156145000Y-94011000D01*
X156163000Y-94025000D01*
X156181000Y-94041000D01*
X156198000Y-94057000D01*
X156214000Y-94074000D01*
X156230000Y-94092000D01*
X156244000Y-94110000D01*
X156257000Y-94130000D01*
X156270000Y-94150000D01*
X156281000Y-94171000D01*
X156291000Y-94192000D01*
X156300000Y-94214000D01*
X156308000Y-94236000D01*
X156315000Y-94259000D01*
X156320000Y-94281000D01*
X156324000Y-94305000D01*
X156328000Y-94328000D01*
X156329000Y-94351000D01*
X156330000Y-94375000D01*
X156329000Y-94399000D01*
X156328000Y-94422000D01*
X156324000Y-94445000D01*
X156320000Y-94469000D01*
X156315000Y-94491000D01*
X156308000Y-94514000D01*
X156300000Y-94536000D01*
X156291000Y-94558000D01*
X156281000Y-94579000D01*
X156270000Y-94600000D01*
X156257000Y-94620000D01*
X156244000Y-94640000D01*
X156230000Y-94658000D01*
X156214000Y-94676000D01*
X156198000Y-94693000D01*
X156181000Y-94709000D01*
X156163000Y-94725000D01*
X156145000Y-94739000D01*
X156125000Y-94752000D01*
X156105000Y-94765000D01*
X156084000Y-94776000D01*
X156063000Y-94786000D01*
X156041000Y-94795000D01*
X156019000Y-94803000D01*
X155996000Y-94810000D01*
X155974000Y-94815000D01*
X155950000Y-94819000D01*
X155927000Y-94823000D01*
X155904000Y-94824000D01*
X155880000Y-94825000D01*
X154780000Y-94825000D01*
X154756000Y-94824000D01*
X154733000Y-94823000D01*
X154710000Y-94819000D01*
X154686000Y-94815000D01*
X154664000Y-94810000D01*
X154641000Y-94803000D01*
X154619000Y-94795000D01*
X154597000Y-94786000D01*
X154576000Y-94776000D01*
X154555000Y-94765000D01*
X154535000Y-94752000D01*
X154515000Y-94739000D01*
X154497000Y-94725000D01*
X154479000Y-94709000D01*
X154462000Y-94693000D01*
X154446000Y-94676000D01*
X154430000Y-94658000D01*
X154416000Y-94640000D01*
X154403000Y-94620000D01*
X154390000Y-94600000D01*
X154379000Y-94579000D01*
X154369000Y-94558000D01*
X154360000Y-94536000D01*
X154352000Y-94514000D01*
X154345000Y-94491000D01*
X154340000Y-94469000D01*
X154336000Y-94445000D01*
X154332000Y-94422000D01*
X154331000Y-94399000D01*
X154330000Y-94375000D01*
X154331000Y-94351000D01*
X154332000Y-94328000D01*
X154336000Y-94305000D01*
X154340000Y-94281000D01*
X154345000Y-94259000D01*
X154352000Y-94236000D01*
X154360000Y-94214000D01*
X154369000Y-94192000D01*
X154379000Y-94171000D01*
X154390000Y-94150000D01*
X154403000Y-94130000D01*
X154416000Y-94110000D01*
X154430000Y-94092000D01*
X154446000Y-94074000D01*
X154462000Y-94057000D01*
X154479000Y-94041000D01*
X154497000Y-94025000D01*
X154515000Y-94011000D01*
X154535000Y-93998000D01*
X154555000Y-93985000D01*
X154576000Y-93974000D01*
X154597000Y-93964000D01*
X154619000Y-93955000D01*
X154641000Y-93947000D01*
X154664000Y-93940000D01*
X154686000Y-93935000D01*
X154710000Y-93931000D01*
X154733000Y-93927000D01*
X154756000Y-93926000D01*
X154780000Y-93925000D01*
X155880000Y-93925000D01*
X155904000Y-93926000D01*
%TA.AperFunction,EtchedComponent*%
G36*
X155904000Y-93926000D02*
G01*
X155927000Y-93927000D01*
X155950000Y-93931000D01*
X155974000Y-93935000D01*
X155996000Y-93940000D01*
X156019000Y-93947000D01*
X156041000Y-93955000D01*
X156063000Y-93964000D01*
X156084000Y-93974000D01*
X156105000Y-93985000D01*
X156125000Y-93998000D01*
X156145000Y-94011000D01*
X156163000Y-94025000D01*
X156181000Y-94041000D01*
X156198000Y-94057000D01*
X156214000Y-94074000D01*
X156230000Y-94092000D01*
X156244000Y-94110000D01*
X156257000Y-94130000D01*
X156270000Y-94150000D01*
X156281000Y-94171000D01*
X156291000Y-94192000D01*
X156300000Y-94214000D01*
X156308000Y-94236000D01*
X156315000Y-94259000D01*
X156320000Y-94281000D01*
X156324000Y-94305000D01*
X156328000Y-94328000D01*
X156329000Y-94351000D01*
X156330000Y-94375000D01*
X156329000Y-94399000D01*
X156328000Y-94422000D01*
X156324000Y-94445000D01*
X156320000Y-94469000D01*
X156315000Y-94491000D01*
X156308000Y-94514000D01*
X156300000Y-94536000D01*
X156291000Y-94558000D01*
X156281000Y-94579000D01*
X156270000Y-94600000D01*
X156257000Y-94620000D01*
X156244000Y-94640000D01*
X156230000Y-94658000D01*
X156214000Y-94676000D01*
X156198000Y-94693000D01*
X156181000Y-94709000D01*
X156163000Y-94725000D01*
X156145000Y-94739000D01*
X156125000Y-94752000D01*
X156105000Y-94765000D01*
X156084000Y-94776000D01*
X156063000Y-94786000D01*
X156041000Y-94795000D01*
X156019000Y-94803000D01*
X155996000Y-94810000D01*
X155974000Y-94815000D01*
X155950000Y-94819000D01*
X155927000Y-94823000D01*
X155904000Y-94824000D01*
X155880000Y-94825000D01*
X154780000Y-94825000D01*
X154756000Y-94824000D01*
X154733000Y-94823000D01*
X154710000Y-94819000D01*
X154686000Y-94815000D01*
X154664000Y-94810000D01*
X154641000Y-94803000D01*
X154619000Y-94795000D01*
X154597000Y-94786000D01*
X154576000Y-94776000D01*
X154555000Y-94765000D01*
X154535000Y-94752000D01*
X154515000Y-94739000D01*
X154497000Y-94725000D01*
X154479000Y-94709000D01*
X154462000Y-94693000D01*
X154446000Y-94676000D01*
X154430000Y-94658000D01*
X154416000Y-94640000D01*
X154403000Y-94620000D01*
X154390000Y-94600000D01*
X154379000Y-94579000D01*
X154369000Y-94558000D01*
X154360000Y-94536000D01*
X154352000Y-94514000D01*
X154345000Y-94491000D01*
X154340000Y-94469000D01*
X154336000Y-94445000D01*
X154332000Y-94422000D01*
X154331000Y-94399000D01*
X154330000Y-94375000D01*
X154331000Y-94351000D01*
X154332000Y-94328000D01*
X154336000Y-94305000D01*
X154340000Y-94281000D01*
X154345000Y-94259000D01*
X154352000Y-94236000D01*
X154360000Y-94214000D01*
X154369000Y-94192000D01*
X154379000Y-94171000D01*
X154390000Y-94150000D01*
X154403000Y-94130000D01*
X154416000Y-94110000D01*
X154430000Y-94092000D01*
X154446000Y-94074000D01*
X154462000Y-94057000D01*
X154479000Y-94041000D01*
X154497000Y-94025000D01*
X154515000Y-94011000D01*
X154535000Y-93998000D01*
X154555000Y-93985000D01*
X154576000Y-93974000D01*
X154597000Y-93964000D01*
X154619000Y-93955000D01*
X154641000Y-93947000D01*
X154664000Y-93940000D01*
X154686000Y-93935000D01*
X154710000Y-93931000D01*
X154733000Y-93927000D01*
X154756000Y-93926000D01*
X154780000Y-93925000D01*
X155880000Y-93925000D01*
X155904000Y-93926000D01*
G37*
%TD.AperFunction*%
X159924000Y-102576000D02*
X159947000Y-102577000D01*
X159970000Y-102581000D01*
X159994000Y-102585000D01*
X160016000Y-102590000D01*
X160039000Y-102597000D01*
X160061000Y-102605000D01*
X160083000Y-102614000D01*
X160104000Y-102624000D01*
X160125000Y-102635000D01*
X160145000Y-102648000D01*
X160165000Y-102661000D01*
X160183000Y-102675000D01*
X160201000Y-102691000D01*
X160218000Y-102707000D01*
X160234000Y-102724000D01*
X160250000Y-102742000D01*
X160264000Y-102760000D01*
X160277000Y-102780000D01*
X160290000Y-102800000D01*
X160301000Y-102821000D01*
X160311000Y-102842000D01*
X160320000Y-102864000D01*
X160328000Y-102886000D01*
X160335000Y-102909000D01*
X160340000Y-102931000D01*
X160344000Y-102955000D01*
X160348000Y-102978000D01*
X160349000Y-103001000D01*
X160350000Y-103025000D01*
X160349000Y-103049000D01*
X160348000Y-103072000D01*
X160344000Y-103095000D01*
X160340000Y-103119000D01*
X160335000Y-103141000D01*
X160328000Y-103164000D01*
X160320000Y-103186000D01*
X160311000Y-103208000D01*
X160301000Y-103229000D01*
X160290000Y-103250000D01*
X160277000Y-103270000D01*
X160264000Y-103290000D01*
X160250000Y-103308000D01*
X160234000Y-103326000D01*
X160218000Y-103343000D01*
X160201000Y-103359000D01*
X160183000Y-103375000D01*
X160165000Y-103389000D01*
X160145000Y-103402000D01*
X160125000Y-103415000D01*
X160104000Y-103426000D01*
X160083000Y-103436000D01*
X160061000Y-103445000D01*
X160039000Y-103453000D01*
X160016000Y-103460000D01*
X159994000Y-103465000D01*
X159970000Y-103469000D01*
X159947000Y-103473000D01*
X159924000Y-103474000D01*
X159900000Y-103475000D01*
X159100000Y-103475000D01*
X159076000Y-103474000D01*
X159053000Y-103473000D01*
X159030000Y-103469000D01*
X159006000Y-103465000D01*
X158984000Y-103460000D01*
X158961000Y-103453000D01*
X158939000Y-103445000D01*
X158917000Y-103436000D01*
X158896000Y-103426000D01*
X158875000Y-103415000D01*
X158855000Y-103402000D01*
X158835000Y-103389000D01*
X158817000Y-103375000D01*
X158799000Y-103359000D01*
X158782000Y-103343000D01*
X158766000Y-103326000D01*
X158750000Y-103308000D01*
X158736000Y-103290000D01*
X158723000Y-103270000D01*
X158710000Y-103250000D01*
X158699000Y-103229000D01*
X158689000Y-103208000D01*
X158680000Y-103186000D01*
X158672000Y-103164000D01*
X158665000Y-103141000D01*
X158660000Y-103119000D01*
X158656000Y-103095000D01*
X158652000Y-103072000D01*
X158651000Y-103049000D01*
X158650000Y-103025000D01*
X158651000Y-103001000D01*
X158652000Y-102978000D01*
X158656000Y-102955000D01*
X158660000Y-102931000D01*
X158665000Y-102909000D01*
X158672000Y-102886000D01*
X158680000Y-102864000D01*
X158689000Y-102842000D01*
X158699000Y-102821000D01*
X158710000Y-102800000D01*
X158723000Y-102780000D01*
X158736000Y-102760000D01*
X158750000Y-102742000D01*
X158766000Y-102724000D01*
X158782000Y-102707000D01*
X158799000Y-102691000D01*
X158817000Y-102675000D01*
X158835000Y-102661000D01*
X158855000Y-102648000D01*
X158875000Y-102635000D01*
X158896000Y-102624000D01*
X158917000Y-102614000D01*
X158939000Y-102605000D01*
X158961000Y-102597000D01*
X158984000Y-102590000D01*
X159006000Y-102585000D01*
X159030000Y-102581000D01*
X159053000Y-102577000D01*
X159076000Y-102576000D01*
X159100000Y-102575000D01*
X159900000Y-102575000D01*
X159924000Y-102576000D01*
%TA.AperFunction,EtchedComponent*%
G36*
X159924000Y-102576000D02*
G01*
X159947000Y-102577000D01*
X159970000Y-102581000D01*
X159994000Y-102585000D01*
X160016000Y-102590000D01*
X160039000Y-102597000D01*
X160061000Y-102605000D01*
X160083000Y-102614000D01*
X160104000Y-102624000D01*
X160125000Y-102635000D01*
X160145000Y-102648000D01*
X160165000Y-102661000D01*
X160183000Y-102675000D01*
X160201000Y-102691000D01*
X160218000Y-102707000D01*
X160234000Y-102724000D01*
X160250000Y-102742000D01*
X160264000Y-102760000D01*
X160277000Y-102780000D01*
X160290000Y-102800000D01*
X160301000Y-102821000D01*
X160311000Y-102842000D01*
X160320000Y-102864000D01*
X160328000Y-102886000D01*
X160335000Y-102909000D01*
X160340000Y-102931000D01*
X160344000Y-102955000D01*
X160348000Y-102978000D01*
X160349000Y-103001000D01*
X160350000Y-103025000D01*
X160349000Y-103049000D01*
X160348000Y-103072000D01*
X160344000Y-103095000D01*
X160340000Y-103119000D01*
X160335000Y-103141000D01*
X160328000Y-103164000D01*
X160320000Y-103186000D01*
X160311000Y-103208000D01*
X160301000Y-103229000D01*
X160290000Y-103250000D01*
X160277000Y-103270000D01*
X160264000Y-103290000D01*
X160250000Y-103308000D01*
X160234000Y-103326000D01*
X160218000Y-103343000D01*
X160201000Y-103359000D01*
X160183000Y-103375000D01*
X160165000Y-103389000D01*
X160145000Y-103402000D01*
X160125000Y-103415000D01*
X160104000Y-103426000D01*
X160083000Y-103436000D01*
X160061000Y-103445000D01*
X160039000Y-103453000D01*
X160016000Y-103460000D01*
X159994000Y-103465000D01*
X159970000Y-103469000D01*
X159947000Y-103473000D01*
X159924000Y-103474000D01*
X159900000Y-103475000D01*
X159100000Y-103475000D01*
X159076000Y-103474000D01*
X159053000Y-103473000D01*
X159030000Y-103469000D01*
X159006000Y-103465000D01*
X158984000Y-103460000D01*
X158961000Y-103453000D01*
X158939000Y-103445000D01*
X158917000Y-103436000D01*
X158896000Y-103426000D01*
X158875000Y-103415000D01*
X158855000Y-103402000D01*
X158835000Y-103389000D01*
X158817000Y-103375000D01*
X158799000Y-103359000D01*
X158782000Y-103343000D01*
X158766000Y-103326000D01*
X158750000Y-103308000D01*
X158736000Y-103290000D01*
X158723000Y-103270000D01*
X158710000Y-103250000D01*
X158699000Y-103229000D01*
X158689000Y-103208000D01*
X158680000Y-103186000D01*
X158672000Y-103164000D01*
X158665000Y-103141000D01*
X158660000Y-103119000D01*
X158656000Y-103095000D01*
X158652000Y-103072000D01*
X158651000Y-103049000D01*
X158650000Y-103025000D01*
X158651000Y-103001000D01*
X158652000Y-102978000D01*
X158656000Y-102955000D01*
X158660000Y-102931000D01*
X158665000Y-102909000D01*
X158672000Y-102886000D01*
X158680000Y-102864000D01*
X158689000Y-102842000D01*
X158699000Y-102821000D01*
X158710000Y-102800000D01*
X158723000Y-102780000D01*
X158736000Y-102760000D01*
X158750000Y-102742000D01*
X158766000Y-102724000D01*
X158782000Y-102707000D01*
X158799000Y-102691000D01*
X158817000Y-102675000D01*
X158835000Y-102661000D01*
X158855000Y-102648000D01*
X158875000Y-102635000D01*
X158896000Y-102624000D01*
X158917000Y-102614000D01*
X158939000Y-102605000D01*
X158961000Y-102597000D01*
X158984000Y-102590000D01*
X159006000Y-102585000D01*
X159030000Y-102581000D01*
X159053000Y-102577000D01*
X159076000Y-102576000D01*
X159100000Y-102575000D01*
X159900000Y-102575000D01*
X159924000Y-102576000D01*
G37*
%TD.AperFunction*%
X155904000Y-102576000D02*
X155927000Y-102577000D01*
X155950000Y-102581000D01*
X155974000Y-102585000D01*
X155996000Y-102590000D01*
X156019000Y-102597000D01*
X156041000Y-102605000D01*
X156063000Y-102614000D01*
X156084000Y-102624000D01*
X156105000Y-102635000D01*
X156125000Y-102648000D01*
X156145000Y-102661000D01*
X156163000Y-102675000D01*
X156181000Y-102691000D01*
X156198000Y-102707000D01*
X156214000Y-102724000D01*
X156230000Y-102742000D01*
X156244000Y-102760000D01*
X156257000Y-102780000D01*
X156270000Y-102800000D01*
X156281000Y-102821000D01*
X156291000Y-102842000D01*
X156300000Y-102864000D01*
X156308000Y-102886000D01*
X156315000Y-102909000D01*
X156320000Y-102931000D01*
X156324000Y-102955000D01*
X156328000Y-102978000D01*
X156329000Y-103001000D01*
X156330000Y-103025000D01*
X156329000Y-103049000D01*
X156328000Y-103072000D01*
X156324000Y-103095000D01*
X156320000Y-103119000D01*
X156315000Y-103141000D01*
X156308000Y-103164000D01*
X156300000Y-103186000D01*
X156291000Y-103208000D01*
X156281000Y-103229000D01*
X156270000Y-103250000D01*
X156257000Y-103270000D01*
X156244000Y-103290000D01*
X156230000Y-103308000D01*
X156214000Y-103326000D01*
X156198000Y-103343000D01*
X156181000Y-103359000D01*
X156163000Y-103375000D01*
X156145000Y-103389000D01*
X156125000Y-103402000D01*
X156105000Y-103415000D01*
X156084000Y-103426000D01*
X156063000Y-103436000D01*
X156041000Y-103445000D01*
X156019000Y-103453000D01*
X155996000Y-103460000D01*
X155974000Y-103465000D01*
X155950000Y-103469000D01*
X155927000Y-103473000D01*
X155904000Y-103474000D01*
X155880000Y-103475000D01*
X154780000Y-103475000D01*
X154756000Y-103474000D01*
X154733000Y-103473000D01*
X154710000Y-103469000D01*
X154686000Y-103465000D01*
X154664000Y-103460000D01*
X154641000Y-103453000D01*
X154619000Y-103445000D01*
X154597000Y-103436000D01*
X154576000Y-103426000D01*
X154555000Y-103415000D01*
X154535000Y-103402000D01*
X154515000Y-103389000D01*
X154497000Y-103375000D01*
X154479000Y-103359000D01*
X154462000Y-103343000D01*
X154446000Y-103326000D01*
X154430000Y-103308000D01*
X154416000Y-103290000D01*
X154403000Y-103270000D01*
X154390000Y-103250000D01*
X154379000Y-103229000D01*
X154369000Y-103208000D01*
X154360000Y-103186000D01*
X154352000Y-103164000D01*
X154345000Y-103141000D01*
X154340000Y-103119000D01*
X154336000Y-103095000D01*
X154332000Y-103072000D01*
X154331000Y-103049000D01*
X154330000Y-103025000D01*
X154331000Y-103001000D01*
X154332000Y-102978000D01*
X154336000Y-102955000D01*
X154340000Y-102931000D01*
X154345000Y-102909000D01*
X154352000Y-102886000D01*
X154360000Y-102864000D01*
X154369000Y-102842000D01*
X154379000Y-102821000D01*
X154390000Y-102800000D01*
X154403000Y-102780000D01*
X154416000Y-102760000D01*
X154430000Y-102742000D01*
X154446000Y-102724000D01*
X154462000Y-102707000D01*
X154479000Y-102691000D01*
X154497000Y-102675000D01*
X154515000Y-102661000D01*
X154535000Y-102648000D01*
X154555000Y-102635000D01*
X154576000Y-102624000D01*
X154597000Y-102614000D01*
X154619000Y-102605000D01*
X154641000Y-102597000D01*
X154664000Y-102590000D01*
X154686000Y-102585000D01*
X154710000Y-102581000D01*
X154733000Y-102577000D01*
X154756000Y-102576000D01*
X154780000Y-102575000D01*
X155880000Y-102575000D01*
X155904000Y-102576000D01*
%TA.AperFunction,EtchedComponent*%
G36*
X155904000Y-102576000D02*
G01*
X155927000Y-102577000D01*
X155950000Y-102581000D01*
X155974000Y-102585000D01*
X155996000Y-102590000D01*
X156019000Y-102597000D01*
X156041000Y-102605000D01*
X156063000Y-102614000D01*
X156084000Y-102624000D01*
X156105000Y-102635000D01*
X156125000Y-102648000D01*
X156145000Y-102661000D01*
X156163000Y-102675000D01*
X156181000Y-102691000D01*
X156198000Y-102707000D01*
X156214000Y-102724000D01*
X156230000Y-102742000D01*
X156244000Y-102760000D01*
X156257000Y-102780000D01*
X156270000Y-102800000D01*
X156281000Y-102821000D01*
X156291000Y-102842000D01*
X156300000Y-102864000D01*
X156308000Y-102886000D01*
X156315000Y-102909000D01*
X156320000Y-102931000D01*
X156324000Y-102955000D01*
X156328000Y-102978000D01*
X156329000Y-103001000D01*
X156330000Y-103025000D01*
X156329000Y-103049000D01*
X156328000Y-103072000D01*
X156324000Y-103095000D01*
X156320000Y-103119000D01*
X156315000Y-103141000D01*
X156308000Y-103164000D01*
X156300000Y-103186000D01*
X156291000Y-103208000D01*
X156281000Y-103229000D01*
X156270000Y-103250000D01*
X156257000Y-103270000D01*
X156244000Y-103290000D01*
X156230000Y-103308000D01*
X156214000Y-103326000D01*
X156198000Y-103343000D01*
X156181000Y-103359000D01*
X156163000Y-103375000D01*
X156145000Y-103389000D01*
X156125000Y-103402000D01*
X156105000Y-103415000D01*
X156084000Y-103426000D01*
X156063000Y-103436000D01*
X156041000Y-103445000D01*
X156019000Y-103453000D01*
X155996000Y-103460000D01*
X155974000Y-103465000D01*
X155950000Y-103469000D01*
X155927000Y-103473000D01*
X155904000Y-103474000D01*
X155880000Y-103475000D01*
X154780000Y-103475000D01*
X154756000Y-103474000D01*
X154733000Y-103473000D01*
X154710000Y-103469000D01*
X154686000Y-103465000D01*
X154664000Y-103460000D01*
X154641000Y-103453000D01*
X154619000Y-103445000D01*
X154597000Y-103436000D01*
X154576000Y-103426000D01*
X154555000Y-103415000D01*
X154535000Y-103402000D01*
X154515000Y-103389000D01*
X154497000Y-103375000D01*
X154479000Y-103359000D01*
X154462000Y-103343000D01*
X154446000Y-103326000D01*
X154430000Y-103308000D01*
X154416000Y-103290000D01*
X154403000Y-103270000D01*
X154390000Y-103250000D01*
X154379000Y-103229000D01*
X154369000Y-103208000D01*
X154360000Y-103186000D01*
X154352000Y-103164000D01*
X154345000Y-103141000D01*
X154340000Y-103119000D01*
X154336000Y-103095000D01*
X154332000Y-103072000D01*
X154331000Y-103049000D01*
X154330000Y-103025000D01*
X154331000Y-103001000D01*
X154332000Y-102978000D01*
X154336000Y-102955000D01*
X154340000Y-102931000D01*
X154345000Y-102909000D01*
X154352000Y-102886000D01*
X154360000Y-102864000D01*
X154369000Y-102842000D01*
X154379000Y-102821000D01*
X154390000Y-102800000D01*
X154403000Y-102780000D01*
X154416000Y-102760000D01*
X154430000Y-102742000D01*
X154446000Y-102724000D01*
X154462000Y-102707000D01*
X154479000Y-102691000D01*
X154497000Y-102675000D01*
X154515000Y-102661000D01*
X154535000Y-102648000D01*
X154555000Y-102635000D01*
X154576000Y-102624000D01*
X154597000Y-102614000D01*
X154619000Y-102605000D01*
X154641000Y-102597000D01*
X154664000Y-102590000D01*
X154686000Y-102585000D01*
X154710000Y-102581000D01*
X154733000Y-102577000D01*
X154756000Y-102576000D01*
X154780000Y-102575000D01*
X155880000Y-102575000D01*
X155904000Y-102576000D01*
G37*
%TD.AperFunction*%
%TD*%
D11*
%TO.P,Power,1,Pin_1*%
%TO.N,GND*%
X130600000Y-124000000D03*
%TD*%
D12*
%TO.P,LTC,1,VCC*%
%TO.N,VBUS*%
X146558000Y-107950000D03*
D13*
%TO.P,LTC,2,R*%
%TO.N,/RX*%
X146558000Y-110490000D03*
%TO.P,LTC,3,D*%
%TO.N,/TX*%
X146558000Y-113030000D03*
%TO.P,LTC,4,GND*%
%TO.N,GND*%
X146558000Y-115570000D03*
%TO.P,LTC,5,Y*%
%TO.N,Net-(J8-Pin_2)*%
X154178000Y-115570000D03*
%TO.P,LTC,6,Z*%
%TO.N,Net-(J8-Pin_3)*%
X154178000Y-113030000D03*
%TO.P,LTC,7,B*%
%TO.N,Net-(J8-Pin_4)*%
X154178000Y-110490000D03*
%TO.P,LTC,8,A*%
%TO.N,Net-(J8-Pin_5)*%
X154178000Y-107950000D03*
%TD*%
D11*
%TO.P,J4,1,Pin_1*%
%TO.N,VBUS*%
X126444000Y-124000000D03*
%TD*%
D14*
%TO.P,J2,S4,SHIELD*%
%TO.N,GND*%
X159500000Y-94375000D03*
%TO.P,J2,S3,SHIELD*%
X159500000Y-103025000D03*
%TO.P,J2,S2,SHIELD*%
X155330000Y-94375000D03*
%TO.P,J2,S1,SHIELD*%
X155330000Y-103025000D03*
%TD*%
D15*
%TO.P,Flash,1,Pin_1*%
%TO.N,/NRST*%
X104600000Y-104240000D03*
D16*
%TO.P,Flash,2,Pin_2*%
%TO.N,/SWDIO*%
X104600000Y-101700000D03*
%TO.P,Flash,3,Pin_3*%
%TO.N,GND*%
X104600000Y-99160000D03*
%TO.P,Flash,4,Pin_4*%
%TO.N,/SWCLK*%
X104600000Y-96620000D03*
%TD*%
D15*
%TO.P,J8,1,Pin_1*%
%TO.N,GND*%
X158750000Y-117856000D03*
D16*
%TO.P,J8,2,Pin_2*%
%TO.N,Net-(J8-Pin_2)*%
X158750000Y-115316000D03*
%TO.P,J8,3,Pin_3*%
%TO.N,Net-(J8-Pin_3)*%
X158750000Y-112776000D03*
%TO.P,J8,4,Pin_4*%
%TO.N,Net-(J8-Pin_4)*%
X158750000Y-110236000D03*
%TO.P,J8,5,Pin_5*%
%TO.N,Net-(J8-Pin_5)*%
X158750000Y-107696000D03*
%TD*%
D15*
%TO.P,Solenoids,1,Pin_1*%
%TO.N,GND*%
X150672800Y-124000000D03*
D16*
%TO.P,Solenoids,2,Pin_2*%
%TO.N,/S6*%
X148132800Y-124000000D03*
%TO.P,Solenoids,3,Pin_3*%
%TO.N,/S5*%
X145592800Y-124000000D03*
%TO.P,Solenoids,4,Pin_4*%
%TO.N,/S4*%
X143052800Y-124000000D03*
%TO.P,Solenoids,5,Pin_5*%
%TO.N,/S3*%
X140512800Y-124000000D03*
%TO.P,Solenoids,6,Pin_6*%
%TO.N,/S2*%
X137972800Y-124000000D03*
%TO.P,Solenoids,7,Pin_7*%
%TO.N,/S1*%
X135432800Y-124000000D03*
%TD*%
D15*
%TO.P,SPI2,1,Pin_1*%
%TO.N,/CS2*%
X151325400Y-79248000D03*
D16*
%TO.P,SPI2,2,Pin_2*%
%TO.N,/MOSI2*%
X148785400Y-79248000D03*
%TO.P,SPI2,3,Pin_3*%
%TO.N,/MISO2*%
X146245400Y-79248000D03*
%TO.P,SPI2,4,Pin_4*%
%TO.N,/SCK*%
X143705400Y-79248000D03*
%TO.P,SPI2,5,Pin_5*%
%TO.N,GND*%
X141165400Y-79248000D03*
%TO.P,SPI2,6,Pin_6*%
%TO.N,+3.3V*%
X138625400Y-79248000D03*
%TO.P,SPI2,7,Pin_7*%
%TO.N,/SDA*%
X136085400Y-79248000D03*
%TO.P,SPI2,8,Pin_8*%
%TO.N,/SCL*%
X133545400Y-79248000D03*
%TD*%
D15*
%TO.P,SPI1,1,Pin_1*%
%TO.N,/CS1*%
X111887000Y-79248000D03*
D16*
%TO.P,SPI1,2,Pin_2*%
%TO.N,/MOSI2*%
X114427000Y-79248000D03*
%TO.P,SPI1,3,Pin_3*%
%TO.N,/MISO2*%
X116967000Y-79248000D03*
%TO.P,SPI1,4,Pin_4*%
%TO.N,/SCK*%
X119507000Y-79248000D03*
%TO.P,SPI1,5,Pin_5*%
%TO.N,GND*%
X122047000Y-79248000D03*
%TO.P,SPI1,6,Pin_6*%
%TO.N,+3.3V*%
X124587000Y-79248000D03*
%TO.P,SPI1,7,Pin_7*%
%TO.N,/SDA*%
X127127000Y-79248000D03*
%TO.P,SPI1,8,Pin_8*%
%TO.N,/SCL*%
X129667000Y-79248000D03*
%TD*%
D17*
%TO.N,GND*%
X132532000Y-92868000D03*
X141100000Y-81700000D03*
X132943600Y-123952000D03*
X119900000Y-88800000D03*
X107823000Y-98171000D03*
X122100000Y-94100000D03*
X130000000Y-95500000D03*
X149900000Y-96000000D03*
X121938400Y-81990000D03*
X150300000Y-101000000D03*
X110077000Y-116610800D03*
X151955600Y-82894000D03*
X153400000Y-95500000D03*
X153400000Y-101900000D03*
X127700000Y-99700000D03*
X139000000Y-109000000D03*
X114100000Y-95600000D03*
X150700000Y-119600000D03*
X132400000Y-118300000D03*
X151500000Y-93200000D03*
X116350000Y-108318000D03*
%TO.N,+3.3V*%
X133300000Y-94300000D03*
X141400000Y-103200000D03*
X109000000Y-100300000D03*
X109000000Y-103378000D03*
X130300000Y-103200000D03*
X127200000Y-114427000D03*
X130600000Y-114427000D03*
X142000000Y-94600000D03*
X139900000Y-92300000D03*
X130300000Y-96700000D03*
%TO.N,VBUS*%
X149900000Y-117750000D03*
%TO.N,/SWDIO*%
X140800000Y-91300000D03*
X121000000Y-95750000D03*
X123000000Y-95750000D03*
X135200000Y-91300000D03*
%TO.N,/SWCLK*%
X124600000Y-84600000D03*
X137700000Y-87000000D03*
%TO.N,/LED_B*%
X145100000Y-97000000D03*
X145100000Y-99200000D03*
%TO.N,/LED_G*%
X138950000Y-94450000D03*
X146600000Y-94100000D03*
%TO.N,/S2*%
X137000000Y-114250000D03*
X138019956Y-110446417D03*
%TO.N,/MOSI*%
X134156000Y-108966000D03*
X136950000Y-108966000D03*
%TO.N,/BNO_NRST*%
X116200000Y-98600000D03*
X137697000Y-92921096D03*
%TO.N,/SDA*%
X142100000Y-83800000D03*
X136972000Y-84709000D03*
%TO.N,/SCL*%
X136144000Y-83820000D03*
X142100000Y-82800000D03*
%TO.N,/RX*%
X133784500Y-106415500D03*
%TO.N,/TX*%
X134225000Y-104700000D03*
%TD*%
D18*
%TO.N,+3.3V*%
X133800000Y-93800000D02*
X138400000Y-93800000D01*
X109000000Y-100300000D02*
X109000000Y-103378000D01*
X129700000Y-97300000D02*
X130300000Y-96700000D01*
X141400000Y-103200000D02*
X143400000Y-101200000D01*
X133300000Y-94300000D02*
X133800000Y-93800000D01*
X138400000Y-93800000D02*
X139900000Y-92300000D01*
X129700000Y-102600000D02*
X129700000Y-97300000D01*
X130600000Y-114427000D02*
X127200000Y-114427000D01*
X143400000Y-95000000D02*
X143000000Y-94600000D01*
X130300000Y-103200000D02*
X129700000Y-102600000D01*
X143000000Y-94600000D02*
X142000000Y-94600000D01*
X143400000Y-101200000D02*
X143400000Y-95000000D01*
D19*
%TO.N,VBUS*%
X149900000Y-117750000D02*
X149900000Y-117850000D01*
X147550000Y-120200000D02*
X130244000Y-120200000D01*
X130244000Y-120200000D02*
X126444000Y-124000000D01*
X149900000Y-117850000D02*
X147550000Y-120200000D01*
D18*
%TO.N,/SWDIO*%
X123000000Y-95750000D02*
X122900000Y-95850000D01*
X123000000Y-95750000D02*
X121000000Y-95750000D01*
X135200000Y-91300000D02*
X140800000Y-91300000D01*
%TO.N,/SWCLK*%
X135300000Y-84600000D02*
X124600000Y-84600000D01*
X137700000Y-87000000D02*
X135300000Y-84600000D01*
%TO.N,/LED_B*%
X145100000Y-99200000D02*
X145100000Y-99100000D01*
X145100000Y-97000000D02*
X145100000Y-99200000D01*
%TO.N,/LED_G*%
X145800000Y-93300000D02*
X146600000Y-94100000D01*
X140100000Y-93300000D02*
X145800000Y-93300000D01*
X138950000Y-94450000D02*
X140100000Y-93300000D01*
%TO.N,/S2*%
X137000000Y-114250000D02*
X138000000Y-113250000D01*
X138000000Y-113250000D02*
X138000000Y-110500000D01*
%TO.N,/MOSI*%
X136950000Y-108966000D02*
X136696000Y-108966000D01*
X134156000Y-108966000D02*
X136950000Y-108966000D01*
%TO.N,/BNO_NRST*%
X127900000Y-92100000D02*
X121250000Y-98750000D01*
X137697000Y-92921096D02*
X136875904Y-92100000D01*
X116350000Y-98750000D02*
X116200000Y-98600000D01*
X121250000Y-98750000D02*
X116350000Y-98750000D01*
X136875904Y-92100000D02*
X127900000Y-92100000D01*
%TO.N,/SDA*%
X137881000Y-83800000D02*
X142100000Y-83800000D01*
X136972000Y-84709000D02*
X137881000Y-83800000D01*
%TO.N,/SCL*%
X137164000Y-82800000D02*
X136144000Y-83820000D01*
X142100000Y-82800000D02*
X137164000Y-82800000D01*
%TO.N,/RX*%
X138400000Y-106400000D02*
X142490000Y-110490000D01*
X137456305Y-106400000D02*
X138400000Y-106400000D01*
X133784500Y-106415500D02*
X137440805Y-106415500D01*
X142490000Y-110490000D02*
X146558000Y-110490000D01*
X137440805Y-106415500D02*
X137456305Y-106400000D01*
%TO.N,/TX*%
X135125000Y-105600000D02*
X146900000Y-105600000D01*
X148200000Y-111388000D02*
X146558000Y-113030000D01*
X148200000Y-106900000D02*
X148200000Y-111388000D01*
X146900000Y-105600000D02*
X148200000Y-106900000D01*
X134225000Y-104700000D02*
X135125000Y-105600000D01*
%TD*%
%TA.AperFunction,Conductor*%
%TO.N,GND*%
G36*
X161216279Y-75762485D02*
G01*
X161262034Y-75815289D01*
X161273240Y-75866559D01*
X161372757Y-127078444D01*
X161353203Y-127145522D01*
X161300488Y-127191379D01*
X161248443Y-127202685D01*
X102177686Y-127053312D01*
X102110697Y-127033458D01*
X102065076Y-126980538D01*
X102054000Y-126929312D01*
X102054000Y-125298654D01*
X124685500Y-125298654D01*
X124692011Y-125359202D01*
X124692011Y-125359204D01*
X124741575Y-125492086D01*
X124743111Y-125496204D01*
X124830739Y-125613261D01*
X124947796Y-125700889D01*
X125062297Y-125743596D01*
X125079463Y-125749999D01*
X125084799Y-125751989D01*
X125112050Y-125754918D01*
X125145345Y-125758499D01*
X125145362Y-125758500D01*
X127742638Y-125758500D01*
X127742654Y-125758499D01*
X127769692Y-125755591D01*
X127803201Y-125751989D01*
X127808537Y-125749999D01*
X127825703Y-125743596D01*
X127940204Y-125700889D01*
X128057261Y-125613261D01*
X128144889Y-125496204D01*
X128195989Y-125359201D01*
X128200048Y-125321443D01*
X128202499Y-125298654D01*
X128202500Y-125298637D01*
X128202500Y-123365542D01*
X128222185Y-123298503D01*
X128238814Y-123277866D01*
X128638321Y-122878359D01*
X128699642Y-122844876D01*
X128769334Y-122849860D01*
X128825267Y-122891732D01*
X128849684Y-122957196D01*
X128850000Y-122966042D01*
X128850000Y-123750000D01*
X130051518Y-123750000D01*
X130040889Y-123768409D01*
X130000000Y-123921009D01*
X130000000Y-124078991D01*
X130040889Y-124231591D01*
X130051518Y-124250000D01*
X128850000Y-124250000D01*
X128850000Y-125297844D01*
X128856401Y-125357372D01*
X128856403Y-125357379D01*
X128906645Y-125492086D01*
X128906649Y-125492093D01*
X128992809Y-125607187D01*
X128992812Y-125607190D01*
X129107906Y-125693350D01*
X129107913Y-125693354D01*
X129242620Y-125743596D01*
X129242627Y-125743598D01*
X129302155Y-125749999D01*
X129302172Y-125750000D01*
X130350000Y-125750000D01*
X130350000Y-124548482D01*
X130368409Y-124559111D01*
X130521009Y-124600000D01*
X130678991Y-124600000D01*
X130831591Y-124559111D01*
X130850000Y-124548482D01*
X130850000Y-125750000D01*
X131897828Y-125750000D01*
X131897844Y-125749999D01*
X131957372Y-125743598D01*
X131957379Y-125743596D01*
X132092086Y-125693354D01*
X132092093Y-125693350D01*
X132207187Y-125607190D01*
X132207190Y-125607187D01*
X132293350Y-125492093D01*
X132293354Y-125492086D01*
X132343596Y-125357379D01*
X132343598Y-125357372D01*
X132349999Y-125297844D01*
X132350000Y-125297827D01*
X132350000Y-124250000D01*
X131148482Y-124250000D01*
X131159111Y-124231591D01*
X131200000Y-124078991D01*
X131200000Y-124000005D01*
X134069644Y-124000005D01*
X134088234Y-124224359D01*
X134088236Y-124224371D01*
X134143503Y-124442614D01*
X134233940Y-124648792D01*
X134357076Y-124837265D01*
X134357084Y-124837276D01*
X134477313Y-124967877D01*
X134509560Y-125002906D01*
X134687224Y-125141189D01*
X134687225Y-125141189D01*
X134687227Y-125141191D01*
X134809178Y-125207187D01*
X134885226Y-125248342D01*
X135098165Y-125321444D01*
X135320231Y-125358500D01*
X135545369Y-125358500D01*
X135767435Y-125321444D01*
X135980374Y-125248342D01*
X136178376Y-125141189D01*
X136356040Y-125002906D01*
X136458840Y-124891237D01*
X136508515Y-124837276D01*
X136508515Y-124837275D01*
X136508522Y-124837268D01*
X136598993Y-124698790D01*
X136652138Y-124653437D01*
X136721369Y-124644013D01*
X136784705Y-124673515D01*
X136806604Y-124698787D01*
X136897078Y-124837268D01*
X136897083Y-124837273D01*
X136897084Y-124837276D01*
X137017313Y-124967877D01*
X137049560Y-125002906D01*
X137227224Y-125141189D01*
X137227225Y-125141189D01*
X137227227Y-125141191D01*
X137349178Y-125207187D01*
X137425226Y-125248342D01*
X137638165Y-125321444D01*
X137860231Y-125358500D01*
X138085369Y-125358500D01*
X138307435Y-125321444D01*
X138520374Y-125248342D01*
X138718376Y-125141189D01*
X138896040Y-125002906D01*
X138998840Y-124891237D01*
X139048515Y-124837276D01*
X139048515Y-124837275D01*
X139048522Y-124837268D01*
X139138993Y-124698790D01*
X139192138Y-124653437D01*
X139261369Y-124644013D01*
X139324705Y-124673515D01*
X139346604Y-124698787D01*
X139437078Y-124837268D01*
X139437083Y-124837273D01*
X139437084Y-124837276D01*
X139557313Y-124967877D01*
X139589560Y-125002906D01*
X139767224Y-125141189D01*
X139767225Y-125141189D01*
X139767227Y-125141191D01*
X139889178Y-125207187D01*
X139965226Y-125248342D01*
X140178165Y-125321444D01*
X140400231Y-125358500D01*
X140625369Y-125358500D01*
X140847435Y-125321444D01*
X141060374Y-125248342D01*
X141258376Y-125141189D01*
X141436040Y-125002906D01*
X141538840Y-124891237D01*
X141588515Y-124837276D01*
X141588515Y-124837275D01*
X141588522Y-124837268D01*
X141678993Y-124698790D01*
X141732138Y-124653437D01*
X141801369Y-124644013D01*
X141864705Y-124673515D01*
X141886604Y-124698787D01*
X141977078Y-124837268D01*
X141977083Y-124837273D01*
X141977084Y-124837276D01*
X142097313Y-124967877D01*
X142129560Y-125002906D01*
X142307224Y-125141189D01*
X142307225Y-125141189D01*
X142307227Y-125141191D01*
X142429178Y-125207187D01*
X142505226Y-125248342D01*
X142718165Y-125321444D01*
X142940231Y-125358500D01*
X143165369Y-125358500D01*
X143387435Y-125321444D01*
X143600374Y-125248342D01*
X143798376Y-125141189D01*
X143976040Y-125002906D01*
X144078840Y-124891237D01*
X144128515Y-124837276D01*
X144128515Y-124837275D01*
X144128522Y-124837268D01*
X144218993Y-124698790D01*
X144272138Y-124653437D01*
X144341369Y-124644013D01*
X144404705Y-124673515D01*
X144426604Y-124698787D01*
X144517078Y-124837268D01*
X144517083Y-124837273D01*
X144517084Y-124837276D01*
X144637313Y-124967877D01*
X144669560Y-125002906D01*
X144847224Y-125141189D01*
X144847225Y-125141189D01*
X144847227Y-125141191D01*
X144969178Y-125207187D01*
X145045226Y-125248342D01*
X145258165Y-125321444D01*
X145480231Y-125358500D01*
X145705369Y-125358500D01*
X145927435Y-125321444D01*
X146140374Y-125248342D01*
X146338376Y-125141189D01*
X146516040Y-125002906D01*
X146618840Y-124891237D01*
X146668515Y-124837276D01*
X146668515Y-124837275D01*
X146668522Y-124837268D01*
X146758993Y-124698790D01*
X146812138Y-124653437D01*
X146881369Y-124644013D01*
X146944705Y-124673515D01*
X146966604Y-124698787D01*
X147057078Y-124837268D01*
X147057083Y-124837273D01*
X147057084Y-124837276D01*
X147177313Y-124967877D01*
X147209560Y-125002906D01*
X147387224Y-125141189D01*
X147387225Y-125141189D01*
X147387227Y-125141191D01*
X147509178Y-125207187D01*
X147585226Y-125248342D01*
X147798165Y-125321444D01*
X148020231Y-125358500D01*
X148245369Y-125358500D01*
X148467435Y-125321444D01*
X148680374Y-125248342D01*
X148878376Y-125141189D01*
X149056040Y-125002906D01*
X149125708Y-124927226D01*
X149185593Y-124891237D01*
X149255431Y-124893337D01*
X149313047Y-124932860D01*
X149333118Y-124967877D01*
X149379445Y-125092086D01*
X149379449Y-125092093D01*
X149465609Y-125207187D01*
X149465612Y-125207190D01*
X149580706Y-125293350D01*
X149580713Y-125293354D01*
X149715420Y-125343596D01*
X149715427Y-125343598D01*
X149774955Y-125349999D01*
X149774972Y-125350000D01*
X150422800Y-125350000D01*
X150422800Y-124433012D01*
X150479807Y-124465925D01*
X150606974Y-124500000D01*
X150738626Y-124500000D01*
X150865793Y-124465925D01*
X150922800Y-124433012D01*
X150922800Y-125350000D01*
X151570628Y-125350000D01*
X151570644Y-125349999D01*
X151630172Y-125343598D01*
X151630179Y-125343596D01*
X151764886Y-125293354D01*
X151764893Y-125293350D01*
X151879987Y-125207190D01*
X151879990Y-125207187D01*
X151966150Y-125092093D01*
X151966154Y-125092086D01*
X152016396Y-124957379D01*
X152016398Y-124957372D01*
X152022799Y-124897844D01*
X152022800Y-124897827D01*
X152022800Y-124250000D01*
X151105812Y-124250000D01*
X151138725Y-124192993D01*
X151172800Y-124065826D01*
X151172800Y-123934174D01*
X151138725Y-123807007D01*
X151105812Y-123750000D01*
X152022800Y-123750000D01*
X152022800Y-123311288D01*
X155299500Y-123311288D01*
X155306642Y-123365542D01*
X155331162Y-123551789D01*
X155344054Y-123599901D01*
X155393947Y-123786104D01*
X155482546Y-124000000D01*
X155486776Y-124010212D01*
X155608064Y-124220289D01*
X155608066Y-124220292D01*
X155608067Y-124220293D01*
X155755733Y-124412736D01*
X155755739Y-124412743D01*
X155927256Y-124584260D01*
X155927262Y-124584265D01*
X156119711Y-124731936D01*
X156329788Y-124853224D01*
X156553900Y-124946054D01*
X156788211Y-125008838D01*
X156968586Y-125032584D01*
X157028711Y-125040500D01*
X157028712Y-125040500D01*
X157271289Y-125040500D01*
X157319388Y-125034167D01*
X157511789Y-125008838D01*
X157746100Y-124946054D01*
X157970212Y-124853224D01*
X158180289Y-124731936D01*
X158372738Y-124584265D01*
X158544265Y-124412738D01*
X158691936Y-124220289D01*
X158813224Y-124010212D01*
X158906054Y-123786100D01*
X158968838Y-123551789D01*
X159000500Y-123311288D01*
X159000500Y-123068712D01*
X158968838Y-122828211D01*
X158906054Y-122593900D01*
X158813224Y-122369788D01*
X158691936Y-122159711D01*
X158544265Y-121967262D01*
X158544260Y-121967256D01*
X158372743Y-121795739D01*
X158372736Y-121795733D01*
X158180293Y-121648067D01*
X158180292Y-121648066D01*
X158180289Y-121648064D01*
X157970212Y-121526776D01*
X157970205Y-121526773D01*
X157746104Y-121433947D01*
X157511785Y-121371161D01*
X157271289Y-121339500D01*
X157271288Y-121339500D01*
X157028712Y-121339500D01*
X157028711Y-121339500D01*
X156788214Y-121371161D01*
X156553895Y-121433947D01*
X156329794Y-121526773D01*
X156329785Y-121526777D01*
X156119706Y-121648067D01*
X155927263Y-121795733D01*
X155927256Y-121795739D01*
X155755739Y-121967256D01*
X155755733Y-121967263D01*
X155608067Y-122159706D01*
X155486777Y-122369785D01*
X155486773Y-122369794D01*
X155393947Y-122593895D01*
X155331161Y-122828214D01*
X155299500Y-123068711D01*
X155299500Y-123311288D01*
X152022800Y-123311288D01*
X152022800Y-123102172D01*
X152022799Y-123102155D01*
X152016398Y-123042627D01*
X152016396Y-123042620D01*
X151966154Y-122907913D01*
X151966150Y-122907906D01*
X151879990Y-122792812D01*
X151879987Y-122792809D01*
X151764893Y-122706649D01*
X151764886Y-122706645D01*
X151630179Y-122656403D01*
X151630172Y-122656401D01*
X151570644Y-122650000D01*
X150922800Y-122650000D01*
X150922800Y-123566988D01*
X150865793Y-123534075D01*
X150738626Y-123500000D01*
X150606974Y-123500000D01*
X150479807Y-123534075D01*
X150422800Y-123566988D01*
X150422800Y-122650000D01*
X149774955Y-122650000D01*
X149715427Y-122656401D01*
X149715420Y-122656403D01*
X149580713Y-122706645D01*
X149580706Y-122706649D01*
X149465612Y-122792809D01*
X149465609Y-122792812D01*
X149379449Y-122907906D01*
X149379446Y-122907911D01*
X149333118Y-123032123D01*
X149291246Y-123088056D01*
X149225782Y-123112473D01*
X149157509Y-123097621D01*
X149125710Y-123072775D01*
X149056040Y-122997094D01*
X148878376Y-122858811D01*
X148878375Y-122858810D01*
X148878372Y-122858808D01*
X148680380Y-122751661D01*
X148680377Y-122751659D01*
X148680374Y-122751658D01*
X148680371Y-122751657D01*
X148680369Y-122751656D01*
X148467437Y-122678556D01*
X148245369Y-122641500D01*
X148020231Y-122641500D01*
X147798162Y-122678556D01*
X147585230Y-122751656D01*
X147585219Y-122751661D01*
X147387227Y-122858808D01*
X147387222Y-122858812D01*
X147209561Y-122997092D01*
X147209556Y-122997097D01*
X147057084Y-123162723D01*
X147057076Y-123162734D01*
X146966608Y-123301206D01*
X146913462Y-123346562D01*
X146844231Y-123355986D01*
X146780895Y-123326484D01*
X146758992Y-123301206D01*
X146668523Y-123162734D01*
X146668515Y-123162723D01*
X146516043Y-122997097D01*
X146516038Y-122997092D01*
X146380672Y-122891732D01*
X146338376Y-122858811D01*
X146338375Y-122858810D01*
X146338372Y-122858808D01*
X146140380Y-122751661D01*
X146140377Y-122751659D01*
X146140374Y-122751658D01*
X146140371Y-122751657D01*
X146140369Y-122751656D01*
X145927437Y-122678556D01*
X145705369Y-122641500D01*
X145480231Y-122641500D01*
X145258162Y-122678556D01*
X145045230Y-122751656D01*
X145045219Y-122751661D01*
X144847227Y-122858808D01*
X144847222Y-122858812D01*
X144669561Y-122997092D01*
X144669556Y-122997097D01*
X144517084Y-123162723D01*
X144517076Y-123162734D01*
X144426608Y-123301206D01*
X144373462Y-123346562D01*
X144304231Y-123355986D01*
X144240895Y-123326484D01*
X144218992Y-123301206D01*
X144128523Y-123162734D01*
X144128515Y-123162723D01*
X143976043Y-122997097D01*
X143976038Y-122997092D01*
X143840672Y-122891732D01*
X143798376Y-122858811D01*
X143798375Y-122858810D01*
X143798372Y-122858808D01*
X143600380Y-122751661D01*
X143600377Y-122751659D01*
X143600374Y-122751658D01*
X143600371Y-122751657D01*
X143600369Y-122751656D01*
X143387437Y-122678556D01*
X143165369Y-122641500D01*
X142940231Y-122641500D01*
X142718162Y-122678556D01*
X142505230Y-122751656D01*
X142505219Y-122751661D01*
X142307227Y-122858808D01*
X142307222Y-122858812D01*
X142129561Y-122997092D01*
X142129556Y-122997097D01*
X141977084Y-123162723D01*
X141977076Y-123162734D01*
X141886608Y-123301206D01*
X141833462Y-123346562D01*
X141764231Y-123355986D01*
X141700895Y-123326484D01*
X141678992Y-123301206D01*
X141588523Y-123162734D01*
X141588515Y-123162723D01*
X141436043Y-122997097D01*
X141436038Y-122997092D01*
X141300672Y-122891732D01*
X141258376Y-122858811D01*
X141258375Y-122858810D01*
X141258372Y-122858808D01*
X141060380Y-122751661D01*
X141060377Y-122751659D01*
X141060374Y-122751658D01*
X141060371Y-122751657D01*
X141060369Y-122751656D01*
X140847437Y-122678556D01*
X140625369Y-122641500D01*
X140400231Y-122641500D01*
X140178162Y-122678556D01*
X139965230Y-122751656D01*
X139965219Y-122751661D01*
X139767227Y-122858808D01*
X139767222Y-122858812D01*
X139589561Y-122997092D01*
X139589556Y-122997097D01*
X139437084Y-123162723D01*
X139437076Y-123162734D01*
X139346608Y-123301206D01*
X139293462Y-123346562D01*
X139224231Y-123355986D01*
X139160895Y-123326484D01*
X139138992Y-123301206D01*
X139048523Y-123162734D01*
X139048515Y-123162723D01*
X138896043Y-122997097D01*
X138896038Y-122997092D01*
X138760672Y-122891732D01*
X138718376Y-122858811D01*
X138718375Y-122858810D01*
X138718372Y-122858808D01*
X138520380Y-122751661D01*
X138520377Y-122751659D01*
X138520374Y-122751658D01*
X138520371Y-122751657D01*
X138520369Y-122751656D01*
X138307437Y-122678556D01*
X138085369Y-122641500D01*
X137860231Y-122641500D01*
X137638162Y-122678556D01*
X137425230Y-122751656D01*
X137425219Y-122751661D01*
X137227227Y-122858808D01*
X137227222Y-122858812D01*
X137049561Y-122997092D01*
X137049556Y-122997097D01*
X136897084Y-123162723D01*
X136897076Y-123162734D01*
X136806608Y-123301206D01*
X136753462Y-123346562D01*
X136684231Y-123355986D01*
X136620895Y-123326484D01*
X136598992Y-123301206D01*
X136508523Y-123162734D01*
X136508515Y-123162723D01*
X136356043Y-122997097D01*
X136356038Y-122997092D01*
X136220672Y-122891732D01*
X136178376Y-122858811D01*
X136178375Y-122858810D01*
X136178372Y-122858808D01*
X135980380Y-122751661D01*
X135980377Y-122751659D01*
X135980374Y-122751658D01*
X135980371Y-122751657D01*
X135980369Y-122751656D01*
X135767437Y-122678556D01*
X135545369Y-122641500D01*
X135320231Y-122641500D01*
X135098162Y-122678556D01*
X134885230Y-122751656D01*
X134885219Y-122751661D01*
X134687227Y-122858808D01*
X134687222Y-122858812D01*
X134509561Y-122997092D01*
X134509556Y-122997097D01*
X134357084Y-123162723D01*
X134357076Y-123162734D01*
X134233940Y-123351207D01*
X134143503Y-123557385D01*
X134088236Y-123775628D01*
X134088234Y-123775640D01*
X134069644Y-123999994D01*
X134069644Y-124000005D01*
X131200000Y-124000005D01*
X131200000Y-123921009D01*
X131159111Y-123768409D01*
X131148482Y-123750000D01*
X132350000Y-123750000D01*
X132350000Y-122702172D01*
X132349999Y-122702155D01*
X132343598Y-122642627D01*
X132343596Y-122642620D01*
X132293354Y-122507913D01*
X132293350Y-122507906D01*
X132207190Y-122392812D01*
X132207187Y-122392809D01*
X132092093Y-122306649D01*
X132092086Y-122306645D01*
X131957379Y-122256403D01*
X131957372Y-122256401D01*
X131897844Y-122250000D01*
X130850000Y-122250000D01*
X130850000Y-123451517D01*
X130831591Y-123440889D01*
X130678991Y-123400000D01*
X130521009Y-123400000D01*
X130368409Y-123440889D01*
X130350000Y-123451517D01*
X130350000Y-122250000D01*
X129566042Y-122250000D01*
X129499003Y-122230315D01*
X129453248Y-122177511D01*
X129443304Y-122108353D01*
X129472329Y-122044797D01*
X129478347Y-122038333D01*
X130521862Y-120994819D01*
X130583185Y-120961334D01*
X130609543Y-120958500D01*
X147624706Y-120958500D01*
X147697976Y-120943925D01*
X147697977Y-120943925D01*
X147716419Y-120940256D01*
X147771247Y-120929351D01*
X147909284Y-120872174D01*
X148033515Y-120789166D01*
X150204972Y-118617707D01*
X150242213Y-118592112D01*
X150356752Y-118541118D01*
X150511253Y-118428866D01*
X150639040Y-118286944D01*
X150734527Y-118121556D01*
X150793542Y-117939928D01*
X150813504Y-117750000D01*
X150793542Y-117560072D01*
X150734527Y-117378444D01*
X150639040Y-117213056D01*
X150511253Y-117071134D01*
X150356752Y-116958882D01*
X150182288Y-116881206D01*
X150182286Y-116881205D01*
X149995487Y-116841500D01*
X149804513Y-116841500D01*
X149617714Y-116881205D01*
X149443246Y-116958883D01*
X149288745Y-117071135D01*
X149160959Y-117213057D01*
X149065473Y-117378443D01*
X149065470Y-117378450D01*
X149006459Y-117560067D01*
X149006459Y-117560068D01*
X149006458Y-117560072D01*
X149001631Y-117606000D01*
X148998036Y-117640203D01*
X148971451Y-117704817D01*
X148962396Y-117714921D01*
X147272138Y-119405181D01*
X147210815Y-119438666D01*
X147184457Y-119441500D01*
X130169292Y-119441500D01*
X130022759Y-119470647D01*
X130022749Y-119470650D01*
X129884719Y-119527823D01*
X129760482Y-119610835D01*
X129760481Y-119610836D01*
X127166138Y-122205181D01*
X127104815Y-122238666D01*
X127078457Y-122241500D01*
X125145345Y-122241500D01*
X125084797Y-122248011D01*
X125084795Y-122248011D01*
X124947795Y-122299111D01*
X124830739Y-122386739D01*
X124743111Y-122503795D01*
X124692011Y-122640795D01*
X124692011Y-122640797D01*
X124685502Y-122701331D01*
X124685500Y-122701362D01*
X124685500Y-125298654D01*
X102054000Y-125298654D01*
X102054000Y-123361288D01*
X104124500Y-123361288D01*
X104156161Y-123601785D01*
X104218947Y-123836104D01*
X104291062Y-124010205D01*
X104311776Y-124060212D01*
X104433064Y-124270289D01*
X104433066Y-124270292D01*
X104433067Y-124270293D01*
X104580733Y-124462736D01*
X104580739Y-124462743D01*
X104752256Y-124634260D01*
X104752263Y-124634266D01*
X104771194Y-124648792D01*
X104944711Y-124781936D01*
X105154788Y-124903224D01*
X105378900Y-124996054D01*
X105613211Y-125058838D01*
X105793586Y-125082584D01*
X105853711Y-125090500D01*
X105853712Y-125090500D01*
X106096289Y-125090500D01*
X106144388Y-125084167D01*
X106336789Y-125058838D01*
X106571100Y-124996054D01*
X106795212Y-124903224D01*
X107005289Y-124781936D01*
X107197738Y-124634265D01*
X107369265Y-124462738D01*
X107516936Y-124270289D01*
X107638224Y-124060212D01*
X107731054Y-123836100D01*
X107793838Y-123601789D01*
X107825500Y-123361288D01*
X107825500Y-123118712D01*
X107818917Y-123068712D01*
X107815482Y-123042620D01*
X107793838Y-122878211D01*
X107731054Y-122643900D01*
X107638224Y-122419788D01*
X107516936Y-122209711D01*
X107369265Y-122017262D01*
X107369260Y-122017256D01*
X107197743Y-121845739D01*
X107197736Y-121845733D01*
X107005293Y-121698067D01*
X107005292Y-121698066D01*
X107005289Y-121698064D01*
X106795212Y-121576776D01*
X106795205Y-121576773D01*
X106571104Y-121483947D01*
X106336785Y-121421161D01*
X106096289Y-121389500D01*
X106096288Y-121389500D01*
X105853712Y-121389500D01*
X105853711Y-121389500D01*
X105613214Y-121421161D01*
X105378895Y-121483947D01*
X105154794Y-121576773D01*
X105154785Y-121576777D01*
X104944706Y-121698067D01*
X104752263Y-121845733D01*
X104752256Y-121845739D01*
X104580739Y-122017256D01*
X104580733Y-122017263D01*
X104433067Y-122209706D01*
X104311777Y-122419785D01*
X104311773Y-122419794D01*
X104218947Y-122643895D01*
X104156161Y-122878214D01*
X104124500Y-123118711D01*
X104124500Y-123361288D01*
X102054000Y-123361288D01*
X102054000Y-114427000D01*
X126286496Y-114427000D01*
X126306458Y-114616928D01*
X126306459Y-114616931D01*
X126365470Y-114798549D01*
X126365473Y-114798556D01*
X126460960Y-114963944D01*
X126588747Y-115105866D01*
X126743248Y-115218118D01*
X126917712Y-115295794D01*
X127104513Y-115335500D01*
X127295487Y-115335500D01*
X127482288Y-115295794D01*
X127656752Y-115218118D01*
X127811253Y-115105866D01*
X127815160Y-115101527D01*
X127874646Y-115064879D01*
X127907309Y-115060500D01*
X129892691Y-115060500D01*
X129959730Y-115080185D01*
X129984840Y-115101527D01*
X129988747Y-115105866D01*
X130143248Y-115218118D01*
X130317712Y-115295794D01*
X130504513Y-115335500D01*
X130695487Y-115335500D01*
X130882288Y-115295794D01*
X131056752Y-115218118D01*
X131211253Y-115105866D01*
X131339040Y-114963944D01*
X131434527Y-114798556D01*
X131493542Y-114616928D01*
X131513504Y-114427000D01*
X131493542Y-114237072D01*
X131434527Y-114055444D01*
X131339040Y-113890056D01*
X131211253Y-113748134D01*
X131056752Y-113635882D01*
X130882288Y-113558206D01*
X130882286Y-113558205D01*
X130695487Y-113518500D01*
X130504513Y-113518500D01*
X130317714Y-113558205D01*
X130143246Y-113635883D01*
X129988745Y-113748135D01*
X129984840Y-113752473D01*
X129925354Y-113789121D01*
X129892691Y-113793500D01*
X127907309Y-113793500D01*
X127840270Y-113773815D01*
X127815160Y-113752473D01*
X127811254Y-113748135D01*
X127762974Y-113713057D01*
X127656752Y-113635882D01*
X127482288Y-113558206D01*
X127482286Y-113558205D01*
X127295487Y-113518500D01*
X127104513Y-113518500D01*
X126917714Y-113558205D01*
X126743246Y-113635883D01*
X126588745Y-113748135D01*
X126460959Y-113890057D01*
X126365473Y-114055443D01*
X126365470Y-114055450D01*
X126306459Y-114237068D01*
X126306458Y-114237072D01*
X126286496Y-114427000D01*
X102054000Y-114427000D01*
X102054000Y-108966000D01*
X133242496Y-108966000D01*
X133262458Y-109155928D01*
X133262459Y-109155931D01*
X133321470Y-109337549D01*
X133321472Y-109337554D01*
X133321473Y-109337556D01*
X133416960Y-109502944D01*
X133544747Y-109644866D01*
X133699248Y-109757118D01*
X133873712Y-109834794D01*
X134060513Y-109874500D01*
X134251487Y-109874500D01*
X134438288Y-109834794D01*
X134612752Y-109757118D01*
X134767253Y-109644866D01*
X134771160Y-109640527D01*
X134830646Y-109603879D01*
X134863309Y-109599500D01*
X136242691Y-109599500D01*
X136309730Y-109619185D01*
X136334840Y-109640527D01*
X136338747Y-109644866D01*
X136493248Y-109757118D01*
X136667712Y-109834794D01*
X136854513Y-109874500D01*
X137045482Y-109874500D01*
X137045487Y-109874500D01*
X137064444Y-109870470D01*
X137134107Y-109875785D01*
X137189842Y-109917920D01*
X137213949Y-109983499D01*
X137198774Y-110051701D01*
X137197613Y-110053757D01*
X137185429Y-110074860D01*
X137185426Y-110074867D01*
X137126415Y-110256485D01*
X137126414Y-110256489D01*
X137106452Y-110446417D01*
X137126414Y-110636345D01*
X137126415Y-110636348D01*
X137185426Y-110817966D01*
X137185429Y-110817973D01*
X137280916Y-110983361D01*
X137334651Y-111043039D01*
X137364880Y-111106029D01*
X137366500Y-111126010D01*
X137366500Y-112936233D01*
X137346815Y-113003272D01*
X137330181Y-113023914D01*
X137048915Y-113305181D01*
X136987592Y-113338666D01*
X136961234Y-113341500D01*
X136904513Y-113341500D01*
X136717714Y-113381205D01*
X136543246Y-113458883D01*
X136388745Y-113571135D01*
X136260959Y-113713057D01*
X136165473Y-113878443D01*
X136165470Y-113878450D01*
X136106459Y-114060068D01*
X136106458Y-114060072D01*
X136086496Y-114250000D01*
X136106458Y-114439928D01*
X136106459Y-114439931D01*
X136165470Y-114621549D01*
X136165473Y-114621556D01*
X136260960Y-114786944D01*
X136388747Y-114928866D01*
X136543248Y-115041118D01*
X136717712Y-115118794D01*
X136904513Y-115158500D01*
X137095487Y-115158500D01*
X137282288Y-115118794D01*
X137456752Y-115041118D01*
X137611253Y-114928866D01*
X137739040Y-114786944D01*
X137834527Y-114621556D01*
X137893542Y-114439928D01*
X137910981Y-114273999D01*
X137937564Y-114209388D01*
X137946610Y-114199293D01*
X138492072Y-113653833D01*
X138561401Y-113550075D01*
X138609155Y-113434784D01*
X138619813Y-113381205D01*
X138633499Y-113312397D01*
X138633500Y-113312394D01*
X138633500Y-111170337D01*
X138653185Y-111103298D01*
X138665350Y-111087365D01*
X138697733Y-111051400D01*
X138758996Y-110983361D01*
X138854483Y-110817973D01*
X138913498Y-110636345D01*
X138933460Y-110446417D01*
X138913498Y-110256489D01*
X138854483Y-110074861D01*
X138758996Y-109909473D01*
X138631209Y-109767551D01*
X138476708Y-109655299D01*
X138302244Y-109577623D01*
X138302242Y-109577622D01*
X138115443Y-109537917D01*
X137924469Y-109537917D01*
X137905509Y-109541946D01*
X137835843Y-109536629D01*
X137780110Y-109494491D01*
X137756006Y-109428911D01*
X137771184Y-109360710D01*
X137772298Y-109358736D01*
X137784527Y-109337556D01*
X137843542Y-109155928D01*
X137863504Y-108966000D01*
X137843542Y-108776072D01*
X137784527Y-108594444D01*
X137689040Y-108429056D01*
X137561253Y-108287134D01*
X137406752Y-108174882D01*
X137232288Y-108097206D01*
X137232286Y-108097205D01*
X137045487Y-108057500D01*
X136854513Y-108057500D01*
X136667714Y-108097205D01*
X136493246Y-108174883D01*
X136338745Y-108287135D01*
X136334840Y-108291473D01*
X136275354Y-108328121D01*
X136242691Y-108332500D01*
X134863309Y-108332500D01*
X134796270Y-108312815D01*
X134771160Y-108291473D01*
X134767254Y-108287135D01*
X134612753Y-108174883D01*
X134612752Y-108174882D01*
X134438288Y-108097206D01*
X134438286Y-108097205D01*
X134251487Y-108057500D01*
X134060513Y-108057500D01*
X133873714Y-108097205D01*
X133699246Y-108174883D01*
X133544745Y-108287135D01*
X133416959Y-108429057D01*
X133321473Y-108594443D01*
X133321470Y-108594450D01*
X133262459Y-108776068D01*
X133262458Y-108776072D01*
X133242496Y-108966000D01*
X102054000Y-108966000D01*
X102054000Y-106415500D01*
X132870996Y-106415500D01*
X132890958Y-106605428D01*
X132890959Y-106605431D01*
X132949970Y-106787049D01*
X132949973Y-106787056D01*
X133045460Y-106952444D01*
X133173247Y-107094366D01*
X133327748Y-107206618D01*
X133502212Y-107284294D01*
X133689013Y-107324000D01*
X133879987Y-107324000D01*
X134066788Y-107284294D01*
X134241252Y-107206618D01*
X134395753Y-107094366D01*
X134399660Y-107090027D01*
X134459146Y-107053379D01*
X134491809Y-107049000D01*
X137503200Y-107049000D01*
X137503200Y-107048999D01*
X137569143Y-107035882D01*
X137593334Y-107033500D01*
X138086234Y-107033500D01*
X138153273Y-107053185D01*
X138173915Y-107069819D01*
X141997929Y-110893833D01*
X142086167Y-110982071D01*
X142086168Y-110982072D01*
X142189918Y-111051396D01*
X142189924Y-111051399D01*
X142189925Y-111051400D01*
X142305215Y-111099155D01*
X142423775Y-111122738D01*
X142427601Y-111123499D01*
X142427605Y-111123500D01*
X142427606Y-111123500D01*
X145386037Y-111123500D01*
X145453076Y-111143185D01*
X145487611Y-111176376D01*
X145531396Y-111238907D01*
X145581023Y-111309781D01*
X145738219Y-111466977D01*
X145899542Y-111579937D01*
X145920323Y-111594488D01*
X146034261Y-111647618D01*
X146086700Y-111693790D01*
X146105852Y-111760984D01*
X146085636Y-111827865D01*
X146034261Y-111872382D01*
X145920323Y-111925512D01*
X145920319Y-111925514D01*
X145738217Y-112053023D01*
X145581023Y-112210217D01*
X145453514Y-112392319D01*
X145453512Y-112392323D01*
X145359561Y-112593800D01*
X145302022Y-112808535D01*
X145302021Y-112808542D01*
X145282647Y-113029997D01*
X145282647Y-113030002D01*
X145302021Y-113251457D01*
X145302022Y-113251465D01*
X145359558Y-113466191D01*
X145359559Y-113466193D01*
X145359560Y-113466196D01*
X145383950Y-113518500D01*
X145453511Y-113667676D01*
X145453512Y-113667677D01*
X145581023Y-113849781D01*
X145738219Y-114006977D01*
X145920323Y-114134488D01*
X146044317Y-114192307D01*
X146096756Y-114238479D01*
X146115908Y-114305673D01*
X146095692Y-114372554D01*
X146044317Y-114417071D01*
X145924590Y-114472901D01*
X145859811Y-114518258D01*
X146530553Y-115189000D01*
X146507840Y-115189000D01*
X146410939Y-115214964D01*
X146324060Y-115265124D01*
X146253124Y-115336060D01*
X146202964Y-115422939D01*
X146177000Y-115519840D01*
X146177000Y-115542553D01*
X145506258Y-114871811D01*
X145460901Y-114936590D01*
X145367579Y-115136720D01*
X145367575Y-115136729D01*
X145310426Y-115350013D01*
X145310424Y-115350023D01*
X145291179Y-115569999D01*
X145291179Y-115570000D01*
X145310424Y-115789976D01*
X145310426Y-115789986D01*
X145367575Y-116003270D01*
X145367580Y-116003284D01*
X145460898Y-116203405D01*
X145460901Y-116203411D01*
X145506258Y-116268187D01*
X145506259Y-116268188D01*
X146177000Y-115597447D01*
X146177000Y-115620160D01*
X146202964Y-115717061D01*
X146253124Y-115803940D01*
X146324060Y-115874876D01*
X146410939Y-115925036D01*
X146507840Y-115951000D01*
X146530553Y-115951000D01*
X145859810Y-116621740D01*
X145924590Y-116667099D01*
X145924592Y-116667100D01*
X146124715Y-116760419D01*
X146124729Y-116760424D01*
X146338013Y-116817573D01*
X146338023Y-116817575D01*
X146557999Y-116836821D01*
X146558001Y-116836821D01*
X146777976Y-116817575D01*
X146777986Y-116817573D01*
X146991270Y-116760424D01*
X146991284Y-116760419D01*
X147191407Y-116667100D01*
X147191417Y-116667094D01*
X147256188Y-116621741D01*
X146585448Y-115951000D01*
X146608160Y-115951000D01*
X146705061Y-115925036D01*
X146791940Y-115874876D01*
X146862876Y-115803940D01*
X146913036Y-115717061D01*
X146939000Y-115620160D01*
X146939000Y-115597447D01*
X147609741Y-116268188D01*
X147655094Y-116203417D01*
X147655100Y-116203407D01*
X147748419Y-116003284D01*
X147748424Y-116003270D01*
X147805573Y-115789986D01*
X147805575Y-115789976D01*
X147824821Y-115570002D01*
X152902647Y-115570002D01*
X152922021Y-115791457D01*
X152922022Y-115791465D01*
X152979558Y-116006191D01*
X152979559Y-116006193D01*
X152979560Y-116006196D01*
X153026536Y-116106936D01*
X153073511Y-116207676D01*
X153073512Y-116207677D01*
X153201023Y-116389781D01*
X153358219Y-116546977D01*
X153540323Y-116674488D01*
X153741804Y-116768440D01*
X153956537Y-116825978D01*
X154114724Y-116839817D01*
X154177998Y-116845353D01*
X154178000Y-116845353D01*
X154178002Y-116845353D01*
X154233365Y-116840509D01*
X154399463Y-116825978D01*
X154614196Y-116768440D01*
X154815677Y-116674488D01*
X154997781Y-116546977D01*
X155154977Y-116389781D01*
X155282488Y-116207677D01*
X155376440Y-116006196D01*
X155433978Y-115791463D01*
X155453353Y-115570000D01*
X155433978Y-115348537D01*
X155425261Y-115316005D01*
X157386844Y-115316005D01*
X157405434Y-115540359D01*
X157405436Y-115540371D01*
X157460703Y-115758614D01*
X157551140Y-115964792D01*
X157674276Y-116153265D01*
X157674278Y-116153268D01*
X157825707Y-116317762D01*
X157856629Y-116380415D01*
X157848769Y-116449841D01*
X157804622Y-116503997D01*
X157777811Y-116517926D01*
X157657912Y-116562646D01*
X157657906Y-116562649D01*
X157542812Y-116648809D01*
X157542809Y-116648812D01*
X157456649Y-116763906D01*
X157456645Y-116763913D01*
X157406403Y-116898620D01*
X157406401Y-116898627D01*
X157400000Y-116958155D01*
X157400000Y-117606000D01*
X158316988Y-117606000D01*
X158284075Y-117663007D01*
X158250000Y-117790174D01*
X158250000Y-117921826D01*
X158284075Y-118048993D01*
X158316988Y-118106000D01*
X157400000Y-118106000D01*
X157400000Y-118753844D01*
X157406401Y-118813372D01*
X157406403Y-118813379D01*
X157456645Y-118948086D01*
X157456649Y-118948093D01*
X157542809Y-119063187D01*
X157542812Y-119063190D01*
X157657906Y-119149350D01*
X157657913Y-119149354D01*
X157792620Y-119199596D01*
X157792627Y-119199598D01*
X157852155Y-119205999D01*
X157852172Y-119206000D01*
X158500000Y-119206000D01*
X158500000Y-118289012D01*
X158557007Y-118321925D01*
X158684174Y-118356000D01*
X158815826Y-118356000D01*
X158942993Y-118321925D01*
X159000000Y-118289012D01*
X159000000Y-119206000D01*
X159647828Y-119206000D01*
X159647844Y-119205999D01*
X159707372Y-119199598D01*
X159707379Y-119199596D01*
X159842086Y-119149354D01*
X159842093Y-119149350D01*
X159957187Y-119063190D01*
X159957190Y-119063187D01*
X160043350Y-118948093D01*
X160043354Y-118948086D01*
X160093596Y-118813379D01*
X160093598Y-118813372D01*
X160099999Y-118753844D01*
X160100000Y-118753827D01*
X160100000Y-118106000D01*
X159183012Y-118106000D01*
X159215925Y-118048993D01*
X159250000Y-117921826D01*
X159250000Y-117790174D01*
X159215925Y-117663007D01*
X159183012Y-117606000D01*
X160100000Y-117606000D01*
X160100000Y-116958172D01*
X160099999Y-116958155D01*
X160093598Y-116898627D01*
X160093596Y-116898620D01*
X160043354Y-116763913D01*
X160043350Y-116763906D01*
X159957190Y-116648812D01*
X159957187Y-116648809D01*
X159842093Y-116562649D01*
X159842088Y-116562646D01*
X159722188Y-116517926D01*
X159666255Y-116476054D01*
X159641838Y-116410590D01*
X159656690Y-116342317D01*
X159674286Y-116317769D01*
X159825722Y-116153268D01*
X159948860Y-115964791D01*
X160039296Y-115758616D01*
X160094564Y-115540368D01*
X160110338Y-115350013D01*
X160113156Y-115316005D01*
X160113156Y-115315994D01*
X160094565Y-115091640D01*
X160094563Y-115091628D01*
X160055301Y-114936586D01*
X160039296Y-114873384D01*
X159948860Y-114667209D01*
X159919033Y-114621556D01*
X159851546Y-114518259D01*
X159825722Y-114478732D01*
X159825719Y-114478729D01*
X159825715Y-114478723D01*
X159673243Y-114313097D01*
X159673238Y-114313092D01*
X159527017Y-114199283D01*
X159495576Y-114174811D01*
X159459070Y-114155055D01*
X159409479Y-114105836D01*
X159394371Y-114037619D01*
X159418541Y-113972064D01*
X159459070Y-113936945D01*
X159459084Y-113936936D01*
X159495576Y-113917189D01*
X159673240Y-113778906D01*
X159825722Y-113613268D01*
X159948860Y-113424791D01*
X160039296Y-113218616D01*
X160094564Y-113000368D01*
X160094565Y-113000359D01*
X160113156Y-112776005D01*
X160113156Y-112775994D01*
X160094565Y-112551640D01*
X160094563Y-112551628D01*
X160091876Y-112541018D01*
X160039296Y-112333384D01*
X159948860Y-112127209D01*
X159825722Y-111938732D01*
X159825719Y-111938729D01*
X159825715Y-111938723D01*
X159673243Y-111773097D01*
X159673238Y-111773092D01*
X159495577Y-111634812D01*
X159495578Y-111634812D01*
X159495576Y-111634811D01*
X159459070Y-111615055D01*
X159409479Y-111565836D01*
X159394371Y-111497619D01*
X159418541Y-111432064D01*
X159459070Y-111396945D01*
X159459084Y-111396936D01*
X159495576Y-111377189D01*
X159673240Y-111238906D01*
X159812745Y-111087365D01*
X159825715Y-111073276D01*
X159825716Y-111073274D01*
X159825722Y-111073268D01*
X159948860Y-110884791D01*
X160039296Y-110678616D01*
X160094564Y-110460368D01*
X160095720Y-110446417D01*
X160113156Y-110236005D01*
X160113156Y-110235994D01*
X160094565Y-110011640D01*
X160094563Y-110011628D01*
X160055279Y-109856500D01*
X160039296Y-109793384D01*
X159948860Y-109587209D01*
X159915814Y-109536629D01*
X159825723Y-109398734D01*
X159825715Y-109398723D01*
X159673243Y-109233097D01*
X159673238Y-109233092D01*
X159495577Y-109094812D01*
X159495578Y-109094812D01*
X159495576Y-109094811D01*
X159459070Y-109075055D01*
X159409479Y-109025836D01*
X159394371Y-108957619D01*
X159418541Y-108892064D01*
X159459070Y-108856945D01*
X159459084Y-108856936D01*
X159495576Y-108837189D01*
X159673240Y-108698906D01*
X159825722Y-108533268D01*
X159948860Y-108344791D01*
X160039296Y-108138616D01*
X160094564Y-107920368D01*
X160094565Y-107920359D01*
X160113156Y-107696005D01*
X160113156Y-107695994D01*
X160094565Y-107471640D01*
X160094563Y-107471628D01*
X160057178Y-107324000D01*
X160039296Y-107253384D01*
X159948860Y-107047209D01*
X159941460Y-107035883D01*
X159825723Y-106858734D01*
X159825715Y-106858723D01*
X159673243Y-106693097D01*
X159673238Y-106693092D01*
X159495577Y-106554812D01*
X159495572Y-106554808D01*
X159297580Y-106447661D01*
X159297577Y-106447659D01*
X159297574Y-106447658D01*
X159297571Y-106447657D01*
X159297569Y-106447656D01*
X159084637Y-106374556D01*
X158862569Y-106337500D01*
X158637431Y-106337500D01*
X158415362Y-106374556D01*
X158202430Y-106447656D01*
X158202419Y-106447661D01*
X158004427Y-106554808D01*
X158004422Y-106554812D01*
X157826761Y-106693092D01*
X157826756Y-106693097D01*
X157674284Y-106858723D01*
X157674276Y-106858734D01*
X157551140Y-107047207D01*
X157460703Y-107253385D01*
X157405436Y-107471628D01*
X157405434Y-107471640D01*
X157386844Y-107695994D01*
X157386844Y-107696005D01*
X157405434Y-107920359D01*
X157405436Y-107920371D01*
X157460703Y-108138614D01*
X157551140Y-108344792D01*
X157674276Y-108533265D01*
X157674284Y-108533276D01*
X157826756Y-108698902D01*
X157826760Y-108698906D01*
X158004424Y-108837189D01*
X158004429Y-108837191D01*
X158004431Y-108837193D01*
X158040930Y-108856946D01*
X158090520Y-108906165D01*
X158105628Y-108974382D01*
X158081457Y-109039937D01*
X158040930Y-109075054D01*
X158004431Y-109094806D01*
X158004422Y-109094812D01*
X157826761Y-109233092D01*
X157826756Y-109233097D01*
X157674284Y-109398723D01*
X157674276Y-109398734D01*
X157551140Y-109587207D01*
X157460703Y-109793385D01*
X157405436Y-110011628D01*
X157405434Y-110011640D01*
X157386844Y-110235994D01*
X157386844Y-110236005D01*
X157405434Y-110460359D01*
X157405436Y-110460371D01*
X157460703Y-110678614D01*
X157551140Y-110884792D01*
X157674276Y-111073265D01*
X157674284Y-111073276D01*
X157826756Y-111238902D01*
X157826760Y-111238906D01*
X158004424Y-111377189D01*
X158004429Y-111377191D01*
X158004431Y-111377193D01*
X158040930Y-111396946D01*
X158090520Y-111446165D01*
X158105628Y-111514382D01*
X158081457Y-111579937D01*
X158040930Y-111615054D01*
X158004431Y-111634806D01*
X158004422Y-111634812D01*
X157826761Y-111773092D01*
X157826756Y-111773097D01*
X157674284Y-111938723D01*
X157674276Y-111938734D01*
X157551140Y-112127207D01*
X157460703Y-112333385D01*
X157405436Y-112551628D01*
X157405434Y-112551640D01*
X157386844Y-112775994D01*
X157386844Y-112776005D01*
X157405434Y-113000359D01*
X157405436Y-113000371D01*
X157460703Y-113218614D01*
X157551140Y-113424792D01*
X157674276Y-113613265D01*
X157674284Y-113613276D01*
X157798432Y-113748134D01*
X157826760Y-113778906D01*
X158004424Y-113917189D01*
X158004429Y-113917191D01*
X158004431Y-113917193D01*
X158040930Y-113936946D01*
X158090520Y-113986165D01*
X158105628Y-114054382D01*
X158081457Y-114119937D01*
X158040930Y-114155054D01*
X158004431Y-114174806D01*
X158004422Y-114174812D01*
X157826761Y-114313092D01*
X157826756Y-114313097D01*
X157674284Y-114478723D01*
X157674276Y-114478734D01*
X157551140Y-114667207D01*
X157460703Y-114873385D01*
X157405436Y-115091628D01*
X157405434Y-115091640D01*
X157386844Y-115315994D01*
X157386844Y-115316005D01*
X155425261Y-115316005D01*
X155376440Y-115133804D01*
X155282488Y-114932324D01*
X155282486Y-114932321D01*
X155282485Y-114932319D01*
X155154978Y-114750220D01*
X155154975Y-114750217D01*
X154997781Y-114593023D01*
X154815677Y-114465512D01*
X154701738Y-114412381D01*
X154649299Y-114366210D01*
X154630147Y-114299017D01*
X154650363Y-114232135D01*
X154701739Y-114187618D01*
X154815677Y-114134488D01*
X154997781Y-114006977D01*
X155154977Y-113849781D01*
X155282488Y-113667677D01*
X155376440Y-113466196D01*
X155433978Y-113251463D01*
X155453353Y-113030000D01*
X155433978Y-112808537D01*
X155376440Y-112593804D01*
X155282488Y-112392324D01*
X155282486Y-112392321D01*
X155282485Y-112392319D01*
X155154978Y-112210220D01*
X155154975Y-112210217D01*
X154997781Y-112053023D01*
X154815677Y-111925512D01*
X154701738Y-111872381D01*
X154649299Y-111826210D01*
X154630147Y-111759017D01*
X154650363Y-111692135D01*
X154701739Y-111647618D01*
X154815677Y-111594488D01*
X154997781Y-111466977D01*
X155154977Y-111309781D01*
X155282488Y-111127677D01*
X155376440Y-110926196D01*
X155433978Y-110711463D01*
X155453353Y-110490000D01*
X155433978Y-110268537D01*
X155376440Y-110053804D01*
X155282488Y-109852324D01*
X155282486Y-109852321D01*
X155282485Y-109852319D01*
X155154978Y-109670220D01*
X155084258Y-109599500D01*
X154997781Y-109513023D01*
X154815677Y-109385512D01*
X154701738Y-109332381D01*
X154649299Y-109286210D01*
X154630147Y-109219017D01*
X154650363Y-109152135D01*
X154701739Y-109107618D01*
X154815677Y-109054488D01*
X154997781Y-108926977D01*
X155154977Y-108769781D01*
X155282488Y-108587677D01*
X155376440Y-108386196D01*
X155433978Y-108171463D01*
X155453353Y-107950000D01*
X155433978Y-107728537D01*
X155376440Y-107513804D01*
X155282488Y-107312324D01*
X155282486Y-107312321D01*
X155282485Y-107312319D01*
X155154978Y-107130220D01*
X155077943Y-107053185D01*
X154997781Y-106973023D01*
X154815677Y-106845512D01*
X154815678Y-106845512D01*
X154815676Y-106845511D01*
X154714936Y-106798536D01*
X154614196Y-106751560D01*
X154614193Y-106751559D01*
X154614191Y-106751558D01*
X154399465Y-106694022D01*
X154399457Y-106694021D01*
X154178002Y-106674647D01*
X154177998Y-106674647D01*
X153956542Y-106694021D01*
X153956535Y-106694022D01*
X153741800Y-106751561D01*
X153540323Y-106845512D01*
X153540319Y-106845514D01*
X153358217Y-106973023D01*
X153201023Y-107130217D01*
X153073514Y-107312319D01*
X153073512Y-107312323D01*
X152979561Y-107513800D01*
X152922022Y-107728535D01*
X152922021Y-107728542D01*
X152902647Y-107949997D01*
X152902647Y-107950002D01*
X152922021Y-108171457D01*
X152922022Y-108171465D01*
X152979558Y-108386191D01*
X152979559Y-108386193D01*
X152979560Y-108386196D01*
X153026536Y-108486936D01*
X153073511Y-108587676D01*
X153099014Y-108624097D01*
X153201023Y-108769781D01*
X153358219Y-108926977D01*
X153499404Y-109025836D01*
X153540323Y-109054488D01*
X153654261Y-109107618D01*
X153706700Y-109153790D01*
X153725852Y-109220984D01*
X153705636Y-109287865D01*
X153654261Y-109332382D01*
X153540323Y-109385512D01*
X153540319Y-109385514D01*
X153358217Y-109513023D01*
X153201023Y-109670217D01*
X153073514Y-109852319D01*
X153073512Y-109852323D01*
X152979561Y-110053800D01*
X152922022Y-110268535D01*
X152922021Y-110268542D01*
X152902647Y-110489997D01*
X152902647Y-110490002D01*
X152922021Y-110711457D01*
X152922022Y-110711465D01*
X152979558Y-110926191D01*
X152979559Y-110926193D01*
X152979560Y-110926196D01*
X153026536Y-111026936D01*
X153073511Y-111127676D01*
X153073512Y-111127677D01*
X153201023Y-111309781D01*
X153358219Y-111466977D01*
X153519542Y-111579937D01*
X153540323Y-111594488D01*
X153654261Y-111647618D01*
X153706700Y-111693790D01*
X153725852Y-111760984D01*
X153705636Y-111827865D01*
X153654261Y-111872382D01*
X153540323Y-111925512D01*
X153540319Y-111925514D01*
X153358217Y-112053023D01*
X153201023Y-112210217D01*
X153073514Y-112392319D01*
X153073512Y-112392323D01*
X152979561Y-112593800D01*
X152922022Y-112808535D01*
X152922021Y-112808542D01*
X152902647Y-113029997D01*
X152902647Y-113030002D01*
X152922021Y-113251457D01*
X152922022Y-113251465D01*
X152979558Y-113466191D01*
X152979559Y-113466193D01*
X152979560Y-113466196D01*
X153003950Y-113518500D01*
X153073511Y-113667676D01*
X153073512Y-113667677D01*
X153201023Y-113849781D01*
X153358219Y-114006977D01*
X153499404Y-114105836D01*
X153540323Y-114134488D01*
X153654261Y-114187618D01*
X153706700Y-114233790D01*
X153725852Y-114300984D01*
X153705636Y-114367865D01*
X153654261Y-114412382D01*
X153540323Y-114465512D01*
X153540319Y-114465514D01*
X153358217Y-114593023D01*
X153201023Y-114750217D01*
X153073514Y-114932319D01*
X153073512Y-114932323D01*
X152979561Y-115133800D01*
X152922022Y-115348535D01*
X152922021Y-115348542D01*
X152902647Y-115569997D01*
X152902647Y-115570002D01*
X147824821Y-115570002D01*
X147824821Y-115570000D01*
X147824821Y-115569999D01*
X147805575Y-115350023D01*
X147805573Y-115350013D01*
X147748424Y-115136729D01*
X147748420Y-115136720D01*
X147655096Y-114936586D01*
X147609741Y-114871811D01*
X147609740Y-114871810D01*
X146939000Y-115542551D01*
X146939000Y-115519840D01*
X146913036Y-115422939D01*
X146862876Y-115336060D01*
X146791940Y-115265124D01*
X146705061Y-115214964D01*
X146608160Y-115189000D01*
X146585448Y-115189000D01*
X147256188Y-114518259D01*
X147256187Y-114518258D01*
X147191411Y-114472901D01*
X147191405Y-114472898D01*
X147071683Y-114417071D01*
X147019243Y-114370899D01*
X147000091Y-114303705D01*
X147020307Y-114236824D01*
X147071682Y-114192307D01*
X147195677Y-114134488D01*
X147377781Y-114006977D01*
X147534977Y-113849781D01*
X147662488Y-113667677D01*
X147756440Y-113466196D01*
X147813978Y-113251463D01*
X147833353Y-113030000D01*
X147813978Y-112808537D01*
X147803215Y-112768370D01*
X147804876Y-112698521D01*
X147835306Y-112648596D01*
X148692072Y-111791833D01*
X148761401Y-111688075D01*
X148809155Y-111572784D01*
X148812207Y-111557444D01*
X148833500Y-111450394D01*
X148833500Y-106837606D01*
X148809155Y-106715215D01*
X148792351Y-106674647D01*
X148761401Y-106599925D01*
X148760672Y-106598834D01*
X148692072Y-106496166D01*
X148692069Y-106496163D01*
X147303836Y-105107931D01*
X147303832Y-105107928D01*
X147200081Y-105038603D01*
X147200072Y-105038598D01*
X147084785Y-104990845D01*
X147084777Y-104990843D01*
X146962398Y-104966500D01*
X146962394Y-104966500D01*
X135438766Y-104966500D01*
X135371727Y-104946815D01*
X135351085Y-104930181D01*
X135171620Y-104750716D01*
X135138135Y-104689393D01*
X135135983Y-104676015D01*
X135118542Y-104510072D01*
X135059527Y-104328444D01*
X134964040Y-104163056D01*
X134836253Y-104021134D01*
X134681752Y-103908882D01*
X134507288Y-103831206D01*
X134507286Y-103831205D01*
X134320487Y-103791500D01*
X134129513Y-103791500D01*
X133942714Y-103831205D01*
X133942712Y-103831206D01*
X133778915Y-103904133D01*
X133768246Y-103908883D01*
X133613745Y-104021135D01*
X133485959Y-104163057D01*
X133390473Y-104328443D01*
X133390470Y-104328450D01*
X133331459Y-104510068D01*
X133331458Y-104510072D01*
X133311496Y-104700000D01*
X133331458Y-104889928D01*
X133331459Y-104889931D01*
X133390470Y-105071549D01*
X133390473Y-105071556D01*
X133485960Y-105236944D01*
X133546440Y-105304114D01*
X133578964Y-105340236D01*
X133609194Y-105403228D01*
X133600568Y-105472563D01*
X133555827Y-105526228D01*
X133512601Y-105544497D01*
X133502214Y-105546705D01*
X133502212Y-105546706D01*
X133385883Y-105598499D01*
X133327746Y-105624383D01*
X133173245Y-105736635D01*
X133045459Y-105878557D01*
X132949973Y-106043943D01*
X132949970Y-106043950D01*
X132890959Y-106225568D01*
X132890958Y-106225572D01*
X132870996Y-106415500D01*
X102054000Y-106415500D01*
X102054000Y-101700005D01*
X103236844Y-101700005D01*
X103255434Y-101924359D01*
X103255436Y-101924371D01*
X103310703Y-102142614D01*
X103401140Y-102348792D01*
X103524276Y-102537265D01*
X103524284Y-102537276D01*
X103669489Y-102695008D01*
X103700412Y-102757662D01*
X103692552Y-102827088D01*
X103648405Y-102881244D01*
X103621596Y-102895172D01*
X103503794Y-102939111D01*
X103386739Y-103026739D01*
X103299111Y-103143795D01*
X103248011Y-103280795D01*
X103248011Y-103280797D01*
X103241500Y-103341345D01*
X103241500Y-105138654D01*
X103248011Y-105199202D01*
X103248011Y-105199204D01*
X103299111Y-105336204D01*
X103386739Y-105453261D01*
X103503796Y-105540889D01*
X103640799Y-105591989D01*
X103668050Y-105594918D01*
X103701345Y-105598499D01*
X103701362Y-105598500D01*
X105498638Y-105598500D01*
X105498654Y-105598499D01*
X105525692Y-105595591D01*
X105559201Y-105591989D01*
X105696204Y-105540889D01*
X105813261Y-105453261D01*
X105900889Y-105336204D01*
X105951989Y-105199201D01*
X105955591Y-105165692D01*
X105958499Y-105138654D01*
X105958500Y-105138637D01*
X105958500Y-103378000D01*
X108086496Y-103378000D01*
X108106458Y-103567928D01*
X108106459Y-103567931D01*
X108165470Y-103749549D01*
X108165473Y-103749556D01*
X108260960Y-103914944D01*
X108388747Y-104056866D01*
X108543248Y-104169118D01*
X108717712Y-104246794D01*
X108904513Y-104286500D01*
X109095487Y-104286500D01*
X109282288Y-104246794D01*
X109456752Y-104169118D01*
X109611253Y-104056866D01*
X109739040Y-103914944D01*
X109834527Y-103749556D01*
X109893542Y-103567928D01*
X109913504Y-103378000D01*
X109893542Y-103188072D01*
X109834527Y-103006444D01*
X109766810Y-102889155D01*
X109739041Y-102841057D01*
X109739036Y-102841050D01*
X109665350Y-102759213D01*
X109635120Y-102696221D01*
X109633500Y-102676241D01*
X109633500Y-102662398D01*
X129066500Y-102662398D01*
X129090843Y-102784777D01*
X129090845Y-102784785D01*
X129138598Y-102900072D01*
X129138603Y-102900081D01*
X129207928Y-103003832D01*
X129207931Y-103003836D01*
X129353378Y-103149283D01*
X129386863Y-103210606D01*
X129389018Y-103224002D01*
X129390059Y-103233904D01*
X129406458Y-103389928D01*
X129406459Y-103389931D01*
X129465470Y-103571549D01*
X129465473Y-103571556D01*
X129560960Y-103736944D01*
X129688747Y-103878866D01*
X129843248Y-103991118D01*
X130017712Y-104068794D01*
X130204513Y-104108500D01*
X130395487Y-104108500D01*
X130582288Y-104068794D01*
X130756752Y-103991118D01*
X130911253Y-103878866D01*
X131039040Y-103736944D01*
X131134527Y-103571556D01*
X131193542Y-103389928D01*
X131213504Y-103200000D01*
X131193542Y-103010072D01*
X131134527Y-102828444D01*
X131039040Y-102663056D01*
X130911253Y-102521134D01*
X130756752Y-102408882D01*
X130582288Y-102331206D01*
X130582286Y-102331205D01*
X130582285Y-102331205D01*
X130431719Y-102299201D01*
X130370237Y-102266008D01*
X130336461Y-102204845D01*
X130333500Y-102177911D01*
X130333500Y-97722088D01*
X130353185Y-97655049D01*
X130405989Y-97609294D01*
X130431713Y-97600799D01*
X130582288Y-97568794D01*
X130756752Y-97491118D01*
X130911253Y-97378866D01*
X131039040Y-97236944D01*
X131134527Y-97071556D01*
X131193542Y-96889928D01*
X131213504Y-96700000D01*
X131193542Y-96510072D01*
X131134527Y-96328444D01*
X131039040Y-96163056D01*
X130912472Y-96022488D01*
X130911254Y-96021135D01*
X130842535Y-95971207D01*
X130756752Y-95908882D01*
X130582288Y-95831206D01*
X130582286Y-95831205D01*
X130395487Y-95791500D01*
X130204513Y-95791500D01*
X130017714Y-95831205D01*
X129843246Y-95908883D01*
X129688745Y-96021135D01*
X129560959Y-96163057D01*
X129465473Y-96328443D01*
X129465470Y-96328450D01*
X129421734Y-96463057D01*
X129406458Y-96510072D01*
X129390858Y-96658500D01*
X129389019Y-96675996D01*
X129362434Y-96740610D01*
X129353380Y-96750714D01*
X129296167Y-96807928D01*
X129296166Y-96807929D01*
X129207931Y-96896163D01*
X129207928Y-96896167D01*
X129138603Y-96999918D01*
X129138598Y-96999927D01*
X129090845Y-97115214D01*
X129090843Y-97115222D01*
X129066500Y-97237601D01*
X129066500Y-102662398D01*
X109633500Y-102662398D01*
X109633500Y-101001756D01*
X109653185Y-100934717D01*
X109665346Y-100918788D01*
X109739040Y-100836944D01*
X109834527Y-100671556D01*
X109893542Y-100489928D01*
X109913504Y-100300000D01*
X109893542Y-100110072D01*
X109834527Y-99928444D01*
X109739040Y-99763056D01*
X109611253Y-99621134D01*
X109456752Y-99508882D01*
X109282288Y-99431206D01*
X109282286Y-99431205D01*
X109095487Y-99391500D01*
X108904513Y-99391500D01*
X108717714Y-99431205D01*
X108543246Y-99508883D01*
X108388745Y-99621135D01*
X108260959Y-99763057D01*
X108165473Y-99928443D01*
X108165470Y-99928450D01*
X108106459Y-100110068D01*
X108106458Y-100110072D01*
X108086496Y-100300000D01*
X108106458Y-100489928D01*
X108106459Y-100489931D01*
X108165470Y-100671549D01*
X108165473Y-100671556D01*
X108260960Y-100836944D01*
X108334649Y-100918784D01*
X108364880Y-100981775D01*
X108366500Y-101001756D01*
X108366500Y-102676241D01*
X108346815Y-102743280D01*
X108334650Y-102759213D01*
X108260963Y-102841050D01*
X108260958Y-102841057D01*
X108165473Y-103006443D01*
X108165470Y-103006450D01*
X108119061Y-103149283D01*
X108106458Y-103188072D01*
X108086496Y-103378000D01*
X105958500Y-103378000D01*
X105958500Y-103341362D01*
X105958499Y-103341345D01*
X105954543Y-103304556D01*
X105951989Y-103280799D01*
X105900889Y-103143796D01*
X105813261Y-103026739D01*
X105696204Y-102939111D01*
X105578404Y-102895172D01*
X105522471Y-102853300D01*
X105498055Y-102787835D01*
X105512908Y-102719562D01*
X105530504Y-102695014D01*
X105675722Y-102537268D01*
X105798860Y-102348791D01*
X105889296Y-102142616D01*
X105944564Y-101924368D01*
X105949028Y-101870500D01*
X105963156Y-101700005D01*
X105963156Y-101699994D01*
X105944565Y-101475640D01*
X105944563Y-101475628D01*
X105919716Y-101377511D01*
X105889296Y-101257384D01*
X105798860Y-101051209D01*
X105675722Y-100862732D01*
X105675719Y-100862729D01*
X105675715Y-100862723D01*
X105523243Y-100697097D01*
X105523238Y-100697092D01*
X105345577Y-100558812D01*
X105345577Y-100558811D01*
X105302303Y-100535393D01*
X105252713Y-100486173D01*
X105237605Y-100417957D01*
X105261775Y-100352401D01*
X105290198Y-100324763D01*
X105471079Y-100198108D01*
X105638105Y-100031082D01*
X105773600Y-99837578D01*
X105873429Y-99623492D01*
X105873432Y-99623486D01*
X105930636Y-99410000D01*
X105033012Y-99410000D01*
X105065925Y-99352993D01*
X105100000Y-99225826D01*
X105100000Y-99094174D01*
X105065925Y-98967007D01*
X105033012Y-98910000D01*
X105930636Y-98910000D01*
X105930635Y-98909999D01*
X105873432Y-98696513D01*
X105873429Y-98696507D01*
X105828427Y-98600000D01*
X115286496Y-98600000D01*
X115306458Y-98789928D01*
X115306459Y-98789931D01*
X115365470Y-98971549D01*
X115365473Y-98971556D01*
X115460960Y-99136944D01*
X115588747Y-99278866D01*
X115743248Y-99391118D01*
X115917712Y-99468794D01*
X116104513Y-99508500D01*
X116295487Y-99508500D01*
X116482288Y-99468794D01*
X116649786Y-99394219D01*
X116700218Y-99383500D01*
X121312395Y-99383500D01*
X121312396Y-99383499D01*
X121434785Y-99359155D01*
X121550075Y-99311400D01*
X121653833Y-99242071D01*
X128126085Y-92769819D01*
X128187408Y-92736334D01*
X128213766Y-92733500D01*
X136562138Y-92733500D01*
X136629177Y-92753185D01*
X136649819Y-92769819D01*
X136750378Y-92870378D01*
X136783863Y-92931701D01*
X136786018Y-92945096D01*
X136794893Y-93029538D01*
X136782325Y-93098267D01*
X136734594Y-93149291D01*
X136671573Y-93166500D01*
X133737601Y-93166500D01*
X133615222Y-93190842D01*
X133615213Y-93190845D01*
X133499924Y-93238599D01*
X133499921Y-93238600D01*
X133396167Y-93307927D01*
X133396163Y-93307930D01*
X133348915Y-93355180D01*
X133287592Y-93388666D01*
X133261233Y-93391500D01*
X133204513Y-93391500D01*
X133017714Y-93431205D01*
X132973332Y-93450965D01*
X132850016Y-93505869D01*
X132843246Y-93508883D01*
X132688745Y-93621135D01*
X132560959Y-93763057D01*
X132465473Y-93928443D01*
X132465470Y-93928450D01*
X132407117Y-94108044D01*
X132406458Y-94110072D01*
X132386496Y-94300000D01*
X132406458Y-94489928D01*
X132406459Y-94489931D01*
X132465470Y-94671549D01*
X132465473Y-94671556D01*
X132560960Y-94836944D01*
X132651596Y-94937606D01*
X132686462Y-94976329D01*
X132688747Y-94978866D01*
X132843248Y-95091118D01*
X133017712Y-95168794D01*
X133204513Y-95208500D01*
X133395487Y-95208500D01*
X133582288Y-95168794D01*
X133756752Y-95091118D01*
X133911253Y-94978866D01*
X134039040Y-94836944D01*
X134134527Y-94671556D01*
X134172645Y-94554241D01*
X134184037Y-94519182D01*
X134223475Y-94461506D01*
X134287833Y-94434308D01*
X134301968Y-94433500D01*
X137923112Y-94433500D01*
X137990151Y-94453185D01*
X138035906Y-94505989D01*
X138046431Y-94544535D01*
X138056458Y-94639928D01*
X138056459Y-94639931D01*
X138115470Y-94821549D01*
X138115473Y-94821556D01*
X138210960Y-94986944D01*
X138338747Y-95128866D01*
X138493248Y-95241118D01*
X138667712Y-95318794D01*
X138854513Y-95358500D01*
X139045487Y-95358500D01*
X139232288Y-95318794D01*
X139406752Y-95241118D01*
X139561253Y-95128866D01*
X139689040Y-94986944D01*
X139784527Y-94821556D01*
X139843542Y-94639928D01*
X139860981Y-94473999D01*
X139887564Y-94409388D01*
X139896610Y-94399293D01*
X140326086Y-93969819D01*
X140387409Y-93936334D01*
X140413767Y-93933500D01*
X141120985Y-93933500D01*
X141188024Y-93953185D01*
X141233779Y-94005989D01*
X141243723Y-94075147D01*
X141228372Y-94119500D01*
X141165473Y-94228443D01*
X141165470Y-94228450D01*
X141106680Y-94409388D01*
X141106458Y-94410072D01*
X141086496Y-94600000D01*
X141106458Y-94789928D01*
X141106459Y-94789931D01*
X141165470Y-94971549D01*
X141165473Y-94971556D01*
X141260960Y-95136944D01*
X141347899Y-95233500D01*
X141373924Y-95262404D01*
X141388747Y-95278866D01*
X141543248Y-95391118D01*
X141717712Y-95468794D01*
X141904513Y-95508500D01*
X142095487Y-95508500D01*
X142282288Y-95468794D01*
X142456752Y-95391118D01*
X142569615Y-95309117D01*
X142635420Y-95285638D01*
X142703474Y-95301463D01*
X142752169Y-95351569D01*
X142766500Y-95409436D01*
X142766500Y-100886234D01*
X142746815Y-100953273D01*
X142730181Y-100973915D01*
X141448915Y-102255181D01*
X141387592Y-102288666D01*
X141361234Y-102291500D01*
X141304513Y-102291500D01*
X141117714Y-102331205D01*
X140943246Y-102408883D01*
X140788745Y-102521135D01*
X140660959Y-102663057D01*
X140565473Y-102828443D01*
X140565470Y-102828450D01*
X140508485Y-103003833D01*
X140506458Y-103010072D01*
X140486496Y-103200000D01*
X140506458Y-103389928D01*
X140506459Y-103389931D01*
X140565470Y-103571549D01*
X140565473Y-103571556D01*
X140660960Y-103736944D01*
X140788747Y-103878866D01*
X140943248Y-103991118D01*
X141117712Y-104068794D01*
X141304513Y-104108500D01*
X141495487Y-104108500D01*
X141682288Y-104068794D01*
X141856752Y-103991118D01*
X142011253Y-103878866D01*
X142139040Y-103736944D01*
X142234527Y-103571556D01*
X142293542Y-103389928D01*
X142310981Y-103223997D01*
X142337564Y-103159387D01*
X142346611Y-103149291D01*
X142449326Y-103046576D01*
X153811950Y-103046576D01*
X153812950Y-103070587D01*
X153812949Y-103070587D01*
X153812984Y-103071405D01*
X153813989Y-103094529D01*
X153821168Y-103160841D01*
X153821168Y-103160843D01*
X153824768Y-103181543D01*
X153824913Y-103182397D01*
X153828550Y-103204220D01*
X153834392Y-103233904D01*
X153839398Y-103255928D01*
X153848961Y-103291955D01*
X153855960Y-103314953D01*
X153864723Y-103341213D01*
X153872718Y-103363196D01*
X153880107Y-103382332D01*
X153889100Y-103404313D01*
X153900866Y-103430920D01*
X153910869Y-103451927D01*
X153919701Y-103469600D01*
X153930675Y-103490549D01*
X153930685Y-103490567D01*
X153930696Y-103490588D01*
X153930705Y-103490603D01*
X153955269Y-103532580D01*
X153973618Y-103560808D01*
X153981267Y-103572576D01*
X154006721Y-103608328D01*
X154020721Y-103626328D01*
X154020722Y-103626329D01*
X154042470Y-103652476D01*
X154052056Y-103663260D01*
X154058468Y-103670473D01*
X154065903Y-103678602D01*
X154068456Y-103681393D01*
X154084431Y-103698365D01*
X154106634Y-103720568D01*
X154123606Y-103736543D01*
X154125726Y-103738482D01*
X154134527Y-103746532D01*
X154137929Y-103749556D01*
X154152523Y-103762529D01*
X154152527Y-103762532D01*
X154178672Y-103784279D01*
X154196672Y-103798279D01*
X154232424Y-103823733D01*
X154272424Y-103849733D01*
X154314412Y-103874304D01*
X154314447Y-103874322D01*
X154314450Y-103874324D01*
X154335399Y-103885298D01*
X154353072Y-103894130D01*
X154374079Y-103904133D01*
X154400686Y-103915899D01*
X154422667Y-103924892D01*
X154430893Y-103928068D01*
X154441806Y-103932283D01*
X154458713Y-103938431D01*
X154463786Y-103940276D01*
X154463795Y-103940279D01*
X154463806Y-103940283D01*
X154490033Y-103949035D01*
X154513033Y-103956035D01*
X154549089Y-103965606D01*
X154571089Y-103970606D01*
X154600759Y-103976445D01*
X154611682Y-103978265D01*
X154622598Y-103980085D01*
X154623412Y-103980223D01*
X154644160Y-103983832D01*
X154710478Y-103991011D01*
X154733478Y-103992011D01*
X154733525Y-103992012D01*
X154733595Y-103992016D01*
X154733594Y-103992016D01*
X154734024Y-103992033D01*
X154734346Y-103992047D01*
X154734411Y-103992069D01*
X154734412Y-103992050D01*
X154737843Y-103992192D01*
X154758415Y-103993050D01*
X154777841Y-103993455D01*
X154779998Y-103993500D01*
X154780000Y-103993500D01*
X155880002Y-103993500D01*
X155882055Y-103993457D01*
X155901585Y-103993050D01*
X155925585Y-103992050D01*
X155926522Y-103992011D01*
X155949522Y-103991011D01*
X156015840Y-103983832D01*
X156036668Y-103980209D01*
X156037402Y-103980085D01*
X156048315Y-103978266D01*
X156059241Y-103976445D01*
X156088911Y-103970606D01*
X156110911Y-103965606D01*
X156146967Y-103956035D01*
X156169967Y-103949035D01*
X156196194Y-103940283D01*
X156218194Y-103932283D01*
X156234112Y-103926135D01*
X156237332Y-103924892D01*
X156251555Y-103919073D01*
X156259321Y-103915896D01*
X156285921Y-103904133D01*
X156306921Y-103894133D01*
X156324588Y-103885304D01*
X156324588Y-103885303D01*
X156324600Y-103885298D01*
X156332979Y-103880908D01*
X156345588Y-103874304D01*
X156387576Y-103849733D01*
X156427576Y-103823733D01*
X156463328Y-103798279D01*
X156481328Y-103784279D01*
X156507473Y-103762532D01*
X156525473Y-103746532D01*
X156536362Y-103736572D01*
X156553362Y-103720572D01*
X156575572Y-103698362D01*
X156591572Y-103681362D01*
X156601532Y-103670473D01*
X156617532Y-103652473D01*
X156639279Y-103626328D01*
X156653279Y-103608328D01*
X156678733Y-103572576D01*
X156704733Y-103532576D01*
X156729304Y-103490588D01*
X156740304Y-103469588D01*
X156749133Y-103451921D01*
X156759133Y-103430921D01*
X156770896Y-103404321D01*
X156779896Y-103382321D01*
X156787283Y-103363194D01*
X156795283Y-103341194D01*
X156804035Y-103314967D01*
X156811035Y-103291967D01*
X156820606Y-103255911D01*
X156825606Y-103233911D01*
X156831445Y-103204241D01*
X156835086Y-103182397D01*
X156835231Y-103181543D01*
X156838832Y-103160840D01*
X156846011Y-103094522D01*
X156847011Y-103071522D01*
X156847050Y-103070585D01*
X156848050Y-103046585D01*
X156848050Y-103046576D01*
X158131950Y-103046576D01*
X158132950Y-103070587D01*
X158132949Y-103070587D01*
X158132984Y-103071405D01*
X158133989Y-103094529D01*
X158141168Y-103160841D01*
X158141168Y-103160843D01*
X158144768Y-103181543D01*
X158144913Y-103182397D01*
X158148550Y-103204220D01*
X158154392Y-103233904D01*
X158159398Y-103255928D01*
X158168961Y-103291955D01*
X158175960Y-103314953D01*
X158184723Y-103341213D01*
X158192718Y-103363196D01*
X158200107Y-103382332D01*
X158209100Y-103404313D01*
X158220866Y-103430920D01*
X158230869Y-103451927D01*
X158239701Y-103469600D01*
X158250675Y-103490549D01*
X158250685Y-103490567D01*
X158250696Y-103490588D01*
X158250705Y-103490603D01*
X158275269Y-103532580D01*
X158293618Y-103560808D01*
X158301267Y-103572576D01*
X158326721Y-103608328D01*
X158340721Y-103626328D01*
X158340722Y-103626329D01*
X158362470Y-103652476D01*
X158372056Y-103663260D01*
X158378468Y-103670473D01*
X158385903Y-103678602D01*
X158388456Y-103681393D01*
X158404431Y-103698365D01*
X158426634Y-103720568D01*
X158443606Y-103736543D01*
X158445726Y-103738482D01*
X158454527Y-103746532D01*
X158457929Y-103749556D01*
X158472523Y-103762529D01*
X158472527Y-103762532D01*
X158498672Y-103784279D01*
X158516672Y-103798279D01*
X158552424Y-103823733D01*
X158592424Y-103849733D01*
X158634412Y-103874304D01*
X158634447Y-103874322D01*
X158634450Y-103874324D01*
X158655399Y-103885298D01*
X158673072Y-103894130D01*
X158694079Y-103904133D01*
X158720686Y-103915899D01*
X158742667Y-103924892D01*
X158750893Y-103928068D01*
X158761806Y-103932283D01*
X158778713Y-103938431D01*
X158783786Y-103940276D01*
X158783795Y-103940279D01*
X158783806Y-103940283D01*
X158810033Y-103949035D01*
X158833033Y-103956035D01*
X158869089Y-103965606D01*
X158891089Y-103970606D01*
X158920759Y-103976445D01*
X158931682Y-103978265D01*
X158942598Y-103980085D01*
X158943412Y-103980223D01*
X158964160Y-103983832D01*
X159030478Y-103991011D01*
X159053478Y-103992011D01*
X159053525Y-103992012D01*
X159053595Y-103992016D01*
X159053594Y-103992016D01*
X159054024Y-103992033D01*
X159054346Y-103992047D01*
X159054411Y-103992069D01*
X159054412Y-103992050D01*
X159057843Y-103992192D01*
X159078415Y-103993050D01*
X159097841Y-103993455D01*
X159099998Y-103993500D01*
X159100000Y-103993500D01*
X159900002Y-103993500D01*
X159902055Y-103993457D01*
X159921585Y-103993050D01*
X159945585Y-103992050D01*
X159946522Y-103992011D01*
X159969522Y-103991011D01*
X160035840Y-103983832D01*
X160056668Y-103980209D01*
X160057402Y-103980085D01*
X160068315Y-103978266D01*
X160079241Y-103976445D01*
X160108911Y-103970606D01*
X160130911Y-103965606D01*
X160166967Y-103956035D01*
X160189967Y-103949035D01*
X160216194Y-103940283D01*
X160238194Y-103932283D01*
X160254112Y-103926135D01*
X160257332Y-103924892D01*
X160271555Y-103919073D01*
X160279321Y-103915896D01*
X160305921Y-103904133D01*
X160326921Y-103894133D01*
X160344588Y-103885304D01*
X160344588Y-103885303D01*
X160344600Y-103885298D01*
X160352979Y-103880908D01*
X160365588Y-103874304D01*
X160407576Y-103849733D01*
X160447576Y-103823733D01*
X160483328Y-103798279D01*
X160501328Y-103784279D01*
X160527473Y-103762532D01*
X160545473Y-103746532D01*
X160556362Y-103736572D01*
X160573362Y-103720572D01*
X160595572Y-103698362D01*
X160611572Y-103681362D01*
X160621532Y-103670473D01*
X160637532Y-103652473D01*
X160659279Y-103626328D01*
X160673279Y-103608328D01*
X160698733Y-103572576D01*
X160724733Y-103532576D01*
X160749304Y-103490588D01*
X160760304Y-103469588D01*
X160769133Y-103451921D01*
X160779133Y-103430921D01*
X160790896Y-103404321D01*
X160799896Y-103382321D01*
X160807283Y-103363194D01*
X160815283Y-103341194D01*
X160824035Y-103314967D01*
X160831035Y-103291967D01*
X160840606Y-103255911D01*
X160845606Y-103233911D01*
X160851445Y-103204241D01*
X160855086Y-103182397D01*
X160855231Y-103181543D01*
X160858832Y-103160840D01*
X160866011Y-103094522D01*
X160867011Y-103071522D01*
X160867050Y-103070585D01*
X160868050Y-103046585D01*
X160868050Y-103003415D01*
X160867050Y-102979415D01*
X160867011Y-102978478D01*
X160866011Y-102955478D01*
X160858832Y-102889160D01*
X160855223Y-102868412D01*
X160855085Y-102867598D01*
X160852702Y-102853300D01*
X160851445Y-102845759D01*
X160845606Y-102816089D01*
X160840606Y-102794089D01*
X160831035Y-102758033D01*
X160824035Y-102735033D01*
X160815283Y-102708806D01*
X160807283Y-102686806D01*
X160803068Y-102675893D01*
X160799892Y-102667667D01*
X160790899Y-102645686D01*
X160779133Y-102619079D01*
X160769130Y-102598072D01*
X160760298Y-102580399D01*
X160749324Y-102559450D01*
X160749322Y-102559447D01*
X160749304Y-102559412D01*
X160724733Y-102517424D01*
X160698733Y-102477424D01*
X160673279Y-102441672D01*
X160659279Y-102423672D01*
X160637532Y-102397527D01*
X160637529Y-102397523D01*
X160629540Y-102388536D01*
X160621532Y-102379527D01*
X160611572Y-102368638D01*
X160611543Y-102368606D01*
X160595568Y-102351634D01*
X160573365Y-102329431D01*
X160556393Y-102313456D01*
X160553602Y-102310903D01*
X160545473Y-102303468D01*
X160528821Y-102288666D01*
X160527476Y-102287470D01*
X160501329Y-102265722D01*
X160501328Y-102265721D01*
X160483328Y-102251721D01*
X160447576Y-102226267D01*
X160435808Y-102218618D01*
X160407580Y-102200269D01*
X160365603Y-102175705D01*
X160365588Y-102175696D01*
X160365567Y-102175685D01*
X160365549Y-102175675D01*
X160344600Y-102164701D01*
X160326927Y-102155869D01*
X160305920Y-102145866D01*
X160279313Y-102134100D01*
X160257332Y-102125107D01*
X160241146Y-102118857D01*
X160238194Y-102117717D01*
X160233123Y-102115873D01*
X160216213Y-102109723D01*
X160189953Y-102100960D01*
X160166955Y-102093961D01*
X160130928Y-102084398D01*
X160130914Y-102084394D01*
X160130911Y-102084394D01*
X160125422Y-102083146D01*
X160108904Y-102079392D01*
X160079220Y-102073550D01*
X160057397Y-102069913D01*
X160056543Y-102069768D01*
X160035842Y-102066168D01*
X159969529Y-102058989D01*
X159946587Y-102057991D01*
X159946522Y-102057989D01*
X159945885Y-102057962D01*
X159945588Y-102057950D01*
X159921566Y-102056949D01*
X159900002Y-102056500D01*
X159900000Y-102056500D01*
X159100000Y-102056500D01*
X159099998Y-102056500D01*
X159078433Y-102056949D01*
X159054412Y-102057950D01*
X159054411Y-102057949D01*
X159053594Y-102057983D01*
X159053595Y-102057984D01*
X159053524Y-102057987D01*
X159053478Y-102057989D01*
X159048970Y-102058185D01*
X159030470Y-102058989D01*
X158964158Y-102066168D01*
X158964155Y-102066168D01*
X158943456Y-102069768D01*
X158942603Y-102069913D01*
X158920774Y-102073551D01*
X158891095Y-102079392D01*
X158869071Y-102084398D01*
X158833044Y-102093961D01*
X158810046Y-102100960D01*
X158783786Y-102109723D01*
X158761803Y-102117718D01*
X158742667Y-102125107D01*
X158720686Y-102134100D01*
X158694079Y-102145866D01*
X158673072Y-102155869D01*
X158655399Y-102164701D01*
X158634450Y-102175675D01*
X158634396Y-102175705D01*
X158592419Y-102200269D01*
X158552428Y-102226264D01*
X158516673Y-102251720D01*
X158498670Y-102265722D01*
X158472523Y-102287470D01*
X158454549Y-102303448D01*
X158443606Y-102313456D01*
X158426634Y-102329431D01*
X158404431Y-102351634D01*
X158388456Y-102368606D01*
X158378448Y-102379549D01*
X158362470Y-102397523D01*
X158340722Y-102423670D01*
X158326720Y-102441673D01*
X158301264Y-102477428D01*
X158275269Y-102517419D01*
X158250705Y-102559396D01*
X158250675Y-102559450D01*
X158239701Y-102580399D01*
X158230869Y-102598072D01*
X158220866Y-102619079D01*
X158209100Y-102645686D01*
X158200107Y-102667667D01*
X158192718Y-102686803D01*
X158184723Y-102708786D01*
X158175960Y-102735046D01*
X158168961Y-102758044D01*
X158159398Y-102794071D01*
X158154392Y-102816095D01*
X158148551Y-102845774D01*
X158144913Y-102867603D01*
X158144768Y-102868456D01*
X158141168Y-102889155D01*
X158141168Y-102889158D01*
X158133989Y-102955470D01*
X158132984Y-102978595D01*
X158132949Y-102979412D01*
X158132950Y-102979413D01*
X158131950Y-103003423D01*
X158131950Y-103046576D01*
X156848050Y-103046576D01*
X156848050Y-103003415D01*
X156847050Y-102979415D01*
X156847011Y-102978478D01*
X156846011Y-102955478D01*
X156838832Y-102889160D01*
X156835223Y-102868412D01*
X156835085Y-102867598D01*
X156832702Y-102853300D01*
X156831445Y-102845759D01*
X156825606Y-102816089D01*
X156820606Y-102794089D01*
X156811035Y-102758033D01*
X156804035Y-102735033D01*
X156795283Y-102708806D01*
X156787283Y-102686806D01*
X156783068Y-102675893D01*
X156779892Y-102667667D01*
X156770899Y-102645686D01*
X156759133Y-102619079D01*
X156749130Y-102598072D01*
X156740298Y-102580399D01*
X156729324Y-102559450D01*
X156729322Y-102559447D01*
X156729304Y-102559412D01*
X156704733Y-102517424D01*
X156678733Y-102477424D01*
X156653279Y-102441672D01*
X156639279Y-102423672D01*
X156617532Y-102397527D01*
X156617529Y-102397523D01*
X156609540Y-102388536D01*
X156601532Y-102379527D01*
X156591572Y-102368638D01*
X156591543Y-102368606D01*
X156575568Y-102351634D01*
X156553365Y-102329431D01*
X156536393Y-102313456D01*
X156533602Y-102310903D01*
X156525473Y-102303468D01*
X156508821Y-102288666D01*
X156507476Y-102287470D01*
X156481329Y-102265722D01*
X156481328Y-102265721D01*
X156463328Y-102251721D01*
X156427576Y-102226267D01*
X156415808Y-102218618D01*
X156387580Y-102200269D01*
X156345603Y-102175705D01*
X156345588Y-102175696D01*
X156345567Y-102175685D01*
X156345549Y-102175675D01*
X156324600Y-102164701D01*
X156306927Y-102155869D01*
X156285933Y-102145872D01*
X156284271Y-102145137D01*
X156282706Y-102144445D01*
X156229353Y-102099333D01*
X156208858Y-102032537D01*
X156227730Y-101965264D01*
X156245166Y-101943357D01*
X156260509Y-101928015D01*
X156332984Y-101802485D01*
X156370500Y-101662475D01*
X156370500Y-101517525D01*
X156332984Y-101377515D01*
X156266519Y-101262395D01*
X156260511Y-101251988D01*
X156260506Y-101251982D01*
X156158017Y-101149493D01*
X156158011Y-101149488D01*
X156032488Y-101077017D01*
X156032489Y-101077017D01*
X156021006Y-101073940D01*
X155892475Y-101039500D01*
X155747525Y-101039500D01*
X155618993Y-101073940D01*
X155607511Y-101077017D01*
X155481988Y-101149488D01*
X155481982Y-101149493D01*
X155379493Y-101251982D01*
X155379488Y-101251988D01*
X155307017Y-101377511D01*
X155307016Y-101377515D01*
X155269500Y-101517525D01*
X155269500Y-101662475D01*
X155307016Y-101802485D01*
X155307017Y-101802488D01*
X155346284Y-101870500D01*
X155362757Y-101938400D01*
X155339905Y-102004427D01*
X155284983Y-102047618D01*
X155238897Y-102056500D01*
X154779998Y-102056500D01*
X154758433Y-102056949D01*
X154734412Y-102057950D01*
X154734411Y-102057949D01*
X154733594Y-102057983D01*
X154733595Y-102057984D01*
X154733524Y-102057987D01*
X154733478Y-102057989D01*
X154728970Y-102058185D01*
X154710470Y-102058989D01*
X154644158Y-102066168D01*
X154644155Y-102066168D01*
X154623456Y-102069768D01*
X154622603Y-102069913D01*
X154600774Y-102073551D01*
X154571095Y-102079392D01*
X154549071Y-102084398D01*
X154513044Y-102093961D01*
X154490046Y-102100960D01*
X154463786Y-102109723D01*
X154441803Y-102117718D01*
X154422667Y-102125107D01*
X154400686Y-102134100D01*
X154374079Y-102145866D01*
X154353072Y-102155869D01*
X154335399Y-102164701D01*
X154314450Y-102175675D01*
X154314396Y-102175705D01*
X154272419Y-102200269D01*
X154232428Y-102226264D01*
X154196673Y-102251720D01*
X154178670Y-102265722D01*
X154152523Y-102287470D01*
X154134549Y-102303448D01*
X154123606Y-102313456D01*
X154106634Y-102329431D01*
X154084431Y-102351634D01*
X154068456Y-102368606D01*
X154058448Y-102379549D01*
X154042470Y-102397523D01*
X154020722Y-102423670D01*
X154006720Y-102441673D01*
X153981264Y-102477428D01*
X153955269Y-102517419D01*
X153930705Y-102559396D01*
X153930675Y-102559450D01*
X153919701Y-102580399D01*
X153910869Y-102598072D01*
X153900866Y-102619079D01*
X153889100Y-102645686D01*
X153880107Y-102667667D01*
X153872718Y-102686803D01*
X153864723Y-102708786D01*
X153855960Y-102735046D01*
X153848961Y-102758044D01*
X153839398Y-102794071D01*
X153834392Y-102816095D01*
X153828551Y-102845774D01*
X153824913Y-102867603D01*
X153824768Y-102868456D01*
X153821168Y-102889155D01*
X153821168Y-102889158D01*
X153813989Y-102955470D01*
X153812984Y-102978595D01*
X153812949Y-102979412D01*
X153812950Y-102979413D01*
X153811950Y-103003423D01*
X153811950Y-103046576D01*
X142449326Y-103046576D01*
X143892071Y-101603833D01*
X143961400Y-101500075D01*
X144009155Y-101384785D01*
X144033500Y-101262394D01*
X144033500Y-101137606D01*
X144033500Y-99632540D01*
X144053185Y-99565501D01*
X144105989Y-99519746D01*
X144175147Y-99509802D01*
X144238703Y-99538827D01*
X144264887Y-99570540D01*
X144265472Y-99571553D01*
X144265473Y-99571556D01*
X144360960Y-99736944D01*
X144488747Y-99878866D01*
X144643248Y-99991118D01*
X144817712Y-100068794D01*
X145004513Y-100108500D01*
X145195487Y-100108500D01*
X145382288Y-100068794D01*
X145556752Y-99991118D01*
X145711253Y-99878866D01*
X145839040Y-99736944D01*
X145934527Y-99571556D01*
X145993542Y-99389928D01*
X146013504Y-99200000D01*
X145993542Y-99010072D01*
X145934527Y-98828444D01*
X145886783Y-98745750D01*
X145839041Y-98663057D01*
X145839036Y-98663050D01*
X145765350Y-98581213D01*
X145735120Y-98518221D01*
X145733500Y-98498241D01*
X145733500Y-97701756D01*
X145753185Y-97634717D01*
X145765346Y-97618788D01*
X145839040Y-97536944D01*
X145934527Y-97371556D01*
X145993542Y-97189928D01*
X146013504Y-97000000D01*
X145993542Y-96810072D01*
X145934527Y-96628444D01*
X145839040Y-96463056D01*
X145711253Y-96321134D01*
X145556752Y-96208882D01*
X145382288Y-96131206D01*
X145382286Y-96131205D01*
X145195487Y-96091500D01*
X145004513Y-96091500D01*
X144817714Y-96131205D01*
X144643246Y-96208883D01*
X144488745Y-96321135D01*
X144360959Y-96463057D01*
X144264887Y-96629459D01*
X144214320Y-96677675D01*
X144145713Y-96690898D01*
X144080848Y-96664930D01*
X144040320Y-96608016D01*
X144033500Y-96567459D01*
X144033500Y-94937605D01*
X144033499Y-94937601D01*
X144024253Y-94891118D01*
X144009155Y-94815215D01*
X143961400Y-94699925D01*
X143961399Y-94699924D01*
X143961396Y-94699918D01*
X143892072Y-94596168D01*
X143850124Y-94554220D01*
X143803833Y-94507929D01*
X143624382Y-94328478D01*
X143441086Y-94145181D01*
X143407601Y-94083858D01*
X143412585Y-94014166D01*
X143454457Y-93958233D01*
X143519921Y-93933816D01*
X143528767Y-93933500D01*
X145486234Y-93933500D01*
X145553273Y-93953185D01*
X145573915Y-93969819D01*
X145653378Y-94049282D01*
X145686863Y-94110605D01*
X145689018Y-94124001D01*
X145693442Y-94166089D01*
X145706458Y-94289928D01*
X145706459Y-94289931D01*
X145765470Y-94471549D01*
X145765473Y-94471556D01*
X145860960Y-94636944D01*
X145988747Y-94778866D01*
X146143248Y-94891118D01*
X146317712Y-94968794D01*
X146504513Y-95008500D01*
X146695487Y-95008500D01*
X146882288Y-94968794D01*
X147056752Y-94891118D01*
X147211253Y-94778866D01*
X147339040Y-94636944D01*
X147434527Y-94471556D01*
X147458887Y-94396585D01*
X153811950Y-94396585D01*
X153812512Y-94410068D01*
X153812950Y-94420587D01*
X153812949Y-94420587D01*
X153812984Y-94421405D01*
X153813989Y-94444529D01*
X153821168Y-94510841D01*
X153821168Y-94510843D01*
X153824768Y-94531543D01*
X153824913Y-94532397D01*
X153828550Y-94554220D01*
X153834392Y-94583904D01*
X153839398Y-94605928D01*
X153848961Y-94641955D01*
X153855960Y-94664953D01*
X153864723Y-94691213D01*
X153872718Y-94713196D01*
X153880107Y-94732332D01*
X153889100Y-94754313D01*
X153900866Y-94780920D01*
X153910869Y-94801927D01*
X153919701Y-94819600D01*
X153930675Y-94840549D01*
X153930685Y-94840567D01*
X153930696Y-94840588D01*
X153930705Y-94840603D01*
X153955269Y-94882580D01*
X153960818Y-94891116D01*
X153981267Y-94922576D01*
X154006721Y-94958328D01*
X154020721Y-94976328D01*
X154022832Y-94978866D01*
X154042470Y-95002476D01*
X154047825Y-95008500D01*
X154058468Y-95020473D01*
X154065903Y-95028602D01*
X154068456Y-95031393D01*
X154084431Y-95048365D01*
X154106634Y-95070568D01*
X154123606Y-95086543D01*
X154123638Y-95086572D01*
X154134527Y-95096532D01*
X154143536Y-95104540D01*
X154152523Y-95112529D01*
X154152527Y-95112532D01*
X154178672Y-95134279D01*
X154196672Y-95148279D01*
X154232424Y-95173733D01*
X154272424Y-95199733D01*
X154314412Y-95224304D01*
X154314447Y-95224322D01*
X154314450Y-95224324D01*
X154335399Y-95235298D01*
X154353072Y-95244130D01*
X154374079Y-95254133D01*
X154392782Y-95262404D01*
X154400686Y-95265899D01*
X154422667Y-95274892D01*
X154430893Y-95278068D01*
X154441806Y-95282283D01*
X154458713Y-95288431D01*
X154463786Y-95290276D01*
X154463795Y-95290279D01*
X154463806Y-95290283D01*
X154490033Y-95299035D01*
X154513033Y-95306035D01*
X154549089Y-95315606D01*
X154571089Y-95320606D01*
X154600759Y-95326445D01*
X154611682Y-95328265D01*
X154622598Y-95330085D01*
X154623412Y-95330223D01*
X154644160Y-95333832D01*
X154710478Y-95341011D01*
X154733478Y-95342011D01*
X154733525Y-95342012D01*
X154733595Y-95342016D01*
X154733594Y-95342016D01*
X154734024Y-95342033D01*
X154734346Y-95342047D01*
X154734411Y-95342069D01*
X154734412Y-95342050D01*
X154737843Y-95342192D01*
X154758415Y-95343050D01*
X154777841Y-95343455D01*
X154779998Y-95343500D01*
X154780000Y-95343500D01*
X155238897Y-95343500D01*
X155305936Y-95363185D01*
X155351691Y-95415989D01*
X155361635Y-95485147D01*
X155346284Y-95529500D01*
X155307017Y-95597511D01*
X155307016Y-95597515D01*
X155269500Y-95737525D01*
X155269500Y-95882475D01*
X155306654Y-96021134D01*
X155307017Y-96022488D01*
X155379488Y-96148011D01*
X155379490Y-96148013D01*
X155379491Y-96148015D01*
X155481985Y-96250509D01*
X155481986Y-96250510D01*
X155481988Y-96250511D01*
X155607511Y-96322982D01*
X155607512Y-96322982D01*
X155607515Y-96322984D01*
X155747525Y-96360500D01*
X155747528Y-96360500D01*
X155892472Y-96360500D01*
X155892475Y-96360500D01*
X156032485Y-96322984D01*
X156158015Y-96250509D01*
X156260509Y-96148015D01*
X156332984Y-96022485D01*
X156370500Y-95882475D01*
X156370500Y-95737525D01*
X156332984Y-95597515D01*
X156311366Y-95560072D01*
X156260511Y-95471988D01*
X156260506Y-95471982D01*
X156245168Y-95456644D01*
X156211683Y-95395321D01*
X156216667Y-95325629D01*
X156258539Y-95269696D01*
X156282719Y-95255548D01*
X156285921Y-95254133D01*
X156306921Y-95244133D01*
X156324588Y-95235304D01*
X156324588Y-95235303D01*
X156324600Y-95235298D01*
X156336352Y-95229142D01*
X156345588Y-95224304D01*
X156387576Y-95199733D01*
X156427576Y-95173733D01*
X156463328Y-95148279D01*
X156481328Y-95134279D01*
X156507473Y-95112532D01*
X156525473Y-95096532D01*
X156536362Y-95086572D01*
X156553362Y-95070572D01*
X156575572Y-95048362D01*
X156591572Y-95031362D01*
X156601532Y-95020473D01*
X156617532Y-95002473D01*
X156639279Y-94976328D01*
X156653279Y-94958328D01*
X156678733Y-94922576D01*
X156704733Y-94882576D01*
X156729304Y-94840588D01*
X156740304Y-94819588D01*
X156749133Y-94801921D01*
X156759133Y-94780921D01*
X156770896Y-94754321D01*
X156779896Y-94732321D01*
X156787283Y-94713194D01*
X156795283Y-94691194D01*
X156804035Y-94664967D01*
X156811035Y-94641967D01*
X156820606Y-94605911D01*
X156825606Y-94583911D01*
X156831445Y-94554241D01*
X156835086Y-94532397D01*
X156835231Y-94531543D01*
X156838832Y-94510840D01*
X156846011Y-94444522D01*
X156847011Y-94421522D01*
X156847050Y-94420585D01*
X156848050Y-94396585D01*
X158131950Y-94396585D01*
X158132512Y-94410068D01*
X158132950Y-94420587D01*
X158132949Y-94420587D01*
X158132984Y-94421405D01*
X158133989Y-94444529D01*
X158141168Y-94510841D01*
X158141168Y-94510843D01*
X158144768Y-94531543D01*
X158144913Y-94532397D01*
X158148550Y-94554220D01*
X158154392Y-94583904D01*
X158159398Y-94605928D01*
X158168961Y-94641955D01*
X158175960Y-94664953D01*
X158184723Y-94691213D01*
X158192718Y-94713196D01*
X158200107Y-94732332D01*
X158209100Y-94754313D01*
X158220866Y-94780920D01*
X158230869Y-94801927D01*
X158239701Y-94819600D01*
X158250675Y-94840549D01*
X158250685Y-94840567D01*
X158250696Y-94840588D01*
X158250705Y-94840603D01*
X158275269Y-94882580D01*
X158280818Y-94891116D01*
X158301267Y-94922576D01*
X158326721Y-94958328D01*
X158340721Y-94976328D01*
X158342832Y-94978866D01*
X158362470Y-95002476D01*
X158367825Y-95008500D01*
X158378468Y-95020473D01*
X158385903Y-95028602D01*
X158388456Y-95031393D01*
X158404431Y-95048365D01*
X158426634Y-95070568D01*
X158443606Y-95086543D01*
X158443638Y-95086572D01*
X158454527Y-95096532D01*
X158463536Y-95104540D01*
X158472523Y-95112529D01*
X158472527Y-95112532D01*
X158498672Y-95134279D01*
X158516672Y-95148279D01*
X158552424Y-95173733D01*
X158592424Y-95199733D01*
X158634412Y-95224304D01*
X158634447Y-95224322D01*
X158634450Y-95224324D01*
X158655399Y-95235298D01*
X158673072Y-95244130D01*
X158694079Y-95254133D01*
X158712782Y-95262404D01*
X158720686Y-95265899D01*
X158742667Y-95274892D01*
X158750893Y-95278068D01*
X158761806Y-95282283D01*
X158778713Y-95288431D01*
X158783786Y-95290276D01*
X158783795Y-95290279D01*
X158783806Y-95290283D01*
X158810033Y-95299035D01*
X158833033Y-95306035D01*
X158869089Y-95315606D01*
X158891089Y-95320606D01*
X158920759Y-95326445D01*
X158931682Y-95328265D01*
X158942598Y-95330085D01*
X158943412Y-95330223D01*
X158964160Y-95333832D01*
X159030478Y-95341011D01*
X159053478Y-95342011D01*
X159053525Y-95342012D01*
X159053595Y-95342016D01*
X159053594Y-95342016D01*
X159054024Y-95342033D01*
X159054346Y-95342047D01*
X159054411Y-95342069D01*
X159054412Y-95342050D01*
X159057843Y-95342192D01*
X159078415Y-95343050D01*
X159097841Y-95343455D01*
X159099998Y-95343500D01*
X159100000Y-95343500D01*
X159900002Y-95343500D01*
X159902055Y-95343457D01*
X159921585Y-95343050D01*
X159945585Y-95342050D01*
X159946522Y-95342011D01*
X159969522Y-95341011D01*
X160035840Y-95333832D01*
X160056668Y-95330209D01*
X160057402Y-95330085D01*
X160068315Y-95328266D01*
X160079241Y-95326445D01*
X160108911Y-95320606D01*
X160130911Y-95315606D01*
X160166967Y-95306035D01*
X160189967Y-95299035D01*
X160216194Y-95290283D01*
X160238194Y-95282283D01*
X160254112Y-95276135D01*
X160257332Y-95274892D01*
X160271555Y-95269073D01*
X160279321Y-95265896D01*
X160305921Y-95254133D01*
X160326921Y-95244133D01*
X160344588Y-95235304D01*
X160344588Y-95235303D01*
X160344600Y-95235298D01*
X160356352Y-95229142D01*
X160365588Y-95224304D01*
X160407576Y-95199733D01*
X160447576Y-95173733D01*
X160483328Y-95148279D01*
X160501328Y-95134279D01*
X160527473Y-95112532D01*
X160545473Y-95096532D01*
X160556362Y-95086572D01*
X160573362Y-95070572D01*
X160595572Y-95048362D01*
X160611572Y-95031362D01*
X160621532Y-95020473D01*
X160637532Y-95002473D01*
X160659279Y-94976328D01*
X160673279Y-94958328D01*
X160698733Y-94922576D01*
X160724733Y-94882576D01*
X160749304Y-94840588D01*
X160760304Y-94819588D01*
X160769133Y-94801921D01*
X160779133Y-94780921D01*
X160790896Y-94754321D01*
X160799896Y-94732321D01*
X160807283Y-94713194D01*
X160815283Y-94691194D01*
X160824035Y-94664967D01*
X160831035Y-94641967D01*
X160840606Y-94605911D01*
X160845606Y-94583911D01*
X160851445Y-94554241D01*
X160855086Y-94532397D01*
X160855231Y-94531543D01*
X160858832Y-94510840D01*
X160866011Y-94444522D01*
X160867011Y-94421522D01*
X160867050Y-94420585D01*
X160868050Y-94396585D01*
X160868050Y-94353415D01*
X160867050Y-94329415D01*
X160867011Y-94328478D01*
X160866011Y-94305478D01*
X160858832Y-94239160D01*
X160855223Y-94218412D01*
X160855085Y-94217598D01*
X160853265Y-94206682D01*
X160851445Y-94195759D01*
X160845606Y-94166089D01*
X160840606Y-94144089D01*
X160831035Y-94108033D01*
X160824035Y-94085033D01*
X160815283Y-94058806D01*
X160807283Y-94036806D01*
X160803068Y-94025893D01*
X160799892Y-94017667D01*
X160790899Y-93995686D01*
X160779133Y-93969079D01*
X160769130Y-93948072D01*
X160760298Y-93930399D01*
X160749324Y-93909450D01*
X160749322Y-93909447D01*
X160749304Y-93909412D01*
X160724733Y-93867424D01*
X160698733Y-93827424D01*
X160673279Y-93791672D01*
X160659279Y-93773672D01*
X160637532Y-93747527D01*
X160637529Y-93747523D01*
X160629540Y-93738536D01*
X160621532Y-93729527D01*
X160611572Y-93718638D01*
X160611543Y-93718606D01*
X160595568Y-93701634D01*
X160573365Y-93679431D01*
X160556393Y-93663456D01*
X160553602Y-93660903D01*
X160545473Y-93653468D01*
X160538260Y-93647056D01*
X160527476Y-93637470D01*
X160501329Y-93615722D01*
X160501328Y-93615721D01*
X160483328Y-93601721D01*
X160447576Y-93576267D01*
X160427253Y-93563057D01*
X160407580Y-93550269D01*
X160365603Y-93525705D01*
X160365588Y-93525696D01*
X160365567Y-93525685D01*
X160365549Y-93525675D01*
X160344600Y-93514701D01*
X160326927Y-93505869D01*
X160305920Y-93495866D01*
X160279313Y-93484100D01*
X160257332Y-93475107D01*
X160241146Y-93468857D01*
X160238194Y-93467717D01*
X160233123Y-93465873D01*
X160216213Y-93459723D01*
X160189953Y-93450960D01*
X160166955Y-93443961D01*
X160130928Y-93434398D01*
X160130914Y-93434394D01*
X160130911Y-93434394D01*
X160125422Y-93433146D01*
X160108904Y-93429392D01*
X160079220Y-93423550D01*
X160057397Y-93419913D01*
X160056543Y-93419768D01*
X160035842Y-93416168D01*
X159969529Y-93408989D01*
X159946587Y-93407991D01*
X159946522Y-93407989D01*
X159945885Y-93407962D01*
X159945588Y-93407950D01*
X159921566Y-93406949D01*
X159900002Y-93406500D01*
X159900000Y-93406500D01*
X159100000Y-93406500D01*
X159099998Y-93406500D01*
X159078433Y-93406949D01*
X159054412Y-93407950D01*
X159054411Y-93407949D01*
X159053594Y-93407983D01*
X159053595Y-93407984D01*
X159053524Y-93407987D01*
X159053478Y-93407989D01*
X159048970Y-93408185D01*
X159030470Y-93408989D01*
X158964158Y-93416168D01*
X158964155Y-93416168D01*
X158943456Y-93419768D01*
X158942603Y-93419913D01*
X158920774Y-93423551D01*
X158891095Y-93429392D01*
X158869071Y-93434398D01*
X158833044Y-93443961D01*
X158810046Y-93450960D01*
X158783786Y-93459723D01*
X158761803Y-93467718D01*
X158742667Y-93475107D01*
X158720686Y-93484100D01*
X158694079Y-93495866D01*
X158673072Y-93505869D01*
X158655399Y-93514701D01*
X158634450Y-93525675D01*
X158634396Y-93525705D01*
X158592419Y-93550269D01*
X158552428Y-93576264D01*
X158516673Y-93601720D01*
X158498670Y-93615722D01*
X158472523Y-93637470D01*
X158454549Y-93653448D01*
X158443606Y-93663456D01*
X158426634Y-93679431D01*
X158404431Y-93701634D01*
X158388456Y-93718606D01*
X158378448Y-93729549D01*
X158362470Y-93747523D01*
X158340722Y-93773670D01*
X158326720Y-93791673D01*
X158301264Y-93827428D01*
X158275269Y-93867419D01*
X158250705Y-93909396D01*
X158250675Y-93909450D01*
X158239701Y-93930399D01*
X158230869Y-93948072D01*
X158220866Y-93969079D01*
X158209100Y-93995686D01*
X158200107Y-94017667D01*
X158192718Y-94036803D01*
X158184723Y-94058786D01*
X158175960Y-94085046D01*
X158168961Y-94108044D01*
X158159398Y-94144071D01*
X158154392Y-94166095D01*
X158148551Y-94195774D01*
X158144913Y-94217603D01*
X158144768Y-94218456D01*
X158141168Y-94239155D01*
X158141168Y-94239158D01*
X158133989Y-94305470D01*
X158132984Y-94328595D01*
X158132949Y-94329412D01*
X158132950Y-94329413D01*
X158132950Y-94329415D01*
X158131950Y-94353415D01*
X158131950Y-94396585D01*
X156848050Y-94396585D01*
X156848050Y-94353415D01*
X156847050Y-94329415D01*
X156847011Y-94328478D01*
X156846011Y-94305478D01*
X156838832Y-94239160D01*
X156835223Y-94218412D01*
X156835085Y-94217598D01*
X156833265Y-94206682D01*
X156831445Y-94195759D01*
X156825606Y-94166089D01*
X156820606Y-94144089D01*
X156811035Y-94108033D01*
X156804035Y-94085033D01*
X156795283Y-94058806D01*
X156787283Y-94036806D01*
X156783068Y-94025893D01*
X156779892Y-94017667D01*
X156770899Y-93995686D01*
X156759133Y-93969079D01*
X156749130Y-93948072D01*
X156740298Y-93930399D01*
X156729324Y-93909450D01*
X156729322Y-93909447D01*
X156729304Y-93909412D01*
X156704733Y-93867424D01*
X156678733Y-93827424D01*
X156653279Y-93791672D01*
X156639279Y-93773672D01*
X156617532Y-93747527D01*
X156617529Y-93747523D01*
X156609540Y-93738536D01*
X156601532Y-93729527D01*
X156591572Y-93718638D01*
X156591543Y-93718606D01*
X156575568Y-93701634D01*
X156553365Y-93679431D01*
X156536393Y-93663456D01*
X156533602Y-93660903D01*
X156525473Y-93653468D01*
X156518260Y-93647056D01*
X156507476Y-93637470D01*
X156481329Y-93615722D01*
X156481328Y-93615721D01*
X156463328Y-93601721D01*
X156427576Y-93576267D01*
X156407253Y-93563057D01*
X156387580Y-93550269D01*
X156345603Y-93525705D01*
X156345588Y-93525696D01*
X156345567Y-93525685D01*
X156345549Y-93525675D01*
X156324600Y-93514701D01*
X156306927Y-93505869D01*
X156285920Y-93495866D01*
X156259313Y-93484100D01*
X156237332Y-93475107D01*
X156221146Y-93468857D01*
X156218194Y-93467717D01*
X156213123Y-93465873D01*
X156196213Y-93459723D01*
X156169953Y-93450960D01*
X156146955Y-93443961D01*
X156110928Y-93434398D01*
X156110914Y-93434394D01*
X156110911Y-93434394D01*
X156105422Y-93433146D01*
X156088904Y-93429392D01*
X156059220Y-93423550D01*
X156037397Y-93419913D01*
X156036543Y-93419768D01*
X156015842Y-93416168D01*
X155949529Y-93408989D01*
X155926587Y-93407991D01*
X155926522Y-93407989D01*
X155925885Y-93407962D01*
X155925588Y-93407950D01*
X155901566Y-93406949D01*
X155880002Y-93406500D01*
X155880000Y-93406500D01*
X154780000Y-93406500D01*
X154779998Y-93406500D01*
X154758433Y-93406949D01*
X154734412Y-93407950D01*
X154734411Y-93407949D01*
X154733594Y-93407983D01*
X154733595Y-93407984D01*
X154733524Y-93407987D01*
X154733478Y-93407989D01*
X154728970Y-93408185D01*
X154710470Y-93408989D01*
X154644158Y-93416168D01*
X154644155Y-93416168D01*
X154623456Y-93419768D01*
X154622603Y-93419913D01*
X154600774Y-93423551D01*
X154571095Y-93429392D01*
X154549071Y-93434398D01*
X154513044Y-93443961D01*
X154490046Y-93450960D01*
X154463786Y-93459723D01*
X154441803Y-93467718D01*
X154422667Y-93475107D01*
X154400686Y-93484100D01*
X154374079Y-93495866D01*
X154353072Y-93505869D01*
X154335399Y-93514701D01*
X154314450Y-93525675D01*
X154314396Y-93525705D01*
X154272419Y-93550269D01*
X154232428Y-93576264D01*
X154196673Y-93601720D01*
X154178670Y-93615722D01*
X154152523Y-93637470D01*
X154134549Y-93653448D01*
X154123606Y-93663456D01*
X154106634Y-93679431D01*
X154084431Y-93701634D01*
X154068456Y-93718606D01*
X154058448Y-93729549D01*
X154042470Y-93747523D01*
X154020722Y-93773670D01*
X154006720Y-93791673D01*
X153981264Y-93827428D01*
X153955269Y-93867419D01*
X153930705Y-93909396D01*
X153930675Y-93909450D01*
X153919701Y-93930399D01*
X153910869Y-93948072D01*
X153900866Y-93969079D01*
X153889100Y-93995686D01*
X153880107Y-94017667D01*
X153872718Y-94036803D01*
X153864723Y-94058786D01*
X153855960Y-94085046D01*
X153848961Y-94108044D01*
X153839398Y-94144071D01*
X153834392Y-94166095D01*
X153828551Y-94195774D01*
X153824913Y-94217603D01*
X153824768Y-94218456D01*
X153821168Y-94239155D01*
X153821168Y-94239158D01*
X153813989Y-94305470D01*
X153812984Y-94328595D01*
X153812949Y-94329412D01*
X153812950Y-94329413D01*
X153812950Y-94329415D01*
X153811950Y-94353415D01*
X153811950Y-94396585D01*
X147458887Y-94396585D01*
X147493542Y-94289928D01*
X147513504Y-94100000D01*
X147493542Y-93910072D01*
X147434527Y-93728444D01*
X147339040Y-93563056D01*
X147211253Y-93421134D01*
X147056752Y-93308882D01*
X146882288Y-93231206D01*
X146882286Y-93231205D01*
X146695487Y-93191500D01*
X146638766Y-93191500D01*
X146571727Y-93171815D01*
X146551085Y-93155181D01*
X146203836Y-92807931D01*
X146203832Y-92807928D01*
X146100081Y-92738603D01*
X146100072Y-92738598D01*
X145984785Y-92690845D01*
X145984777Y-92690843D01*
X145862398Y-92666500D01*
X145862394Y-92666500D01*
X140906842Y-92666500D01*
X140839803Y-92646815D01*
X140794048Y-92594011D01*
X140784104Y-92524853D01*
X140788910Y-92504184D01*
X140789162Y-92503407D01*
X140793542Y-92489928D01*
X140812050Y-92313828D01*
X140838635Y-92249216D01*
X140895932Y-92209231D01*
X140909585Y-92205503D01*
X141082288Y-92168794D01*
X141256752Y-92091118D01*
X141411253Y-91978866D01*
X141539040Y-91836944D01*
X141634527Y-91671556D01*
X141693542Y-91489928D01*
X141713504Y-91300000D01*
X141693542Y-91110072D01*
X141634527Y-90928444D01*
X141539040Y-90763056D01*
X141411253Y-90621134D01*
X141256752Y-90508882D01*
X141082288Y-90431206D01*
X141082286Y-90431205D01*
X140895487Y-90391500D01*
X140704513Y-90391500D01*
X140517714Y-90431205D01*
X140343246Y-90508883D01*
X140188745Y-90621135D01*
X140184840Y-90625473D01*
X140125354Y-90662121D01*
X140092691Y-90666500D01*
X135907309Y-90666500D01*
X135840270Y-90646815D01*
X135815160Y-90625473D01*
X135811254Y-90621135D01*
X135656753Y-90508883D01*
X135656752Y-90508882D01*
X135482288Y-90431206D01*
X135482286Y-90431205D01*
X135295487Y-90391500D01*
X135104513Y-90391500D01*
X134917714Y-90431205D01*
X134743246Y-90508883D01*
X134588745Y-90621135D01*
X134460959Y-90763057D01*
X134365473Y-90928443D01*
X134365470Y-90928450D01*
X134306459Y-91110068D01*
X134306458Y-91110072D01*
X134286496Y-91300000D01*
X134289601Y-91329538D01*
X134277032Y-91398268D01*
X134229300Y-91449292D01*
X134166280Y-91466500D01*
X127837601Y-91466500D01*
X127715222Y-91490843D01*
X127715214Y-91490845D01*
X127599927Y-91538598D01*
X127599918Y-91538603D01*
X127496167Y-91607928D01*
X127496163Y-91607931D01*
X123903453Y-95200641D01*
X123842130Y-95234126D01*
X123772438Y-95229142D01*
X123723622Y-95195932D01*
X123611254Y-95071135D01*
X123556512Y-95031362D01*
X123456752Y-94958882D01*
X123282288Y-94881206D01*
X123282286Y-94881205D01*
X123095487Y-94841500D01*
X122904513Y-94841500D01*
X122717714Y-94881205D01*
X122695449Y-94891118D01*
X122544493Y-94958328D01*
X122543246Y-94958883D01*
X122388745Y-95071135D01*
X122384840Y-95075473D01*
X122325354Y-95112121D01*
X122292691Y-95116500D01*
X121707309Y-95116500D01*
X121640270Y-95096815D01*
X121615160Y-95075473D01*
X121611254Y-95071135D01*
X121556512Y-95031362D01*
X121456752Y-94958882D01*
X121282288Y-94881206D01*
X121282286Y-94881205D01*
X121095487Y-94841500D01*
X120904513Y-94841500D01*
X120717714Y-94881205D01*
X120695449Y-94891118D01*
X120544493Y-94958328D01*
X120543246Y-94958883D01*
X120388745Y-95071135D01*
X120260959Y-95213057D01*
X120165473Y-95378443D01*
X120165470Y-95378450D01*
X120106459Y-95560068D01*
X120106458Y-95560072D01*
X120086496Y-95750000D01*
X120106458Y-95939928D01*
X120106459Y-95939931D01*
X120165470Y-96121549D01*
X120165473Y-96121556D01*
X120260960Y-96286944D01*
X120388747Y-96428866D01*
X120543248Y-96541118D01*
X120717712Y-96618794D01*
X120904513Y-96658500D01*
X121095487Y-96658500D01*
X121282288Y-96618794D01*
X121456752Y-96541118D01*
X121611253Y-96428866D01*
X121615160Y-96424527D01*
X121674646Y-96387879D01*
X121707309Y-96383500D01*
X122292691Y-96383500D01*
X122359730Y-96403185D01*
X122384840Y-96424527D01*
X122388747Y-96428866D01*
X122437218Y-96464082D01*
X122479883Y-96519412D01*
X122485862Y-96589026D01*
X122453256Y-96650821D01*
X122452013Y-96652081D01*
X121023915Y-98080181D01*
X120962592Y-98113666D01*
X120936234Y-98116500D01*
X117041051Y-98116500D01*
X116974012Y-98096815D01*
X116940737Y-98065392D01*
X116939043Y-98063061D01*
X116939040Y-98063056D01*
X116811253Y-97921134D01*
X116656752Y-97808882D01*
X116482288Y-97731206D01*
X116482286Y-97731205D01*
X116295487Y-97691500D01*
X116104513Y-97691500D01*
X115917714Y-97731205D01*
X115743246Y-97808883D01*
X115588745Y-97921135D01*
X115460959Y-98063057D01*
X115365473Y-98228443D01*
X115365470Y-98228450D01*
X115306459Y-98410068D01*
X115306458Y-98410072D01*
X115286496Y-98600000D01*
X105828427Y-98600000D01*
X105773600Y-98482422D01*
X105773599Y-98482420D01*
X105638113Y-98288926D01*
X105638108Y-98288920D01*
X105471082Y-98121894D01*
X105290197Y-97995236D01*
X105246572Y-97940659D01*
X105239380Y-97871160D01*
X105270902Y-97808806D01*
X105302300Y-97784608D01*
X105345576Y-97761189D01*
X105523240Y-97622906D01*
X105644561Y-97491118D01*
X105675715Y-97457276D01*
X105675716Y-97457274D01*
X105675722Y-97457268D01*
X105798860Y-97268791D01*
X105889296Y-97062616D01*
X105944564Y-96844368D01*
X105947406Y-96810072D01*
X105963156Y-96620005D01*
X105963156Y-96619994D01*
X105944565Y-96395640D01*
X105944563Y-96395628D01*
X105925699Y-96321135D01*
X105889296Y-96177384D01*
X105798860Y-95971209D01*
X105758140Y-95908883D01*
X105737291Y-95876970D01*
X105675722Y-95782732D01*
X105675719Y-95782729D01*
X105675715Y-95782723D01*
X105523243Y-95617097D01*
X105523238Y-95617092D01*
X105345577Y-95478812D01*
X105345572Y-95478808D01*
X105147580Y-95371661D01*
X105147577Y-95371659D01*
X105147574Y-95371658D01*
X105147571Y-95371657D01*
X105147569Y-95371656D01*
X104934637Y-95298556D01*
X104712569Y-95261500D01*
X104487431Y-95261500D01*
X104265362Y-95298556D01*
X104052430Y-95371656D01*
X104052419Y-95371661D01*
X103854427Y-95478808D01*
X103854422Y-95478812D01*
X103676761Y-95617092D01*
X103676756Y-95617097D01*
X103524284Y-95782723D01*
X103524276Y-95782734D01*
X103401140Y-95971207D01*
X103310703Y-96177385D01*
X103255436Y-96395628D01*
X103255434Y-96395640D01*
X103236844Y-96619994D01*
X103236844Y-96620005D01*
X103255434Y-96844359D01*
X103255436Y-96844371D01*
X103310703Y-97062614D01*
X103401140Y-97268792D01*
X103524276Y-97457265D01*
X103524284Y-97457276D01*
X103676756Y-97622902D01*
X103676761Y-97622907D01*
X103716912Y-97654158D01*
X103854424Y-97761189D01*
X103897693Y-97784605D01*
X103897695Y-97784606D01*
X103947286Y-97833825D01*
X103962394Y-97902042D01*
X103938224Y-97967597D01*
X103909802Y-97995236D01*
X103728922Y-98121890D01*
X103728920Y-98121891D01*
X103561891Y-98288920D01*
X103561886Y-98288926D01*
X103426400Y-98482420D01*
X103426399Y-98482422D01*
X103326570Y-98696507D01*
X103326567Y-98696513D01*
X103269364Y-98909999D01*
X103269364Y-98910000D01*
X104166988Y-98910000D01*
X104134075Y-98967007D01*
X104100000Y-99094174D01*
X104100000Y-99225826D01*
X104134075Y-99352993D01*
X104166988Y-99410000D01*
X103269364Y-99410000D01*
X103326567Y-99623486D01*
X103326570Y-99623492D01*
X103426399Y-99837578D01*
X103561894Y-100031082D01*
X103728917Y-100198105D01*
X103909802Y-100324763D01*
X103953427Y-100379340D01*
X103960619Y-100448839D01*
X103929097Y-100511193D01*
X103897697Y-100535392D01*
X103854427Y-100558809D01*
X103854422Y-100558812D01*
X103676761Y-100697092D01*
X103676756Y-100697097D01*
X103524284Y-100862723D01*
X103524276Y-100862734D01*
X103401140Y-101051207D01*
X103310703Y-101257385D01*
X103255436Y-101475628D01*
X103255434Y-101475640D01*
X103236844Y-101699994D01*
X103236844Y-101700005D01*
X102054000Y-101700005D01*
X102054000Y-84600000D01*
X123686496Y-84600000D01*
X123706458Y-84789928D01*
X123706459Y-84789931D01*
X123765470Y-84971549D01*
X123765473Y-84971556D01*
X123860960Y-85136944D01*
X123988747Y-85278866D01*
X124143248Y-85391118D01*
X124317712Y-85468794D01*
X124504513Y-85508500D01*
X124695487Y-85508500D01*
X124882288Y-85468794D01*
X125056752Y-85391118D01*
X125211253Y-85278866D01*
X125215160Y-85274527D01*
X125274646Y-85237879D01*
X125307309Y-85233500D01*
X134986234Y-85233500D01*
X135053273Y-85253185D01*
X135073915Y-85269819D01*
X136753379Y-86949284D01*
X136786864Y-87010607D01*
X136789018Y-87023999D01*
X136806458Y-87189928D01*
X136806459Y-87189931D01*
X136865470Y-87371549D01*
X136865473Y-87371556D01*
X136960960Y-87536944D01*
X137088747Y-87678866D01*
X137243248Y-87791118D01*
X137417712Y-87868794D01*
X137604513Y-87908500D01*
X137795487Y-87908500D01*
X137982288Y-87868794D01*
X138156752Y-87791118D01*
X138311253Y-87678866D01*
X138439040Y-87536944D01*
X138534527Y-87371556D01*
X138593542Y-87189928D01*
X138613504Y-87000000D01*
X138593542Y-86810072D01*
X138534527Y-86628444D01*
X138439040Y-86463056D01*
X138311253Y-86321134D01*
X138156752Y-86208882D01*
X137982288Y-86131206D01*
X137982286Y-86131205D01*
X137795487Y-86091500D01*
X137738767Y-86091500D01*
X137671728Y-86071815D01*
X137651086Y-86055181D01*
X137326102Y-85730197D01*
X137292617Y-85668874D01*
X137297601Y-85599182D01*
X137339473Y-85543249D01*
X137363340Y-85529240D01*
X137428752Y-85500118D01*
X137583253Y-85387866D01*
X137711040Y-85245944D01*
X137806527Y-85080556D01*
X137865542Y-84898928D01*
X137882981Y-84732997D01*
X137909564Y-84668387D01*
X137918601Y-84658301D01*
X138107086Y-84469816D01*
X138168409Y-84436334D01*
X138194766Y-84433500D01*
X141392691Y-84433500D01*
X141459730Y-84453185D01*
X141484840Y-84474527D01*
X141488747Y-84478866D01*
X141643248Y-84591118D01*
X141817712Y-84668794D01*
X142004513Y-84708500D01*
X142195487Y-84708500D01*
X142382288Y-84668794D01*
X142556752Y-84591118D01*
X142711253Y-84478866D01*
X142839040Y-84336944D01*
X142934527Y-84171556D01*
X142993542Y-83989928D01*
X143013504Y-83800000D01*
X142993542Y-83610072D01*
X142954198Y-83488986D01*
X142934528Y-83428446D01*
X142934527Y-83428444D01*
X142896164Y-83361998D01*
X142879692Y-83294101D01*
X142896164Y-83238001D01*
X142934527Y-83171556D01*
X142993542Y-82989928D01*
X143013504Y-82800000D01*
X142993542Y-82610072D01*
X142934527Y-82428444D01*
X142839040Y-82263056D01*
X142711253Y-82121134D01*
X142556752Y-82008882D01*
X142382288Y-81931206D01*
X142382286Y-81931205D01*
X142195487Y-81891500D01*
X142004513Y-81891500D01*
X141817714Y-81931205D01*
X141643246Y-82008883D01*
X141488745Y-82121135D01*
X141484840Y-82125473D01*
X141425354Y-82162121D01*
X141392691Y-82166500D01*
X137101601Y-82166500D01*
X136979222Y-82190843D01*
X136979214Y-82190845D01*
X136863927Y-82238598D01*
X136863918Y-82238603D01*
X136760167Y-82307928D01*
X136760163Y-82307931D01*
X136192915Y-82875181D01*
X136131592Y-82908666D01*
X136105234Y-82911500D01*
X136048513Y-82911500D01*
X135861714Y-82951205D01*
X135687246Y-83028883D01*
X135532745Y-83141135D01*
X135404959Y-83283057D01*
X135309473Y-83448443D01*
X135309470Y-83448450D01*
X135256956Y-83610072D01*
X135250458Y-83630072D01*
X135244002Y-83691500D01*
X135231665Y-83808882D01*
X135230496Y-83820000D01*
X135231498Y-83829539D01*
X135218930Y-83898267D01*
X135171199Y-83949291D01*
X135108178Y-83966500D01*
X125307309Y-83966500D01*
X125240270Y-83946815D01*
X125215160Y-83925473D01*
X125211254Y-83921135D01*
X125072055Y-83820000D01*
X125056752Y-83808882D01*
X124882288Y-83731206D01*
X124882286Y-83731205D01*
X124695487Y-83691500D01*
X124504513Y-83691500D01*
X124317714Y-83731205D01*
X124317712Y-83731206D01*
X124163198Y-83800000D01*
X124143246Y-83808883D01*
X123988745Y-83921135D01*
X123860959Y-84063057D01*
X123765473Y-84228443D01*
X123765470Y-84228450D01*
X123706459Y-84410068D01*
X123706458Y-84410072D01*
X123686496Y-84600000D01*
X102054000Y-84600000D01*
X102054000Y-79871288D01*
X104119500Y-79871288D01*
X104151161Y-80111785D01*
X104213947Y-80346104D01*
X104286569Y-80521429D01*
X104306776Y-80570212D01*
X104428064Y-80780289D01*
X104428066Y-80780292D01*
X104428067Y-80780293D01*
X104575733Y-80972736D01*
X104575739Y-80972743D01*
X104747256Y-81144260D01*
X104747262Y-81144265D01*
X104939711Y-81291936D01*
X105149788Y-81413224D01*
X105373900Y-81506054D01*
X105608211Y-81568838D01*
X105788586Y-81592584D01*
X105848711Y-81600500D01*
X105848712Y-81600500D01*
X106091289Y-81600500D01*
X106139388Y-81594167D01*
X106331789Y-81568838D01*
X106566100Y-81506054D01*
X106790212Y-81413224D01*
X107000289Y-81291936D01*
X107192738Y-81144265D01*
X107364265Y-80972738D01*
X107511936Y-80780289D01*
X107633224Y-80570212D01*
X107726054Y-80346100D01*
X107779496Y-80146654D01*
X110528500Y-80146654D01*
X110535011Y-80207202D01*
X110535011Y-80207204D01*
X110586111Y-80344204D01*
X110673739Y-80461261D01*
X110790796Y-80548889D01*
X110927799Y-80599989D01*
X110955050Y-80602918D01*
X110988345Y-80606499D01*
X110988362Y-80606500D01*
X112785638Y-80606500D01*
X112785654Y-80606499D01*
X112812692Y-80603591D01*
X112846201Y-80599989D01*
X112983204Y-80548889D01*
X113100261Y-80461261D01*
X113187889Y-80344204D01*
X113233138Y-80222887D01*
X113275009Y-80166956D01*
X113340474Y-80142539D01*
X113408746Y-80157391D01*
X113440545Y-80182236D01*
X113503760Y-80250906D01*
X113681424Y-80389189D01*
X113681425Y-80389189D01*
X113681427Y-80389191D01*
X113741314Y-80421600D01*
X113879426Y-80496342D01*
X114092365Y-80569444D01*
X114314431Y-80606500D01*
X114539569Y-80606500D01*
X114761635Y-80569444D01*
X114974574Y-80496342D01*
X115172576Y-80389189D01*
X115350240Y-80250906D01*
X115471594Y-80119082D01*
X115502715Y-80085276D01*
X115502715Y-80085275D01*
X115502722Y-80085268D01*
X115593193Y-79946790D01*
X115646338Y-79901437D01*
X115715569Y-79892013D01*
X115778905Y-79921515D01*
X115800804Y-79946787D01*
X115891278Y-80085268D01*
X115891283Y-80085273D01*
X115891284Y-80085276D01*
X116017967Y-80222888D01*
X116043760Y-80250906D01*
X116221424Y-80389189D01*
X116221425Y-80389189D01*
X116221427Y-80389191D01*
X116281314Y-80421600D01*
X116419426Y-80496342D01*
X116632365Y-80569444D01*
X116854431Y-80606500D01*
X117079569Y-80606500D01*
X117301635Y-80569444D01*
X117514574Y-80496342D01*
X117712576Y-80389189D01*
X117890240Y-80250906D01*
X118011594Y-80119082D01*
X118042715Y-80085276D01*
X118042715Y-80085275D01*
X118042722Y-80085268D01*
X118133193Y-79946790D01*
X118186338Y-79901437D01*
X118255569Y-79892013D01*
X118318905Y-79921515D01*
X118340804Y-79946787D01*
X118431278Y-80085268D01*
X118431283Y-80085273D01*
X118431284Y-80085276D01*
X118557967Y-80222888D01*
X118583760Y-80250906D01*
X118761424Y-80389189D01*
X118761425Y-80389189D01*
X118761427Y-80389191D01*
X118821314Y-80421600D01*
X118959426Y-80496342D01*
X119172365Y-80569444D01*
X119394431Y-80606500D01*
X119619569Y-80606500D01*
X119841635Y-80569444D01*
X120054574Y-80496342D01*
X120252576Y-80389189D01*
X120430240Y-80250906D01*
X120551594Y-80119082D01*
X120582715Y-80085276D01*
X120582715Y-80085275D01*
X120582722Y-80085268D01*
X120676749Y-79941347D01*
X120729894Y-79895994D01*
X120799125Y-79886570D01*
X120862461Y-79916072D01*
X120882130Y-79938048D01*
X121008890Y-80119078D01*
X121175917Y-80286105D01*
X121369421Y-80421600D01*
X121583507Y-80521429D01*
X121583516Y-80521433D01*
X121797000Y-80578634D01*
X121797000Y-79681012D01*
X121854007Y-79713925D01*
X121981174Y-79748000D01*
X122112826Y-79748000D01*
X122239993Y-79713925D01*
X122297000Y-79681012D01*
X122297000Y-80578633D01*
X122510483Y-80521433D01*
X122510492Y-80521429D01*
X122724578Y-80421600D01*
X122918082Y-80286105D01*
X123085105Y-80119082D01*
X123211868Y-79938048D01*
X123266445Y-79894423D01*
X123335944Y-79887231D01*
X123398298Y-79918753D01*
X123417251Y-79941350D01*
X123511276Y-80085265D01*
X123511284Y-80085276D01*
X123637967Y-80222888D01*
X123663760Y-80250906D01*
X123841424Y-80389189D01*
X123841425Y-80389189D01*
X123841427Y-80389191D01*
X123901314Y-80421600D01*
X124039426Y-80496342D01*
X124252365Y-80569444D01*
X124474431Y-80606500D01*
X124699569Y-80606500D01*
X124921635Y-80569444D01*
X125134574Y-80496342D01*
X125332576Y-80389189D01*
X125510240Y-80250906D01*
X125631594Y-80119082D01*
X125662715Y-80085276D01*
X125662715Y-80085275D01*
X125662722Y-80085268D01*
X125753193Y-79946790D01*
X125806338Y-79901437D01*
X125875569Y-79892013D01*
X125938905Y-79921515D01*
X125960804Y-79946787D01*
X126051278Y-80085268D01*
X126051283Y-80085273D01*
X126051284Y-80085276D01*
X126177967Y-80222888D01*
X126203760Y-80250906D01*
X126381424Y-80389189D01*
X126381425Y-80389189D01*
X126381427Y-80389191D01*
X126441314Y-80421600D01*
X126579426Y-80496342D01*
X126792365Y-80569444D01*
X127014431Y-80606500D01*
X127239569Y-80606500D01*
X127461635Y-80569444D01*
X127674574Y-80496342D01*
X127872576Y-80389189D01*
X128050240Y-80250906D01*
X128171594Y-80119082D01*
X128202715Y-80085276D01*
X128202715Y-80085275D01*
X128202722Y-80085268D01*
X128293193Y-79946790D01*
X128346338Y-79901437D01*
X128415569Y-79892013D01*
X128478905Y-79921515D01*
X128500804Y-79946787D01*
X128591278Y-80085268D01*
X128591283Y-80085273D01*
X128591284Y-80085276D01*
X128717967Y-80222888D01*
X128743760Y-80250906D01*
X128921424Y-80389189D01*
X128921425Y-80389189D01*
X128921427Y-80389191D01*
X128981314Y-80421600D01*
X129119426Y-80496342D01*
X129332365Y-80569444D01*
X129554431Y-80606500D01*
X129779569Y-80606500D01*
X130001635Y-80569444D01*
X130214574Y-80496342D01*
X130412576Y-80389189D01*
X130590240Y-80250906D01*
X130711594Y-80119082D01*
X130742715Y-80085276D01*
X130742717Y-80085273D01*
X130742722Y-80085268D01*
X130865860Y-79896791D01*
X130956296Y-79690616D01*
X131011564Y-79472368D01*
X131014164Y-79440993D01*
X131030156Y-79248005D01*
X132182244Y-79248005D01*
X132200834Y-79472359D01*
X132200836Y-79472371D01*
X132256103Y-79690614D01*
X132346540Y-79896792D01*
X132469676Y-80085265D01*
X132469684Y-80085276D01*
X132596367Y-80222888D01*
X132622160Y-80250906D01*
X132799824Y-80389189D01*
X132799825Y-80389189D01*
X132799827Y-80389191D01*
X132859714Y-80421600D01*
X132997826Y-80496342D01*
X133210765Y-80569444D01*
X133432831Y-80606500D01*
X133657969Y-80606500D01*
X133880035Y-80569444D01*
X134092974Y-80496342D01*
X134290976Y-80389189D01*
X134468640Y-80250906D01*
X134589994Y-80119082D01*
X134621115Y-80085276D01*
X134621115Y-80085275D01*
X134621122Y-80085268D01*
X134711593Y-79946790D01*
X134764738Y-79901437D01*
X134833969Y-79892013D01*
X134897305Y-79921515D01*
X134919204Y-79946787D01*
X135009678Y-80085268D01*
X135009683Y-80085273D01*
X135009684Y-80085276D01*
X135136367Y-80222888D01*
X135162160Y-80250906D01*
X135339824Y-80389189D01*
X135339825Y-80389189D01*
X135339827Y-80389191D01*
X135399714Y-80421600D01*
X135537826Y-80496342D01*
X135750765Y-80569444D01*
X135972831Y-80606500D01*
X136197969Y-80606500D01*
X136420035Y-80569444D01*
X136632974Y-80496342D01*
X136830976Y-80389189D01*
X137008640Y-80250906D01*
X137129994Y-80119082D01*
X137161115Y-80085276D01*
X137161115Y-80085275D01*
X137161122Y-80085268D01*
X137251593Y-79946790D01*
X137304738Y-79901437D01*
X137373969Y-79892013D01*
X137437305Y-79921515D01*
X137459204Y-79946787D01*
X137549678Y-80085268D01*
X137549683Y-80085273D01*
X137549684Y-80085276D01*
X137676367Y-80222888D01*
X137702160Y-80250906D01*
X137879824Y-80389189D01*
X137879825Y-80389189D01*
X137879827Y-80389191D01*
X137939714Y-80421600D01*
X138077826Y-80496342D01*
X138290765Y-80569444D01*
X138512831Y-80606500D01*
X138737969Y-80606500D01*
X138960035Y-80569444D01*
X139172974Y-80496342D01*
X139370976Y-80389189D01*
X139548640Y-80250906D01*
X139669994Y-80119082D01*
X139701115Y-80085276D01*
X139701115Y-80085275D01*
X139701122Y-80085268D01*
X139795149Y-79941347D01*
X139848294Y-79895994D01*
X139917525Y-79886570D01*
X139980861Y-79916072D01*
X140000530Y-79938048D01*
X140127290Y-80119078D01*
X140294317Y-80286105D01*
X140487821Y-80421600D01*
X140701907Y-80521429D01*
X140701916Y-80521433D01*
X140915400Y-80578634D01*
X140915400Y-79681012D01*
X140972407Y-79713925D01*
X141099574Y-79748000D01*
X141231226Y-79748000D01*
X141358393Y-79713925D01*
X141415400Y-79681012D01*
X141415400Y-80578633D01*
X141628883Y-80521433D01*
X141628892Y-80521429D01*
X141842978Y-80421600D01*
X142036482Y-80286105D01*
X142203505Y-80119082D01*
X142330268Y-79938048D01*
X142384845Y-79894423D01*
X142454344Y-79887231D01*
X142516698Y-79918753D01*
X142535651Y-79941350D01*
X142629676Y-80085265D01*
X142629684Y-80085276D01*
X142756367Y-80222888D01*
X142782160Y-80250906D01*
X142959824Y-80389189D01*
X142959825Y-80389189D01*
X142959827Y-80389191D01*
X143019714Y-80421600D01*
X143157826Y-80496342D01*
X143370765Y-80569444D01*
X143592831Y-80606500D01*
X143817969Y-80606500D01*
X144040035Y-80569444D01*
X144252974Y-80496342D01*
X144450976Y-80389189D01*
X144628640Y-80250906D01*
X144749994Y-80119082D01*
X144781115Y-80085276D01*
X144781115Y-80085275D01*
X144781122Y-80085268D01*
X144871593Y-79946790D01*
X144924738Y-79901437D01*
X144993969Y-79892013D01*
X145057305Y-79921515D01*
X145079204Y-79946787D01*
X145169678Y-80085268D01*
X145169683Y-80085273D01*
X145169684Y-80085276D01*
X145296367Y-80222888D01*
X145322160Y-80250906D01*
X145499824Y-80389189D01*
X145499825Y-80389189D01*
X145499827Y-80389191D01*
X145559714Y-80421600D01*
X145697826Y-80496342D01*
X145910765Y-80569444D01*
X146132831Y-80606500D01*
X146357969Y-80606500D01*
X146580035Y-80569444D01*
X146792974Y-80496342D01*
X146990976Y-80389189D01*
X147168640Y-80250906D01*
X147289994Y-80119082D01*
X147321115Y-80085276D01*
X147321115Y-80085275D01*
X147321122Y-80085268D01*
X147411593Y-79946790D01*
X147464738Y-79901437D01*
X147533969Y-79892013D01*
X147597305Y-79921515D01*
X147619204Y-79946787D01*
X147709678Y-80085268D01*
X147709683Y-80085273D01*
X147709684Y-80085276D01*
X147836367Y-80222888D01*
X147862160Y-80250906D01*
X148039824Y-80389189D01*
X148039825Y-80389189D01*
X148039827Y-80389191D01*
X148099714Y-80421600D01*
X148237826Y-80496342D01*
X148450765Y-80569444D01*
X148672831Y-80606500D01*
X148897969Y-80606500D01*
X149120035Y-80569444D01*
X149332974Y-80496342D01*
X149530976Y-80389189D01*
X149708640Y-80250906D01*
X149771852Y-80182239D01*
X149831737Y-80146250D01*
X149901575Y-80148349D01*
X149959191Y-80187873D01*
X149979261Y-80222888D01*
X150024511Y-80344204D01*
X150112139Y-80461261D01*
X150229196Y-80548889D01*
X150366199Y-80599989D01*
X150393450Y-80602918D01*
X150426745Y-80606499D01*
X150426762Y-80606500D01*
X152224038Y-80606500D01*
X152224054Y-80606499D01*
X152251092Y-80603591D01*
X152284601Y-80599989D01*
X152421604Y-80548889D01*
X152538661Y-80461261D01*
X152626289Y-80344204D01*
X152677389Y-80207201D01*
X152682744Y-80157391D01*
X152683899Y-80146654D01*
X152683900Y-80146637D01*
X152683900Y-79871288D01*
X155299500Y-79871288D01*
X155331161Y-80111785D01*
X155393947Y-80346104D01*
X155466569Y-80521429D01*
X155486776Y-80570212D01*
X155608064Y-80780289D01*
X155608066Y-80780292D01*
X155608067Y-80780293D01*
X155755733Y-80972736D01*
X155755739Y-80972743D01*
X155927256Y-81144260D01*
X155927262Y-81144265D01*
X156119711Y-81291936D01*
X156329788Y-81413224D01*
X156553900Y-81506054D01*
X156788211Y-81568838D01*
X156968586Y-81592584D01*
X157028711Y-81600500D01*
X157028712Y-81600500D01*
X157271289Y-81600500D01*
X157319388Y-81594167D01*
X157511789Y-81568838D01*
X157746100Y-81506054D01*
X157970212Y-81413224D01*
X158180289Y-81291936D01*
X158372738Y-81144265D01*
X158544265Y-80972738D01*
X158691936Y-80780289D01*
X158813224Y-80570212D01*
X158906054Y-80346100D01*
X158968838Y-80111789D01*
X159000500Y-79871288D01*
X159000500Y-79628712D01*
X158968838Y-79388211D01*
X158906054Y-79153900D01*
X158813224Y-78929788D01*
X158691936Y-78719711D01*
X158580500Y-78574484D01*
X158544266Y-78527263D01*
X158544260Y-78527256D01*
X158372743Y-78355739D01*
X158372736Y-78355733D01*
X158180293Y-78208067D01*
X158180292Y-78208066D01*
X158180289Y-78208064D01*
X157970212Y-78086776D01*
X157940334Y-78074400D01*
X157746104Y-77993947D01*
X157511785Y-77931161D01*
X157271289Y-77899500D01*
X157271288Y-77899500D01*
X157028712Y-77899500D01*
X157028711Y-77899500D01*
X156788214Y-77931161D01*
X156553895Y-77993947D01*
X156329794Y-78086773D01*
X156329785Y-78086777D01*
X156119706Y-78208067D01*
X155927263Y-78355733D01*
X155927256Y-78355739D01*
X155755739Y-78527256D01*
X155755733Y-78527263D01*
X155608067Y-78719706D01*
X155486777Y-78929785D01*
X155486773Y-78929794D01*
X155393947Y-79153895D01*
X155331161Y-79388214D01*
X155299500Y-79628711D01*
X155299500Y-79871288D01*
X152683900Y-79871288D01*
X152683900Y-78349362D01*
X152683899Y-78349345D01*
X152680557Y-78318270D01*
X152677389Y-78288799D01*
X152671537Y-78273110D01*
X152647959Y-78209894D01*
X152626289Y-78151796D01*
X152538661Y-78034739D01*
X152421604Y-77947111D01*
X152378841Y-77931161D01*
X152284603Y-77896011D01*
X152224054Y-77889500D01*
X152224038Y-77889500D01*
X150426762Y-77889500D01*
X150426745Y-77889500D01*
X150366197Y-77896011D01*
X150366195Y-77896011D01*
X150229195Y-77947111D01*
X150112139Y-78034739D01*
X150024511Y-78151795D01*
X149979261Y-78273111D01*
X149937389Y-78329044D01*
X149871924Y-78353460D01*
X149803652Y-78338607D01*
X149771854Y-78313762D01*
X149708640Y-78245094D01*
X149530976Y-78106811D01*
X149530975Y-78106810D01*
X149530972Y-78106808D01*
X149332980Y-77999661D01*
X149332977Y-77999659D01*
X149332974Y-77999658D01*
X149332971Y-77999657D01*
X149332969Y-77999656D01*
X149120037Y-77926556D01*
X148897969Y-77889500D01*
X148672831Y-77889500D01*
X148450762Y-77926556D01*
X148237830Y-77999656D01*
X148237819Y-77999661D01*
X148039827Y-78106808D01*
X148039822Y-78106812D01*
X147862161Y-78245092D01*
X147862156Y-78245097D01*
X147709684Y-78410723D01*
X147709676Y-78410734D01*
X147619208Y-78549206D01*
X147566062Y-78594562D01*
X147496831Y-78603986D01*
X147433495Y-78574484D01*
X147411592Y-78549206D01*
X147321123Y-78410734D01*
X147321115Y-78410723D01*
X147168643Y-78245097D01*
X147168638Y-78245092D01*
X146990977Y-78106812D01*
X146990972Y-78106808D01*
X146792980Y-77999661D01*
X146792977Y-77999659D01*
X146792974Y-77999658D01*
X146792971Y-77999657D01*
X146792969Y-77999656D01*
X146580037Y-77926556D01*
X146357969Y-77889500D01*
X146132831Y-77889500D01*
X145910762Y-77926556D01*
X145697830Y-77999656D01*
X145697819Y-77999661D01*
X145499827Y-78106808D01*
X145499822Y-78106812D01*
X145322161Y-78245092D01*
X145322156Y-78245097D01*
X145169684Y-78410723D01*
X145169676Y-78410734D01*
X145079208Y-78549206D01*
X145026062Y-78594562D01*
X144956831Y-78603986D01*
X144893495Y-78574484D01*
X144871592Y-78549206D01*
X144781123Y-78410734D01*
X144781115Y-78410723D01*
X144628643Y-78245097D01*
X144628638Y-78245092D01*
X144450977Y-78106812D01*
X144450972Y-78106808D01*
X144252980Y-77999661D01*
X144252977Y-77999659D01*
X144252974Y-77999658D01*
X144252971Y-77999657D01*
X144252969Y-77999656D01*
X144040037Y-77926556D01*
X143817969Y-77889500D01*
X143592831Y-77889500D01*
X143370762Y-77926556D01*
X143157830Y-77999656D01*
X143157819Y-77999661D01*
X142959827Y-78106808D01*
X142959822Y-78106812D01*
X142782161Y-78245092D01*
X142782156Y-78245097D01*
X142629684Y-78410723D01*
X142629676Y-78410734D01*
X142535651Y-78554650D01*
X142482505Y-78600007D01*
X142413273Y-78609430D01*
X142349938Y-78579928D01*
X142330268Y-78557951D01*
X142203513Y-78376926D01*
X142203508Y-78376920D01*
X142036482Y-78209894D01*
X141842978Y-78074399D01*
X141628892Y-77974570D01*
X141628886Y-77974567D01*
X141415400Y-77917364D01*
X141415400Y-78814988D01*
X141358393Y-78782075D01*
X141231226Y-78748000D01*
X141099574Y-78748000D01*
X140972407Y-78782075D01*
X140915400Y-78814988D01*
X140915400Y-77917364D01*
X140915399Y-77917364D01*
X140701913Y-77974567D01*
X140701907Y-77974570D01*
X140487822Y-78074399D01*
X140487820Y-78074400D01*
X140294326Y-78209886D01*
X140294320Y-78209891D01*
X140127291Y-78376920D01*
X140127290Y-78376922D01*
X140000531Y-78557952D01*
X139945954Y-78601577D01*
X139876455Y-78608769D01*
X139814101Y-78577247D01*
X139795152Y-78554656D01*
X139701122Y-78410732D01*
X139701115Y-78410725D01*
X139701115Y-78410723D01*
X139548643Y-78245097D01*
X139548638Y-78245092D01*
X139370977Y-78106812D01*
X139370972Y-78106808D01*
X139172980Y-77999661D01*
X139172977Y-77999659D01*
X139172974Y-77999658D01*
X139172971Y-77999657D01*
X139172969Y-77999656D01*
X138960037Y-77926556D01*
X138737969Y-77889500D01*
X138512831Y-77889500D01*
X138290762Y-77926556D01*
X138077830Y-77999656D01*
X138077819Y-77999661D01*
X137879827Y-78106808D01*
X137879822Y-78106812D01*
X137702161Y-78245092D01*
X137702156Y-78245097D01*
X137549684Y-78410723D01*
X137549676Y-78410734D01*
X137459208Y-78549206D01*
X137406062Y-78594562D01*
X137336831Y-78603986D01*
X137273495Y-78574484D01*
X137251592Y-78549206D01*
X137161123Y-78410734D01*
X137161115Y-78410723D01*
X137008643Y-78245097D01*
X137008638Y-78245092D01*
X136830977Y-78106812D01*
X136830972Y-78106808D01*
X136632980Y-77999661D01*
X136632977Y-77999659D01*
X136632974Y-77999658D01*
X136632971Y-77999657D01*
X136632969Y-77999656D01*
X136420037Y-77926556D01*
X136197969Y-77889500D01*
X135972831Y-77889500D01*
X135750762Y-77926556D01*
X135537830Y-77999656D01*
X135537819Y-77999661D01*
X135339827Y-78106808D01*
X135339822Y-78106812D01*
X135162161Y-78245092D01*
X135162156Y-78245097D01*
X135009684Y-78410723D01*
X135009676Y-78410734D01*
X134919208Y-78549206D01*
X134866062Y-78594562D01*
X134796831Y-78603986D01*
X134733495Y-78574484D01*
X134711592Y-78549206D01*
X134621123Y-78410734D01*
X134621115Y-78410723D01*
X134468643Y-78245097D01*
X134468638Y-78245092D01*
X134290977Y-78106812D01*
X134290972Y-78106808D01*
X134092980Y-77999661D01*
X134092977Y-77999659D01*
X134092974Y-77999658D01*
X134092971Y-77999657D01*
X134092969Y-77999656D01*
X133880037Y-77926556D01*
X133657969Y-77889500D01*
X133432831Y-77889500D01*
X133210762Y-77926556D01*
X132997830Y-77999656D01*
X132997819Y-77999661D01*
X132799827Y-78106808D01*
X132799822Y-78106812D01*
X132622161Y-78245092D01*
X132622156Y-78245097D01*
X132469684Y-78410723D01*
X132469676Y-78410734D01*
X132346540Y-78599207D01*
X132256103Y-78805385D01*
X132200836Y-79023628D01*
X132200834Y-79023640D01*
X132182244Y-79247994D01*
X132182244Y-79248005D01*
X131030156Y-79248005D01*
X131030156Y-79247994D01*
X131011565Y-79023640D01*
X131011563Y-79023628D01*
X130956296Y-78805385D01*
X130946071Y-78782075D01*
X130865860Y-78599209D01*
X130849706Y-78574484D01*
X130742723Y-78410734D01*
X130742715Y-78410723D01*
X130590243Y-78245097D01*
X130590238Y-78245092D01*
X130412577Y-78106812D01*
X130412572Y-78106808D01*
X130214580Y-77999661D01*
X130214577Y-77999659D01*
X130214574Y-77999658D01*
X130214571Y-77999657D01*
X130214569Y-77999656D01*
X130001637Y-77926556D01*
X129779569Y-77889500D01*
X129554431Y-77889500D01*
X129332362Y-77926556D01*
X129119430Y-77999656D01*
X129119419Y-77999661D01*
X128921427Y-78106808D01*
X128921422Y-78106812D01*
X128743761Y-78245092D01*
X128743756Y-78245097D01*
X128591284Y-78410723D01*
X128591276Y-78410734D01*
X128500808Y-78549206D01*
X128447662Y-78594562D01*
X128378431Y-78603986D01*
X128315095Y-78574484D01*
X128293192Y-78549206D01*
X128202723Y-78410734D01*
X128202715Y-78410723D01*
X128050243Y-78245097D01*
X128050238Y-78245092D01*
X127872577Y-78106812D01*
X127872572Y-78106808D01*
X127674580Y-77999661D01*
X127674577Y-77999659D01*
X127674574Y-77999658D01*
X127674571Y-77999657D01*
X127674569Y-77999656D01*
X127461637Y-77926556D01*
X127239569Y-77889500D01*
X127014431Y-77889500D01*
X126792362Y-77926556D01*
X126579430Y-77999656D01*
X126579419Y-77999661D01*
X126381427Y-78106808D01*
X126381422Y-78106812D01*
X126203761Y-78245092D01*
X126203756Y-78245097D01*
X126051284Y-78410723D01*
X126051276Y-78410734D01*
X125960808Y-78549206D01*
X125907662Y-78594562D01*
X125838431Y-78603986D01*
X125775095Y-78574484D01*
X125753192Y-78549206D01*
X125662723Y-78410734D01*
X125662715Y-78410723D01*
X125510243Y-78245097D01*
X125510238Y-78245092D01*
X125332577Y-78106812D01*
X125332572Y-78106808D01*
X125134580Y-77999661D01*
X125134577Y-77999659D01*
X125134574Y-77999658D01*
X125134571Y-77999657D01*
X125134569Y-77999656D01*
X124921637Y-77926556D01*
X124699569Y-77889500D01*
X124474431Y-77889500D01*
X124252362Y-77926556D01*
X124039430Y-77999656D01*
X124039419Y-77999661D01*
X123841427Y-78106808D01*
X123841422Y-78106812D01*
X123663761Y-78245092D01*
X123663756Y-78245097D01*
X123511284Y-78410723D01*
X123511276Y-78410734D01*
X123417251Y-78554650D01*
X123364105Y-78600007D01*
X123294873Y-78609430D01*
X123231538Y-78579928D01*
X123211868Y-78557951D01*
X123085113Y-78376926D01*
X123085108Y-78376920D01*
X122918082Y-78209894D01*
X122724578Y-78074399D01*
X122510492Y-77974570D01*
X122510486Y-77974567D01*
X122297000Y-77917364D01*
X122297000Y-78814988D01*
X122239993Y-78782075D01*
X122112826Y-78748000D01*
X121981174Y-78748000D01*
X121854007Y-78782075D01*
X121797000Y-78814988D01*
X121797000Y-77917364D01*
X121796999Y-77917364D01*
X121583513Y-77974567D01*
X121583507Y-77974570D01*
X121369422Y-78074399D01*
X121369420Y-78074400D01*
X121175926Y-78209886D01*
X121175920Y-78209891D01*
X121008891Y-78376920D01*
X121008890Y-78376922D01*
X120882131Y-78557952D01*
X120827554Y-78601577D01*
X120758055Y-78608769D01*
X120695701Y-78577247D01*
X120676752Y-78554656D01*
X120582722Y-78410732D01*
X120582715Y-78410725D01*
X120582715Y-78410723D01*
X120430243Y-78245097D01*
X120430238Y-78245092D01*
X120252577Y-78106812D01*
X120252572Y-78106808D01*
X120054580Y-77999661D01*
X120054577Y-77999659D01*
X120054574Y-77999658D01*
X120054571Y-77999657D01*
X120054569Y-77999656D01*
X119841637Y-77926556D01*
X119619569Y-77889500D01*
X119394431Y-77889500D01*
X119172362Y-77926556D01*
X118959430Y-77999656D01*
X118959419Y-77999661D01*
X118761427Y-78106808D01*
X118761422Y-78106812D01*
X118583761Y-78245092D01*
X118583756Y-78245097D01*
X118431284Y-78410723D01*
X118431276Y-78410734D01*
X118340808Y-78549206D01*
X118287662Y-78594562D01*
X118218431Y-78603986D01*
X118155095Y-78574484D01*
X118133192Y-78549206D01*
X118042723Y-78410734D01*
X118042715Y-78410723D01*
X117890243Y-78245097D01*
X117890238Y-78245092D01*
X117712577Y-78106812D01*
X117712572Y-78106808D01*
X117514580Y-77999661D01*
X117514577Y-77999659D01*
X117514574Y-77999658D01*
X117514571Y-77999657D01*
X117514569Y-77999656D01*
X117301637Y-77926556D01*
X117079569Y-77889500D01*
X116854431Y-77889500D01*
X116632362Y-77926556D01*
X116419430Y-77999656D01*
X116419419Y-77999661D01*
X116221427Y-78106808D01*
X116221422Y-78106812D01*
X116043761Y-78245092D01*
X116043756Y-78245097D01*
X115891284Y-78410723D01*
X115891276Y-78410734D01*
X115800808Y-78549206D01*
X115747662Y-78594562D01*
X115678431Y-78603986D01*
X115615095Y-78574484D01*
X115593192Y-78549206D01*
X115502723Y-78410734D01*
X115502715Y-78410723D01*
X115350243Y-78245097D01*
X115350238Y-78245092D01*
X115172577Y-78106812D01*
X115172572Y-78106808D01*
X114974580Y-77999661D01*
X114974577Y-77999659D01*
X114974574Y-77999658D01*
X114974571Y-77999657D01*
X114974569Y-77999656D01*
X114761637Y-77926556D01*
X114539569Y-77889500D01*
X114314431Y-77889500D01*
X114092362Y-77926556D01*
X113879430Y-77999656D01*
X113879419Y-77999661D01*
X113681427Y-78106808D01*
X113681422Y-78106812D01*
X113503761Y-78245092D01*
X113440548Y-78313760D01*
X113380661Y-78349750D01*
X113310823Y-78347649D01*
X113253207Y-78308124D01*
X113233138Y-78273110D01*
X113187889Y-78151796D01*
X113154214Y-78106812D01*
X113100261Y-78034739D01*
X112983204Y-77947111D01*
X112940441Y-77931161D01*
X112846203Y-77896011D01*
X112785654Y-77889500D01*
X112785638Y-77889500D01*
X110988362Y-77889500D01*
X110988345Y-77889500D01*
X110927797Y-77896011D01*
X110927795Y-77896011D01*
X110790795Y-77947111D01*
X110673739Y-78034739D01*
X110586111Y-78151795D01*
X110535011Y-78288795D01*
X110535011Y-78288797D01*
X110528500Y-78349345D01*
X110528500Y-80146654D01*
X107779496Y-80146654D01*
X107788838Y-80111789D01*
X107820500Y-79871288D01*
X107820500Y-79628712D01*
X107788838Y-79388211D01*
X107726054Y-79153900D01*
X107633224Y-78929788D01*
X107511936Y-78719711D01*
X107400500Y-78574484D01*
X107364266Y-78527263D01*
X107364260Y-78527256D01*
X107192743Y-78355739D01*
X107192736Y-78355733D01*
X107000293Y-78208067D01*
X107000292Y-78208066D01*
X107000289Y-78208064D01*
X106790212Y-78086776D01*
X106760334Y-78074400D01*
X106566104Y-77993947D01*
X106331785Y-77931161D01*
X106091289Y-77899500D01*
X106091288Y-77899500D01*
X105848712Y-77899500D01*
X105848711Y-77899500D01*
X105608214Y-77931161D01*
X105373895Y-77993947D01*
X105149794Y-78086773D01*
X105149785Y-78086777D01*
X104939706Y-78208067D01*
X104747263Y-78355733D01*
X104747256Y-78355739D01*
X104575739Y-78527256D01*
X104575733Y-78527263D01*
X104428067Y-78719706D01*
X104306777Y-78929785D01*
X104306773Y-78929794D01*
X104213947Y-79153895D01*
X104151161Y-79388214D01*
X104119500Y-79628711D01*
X104119500Y-79871288D01*
X102054000Y-79871288D01*
X102054000Y-75866800D01*
X102073685Y-75799761D01*
X102126489Y-75754006D01*
X102178000Y-75742800D01*
X161149240Y-75742800D01*
X161216279Y-75762485D01*
G37*
%TD.AperFunction*%
%TD*%
M02*
