%TF.GenerationSoftware,KiCad,Pcbnew,8.0.1*%
%TF.CreationDate,2024-07-28T14:25:37-07:00*%
%TF.ProjectId,RCS_Hardware,5243535f-4861-4726-9477-6172652e6b69,rev?*%
%TF.SameCoordinates,Original*%
%TF.FileFunction,Drillmap*%
%TF.FilePolarity,Positive*%
%FSLAX45Y45*%
G04 Gerber Fmt 4.5, Leading zero omitted, Abs format (unit mm)*
G04 Created by KiCad (PCBNEW 8.0.1) date 2024-07-28 14:25:37*
%MOMM*%
%LPD*%
G01*
G04 APERTURE LIST*
%ADD10C,0.100000*%
%ADD11C,0.010000*%
%ADD12C,0.200000*%
%ADD13C,0.320000*%
G04 APERTURE END LIST*
D10*
X10160000Y-7540400D02*
X16160000Y-7540400D01*
X16160000Y-12740400D01*
X10160000Y-12740400D01*
X10160000Y-7540400D01*
D11*
X15990000Y-9407500D02*
G75*
G02*
X16020000Y-9437500I0J-30000D01*
G01*
X15588000Y-9407500D02*
G75*
G02*
X15618000Y-9437500I0J-30000D01*
G01*
X16020000Y-9437500D02*
G75*
G02*
X15990000Y-9467500I-30000J0D01*
G01*
X15880000Y-9437500D02*
G75*
G02*
X15910000Y-9407500I30000J0D01*
G01*
X15618000Y-9437500D02*
G75*
G02*
X15588000Y-9467500I-30000J0D01*
G01*
X15448000Y-9437500D02*
G75*
G02*
X15478000Y-9407500I30000J0D01*
G01*
X15910000Y-9467500D02*
G75*
G02*
X15880000Y-9437500I0J30000D01*
G01*
X15478000Y-9467500D02*
G75*
G02*
X15448000Y-9437500I0J30000D01*
G01*
X15990000Y-10272500D02*
G75*
G02*
X16020000Y-10302500I0J-30000D01*
G01*
X15588000Y-10272500D02*
G75*
G02*
X15618000Y-10302500I0J-30000D01*
G01*
X16020000Y-10302500D02*
G75*
G02*
X15990000Y-10332500I-30000J0D01*
G01*
X15880000Y-10302500D02*
G75*
G02*
X15910000Y-10272500I30000J0D01*
G01*
X15618000Y-10302500D02*
G75*
G02*
X15588000Y-10332500I-30000J0D01*
G01*
X15448000Y-10302500D02*
G75*
G02*
X15478000Y-10272500I30000J0D01*
G01*
X15910000Y-10332500D02*
G75*
G02*
X15880000Y-10302500I0J30000D01*
G01*
X15478000Y-10332500D02*
G75*
G02*
X15448000Y-10302500I0J30000D01*
G01*
X15910000Y-9407500D02*
X15990000Y-9407500D01*
X15478000Y-9407500D02*
X15588000Y-9407500D01*
X15990000Y-9467500D02*
X15910000Y-9467500D01*
X15588000Y-9467500D02*
X15478000Y-9467500D01*
X15910000Y-10272500D02*
X15990000Y-10272500D01*
X15478000Y-10272500D02*
X15588000Y-10272500D01*
X15990000Y-10332500D02*
X15910000Y-10332500D01*
X15588000Y-10332500D02*
X15478000Y-10332500D01*
D12*
D10*
X15552000Y-9551000D02*
X15612000Y-9611000D01*
X15612000Y-9551000D02*
X15552000Y-9611000D01*
X15552000Y-10129000D02*
X15612000Y-10189000D01*
X15612000Y-10129000D02*
X15552000Y-10189000D01*
D13*
X10757000Y-7975000D02*
G75*
G02*
X10437000Y-7975000I-160000J0D01*
G01*
X10437000Y-7975000D02*
G75*
G02*
X10757000Y-7975000I160000J0D01*
G01*
X10757500Y-12324000D02*
G75*
G02*
X10437500Y-12324000I-160000J0D01*
G01*
X10437500Y-12324000D02*
G75*
G02*
X10757500Y-12324000I160000J0D01*
G01*
X15875000Y-7975000D02*
G75*
G02*
X15555000Y-7975000I-160000J0D01*
G01*
X15555000Y-7975000D02*
G75*
G02*
X15875000Y-7975000I160000J0D01*
G01*
X15875000Y-12319000D02*
G75*
G02*
X15555000Y-12319000I-160000J0D01*
G01*
X15555000Y-12319000D02*
G75*
G02*
X15875000Y-12319000I160000J0D01*
G01*
D12*
X10415777Y-13056884D02*
X10415777Y-12856884D01*
X10415777Y-12856884D02*
X10463396Y-12856884D01*
X10463396Y-12856884D02*
X10491967Y-12866408D01*
X10491967Y-12866408D02*
X10511015Y-12885455D01*
X10511015Y-12885455D02*
X10520539Y-12904503D01*
X10520539Y-12904503D02*
X10530063Y-12942598D01*
X10530063Y-12942598D02*
X10530063Y-12971169D01*
X10530063Y-12971169D02*
X10520539Y-13009265D01*
X10520539Y-13009265D02*
X10511015Y-13028312D01*
X10511015Y-13028312D02*
X10491967Y-13047360D01*
X10491967Y-13047360D02*
X10463396Y-13056884D01*
X10463396Y-13056884D02*
X10415777Y-13056884D01*
X10615777Y-13056884D02*
X10615777Y-12923550D01*
X10615777Y-12961646D02*
X10625301Y-12942598D01*
X10625301Y-12942598D02*
X10634824Y-12933074D01*
X10634824Y-12933074D02*
X10653872Y-12923550D01*
X10653872Y-12923550D02*
X10672920Y-12923550D01*
X10739586Y-13056884D02*
X10739586Y-12923550D01*
X10739586Y-12856884D02*
X10730063Y-12866408D01*
X10730063Y-12866408D02*
X10739586Y-12875931D01*
X10739586Y-12875931D02*
X10749110Y-12866408D01*
X10749110Y-12866408D02*
X10739586Y-12856884D01*
X10739586Y-12856884D02*
X10739586Y-12875931D01*
X10863396Y-13056884D02*
X10844348Y-13047360D01*
X10844348Y-13047360D02*
X10834824Y-13028312D01*
X10834824Y-13028312D02*
X10834824Y-12856884D01*
X10968158Y-13056884D02*
X10949110Y-13047360D01*
X10949110Y-13047360D02*
X10939586Y-13028312D01*
X10939586Y-13028312D02*
X10939586Y-12856884D01*
X11196729Y-13056884D02*
X11196729Y-12856884D01*
X11196729Y-12856884D02*
X11263396Y-12999741D01*
X11263396Y-12999741D02*
X11330062Y-12856884D01*
X11330062Y-12856884D02*
X11330062Y-13056884D01*
X11511015Y-13056884D02*
X11511015Y-12952122D01*
X11511015Y-12952122D02*
X11501491Y-12933074D01*
X11501491Y-12933074D02*
X11482443Y-12923550D01*
X11482443Y-12923550D02*
X11444348Y-12923550D01*
X11444348Y-12923550D02*
X11425301Y-12933074D01*
X11511015Y-13047360D02*
X11491967Y-13056884D01*
X11491967Y-13056884D02*
X11444348Y-13056884D01*
X11444348Y-13056884D02*
X11425301Y-13047360D01*
X11425301Y-13047360D02*
X11415777Y-13028312D01*
X11415777Y-13028312D02*
X11415777Y-13009265D01*
X11415777Y-13009265D02*
X11425301Y-12990217D01*
X11425301Y-12990217D02*
X11444348Y-12980693D01*
X11444348Y-12980693D02*
X11491967Y-12980693D01*
X11491967Y-12980693D02*
X11511015Y-12971169D01*
X11606253Y-12923550D02*
X11606253Y-13123550D01*
X11606253Y-12933074D02*
X11625301Y-12923550D01*
X11625301Y-12923550D02*
X11663396Y-12923550D01*
X11663396Y-12923550D02*
X11682443Y-12933074D01*
X11682443Y-12933074D02*
X11691967Y-12942598D01*
X11691967Y-12942598D02*
X11701491Y-12961646D01*
X11701491Y-12961646D02*
X11701491Y-13018788D01*
X11701491Y-13018788D02*
X11691967Y-13037836D01*
X11691967Y-13037836D02*
X11682443Y-13047360D01*
X11682443Y-13047360D02*
X11663396Y-13056884D01*
X11663396Y-13056884D02*
X11625301Y-13056884D01*
X11625301Y-13056884D02*
X11606253Y-13047360D01*
X11787205Y-13037836D02*
X11796729Y-13047360D01*
X11796729Y-13047360D02*
X11787205Y-13056884D01*
X11787205Y-13056884D02*
X11777682Y-13047360D01*
X11777682Y-13047360D02*
X11787205Y-13037836D01*
X11787205Y-13037836D02*
X11787205Y-13056884D01*
X11787205Y-12933074D02*
X11796729Y-12942598D01*
X11796729Y-12942598D02*
X11787205Y-12952122D01*
X11787205Y-12952122D02*
X11777682Y-12942598D01*
X11777682Y-12942598D02*
X11787205Y-12933074D01*
X11787205Y-12933074D02*
X11787205Y-12952122D01*
D10*
X10095000Y-13355400D02*
X10155000Y-13415400D01*
X10155000Y-13355400D02*
X10095000Y-13415400D01*
D12*
X10453872Y-13276884D02*
X10472920Y-13276884D01*
X10472920Y-13276884D02*
X10491967Y-13286408D01*
X10491967Y-13286408D02*
X10501491Y-13295931D01*
X10501491Y-13295931D02*
X10511015Y-13314979D01*
X10511015Y-13314979D02*
X10520539Y-13353074D01*
X10520539Y-13353074D02*
X10520539Y-13400693D01*
X10520539Y-13400693D02*
X10511015Y-13438788D01*
X10511015Y-13438788D02*
X10501491Y-13457836D01*
X10501491Y-13457836D02*
X10491967Y-13467360D01*
X10491967Y-13467360D02*
X10472920Y-13476884D01*
X10472920Y-13476884D02*
X10453872Y-13476884D01*
X10453872Y-13476884D02*
X10434824Y-13467360D01*
X10434824Y-13467360D02*
X10425301Y-13457836D01*
X10425301Y-13457836D02*
X10415777Y-13438788D01*
X10415777Y-13438788D02*
X10406253Y-13400693D01*
X10406253Y-13400693D02*
X10406253Y-13353074D01*
X10406253Y-13353074D02*
X10415777Y-13314979D01*
X10415777Y-13314979D02*
X10425301Y-13295931D01*
X10425301Y-13295931D02*
X10434824Y-13286408D01*
X10434824Y-13286408D02*
X10453872Y-13276884D01*
X10606253Y-13457836D02*
X10615777Y-13467360D01*
X10615777Y-13467360D02*
X10606253Y-13476884D01*
X10606253Y-13476884D02*
X10596729Y-13467360D01*
X10596729Y-13467360D02*
X10606253Y-13457836D01*
X10606253Y-13457836D02*
X10606253Y-13476884D01*
X10787205Y-13276884D02*
X10749110Y-13276884D01*
X10749110Y-13276884D02*
X10730063Y-13286408D01*
X10730063Y-13286408D02*
X10720539Y-13295931D01*
X10720539Y-13295931D02*
X10701491Y-13324503D01*
X10701491Y-13324503D02*
X10691967Y-13362598D01*
X10691967Y-13362598D02*
X10691967Y-13438788D01*
X10691967Y-13438788D02*
X10701491Y-13457836D01*
X10701491Y-13457836D02*
X10711015Y-13467360D01*
X10711015Y-13467360D02*
X10730063Y-13476884D01*
X10730063Y-13476884D02*
X10768158Y-13476884D01*
X10768158Y-13476884D02*
X10787205Y-13467360D01*
X10787205Y-13467360D02*
X10796729Y-13457836D01*
X10796729Y-13457836D02*
X10806253Y-13438788D01*
X10806253Y-13438788D02*
X10806253Y-13391169D01*
X10806253Y-13391169D02*
X10796729Y-13372122D01*
X10796729Y-13372122D02*
X10787205Y-13362598D01*
X10787205Y-13362598D02*
X10768158Y-13353074D01*
X10768158Y-13353074D02*
X10730063Y-13353074D01*
X10730063Y-13353074D02*
X10711015Y-13362598D01*
X10711015Y-13362598D02*
X10701491Y-13372122D01*
X10701491Y-13372122D02*
X10691967Y-13391169D01*
X10930063Y-13276884D02*
X10949110Y-13276884D01*
X10949110Y-13276884D02*
X10968158Y-13286408D01*
X10968158Y-13286408D02*
X10977682Y-13295931D01*
X10977682Y-13295931D02*
X10987205Y-13314979D01*
X10987205Y-13314979D02*
X10996729Y-13353074D01*
X10996729Y-13353074D02*
X10996729Y-13400693D01*
X10996729Y-13400693D02*
X10987205Y-13438788D01*
X10987205Y-13438788D02*
X10977682Y-13457836D01*
X10977682Y-13457836D02*
X10968158Y-13467360D01*
X10968158Y-13467360D02*
X10949110Y-13476884D01*
X10949110Y-13476884D02*
X10930063Y-13476884D01*
X10930063Y-13476884D02*
X10911015Y-13467360D01*
X10911015Y-13467360D02*
X10901491Y-13457836D01*
X10901491Y-13457836D02*
X10891967Y-13438788D01*
X10891967Y-13438788D02*
X10882444Y-13400693D01*
X10882444Y-13400693D02*
X10882444Y-13353074D01*
X10882444Y-13353074D02*
X10891967Y-13314979D01*
X10891967Y-13314979D02*
X10901491Y-13295931D01*
X10901491Y-13295931D02*
X10911015Y-13286408D01*
X10911015Y-13286408D02*
X10930063Y-13276884D01*
X11120539Y-13276884D02*
X11139586Y-13276884D01*
X11139586Y-13276884D02*
X11158634Y-13286408D01*
X11158634Y-13286408D02*
X11168158Y-13295931D01*
X11168158Y-13295931D02*
X11177682Y-13314979D01*
X11177682Y-13314979D02*
X11187205Y-13353074D01*
X11187205Y-13353074D02*
X11187205Y-13400693D01*
X11187205Y-13400693D02*
X11177682Y-13438788D01*
X11177682Y-13438788D02*
X11168158Y-13457836D01*
X11168158Y-13457836D02*
X11158634Y-13467360D01*
X11158634Y-13467360D02*
X11139586Y-13476884D01*
X11139586Y-13476884D02*
X11120539Y-13476884D01*
X11120539Y-13476884D02*
X11101491Y-13467360D01*
X11101491Y-13467360D02*
X11091967Y-13457836D01*
X11091967Y-13457836D02*
X11082444Y-13438788D01*
X11082444Y-13438788D02*
X11072920Y-13400693D01*
X11072920Y-13400693D02*
X11072920Y-13353074D01*
X11072920Y-13353074D02*
X11082444Y-13314979D01*
X11082444Y-13314979D02*
X11091967Y-13295931D01*
X11091967Y-13295931D02*
X11101491Y-13286408D01*
X11101491Y-13286408D02*
X11120539Y-13276884D01*
X11272920Y-13476884D02*
X11272920Y-13343550D01*
X11272920Y-13362598D02*
X11282443Y-13353074D01*
X11282443Y-13353074D02*
X11301491Y-13343550D01*
X11301491Y-13343550D02*
X11330063Y-13343550D01*
X11330063Y-13343550D02*
X11349110Y-13353074D01*
X11349110Y-13353074D02*
X11358634Y-13372122D01*
X11358634Y-13372122D02*
X11358634Y-13476884D01*
X11358634Y-13372122D02*
X11368158Y-13353074D01*
X11368158Y-13353074D02*
X11387205Y-13343550D01*
X11387205Y-13343550D02*
X11415777Y-13343550D01*
X11415777Y-13343550D02*
X11434824Y-13353074D01*
X11434824Y-13353074D02*
X11444348Y-13372122D01*
X11444348Y-13372122D02*
X11444348Y-13476884D01*
X11539586Y-13476884D02*
X11539586Y-13343550D01*
X11539586Y-13362598D02*
X11549110Y-13353074D01*
X11549110Y-13353074D02*
X11568158Y-13343550D01*
X11568158Y-13343550D02*
X11596729Y-13343550D01*
X11596729Y-13343550D02*
X11615777Y-13353074D01*
X11615777Y-13353074D02*
X11625301Y-13372122D01*
X11625301Y-13372122D02*
X11625301Y-13476884D01*
X11625301Y-13372122D02*
X11634824Y-13353074D01*
X11634824Y-13353074D02*
X11653872Y-13343550D01*
X11653872Y-13343550D02*
X11682443Y-13343550D01*
X11682443Y-13343550D02*
X11701491Y-13353074D01*
X11701491Y-13353074D02*
X11711015Y-13372122D01*
X11711015Y-13372122D02*
X11711015Y-13476884D01*
X12101491Y-13267360D02*
X11930063Y-13524503D01*
X12358634Y-13276884D02*
X12377682Y-13276884D01*
X12377682Y-13276884D02*
X12396729Y-13286408D01*
X12396729Y-13286408D02*
X12406253Y-13295931D01*
X12406253Y-13295931D02*
X12415777Y-13314979D01*
X12415777Y-13314979D02*
X12425301Y-13353074D01*
X12425301Y-13353074D02*
X12425301Y-13400693D01*
X12425301Y-13400693D02*
X12415777Y-13438788D01*
X12415777Y-13438788D02*
X12406253Y-13457836D01*
X12406253Y-13457836D02*
X12396729Y-13467360D01*
X12396729Y-13467360D02*
X12377682Y-13476884D01*
X12377682Y-13476884D02*
X12358634Y-13476884D01*
X12358634Y-13476884D02*
X12339586Y-13467360D01*
X12339586Y-13467360D02*
X12330063Y-13457836D01*
X12330063Y-13457836D02*
X12320539Y-13438788D01*
X12320539Y-13438788D02*
X12311015Y-13400693D01*
X12311015Y-13400693D02*
X12311015Y-13353074D01*
X12311015Y-13353074D02*
X12320539Y-13314979D01*
X12320539Y-13314979D02*
X12330063Y-13295931D01*
X12330063Y-13295931D02*
X12339586Y-13286408D01*
X12339586Y-13286408D02*
X12358634Y-13276884D01*
X12511015Y-13457836D02*
X12520539Y-13467360D01*
X12520539Y-13467360D02*
X12511015Y-13476884D01*
X12511015Y-13476884D02*
X12501491Y-13467360D01*
X12501491Y-13467360D02*
X12511015Y-13457836D01*
X12511015Y-13457836D02*
X12511015Y-13476884D01*
X12644348Y-13276884D02*
X12663396Y-13276884D01*
X12663396Y-13276884D02*
X12682444Y-13286408D01*
X12682444Y-13286408D02*
X12691967Y-13295931D01*
X12691967Y-13295931D02*
X12701491Y-13314979D01*
X12701491Y-13314979D02*
X12711015Y-13353074D01*
X12711015Y-13353074D02*
X12711015Y-13400693D01*
X12711015Y-13400693D02*
X12701491Y-13438788D01*
X12701491Y-13438788D02*
X12691967Y-13457836D01*
X12691967Y-13457836D02*
X12682444Y-13467360D01*
X12682444Y-13467360D02*
X12663396Y-13476884D01*
X12663396Y-13476884D02*
X12644348Y-13476884D01*
X12644348Y-13476884D02*
X12625301Y-13467360D01*
X12625301Y-13467360D02*
X12615777Y-13457836D01*
X12615777Y-13457836D02*
X12606253Y-13438788D01*
X12606253Y-13438788D02*
X12596729Y-13400693D01*
X12596729Y-13400693D02*
X12596729Y-13353074D01*
X12596729Y-13353074D02*
X12606253Y-13314979D01*
X12606253Y-13314979D02*
X12615777Y-13295931D01*
X12615777Y-13295931D02*
X12625301Y-13286408D01*
X12625301Y-13286408D02*
X12644348Y-13276884D01*
X12787206Y-13295931D02*
X12796729Y-13286408D01*
X12796729Y-13286408D02*
X12815777Y-13276884D01*
X12815777Y-13276884D02*
X12863396Y-13276884D01*
X12863396Y-13276884D02*
X12882444Y-13286408D01*
X12882444Y-13286408D02*
X12891967Y-13295931D01*
X12891967Y-13295931D02*
X12901491Y-13314979D01*
X12901491Y-13314979D02*
X12901491Y-13334027D01*
X12901491Y-13334027D02*
X12891967Y-13362598D01*
X12891967Y-13362598D02*
X12777682Y-13476884D01*
X12777682Y-13476884D02*
X12901491Y-13476884D01*
X12968158Y-13276884D02*
X13091967Y-13276884D01*
X13091967Y-13276884D02*
X13025301Y-13353074D01*
X13025301Y-13353074D02*
X13053872Y-13353074D01*
X13053872Y-13353074D02*
X13072920Y-13362598D01*
X13072920Y-13362598D02*
X13082444Y-13372122D01*
X13082444Y-13372122D02*
X13091967Y-13391169D01*
X13091967Y-13391169D02*
X13091967Y-13438788D01*
X13091967Y-13438788D02*
X13082444Y-13457836D01*
X13082444Y-13457836D02*
X13072920Y-13467360D01*
X13072920Y-13467360D02*
X13053872Y-13476884D01*
X13053872Y-13476884D02*
X12996729Y-13476884D01*
X12996729Y-13476884D02*
X12977682Y-13467360D01*
X12977682Y-13467360D02*
X12968158Y-13457836D01*
X13263396Y-13276884D02*
X13225301Y-13276884D01*
X13225301Y-13276884D02*
X13206253Y-13286408D01*
X13206253Y-13286408D02*
X13196729Y-13295931D01*
X13196729Y-13295931D02*
X13177682Y-13324503D01*
X13177682Y-13324503D02*
X13168158Y-13362598D01*
X13168158Y-13362598D02*
X13168158Y-13438788D01*
X13168158Y-13438788D02*
X13177682Y-13457836D01*
X13177682Y-13457836D02*
X13187206Y-13467360D01*
X13187206Y-13467360D02*
X13206253Y-13476884D01*
X13206253Y-13476884D02*
X13244348Y-13476884D01*
X13244348Y-13476884D02*
X13263396Y-13467360D01*
X13263396Y-13467360D02*
X13272920Y-13457836D01*
X13272920Y-13457836D02*
X13282444Y-13438788D01*
X13282444Y-13438788D02*
X13282444Y-13391169D01*
X13282444Y-13391169D02*
X13272920Y-13372122D01*
X13272920Y-13372122D02*
X13263396Y-13362598D01*
X13263396Y-13362598D02*
X13244348Y-13353074D01*
X13244348Y-13353074D02*
X13206253Y-13353074D01*
X13206253Y-13353074D02*
X13187206Y-13362598D01*
X13187206Y-13362598D02*
X13177682Y-13372122D01*
X13177682Y-13372122D02*
X13168158Y-13391169D01*
X13358634Y-13276884D02*
X13358634Y-13314979D01*
X13434825Y-13276884D02*
X13434825Y-13314979D01*
X13730063Y-13553074D02*
X13720539Y-13543550D01*
X13720539Y-13543550D02*
X13701491Y-13514979D01*
X13701491Y-13514979D02*
X13691968Y-13495931D01*
X13691968Y-13495931D02*
X13682444Y-13467360D01*
X13682444Y-13467360D02*
X13672920Y-13419741D01*
X13672920Y-13419741D02*
X13672920Y-13381646D01*
X13672920Y-13381646D02*
X13682444Y-13334027D01*
X13682444Y-13334027D02*
X13691968Y-13305455D01*
X13691968Y-13305455D02*
X13701491Y-13286408D01*
X13701491Y-13286408D02*
X13720539Y-13257836D01*
X13720539Y-13257836D02*
X13730063Y-13248312D01*
X13796729Y-13295931D02*
X13806253Y-13286408D01*
X13806253Y-13286408D02*
X13825301Y-13276884D01*
X13825301Y-13276884D02*
X13872920Y-13276884D01*
X13872920Y-13276884D02*
X13891968Y-13286408D01*
X13891968Y-13286408D02*
X13901491Y-13295931D01*
X13901491Y-13295931D02*
X13911015Y-13314979D01*
X13911015Y-13314979D02*
X13911015Y-13334027D01*
X13911015Y-13334027D02*
X13901491Y-13362598D01*
X13901491Y-13362598D02*
X13787206Y-13476884D01*
X13787206Y-13476884D02*
X13911015Y-13476884D01*
X14149110Y-13476884D02*
X14149110Y-13276884D01*
X14234825Y-13476884D02*
X14234825Y-13372122D01*
X14234825Y-13372122D02*
X14225301Y-13353074D01*
X14225301Y-13353074D02*
X14206253Y-13343550D01*
X14206253Y-13343550D02*
X14177682Y-13343550D01*
X14177682Y-13343550D02*
X14158634Y-13353074D01*
X14158634Y-13353074D02*
X14149110Y-13362598D01*
X14358634Y-13476884D02*
X14339587Y-13467360D01*
X14339587Y-13467360D02*
X14330063Y-13457836D01*
X14330063Y-13457836D02*
X14320539Y-13438788D01*
X14320539Y-13438788D02*
X14320539Y-13381646D01*
X14320539Y-13381646D02*
X14330063Y-13362598D01*
X14330063Y-13362598D02*
X14339587Y-13353074D01*
X14339587Y-13353074D02*
X14358634Y-13343550D01*
X14358634Y-13343550D02*
X14387206Y-13343550D01*
X14387206Y-13343550D02*
X14406253Y-13353074D01*
X14406253Y-13353074D02*
X14415777Y-13362598D01*
X14415777Y-13362598D02*
X14425301Y-13381646D01*
X14425301Y-13381646D02*
X14425301Y-13438788D01*
X14425301Y-13438788D02*
X14415777Y-13457836D01*
X14415777Y-13457836D02*
X14406253Y-13467360D01*
X14406253Y-13467360D02*
X14387206Y-13476884D01*
X14387206Y-13476884D02*
X14358634Y-13476884D01*
X14539587Y-13476884D02*
X14520539Y-13467360D01*
X14520539Y-13467360D02*
X14511015Y-13448312D01*
X14511015Y-13448312D02*
X14511015Y-13276884D01*
X14691968Y-13467360D02*
X14672920Y-13476884D01*
X14672920Y-13476884D02*
X14634825Y-13476884D01*
X14634825Y-13476884D02*
X14615777Y-13467360D01*
X14615777Y-13467360D02*
X14606253Y-13448312D01*
X14606253Y-13448312D02*
X14606253Y-13372122D01*
X14606253Y-13372122D02*
X14615777Y-13353074D01*
X14615777Y-13353074D02*
X14634825Y-13343550D01*
X14634825Y-13343550D02*
X14672920Y-13343550D01*
X14672920Y-13343550D02*
X14691968Y-13353074D01*
X14691968Y-13353074D02*
X14701491Y-13372122D01*
X14701491Y-13372122D02*
X14701491Y-13391169D01*
X14701491Y-13391169D02*
X14606253Y-13410217D01*
X14777682Y-13467360D02*
X14796730Y-13476884D01*
X14796730Y-13476884D02*
X14834825Y-13476884D01*
X14834825Y-13476884D02*
X14853872Y-13467360D01*
X14853872Y-13467360D02*
X14863396Y-13448312D01*
X14863396Y-13448312D02*
X14863396Y-13438788D01*
X14863396Y-13438788D02*
X14853872Y-13419741D01*
X14853872Y-13419741D02*
X14834825Y-13410217D01*
X14834825Y-13410217D02*
X14806253Y-13410217D01*
X14806253Y-13410217D02*
X14787206Y-13400693D01*
X14787206Y-13400693D02*
X14777682Y-13381646D01*
X14777682Y-13381646D02*
X14777682Y-13372122D01*
X14777682Y-13372122D02*
X14787206Y-13353074D01*
X14787206Y-13353074D02*
X14806253Y-13343550D01*
X14806253Y-13343550D02*
X14834825Y-13343550D01*
X14834825Y-13343550D02*
X14853872Y-13353074D01*
X14930063Y-13553074D02*
X14939587Y-13543550D01*
X14939587Y-13543550D02*
X14958634Y-13514979D01*
X14958634Y-13514979D02*
X14968158Y-13495931D01*
X14968158Y-13495931D02*
X14977682Y-13467360D01*
X14977682Y-13467360D02*
X14987206Y-13419741D01*
X14987206Y-13419741D02*
X14987206Y-13381646D01*
X14987206Y-13381646D02*
X14977682Y-13334027D01*
X14977682Y-13334027D02*
X14968158Y-13305455D01*
X14968158Y-13305455D02*
X14958634Y-13286408D01*
X14958634Y-13286408D02*
X14939587Y-13257836D01*
X14939587Y-13257836D02*
X14930063Y-13248312D01*
X15291968Y-13553074D02*
X15282444Y-13543550D01*
X15282444Y-13543550D02*
X15263396Y-13514979D01*
X15263396Y-13514979D02*
X15253872Y-13495931D01*
X15253872Y-13495931D02*
X15244349Y-13467360D01*
X15244349Y-13467360D02*
X15234825Y-13419741D01*
X15234825Y-13419741D02*
X15234825Y-13381646D01*
X15234825Y-13381646D02*
X15244349Y-13334027D01*
X15244349Y-13334027D02*
X15253872Y-13305455D01*
X15253872Y-13305455D02*
X15263396Y-13286408D01*
X15263396Y-13286408D02*
X15282444Y-13257836D01*
X15282444Y-13257836D02*
X15291968Y-13248312D01*
X15368158Y-13343550D02*
X15368158Y-13476884D01*
X15368158Y-13362598D02*
X15377682Y-13353074D01*
X15377682Y-13353074D02*
X15396730Y-13343550D01*
X15396730Y-13343550D02*
X15425301Y-13343550D01*
X15425301Y-13343550D02*
X15444349Y-13353074D01*
X15444349Y-13353074D02*
X15453872Y-13372122D01*
X15453872Y-13372122D02*
X15453872Y-13476884D01*
X15577682Y-13476884D02*
X15558634Y-13467360D01*
X15558634Y-13467360D02*
X15549111Y-13457836D01*
X15549111Y-13457836D02*
X15539587Y-13438788D01*
X15539587Y-13438788D02*
X15539587Y-13381646D01*
X15539587Y-13381646D02*
X15549111Y-13362598D01*
X15549111Y-13362598D02*
X15558634Y-13353074D01*
X15558634Y-13353074D02*
X15577682Y-13343550D01*
X15577682Y-13343550D02*
X15606253Y-13343550D01*
X15606253Y-13343550D02*
X15625301Y-13353074D01*
X15625301Y-13353074D02*
X15634825Y-13362598D01*
X15634825Y-13362598D02*
X15644349Y-13381646D01*
X15644349Y-13381646D02*
X15644349Y-13438788D01*
X15644349Y-13438788D02*
X15634825Y-13457836D01*
X15634825Y-13457836D02*
X15625301Y-13467360D01*
X15625301Y-13467360D02*
X15606253Y-13476884D01*
X15606253Y-13476884D02*
X15577682Y-13476884D01*
X15701492Y-13343550D02*
X15777682Y-13343550D01*
X15730063Y-13276884D02*
X15730063Y-13448312D01*
X15730063Y-13448312D02*
X15739587Y-13467360D01*
X15739587Y-13467360D02*
X15758634Y-13476884D01*
X15758634Y-13476884D02*
X15777682Y-13476884D01*
X15996730Y-13343550D02*
X15996730Y-13543550D01*
X15996730Y-13353074D02*
X16015777Y-13343550D01*
X16015777Y-13343550D02*
X16053873Y-13343550D01*
X16053873Y-13343550D02*
X16072920Y-13353074D01*
X16072920Y-13353074D02*
X16082444Y-13362598D01*
X16082444Y-13362598D02*
X16091968Y-13381646D01*
X16091968Y-13381646D02*
X16091968Y-13438788D01*
X16091968Y-13438788D02*
X16082444Y-13457836D01*
X16082444Y-13457836D02*
X16072920Y-13467360D01*
X16072920Y-13467360D02*
X16053873Y-13476884D01*
X16053873Y-13476884D02*
X16015777Y-13476884D01*
X16015777Y-13476884D02*
X15996730Y-13467360D01*
X16206253Y-13476884D02*
X16187206Y-13467360D01*
X16187206Y-13467360D02*
X16177682Y-13448312D01*
X16177682Y-13448312D02*
X16177682Y-13276884D01*
X16368158Y-13476884D02*
X16368158Y-13372122D01*
X16368158Y-13372122D02*
X16358634Y-13353074D01*
X16358634Y-13353074D02*
X16339587Y-13343550D01*
X16339587Y-13343550D02*
X16301492Y-13343550D01*
X16301492Y-13343550D02*
X16282444Y-13353074D01*
X16368158Y-13467360D02*
X16349111Y-13476884D01*
X16349111Y-13476884D02*
X16301492Y-13476884D01*
X16301492Y-13476884D02*
X16282444Y-13467360D01*
X16282444Y-13467360D02*
X16272920Y-13448312D01*
X16272920Y-13448312D02*
X16272920Y-13429265D01*
X16272920Y-13429265D02*
X16282444Y-13410217D01*
X16282444Y-13410217D02*
X16301492Y-13400693D01*
X16301492Y-13400693D02*
X16349111Y-13400693D01*
X16349111Y-13400693D02*
X16368158Y-13391169D01*
X16434825Y-13343550D02*
X16511015Y-13343550D01*
X16463396Y-13276884D02*
X16463396Y-13448312D01*
X16463396Y-13448312D02*
X16472920Y-13467360D01*
X16472920Y-13467360D02*
X16491968Y-13476884D01*
X16491968Y-13476884D02*
X16511015Y-13476884D01*
X16653873Y-13467360D02*
X16634825Y-13476884D01*
X16634825Y-13476884D02*
X16596730Y-13476884D01*
X16596730Y-13476884D02*
X16577682Y-13467360D01*
X16577682Y-13467360D02*
X16568158Y-13448312D01*
X16568158Y-13448312D02*
X16568158Y-13372122D01*
X16568158Y-13372122D02*
X16577682Y-13353074D01*
X16577682Y-13353074D02*
X16596730Y-13343550D01*
X16596730Y-13343550D02*
X16634825Y-13343550D01*
X16634825Y-13343550D02*
X16653873Y-13353074D01*
X16653873Y-13353074D02*
X16663396Y-13372122D01*
X16663396Y-13372122D02*
X16663396Y-13391169D01*
X16663396Y-13391169D02*
X16568158Y-13410217D01*
X16834825Y-13476884D02*
X16834825Y-13276884D01*
X16834825Y-13467360D02*
X16815777Y-13476884D01*
X16815777Y-13476884D02*
X16777682Y-13476884D01*
X16777682Y-13476884D02*
X16758634Y-13467360D01*
X16758634Y-13467360D02*
X16749111Y-13457836D01*
X16749111Y-13457836D02*
X16739587Y-13438788D01*
X16739587Y-13438788D02*
X16739587Y-13381646D01*
X16739587Y-13381646D02*
X16749111Y-13362598D01*
X16749111Y-13362598D02*
X16758634Y-13353074D01*
X16758634Y-13353074D02*
X16777682Y-13343550D01*
X16777682Y-13343550D02*
X16815777Y-13343550D01*
X16815777Y-13343550D02*
X16834825Y-13353074D01*
X16911016Y-13553074D02*
X16920539Y-13543550D01*
X16920539Y-13543550D02*
X16939587Y-13514979D01*
X16939587Y-13514979D02*
X16949111Y-13495931D01*
X16949111Y-13495931D02*
X16958635Y-13467360D01*
X16958635Y-13467360D02*
X16968158Y-13419741D01*
X16968158Y-13419741D02*
X16968158Y-13381646D01*
X16968158Y-13381646D02*
X16958635Y-13334027D01*
X16958635Y-13334027D02*
X16949111Y-13305455D01*
X16949111Y-13305455D02*
X16939587Y-13286408D01*
X16939587Y-13286408D02*
X16920539Y-13257836D01*
X16920539Y-13257836D02*
X16911016Y-13248312D01*
X10155000Y-13649400D02*
G75*
G02*
X9955000Y-13649400I-100000J0D01*
G01*
X9955000Y-13649400D02*
G75*
G02*
X10155000Y-13649400I100000J0D01*
G01*
X10396729Y-13540884D02*
X10520539Y-13540884D01*
X10520539Y-13540884D02*
X10453872Y-13617074D01*
X10453872Y-13617074D02*
X10482444Y-13617074D01*
X10482444Y-13617074D02*
X10501491Y-13626598D01*
X10501491Y-13626598D02*
X10511015Y-13636122D01*
X10511015Y-13636122D02*
X10520539Y-13655169D01*
X10520539Y-13655169D02*
X10520539Y-13702788D01*
X10520539Y-13702788D02*
X10511015Y-13721836D01*
X10511015Y-13721836D02*
X10501491Y-13731360D01*
X10501491Y-13731360D02*
X10482444Y-13740884D01*
X10482444Y-13740884D02*
X10425301Y-13740884D01*
X10425301Y-13740884D02*
X10406253Y-13731360D01*
X10406253Y-13731360D02*
X10396729Y-13721836D01*
X10606253Y-13721836D02*
X10615777Y-13731360D01*
X10615777Y-13731360D02*
X10606253Y-13740884D01*
X10606253Y-13740884D02*
X10596729Y-13731360D01*
X10596729Y-13731360D02*
X10606253Y-13721836D01*
X10606253Y-13721836D02*
X10606253Y-13740884D01*
X10691967Y-13559931D02*
X10701491Y-13550408D01*
X10701491Y-13550408D02*
X10720539Y-13540884D01*
X10720539Y-13540884D02*
X10768158Y-13540884D01*
X10768158Y-13540884D02*
X10787205Y-13550408D01*
X10787205Y-13550408D02*
X10796729Y-13559931D01*
X10796729Y-13559931D02*
X10806253Y-13578979D01*
X10806253Y-13578979D02*
X10806253Y-13598027D01*
X10806253Y-13598027D02*
X10796729Y-13626598D01*
X10796729Y-13626598D02*
X10682444Y-13740884D01*
X10682444Y-13740884D02*
X10806253Y-13740884D01*
X10930063Y-13540884D02*
X10949110Y-13540884D01*
X10949110Y-13540884D02*
X10968158Y-13550408D01*
X10968158Y-13550408D02*
X10977682Y-13559931D01*
X10977682Y-13559931D02*
X10987205Y-13578979D01*
X10987205Y-13578979D02*
X10996729Y-13617074D01*
X10996729Y-13617074D02*
X10996729Y-13664693D01*
X10996729Y-13664693D02*
X10987205Y-13702788D01*
X10987205Y-13702788D02*
X10977682Y-13721836D01*
X10977682Y-13721836D02*
X10968158Y-13731360D01*
X10968158Y-13731360D02*
X10949110Y-13740884D01*
X10949110Y-13740884D02*
X10930063Y-13740884D01*
X10930063Y-13740884D02*
X10911015Y-13731360D01*
X10911015Y-13731360D02*
X10901491Y-13721836D01*
X10901491Y-13721836D02*
X10891967Y-13702788D01*
X10891967Y-13702788D02*
X10882444Y-13664693D01*
X10882444Y-13664693D02*
X10882444Y-13617074D01*
X10882444Y-13617074D02*
X10891967Y-13578979D01*
X10891967Y-13578979D02*
X10901491Y-13559931D01*
X10901491Y-13559931D02*
X10911015Y-13550408D01*
X10911015Y-13550408D02*
X10930063Y-13540884D01*
X11120539Y-13540884D02*
X11139586Y-13540884D01*
X11139586Y-13540884D02*
X11158634Y-13550408D01*
X11158634Y-13550408D02*
X11168158Y-13559931D01*
X11168158Y-13559931D02*
X11177682Y-13578979D01*
X11177682Y-13578979D02*
X11187205Y-13617074D01*
X11187205Y-13617074D02*
X11187205Y-13664693D01*
X11187205Y-13664693D02*
X11177682Y-13702788D01*
X11177682Y-13702788D02*
X11168158Y-13721836D01*
X11168158Y-13721836D02*
X11158634Y-13731360D01*
X11158634Y-13731360D02*
X11139586Y-13740884D01*
X11139586Y-13740884D02*
X11120539Y-13740884D01*
X11120539Y-13740884D02*
X11101491Y-13731360D01*
X11101491Y-13731360D02*
X11091967Y-13721836D01*
X11091967Y-13721836D02*
X11082444Y-13702788D01*
X11082444Y-13702788D02*
X11072920Y-13664693D01*
X11072920Y-13664693D02*
X11072920Y-13617074D01*
X11072920Y-13617074D02*
X11082444Y-13578979D01*
X11082444Y-13578979D02*
X11091967Y-13559931D01*
X11091967Y-13559931D02*
X11101491Y-13550408D01*
X11101491Y-13550408D02*
X11120539Y-13540884D01*
X11272920Y-13740884D02*
X11272920Y-13607550D01*
X11272920Y-13626598D02*
X11282443Y-13617074D01*
X11282443Y-13617074D02*
X11301491Y-13607550D01*
X11301491Y-13607550D02*
X11330063Y-13607550D01*
X11330063Y-13607550D02*
X11349110Y-13617074D01*
X11349110Y-13617074D02*
X11358634Y-13636122D01*
X11358634Y-13636122D02*
X11358634Y-13740884D01*
X11358634Y-13636122D02*
X11368158Y-13617074D01*
X11368158Y-13617074D02*
X11387205Y-13607550D01*
X11387205Y-13607550D02*
X11415777Y-13607550D01*
X11415777Y-13607550D02*
X11434824Y-13617074D01*
X11434824Y-13617074D02*
X11444348Y-13636122D01*
X11444348Y-13636122D02*
X11444348Y-13740884D01*
X11539586Y-13740884D02*
X11539586Y-13607550D01*
X11539586Y-13626598D02*
X11549110Y-13617074D01*
X11549110Y-13617074D02*
X11568158Y-13607550D01*
X11568158Y-13607550D02*
X11596729Y-13607550D01*
X11596729Y-13607550D02*
X11615777Y-13617074D01*
X11615777Y-13617074D02*
X11625301Y-13636122D01*
X11625301Y-13636122D02*
X11625301Y-13740884D01*
X11625301Y-13636122D02*
X11634824Y-13617074D01*
X11634824Y-13617074D02*
X11653872Y-13607550D01*
X11653872Y-13607550D02*
X11682443Y-13607550D01*
X11682443Y-13607550D02*
X11701491Y-13617074D01*
X11701491Y-13617074D02*
X11711015Y-13636122D01*
X11711015Y-13636122D02*
X11711015Y-13740884D01*
X12101491Y-13531360D02*
X11930063Y-13788503D01*
X12358634Y-13540884D02*
X12377682Y-13540884D01*
X12377682Y-13540884D02*
X12396729Y-13550408D01*
X12396729Y-13550408D02*
X12406253Y-13559931D01*
X12406253Y-13559931D02*
X12415777Y-13578979D01*
X12415777Y-13578979D02*
X12425301Y-13617074D01*
X12425301Y-13617074D02*
X12425301Y-13664693D01*
X12425301Y-13664693D02*
X12415777Y-13702788D01*
X12415777Y-13702788D02*
X12406253Y-13721836D01*
X12406253Y-13721836D02*
X12396729Y-13731360D01*
X12396729Y-13731360D02*
X12377682Y-13740884D01*
X12377682Y-13740884D02*
X12358634Y-13740884D01*
X12358634Y-13740884D02*
X12339586Y-13731360D01*
X12339586Y-13731360D02*
X12330063Y-13721836D01*
X12330063Y-13721836D02*
X12320539Y-13702788D01*
X12320539Y-13702788D02*
X12311015Y-13664693D01*
X12311015Y-13664693D02*
X12311015Y-13617074D01*
X12311015Y-13617074D02*
X12320539Y-13578979D01*
X12320539Y-13578979D02*
X12330063Y-13559931D01*
X12330063Y-13559931D02*
X12339586Y-13550408D01*
X12339586Y-13550408D02*
X12358634Y-13540884D01*
X12511015Y-13721836D02*
X12520539Y-13731360D01*
X12520539Y-13731360D02*
X12511015Y-13740884D01*
X12511015Y-13740884D02*
X12501491Y-13731360D01*
X12501491Y-13731360D02*
X12511015Y-13721836D01*
X12511015Y-13721836D02*
X12511015Y-13740884D01*
X12711015Y-13740884D02*
X12596729Y-13740884D01*
X12653872Y-13740884D02*
X12653872Y-13540884D01*
X12653872Y-13540884D02*
X12634825Y-13569455D01*
X12634825Y-13569455D02*
X12615777Y-13588503D01*
X12615777Y-13588503D02*
X12596729Y-13598027D01*
X12787206Y-13559931D02*
X12796729Y-13550408D01*
X12796729Y-13550408D02*
X12815777Y-13540884D01*
X12815777Y-13540884D02*
X12863396Y-13540884D01*
X12863396Y-13540884D02*
X12882444Y-13550408D01*
X12882444Y-13550408D02*
X12891967Y-13559931D01*
X12891967Y-13559931D02*
X12901491Y-13578979D01*
X12901491Y-13578979D02*
X12901491Y-13598027D01*
X12901491Y-13598027D02*
X12891967Y-13626598D01*
X12891967Y-13626598D02*
X12777682Y-13740884D01*
X12777682Y-13740884D02*
X12901491Y-13740884D01*
X13072920Y-13540884D02*
X13034825Y-13540884D01*
X13034825Y-13540884D02*
X13015777Y-13550408D01*
X13015777Y-13550408D02*
X13006253Y-13559931D01*
X13006253Y-13559931D02*
X12987206Y-13588503D01*
X12987206Y-13588503D02*
X12977682Y-13626598D01*
X12977682Y-13626598D02*
X12977682Y-13702788D01*
X12977682Y-13702788D02*
X12987206Y-13721836D01*
X12987206Y-13721836D02*
X12996729Y-13731360D01*
X12996729Y-13731360D02*
X13015777Y-13740884D01*
X13015777Y-13740884D02*
X13053872Y-13740884D01*
X13053872Y-13740884D02*
X13072920Y-13731360D01*
X13072920Y-13731360D02*
X13082444Y-13721836D01*
X13082444Y-13721836D02*
X13091967Y-13702788D01*
X13091967Y-13702788D02*
X13091967Y-13655169D01*
X13091967Y-13655169D02*
X13082444Y-13636122D01*
X13082444Y-13636122D02*
X13072920Y-13626598D01*
X13072920Y-13626598D02*
X13053872Y-13617074D01*
X13053872Y-13617074D02*
X13015777Y-13617074D01*
X13015777Y-13617074D02*
X12996729Y-13626598D01*
X12996729Y-13626598D02*
X12987206Y-13636122D01*
X12987206Y-13636122D02*
X12977682Y-13655169D01*
X13215777Y-13540884D02*
X13234825Y-13540884D01*
X13234825Y-13540884D02*
X13253872Y-13550408D01*
X13253872Y-13550408D02*
X13263396Y-13559931D01*
X13263396Y-13559931D02*
X13272920Y-13578979D01*
X13272920Y-13578979D02*
X13282444Y-13617074D01*
X13282444Y-13617074D02*
X13282444Y-13664693D01*
X13282444Y-13664693D02*
X13272920Y-13702788D01*
X13272920Y-13702788D02*
X13263396Y-13721836D01*
X13263396Y-13721836D02*
X13253872Y-13731360D01*
X13253872Y-13731360D02*
X13234825Y-13740884D01*
X13234825Y-13740884D02*
X13215777Y-13740884D01*
X13215777Y-13740884D02*
X13196729Y-13731360D01*
X13196729Y-13731360D02*
X13187206Y-13721836D01*
X13187206Y-13721836D02*
X13177682Y-13702788D01*
X13177682Y-13702788D02*
X13168158Y-13664693D01*
X13168158Y-13664693D02*
X13168158Y-13617074D01*
X13168158Y-13617074D02*
X13177682Y-13578979D01*
X13177682Y-13578979D02*
X13187206Y-13559931D01*
X13187206Y-13559931D02*
X13196729Y-13550408D01*
X13196729Y-13550408D02*
X13215777Y-13540884D01*
X13358634Y-13540884D02*
X13358634Y-13578979D01*
X13434825Y-13540884D02*
X13434825Y-13578979D01*
X13730063Y-13817074D02*
X13720539Y-13807550D01*
X13720539Y-13807550D02*
X13701491Y-13778979D01*
X13701491Y-13778979D02*
X13691968Y-13759931D01*
X13691968Y-13759931D02*
X13682444Y-13731360D01*
X13682444Y-13731360D02*
X13672920Y-13683741D01*
X13672920Y-13683741D02*
X13672920Y-13645646D01*
X13672920Y-13645646D02*
X13682444Y-13598027D01*
X13682444Y-13598027D02*
X13691968Y-13569455D01*
X13691968Y-13569455D02*
X13701491Y-13550408D01*
X13701491Y-13550408D02*
X13720539Y-13521836D01*
X13720539Y-13521836D02*
X13730063Y-13512312D01*
X13891968Y-13607550D02*
X13891968Y-13740884D01*
X13844348Y-13531360D02*
X13796729Y-13674217D01*
X13796729Y-13674217D02*
X13920539Y-13674217D01*
X14149110Y-13740884D02*
X14149110Y-13540884D01*
X14234825Y-13740884D02*
X14234825Y-13636122D01*
X14234825Y-13636122D02*
X14225301Y-13617074D01*
X14225301Y-13617074D02*
X14206253Y-13607550D01*
X14206253Y-13607550D02*
X14177682Y-13607550D01*
X14177682Y-13607550D02*
X14158634Y-13617074D01*
X14158634Y-13617074D02*
X14149110Y-13626598D01*
X14358634Y-13740884D02*
X14339587Y-13731360D01*
X14339587Y-13731360D02*
X14330063Y-13721836D01*
X14330063Y-13721836D02*
X14320539Y-13702788D01*
X14320539Y-13702788D02*
X14320539Y-13645646D01*
X14320539Y-13645646D02*
X14330063Y-13626598D01*
X14330063Y-13626598D02*
X14339587Y-13617074D01*
X14339587Y-13617074D02*
X14358634Y-13607550D01*
X14358634Y-13607550D02*
X14387206Y-13607550D01*
X14387206Y-13607550D02*
X14406253Y-13617074D01*
X14406253Y-13617074D02*
X14415777Y-13626598D01*
X14415777Y-13626598D02*
X14425301Y-13645646D01*
X14425301Y-13645646D02*
X14425301Y-13702788D01*
X14425301Y-13702788D02*
X14415777Y-13721836D01*
X14415777Y-13721836D02*
X14406253Y-13731360D01*
X14406253Y-13731360D02*
X14387206Y-13740884D01*
X14387206Y-13740884D02*
X14358634Y-13740884D01*
X14539587Y-13740884D02*
X14520539Y-13731360D01*
X14520539Y-13731360D02*
X14511015Y-13712312D01*
X14511015Y-13712312D02*
X14511015Y-13540884D01*
X14691968Y-13731360D02*
X14672920Y-13740884D01*
X14672920Y-13740884D02*
X14634825Y-13740884D01*
X14634825Y-13740884D02*
X14615777Y-13731360D01*
X14615777Y-13731360D02*
X14606253Y-13712312D01*
X14606253Y-13712312D02*
X14606253Y-13636122D01*
X14606253Y-13636122D02*
X14615777Y-13617074D01*
X14615777Y-13617074D02*
X14634825Y-13607550D01*
X14634825Y-13607550D02*
X14672920Y-13607550D01*
X14672920Y-13607550D02*
X14691968Y-13617074D01*
X14691968Y-13617074D02*
X14701491Y-13636122D01*
X14701491Y-13636122D02*
X14701491Y-13655169D01*
X14701491Y-13655169D02*
X14606253Y-13674217D01*
X14777682Y-13731360D02*
X14796730Y-13740884D01*
X14796730Y-13740884D02*
X14834825Y-13740884D01*
X14834825Y-13740884D02*
X14853872Y-13731360D01*
X14853872Y-13731360D02*
X14863396Y-13712312D01*
X14863396Y-13712312D02*
X14863396Y-13702788D01*
X14863396Y-13702788D02*
X14853872Y-13683741D01*
X14853872Y-13683741D02*
X14834825Y-13674217D01*
X14834825Y-13674217D02*
X14806253Y-13674217D01*
X14806253Y-13674217D02*
X14787206Y-13664693D01*
X14787206Y-13664693D02*
X14777682Y-13645646D01*
X14777682Y-13645646D02*
X14777682Y-13636122D01*
X14777682Y-13636122D02*
X14787206Y-13617074D01*
X14787206Y-13617074D02*
X14806253Y-13607550D01*
X14806253Y-13607550D02*
X14834825Y-13607550D01*
X14834825Y-13607550D02*
X14853872Y-13617074D01*
X14930063Y-13817074D02*
X14939587Y-13807550D01*
X14939587Y-13807550D02*
X14958634Y-13778979D01*
X14958634Y-13778979D02*
X14968158Y-13759931D01*
X14968158Y-13759931D02*
X14977682Y-13731360D01*
X14977682Y-13731360D02*
X14987206Y-13683741D01*
X14987206Y-13683741D02*
X14987206Y-13645646D01*
X14987206Y-13645646D02*
X14977682Y-13598027D01*
X14977682Y-13598027D02*
X14968158Y-13569455D01*
X14968158Y-13569455D02*
X14958634Y-13550408D01*
X14958634Y-13550408D02*
X14939587Y-13521836D01*
X14939587Y-13521836D02*
X14930063Y-13512312D01*
X15291968Y-13817074D02*
X15282444Y-13807550D01*
X15282444Y-13807550D02*
X15263396Y-13778979D01*
X15263396Y-13778979D02*
X15253872Y-13759931D01*
X15253872Y-13759931D02*
X15244349Y-13731360D01*
X15244349Y-13731360D02*
X15234825Y-13683741D01*
X15234825Y-13683741D02*
X15234825Y-13645646D01*
X15234825Y-13645646D02*
X15244349Y-13598027D01*
X15244349Y-13598027D02*
X15253872Y-13569455D01*
X15253872Y-13569455D02*
X15263396Y-13550408D01*
X15263396Y-13550408D02*
X15282444Y-13521836D01*
X15282444Y-13521836D02*
X15291968Y-13512312D01*
X15368158Y-13607550D02*
X15368158Y-13740884D01*
X15368158Y-13626598D02*
X15377682Y-13617074D01*
X15377682Y-13617074D02*
X15396730Y-13607550D01*
X15396730Y-13607550D02*
X15425301Y-13607550D01*
X15425301Y-13607550D02*
X15444349Y-13617074D01*
X15444349Y-13617074D02*
X15453872Y-13636122D01*
X15453872Y-13636122D02*
X15453872Y-13740884D01*
X15577682Y-13740884D02*
X15558634Y-13731360D01*
X15558634Y-13731360D02*
X15549111Y-13721836D01*
X15549111Y-13721836D02*
X15539587Y-13702788D01*
X15539587Y-13702788D02*
X15539587Y-13645646D01*
X15539587Y-13645646D02*
X15549111Y-13626598D01*
X15549111Y-13626598D02*
X15558634Y-13617074D01*
X15558634Y-13617074D02*
X15577682Y-13607550D01*
X15577682Y-13607550D02*
X15606253Y-13607550D01*
X15606253Y-13607550D02*
X15625301Y-13617074D01*
X15625301Y-13617074D02*
X15634825Y-13626598D01*
X15634825Y-13626598D02*
X15644349Y-13645646D01*
X15644349Y-13645646D02*
X15644349Y-13702788D01*
X15644349Y-13702788D02*
X15634825Y-13721836D01*
X15634825Y-13721836D02*
X15625301Y-13731360D01*
X15625301Y-13731360D02*
X15606253Y-13740884D01*
X15606253Y-13740884D02*
X15577682Y-13740884D01*
X15701492Y-13607550D02*
X15777682Y-13607550D01*
X15730063Y-13540884D02*
X15730063Y-13712312D01*
X15730063Y-13712312D02*
X15739587Y-13731360D01*
X15739587Y-13731360D02*
X15758634Y-13740884D01*
X15758634Y-13740884D02*
X15777682Y-13740884D01*
X15996730Y-13607550D02*
X15996730Y-13807550D01*
X15996730Y-13617074D02*
X16015777Y-13607550D01*
X16015777Y-13607550D02*
X16053873Y-13607550D01*
X16053873Y-13607550D02*
X16072920Y-13617074D01*
X16072920Y-13617074D02*
X16082444Y-13626598D01*
X16082444Y-13626598D02*
X16091968Y-13645646D01*
X16091968Y-13645646D02*
X16091968Y-13702788D01*
X16091968Y-13702788D02*
X16082444Y-13721836D01*
X16082444Y-13721836D02*
X16072920Y-13731360D01*
X16072920Y-13731360D02*
X16053873Y-13740884D01*
X16053873Y-13740884D02*
X16015777Y-13740884D01*
X16015777Y-13740884D02*
X15996730Y-13731360D01*
X16206253Y-13740884D02*
X16187206Y-13731360D01*
X16187206Y-13731360D02*
X16177682Y-13712312D01*
X16177682Y-13712312D02*
X16177682Y-13540884D01*
X16368158Y-13740884D02*
X16368158Y-13636122D01*
X16368158Y-13636122D02*
X16358634Y-13617074D01*
X16358634Y-13617074D02*
X16339587Y-13607550D01*
X16339587Y-13607550D02*
X16301492Y-13607550D01*
X16301492Y-13607550D02*
X16282444Y-13617074D01*
X16368158Y-13731360D02*
X16349111Y-13740884D01*
X16349111Y-13740884D02*
X16301492Y-13740884D01*
X16301492Y-13740884D02*
X16282444Y-13731360D01*
X16282444Y-13731360D02*
X16272920Y-13712312D01*
X16272920Y-13712312D02*
X16272920Y-13693265D01*
X16272920Y-13693265D02*
X16282444Y-13674217D01*
X16282444Y-13674217D02*
X16301492Y-13664693D01*
X16301492Y-13664693D02*
X16349111Y-13664693D01*
X16349111Y-13664693D02*
X16368158Y-13655169D01*
X16434825Y-13607550D02*
X16511015Y-13607550D01*
X16463396Y-13540884D02*
X16463396Y-13712312D01*
X16463396Y-13712312D02*
X16472920Y-13731360D01*
X16472920Y-13731360D02*
X16491968Y-13740884D01*
X16491968Y-13740884D02*
X16511015Y-13740884D01*
X16653873Y-13731360D02*
X16634825Y-13740884D01*
X16634825Y-13740884D02*
X16596730Y-13740884D01*
X16596730Y-13740884D02*
X16577682Y-13731360D01*
X16577682Y-13731360D02*
X16568158Y-13712312D01*
X16568158Y-13712312D02*
X16568158Y-13636122D01*
X16568158Y-13636122D02*
X16577682Y-13617074D01*
X16577682Y-13617074D02*
X16596730Y-13607550D01*
X16596730Y-13607550D02*
X16634825Y-13607550D01*
X16634825Y-13607550D02*
X16653873Y-13617074D01*
X16653873Y-13617074D02*
X16663396Y-13636122D01*
X16663396Y-13636122D02*
X16663396Y-13655169D01*
X16663396Y-13655169D02*
X16568158Y-13674217D01*
X16834825Y-13740884D02*
X16834825Y-13540884D01*
X16834825Y-13731360D02*
X16815777Y-13740884D01*
X16815777Y-13740884D02*
X16777682Y-13740884D01*
X16777682Y-13740884D02*
X16758634Y-13731360D01*
X16758634Y-13731360D02*
X16749111Y-13721836D01*
X16749111Y-13721836D02*
X16739587Y-13702788D01*
X16739587Y-13702788D02*
X16739587Y-13645646D01*
X16739587Y-13645646D02*
X16749111Y-13626598D01*
X16749111Y-13626598D02*
X16758634Y-13617074D01*
X16758634Y-13617074D02*
X16777682Y-13607550D01*
X16777682Y-13607550D02*
X16815777Y-13607550D01*
X16815777Y-13607550D02*
X16834825Y-13617074D01*
X16911016Y-13817074D02*
X16920539Y-13807550D01*
X16920539Y-13807550D02*
X16939587Y-13778979D01*
X16939587Y-13778979D02*
X16949111Y-13759931D01*
X16949111Y-13759931D02*
X16958635Y-13731360D01*
X16958635Y-13731360D02*
X16968158Y-13683741D01*
X16968158Y-13683741D02*
X16968158Y-13645646D01*
X16968158Y-13645646D02*
X16958635Y-13598027D01*
X16958635Y-13598027D02*
X16949111Y-13569455D01*
X16949111Y-13569455D02*
X16939587Y-13550408D01*
X16939587Y-13550408D02*
X16920539Y-13521836D01*
X16920539Y-13521836D02*
X16911016Y-13512312D01*
M02*
